<svg width="29" height="21" viewBox="0 0 29 21" fill="none" xmlns="http://www.w3.org/2000/svg">
<path d="M6.48017 1.49902C5.755 2.52758 4.81059 3.40994 4.30677 4.56155C4.12581 4.97516 4.06571 5.42401 3.87318 5.82388C3.6773 6.23071 3.44223 6.70735 3.2969 7.13012C3.00979 7.96535 2.33634 8.61761 1.8754 9.34195C1.60426 9.76803 1.15615 10.4314 0.739305 10.736C0.52703 10.8911 -0.0420847 11.6363 0.209674 11.6992C0.795908 11.8458 1.29327 12.1576 1.81503 12.4648C2.53254 12.8874 3.24717 13.2062 3.8869 13.7464C4.69573 14.4294 5.65552 14.9159 6.44724 15.6234C7.06797 16.1781 7.60716 16.8208 8.23646 17.3715C8.77981 17.8469 9.43426 18.1974 9.98726 18.664C10.028 18.6984 10.4217 19.0291 10.3742 19.1003C10.3252 19.1738 9.7383 18.42 9.69089 18.3429" stroke="#00ADB5" stroke-opacity="0.2" stroke-width="1.28667" stroke-linecap="round" stroke-linejoin="round"/>
<path d="M19.0267 0.659424C17.8704 3.40712 16.6062 6.10635 15.4592 8.85909C14.7478 10.5666 14.1497 12.2926 13.5438 14.0429C13.0675 15.4187 12.4775 16.7613 11.9631 18.1208C11.7845 18.5929 11.6617 19.075 11.557 19.567C11.3856 20.3723 11.4031 19.4345 11.4198 19.084" stroke="#00ADB5" stroke-opacity="0.2" stroke-width="1.28667" stroke-linecap="round" stroke-linejoin="round"/>
<path d="M21.5952 0.0666504C22.602 1.21355 23.566 2.36747 24.6358 3.45299C25.5101 4.34013 25.8969 5.62206 26.3866 6.73506C26.8948 7.89002 27.4034 8.84645 28.1538 9.84698C28.2426 9.96535 28.5051 10.2584 28.5051 10.4123C28.5051 10.4862 28.151 10.4842 28.0935 10.4919C27.8979 10.5179 27.6647 10.6837 27.5007 10.7855C24.5264 12.6316 22.5155 15.3 20.7665 18.2552C20.4676 18.7602 20.2462 19.4909 19.8142 19.8798C19.5353 20.1308 19.3078 20.4609 18.9772 20.6262C18.6663 20.7816 18.8868 20.2316 18.9278 19.9237" stroke="#00ADB5" stroke-opacity="0.2" stroke-width="1.28667" stroke-linecap="round" stroke-linejoin="round"/>
</svg>
