<svg width="38" height="27" viewBox="0 0 38 27" fill="none" xmlns="http://www.w3.org/2000/svg">
<path d="M9.04109 2.16516C8.10362 3.49483 6.88275 4.63549 6.23142 6.12423C5.9975 6.65892 5.9198 7.23917 5.67091 7.75611C5.41769 8.28203 5.11379 8.89821 4.92592 9.44474C4.55476 10.5245 3.68417 11.3677 3.08829 12.3041C2.73777 12.8549 2.15848 13.7124 1.6196 14.1062C1.34518 14.3068 0.609464 15.2701 0.934924 15.3514C1.69278 15.5409 2.33574 15.944 3.01024 16.3412C3.9378 16.8874 4.86163 17.2995 5.68865 17.9979C6.73426 18.8809 7.97502 19.5098 8.99851 20.4244C9.80096 21.1415 10.498 21.9724 11.3115 22.6842C12.0139 23.2988 12.86 23.7519 13.5749 24.3551C13.6276 24.3996 14.1365 24.8271 14.0751 24.9192C14.0117 25.0142 13.253 24.0396 13.1917 23.94" stroke="#00ADB5" stroke-opacity="0.5" stroke-width="1.66333" stroke-linecap="round" stroke-linejoin="round"/>
<path d="M25.2606 1.07959C23.7658 4.63166 22.1315 8.12108 20.6488 11.6797C19.729 13.887 18.9558 16.1183 18.1726 18.381C17.5569 20.1596 16.7942 21.8952 16.1292 23.6527C15.8982 24.263 15.7395 24.8862 15.6041 25.5222C15.3826 26.5633 15.4052 25.351 15.4268 24.8979" stroke="#00ADB5" stroke-opacity="0.5" stroke-width="1.66333" stroke-linecap="round" stroke-linejoin="round"/>
<path d="M28.5811 0.313354C29.8827 1.79601 31.1288 3.28773 32.5118 4.69104C33.642 5.83788 34.142 7.49509 34.7751 8.93391C35.4321 10.427 36.0897 11.6634 37.0598 12.9568C37.1745 13.1099 37.5138 13.4888 37.5138 13.6876C37.5138 13.7832 37.056 13.7806 36.9817 13.7905C36.7288 13.8242 36.4274 14.0385 36.2154 14.1701C32.3704 16.5567 29.7708 20.0062 27.5097 23.8265C27.1234 24.4794 26.8372 25.424 26.2787 25.9267C25.9182 26.2512 25.624 26.678 25.1967 26.8916C24.7948 27.0926 25.0798 26.3815 25.1329 25.9835" stroke="#00ADB5" stroke-opacity="0.5" stroke-width="1.66333" stroke-linecap="round" stroke-linejoin="round"/>
</svg>
