<svg width="38" height="28" viewBox="0 0 38 28" fill="none" xmlns="http://www.w3.org/2000/svg">
<path d="M8.98103 2.28833C8.04357 3.61799 6.82269 4.75866 6.17136 6.2474C5.93744 6.78209 5.85975 7.36234 5.61085 7.87928C5.35763 8.4052 5.05373 9.02138 4.86586 9.56791C4.4947 10.6477 3.62411 11.4909 3.02823 12.4272C2.67771 12.9781 2.09842 13.8356 1.55954 14.2294C1.28513 14.4299 0.549405 15.3932 0.874866 15.4746C1.63272 15.6641 2.27568 16.0671 2.95018 16.4644C3.87774 17.0106 4.80157 17.4227 5.62859 18.1211C6.6742 19.004 7.91496 19.633 8.93846 20.5476C9.74091 21.2647 10.4379 22.0955 11.2515 22.8074C11.9539 23.422 12.7999 23.8751 13.5148 24.4783C13.5675 24.5227 14.0764 24.9502 14.015 25.0423C13.9517 25.1374 13.193 24.1628 13.1317 24.0632" stroke="#00ADB5" stroke-opacity="0.5" stroke-width="1.66333" stroke-linecap="round" stroke-linejoin="round"/>
<path d="M25.2005 1.20288C23.7058 4.75495 22.0715 8.24438 20.5887 11.803C19.669 14.0103 18.8957 16.2416 18.1125 18.5043C17.4968 20.2829 16.7341 22.0185 16.0691 23.776C15.8382 24.3863 15.6794 25.0095 15.5441 25.6455C15.3226 26.6866 15.3451 25.4743 15.3667 25.0212" stroke="#00ADB5" stroke-opacity="0.5" stroke-width="1.66333" stroke-linecap="round" stroke-linejoin="round"/>
<path d="M28.521 0.436523C29.8226 1.91918 31.0688 3.4109 32.4517 4.81421C33.5819 5.96104 34.082 7.61826 34.7151 9.05708C35.372 10.5502 36.0296 11.7866 36.9997 13.08C37.1145 13.233 37.4538 13.6119 37.4538 13.8108C37.4538 13.9064 36.996 13.9038 36.9216 13.9137C36.6688 13.9474 36.3674 14.1617 36.1554 14.2933C32.3103 16.6799 29.7107 20.1294 27.4497 23.9497C27.0633 24.6025 26.7772 25.5472 26.2187 26.0499C25.8581 26.3744 25.564 26.8012 25.1367 27.0148C24.7348 27.2157 25.0197 26.5046 25.0728 26.1066" stroke="#00ADB5" stroke-opacity="0.5" stroke-width="1.66333" stroke-linecap="round" stroke-linejoin="round"/>
</svg>
