<svg width="30" height="21" viewBox="0 0 30 21" fill="none" xmlns="http://www.w3.org/2000/svg">
<path d="M7.2801 1.81909C6.55493 2.84765 5.61052 3.73001 5.10669 4.88162C4.92574 5.29522 4.86564 5.74408 4.67311 6.14395C4.47723 6.55078 4.24215 7.02742 4.09683 7.45019C3.80972 8.28542 3.13627 8.93768 2.67533 9.66202C2.40419 10.0881 1.95608 10.7515 1.53923 11.0561C1.32696 11.2112 0.757842 11.9563 1.0096 12.0193C1.59583 12.1658 2.0932 12.4777 2.61496 12.7849C3.33246 13.2074 4.04709 13.5262 4.68683 14.0665C5.49566 14.7495 6.45544 15.236 7.24717 15.9435C7.8679 16.4982 8.40708 17.1409 9.03639 17.6915C9.57973 18.167 10.2342 18.5175 10.7872 18.9841C10.828 19.0185 11.2216 19.3492 11.1741 19.4204C11.1251 19.4939 10.5382 18.74 10.4908 18.663" stroke="#00ADB5" stroke-opacity="0.2" stroke-width="1.28667" stroke-linecap="round" stroke-linejoin="round"/>
<path d="M19.8266 0.979492C18.6704 3.72718 17.4061 6.42642 16.2592 9.17916C15.5477 10.8866 14.9496 12.6127 14.3437 14.363C13.8675 15.7388 13.2775 17.0814 12.7631 18.4408C12.5844 18.913 12.4616 19.395 12.3569 19.887C12.1856 20.6924 12.203 19.7546 12.2197 19.4041" stroke="#00ADB5" stroke-opacity="0.2" stroke-width="1.28667" stroke-linecap="round" stroke-linejoin="round"/>
<path d="M22.395 0.386719C23.4018 1.53362 24.3658 2.68754 25.4356 3.77306C26.3099 4.6602 26.6967 5.94213 27.1864 7.05513C27.6946 8.21009 28.2032 9.16652 28.9536 10.167C29.0424 10.2854 29.3049 10.5785 29.3049 10.7324C29.3049 10.8063 28.9508 10.8043 28.8933 10.8119C28.6977 10.838 28.4645 11.0038 28.3005 11.1056C25.3262 12.9517 23.3153 15.6201 21.5663 18.5753C21.2674 19.0803 21.0461 19.811 20.614 20.1998C20.3351 20.4509 20.1076 20.781 19.777 20.9463C19.4662 21.1017 19.6866 20.5516 19.7276 20.2438" stroke="#00ADB5" stroke-opacity="0.2" stroke-width="1.28667" stroke-linecap="round" stroke-linejoin="round"/>
</svg>
