<svg width="38" height="28" viewBox="0 0 38 28" fill="none" xmlns="http://www.w3.org/2000/svg">
<path d="M8.99433 2.46509C8.05687 3.79475 6.83599 4.93542 6.18467 6.42416C5.95074 6.95885 5.87305 7.5391 5.62416 8.05603C5.37093 8.58196 5.06704 9.19814 4.87917 9.74467C4.50801 10.8244 3.63742 11.6676 3.04154 12.604C2.69101 13.1548 2.11173 14.0124 1.57285 14.4062C1.29843 14.6067 0.562711 15.57 0.888171 15.6513C1.64602 15.8408 2.28899 16.2439 2.96349 16.6411C3.89104 17.1873 4.81488 17.5995 5.64189 18.2978C6.68751 19.1808 7.92826 19.8097 8.95176 20.7244C9.75421 21.4414 10.4512 22.2723 11.2648 22.9841C11.9672 23.5988 12.8132 24.0519 13.5281 24.655C13.5808 24.6995 14.0897 25.127 14.0283 25.2191C13.965 25.3141 13.2063 24.3396 13.145 24.24" stroke="#00ADB5" stroke-opacity="0.5" stroke-width="1.66333" stroke-linecap="round" stroke-linejoin="round"/>
<path d="M25.2138 1.37952C23.7191 4.93159 22.0848 8.42101 20.602 11.9796C19.6823 14.1869 18.9091 16.4183 18.1258 18.6809C17.5101 20.4595 16.7474 22.1952 16.0824 23.9526C15.8515 24.5629 15.6927 25.1861 15.5574 25.8222C15.3359 26.8633 15.3584 25.651 15.38 25.1978" stroke="#00ADB5" stroke-opacity="0.5" stroke-width="1.66333" stroke-linecap="round" stroke-linejoin="round"/>
<path d="M28.5343 0.613281C29.8359 2.09594 31.0821 3.58766 32.465 4.99096C33.5953 6.1378 34.0953 7.79502 34.7284 9.23384C35.3853 10.7269 36.0429 11.9633 37.013 13.2568C37.1278 13.4098 37.4671 13.7887 37.4671 13.9876C37.4671 14.0832 37.0093 14.0805 36.935 14.0904C36.6821 14.1242 36.3807 14.3384 36.1687 14.47C32.3236 16.8566 29.724 20.3061 27.463 24.1265C27.0766 24.7793 26.7905 25.724 26.232 26.2266C25.8714 26.5511 25.5773 26.9779 25.15 27.1916C24.7481 27.3925 25.0331 26.6814 25.0861 26.2834" stroke="#00ADB5" stroke-opacity="0.5" stroke-width="1.66333" stroke-linecap="round" stroke-linejoin="round"/>
</svg>
