<svg width="29" height="22" viewBox="0 0 29 22" fill="none" xmlns="http://www.w3.org/2000/svg">
<path d="M6.62678 2.01904C5.90161 3.0476 4.9572 3.92996 4.45337 5.08157C4.27242 5.49518 4.21232 5.94403 4.01979 6.3439C3.82391 6.75073 3.58883 7.22737 3.44351 7.65014C3.1564 8.48537 2.48295 9.13763 2.02201 9.86197C1.75087 10.2881 1.30276 10.9514 0.885911 11.256C0.673637 11.4111 0.104522 12.1563 0.356281 12.2192C0.942514 12.3658 1.43988 12.6776 1.96164 12.9849C2.67914 13.4074 3.39377 13.7262 4.03351 14.2664C4.84234 14.9494 5.80212 15.4359 6.59385 16.1434C7.21458 16.6981 7.75376 17.3409 8.38307 17.8915C8.92641 18.3669 9.58087 18.7174 10.1339 19.184C10.1746 19.2184 10.5683 19.5491 10.5208 19.6203C10.4718 19.6938 9.8849 18.94 9.83749 18.8629" stroke="#00ADB5" stroke-opacity="0.2" stroke-width="1.28667" stroke-linecap="round" stroke-linejoin="round"/>
<path d="M19.1733 1.17944C18.017 3.92714 16.7528 6.62637 15.6058 9.37911C14.8944 11.0866 14.2963 12.8126 13.6904 14.5629C13.2141 15.9387 12.6241 17.2813 12.1097 18.6408C11.9311 19.1129 11.8083 19.595 11.7036 20.087C11.5322 20.8923 11.5497 19.9546 11.5664 19.604" stroke="#00ADB5" stroke-opacity="0.2" stroke-width="1.28667" stroke-linecap="round" stroke-linejoin="round"/>
<path d="M21.7417 0.58667C22.7486 1.73357 23.7125 2.88749 24.7823 3.97301C25.6566 4.86015 26.0434 6.14208 26.5331 7.25508C27.0413 8.41004 27.55 9.36647 28.3004 10.367C28.3892 10.4854 28.6516 10.7785 28.6516 10.9323C28.6516 11.0063 28.2975 11.0042 28.24 11.0119C28.0444 11.038 27.8113 11.2037 27.6473 11.3055C24.6729 13.1517 22.662 15.82 20.913 18.7752C20.6141 19.2802 20.3928 20.011 19.9608 20.3998C19.6819 20.6508 19.4543 20.981 19.1238 21.1462C18.8129 21.3017 19.0333 20.7516 19.0744 20.4437" stroke="#00ADB5" stroke-opacity="0.2" stroke-width="1.28667" stroke-linecap="round" stroke-linejoin="round"/>
</svg>
