<svg width="29" height="21" viewBox="0 0 29 21" fill="none" xmlns="http://www.w3.org/2000/svg">
<path d="M6.44026 1.54565C5.71508 2.57421 4.77068 3.45657 4.26685 4.60818C4.0859 5.02179 4.0258 5.47064 3.83326 5.87051C3.63739 6.27734 3.40231 6.75398 3.25698 7.17675C2.96987 8.01198 2.29643 8.66424 1.83549 9.38858C1.56434 9.81466 1.11623 10.478 0.699388 10.7826C0.487113 10.9378 -0.0820017 11.6829 0.169757 11.7458C0.755991 11.8924 1.25335 12.2042 1.77511 12.5115C2.49262 12.934 3.20725 13.2528 3.84699 13.793C4.65582 14.476 5.6156 14.9626 6.40732 15.6701C7.02806 16.2248 7.56724 16.8675 8.19654 17.4181C8.73989 17.8935 9.39435 18.244 9.94734 18.7106C9.98811 18.745 10.3818 19.0757 10.3343 19.147C10.2853 19.2205 9.69838 18.4666 9.65097 18.3896" stroke="#00ADB5" stroke-opacity="0.2" stroke-width="1.28667" stroke-linecap="round" stroke-linejoin="round"/>
<path d="M18.9867 0.706055C17.8305 3.45375 16.5662 6.15298 15.4193 8.90572C14.7078 10.6132 14.1097 12.3392 13.5038 14.0895C13.0276 15.4654 12.4375 16.8079 11.9232 18.1674C11.7445 18.6395 11.6217 19.1216 11.517 19.6136C11.3457 20.4189 11.3631 19.4812 11.3798 19.1306" stroke="#00ADB5" stroke-opacity="0.2" stroke-width="1.28667" stroke-linecap="round" stroke-linejoin="round"/>
<path d="M21.5552 0.113281C22.562 1.26018 23.5259 2.4141 24.5957 3.49962C25.47 4.38676 25.8568 5.66869 26.3465 6.78169C26.8547 7.93665 27.3634 8.89308 28.1138 9.89361C28.2026 10.012 28.4651 10.3051 28.4651 10.4589C28.4651 10.5329 28.1109 10.5308 28.0534 10.5385C27.8578 10.5646 27.6247 10.7303 27.4607 10.8321C24.4863 12.6783 22.4754 15.3466 20.7264 18.3018C20.4275 18.8068 20.2062 19.5376 19.7742 19.9264C19.4953 20.1774 19.2677 20.5076 18.9372 20.6728C18.6263 20.8283 18.8467 20.2782 18.8878 19.9703" stroke="#00ADB5" stroke-opacity="0.2" stroke-width="1.28667" stroke-linecap="round" stroke-linejoin="round"/>
</svg>
