<svg width="38" height="28" viewBox="0 0 38 28" fill="none" xmlns="http://www.w3.org/2000/svg">
<path d="M8.84101 2.78516C7.90355 4.11482 6.68267 5.25549 6.03135 6.74423C5.79742 7.27891 5.71973 7.85917 5.47084 8.3761C5.21761 8.90202 4.91372 9.5182 4.72585 10.0647C4.35469 11.1445 3.4841 11.9877 2.88822 12.9241C2.53769 13.4749 1.95841 14.3324 1.41953 14.7262C1.14511 14.9268 0.409391 15.8901 0.734851 15.9714C1.4927 16.1609 2.13567 16.564 2.81017 16.9612C3.73772 17.5074 4.66156 17.9195 5.48857 18.6179C6.53419 19.5009 7.77494 20.1298 8.79844 21.0444C9.60089 21.7615 10.2979 22.5924 11.1114 23.3042C11.8139 23.9188 12.6599 24.3719 13.3748 24.9751C13.4275 25.0196 13.9364 25.4471 13.875 25.5392C13.8116 25.6342 13.0529 24.6596 12.9917 24.56" stroke="#00ADB5" stroke-opacity="0.5" stroke-width="1.66333" stroke-linecap="round" stroke-linejoin="round"/>
<path d="M25.0606 1.69958C23.5659 5.25165 21.9316 8.74108 20.4488 12.2997C19.5291 14.507 18.7559 16.7383 17.9726 19.001C17.3569 20.7796 16.5942 22.5152 15.9292 24.2727C15.6983 24.883 15.5395 25.5062 15.4042 26.1422C15.1827 27.1833 15.2052 25.971 15.2268 25.5179" stroke="#00ADB5" stroke-opacity="0.5" stroke-width="1.66333" stroke-linecap="round" stroke-linejoin="round"/>
<path d="M28.381 0.93335C29.6826 2.416 30.9287 3.90773 32.3117 5.31103C33.4419 6.45787 33.942 8.11509 34.5751 9.55391C35.232 11.047 35.8896 12.2834 36.8597 13.5768C36.9744 13.7299 37.3138 14.1087 37.3138 14.3076C37.3138 14.4032 36.8559 14.4006 36.7816 14.4105C36.5288 14.4442 36.2274 14.6585 36.0154 14.7901C32.1703 17.1767 29.5707 20.6262 27.3097 24.4465C26.9233 25.0994 26.6372 26.044 26.0787 26.5467C25.7181 26.8712 25.424 27.298 24.9967 27.5116C24.5948 27.7126 24.8797 27.0015 24.9328 26.6035" stroke="#00ADB5" stroke-opacity="0.5" stroke-width="1.66333" stroke-linecap="round" stroke-linejoin="round"/>
</svg>
