<svg width="34" height="37" viewBox="0 0 34 37" fill="none" xmlns="http://www.w3.org/2000/svg">
<path d="M14.1027 5.77992C8.96417 6.76633 5.22843 8.24985 1.97159 12.4372C-0.0923736 15.0909 0.360173 19.2678 1.7127 22.0811C3.94125 26.7165 9.41901 29.334 14.3616 29.5613C20.1192 29.826 28.1233 28.1341 29.3035 21.2674C29.9362 17.5863 26.4194 14.106 24.7728 11.0873C23.4333 8.63146 21.4161 5.32087 18.5964 4.28202C17.4454 3.85797 14.7737 4.00519 13.9362 5.15117C13.5621 5.66312 13.0806 6.20348 12.8082 6.77851C12.5875 7.24443 12.8244 5.59291 12.7712 5.11419" stroke="#00ADB5" stroke-opacity="0.2" stroke-width="1.28667" stroke-linecap="round" stroke-linejoin="round"/>
<path d="M16.2663 18.429C14.8797 19.1415 12.6295 19.6139 13.8438 21.1751C14.1205 21.5308 14.5153 21.5114 14.8516 21.1751C15.1391 20.8876 16.5887 19.3778 15.5173 19.0207C13.3335 18.2928 14.132 22.6504 15.693 20.722C16.5314 19.6864 15.3579 18.667 14.3061 19.2981C13.0529 20.05 14.0443 21.363 15.0273 20.2227C15.7681 19.3634 15.1766 18.705 14.3708 19.5108C13.6491 20.2325 14.3822 21.3837 15.092 20.4077C15.82 19.4066 14.9899 18.5588 14.1119 19.4368C13.0956 20.4531 14.1957 20.3464 14.9163 19.6772C15.6429 19.0025 14.3544 19.1021 13.9362 19.631C12.965 20.8594 14.4864 20.6847 14.7314 19.631C15.0914 18.0831 13.4945 21.6394 14.2691 18.9283" stroke="#00ADB5" stroke-opacity="0.2" stroke-width="1.28667" stroke-linecap="round" stroke-linejoin="round"/>
<path d="M10.6076 13.2695C12.0859 15.2203 13.6011 17.0701 14.8424 19.0207C15.1864 19.5613 14.9118 20.1038 15.1013 20.0933C15.8016 20.0544 16.5189 19.9268 17.2649 19.9268C18.9721 19.9268 20.3166 19.0947 21.962 19.0947C23.9545 19.0947 26.8818 18.5773 23.5893 16.931" stroke="#00ADB5" stroke-opacity="0.2" stroke-width="1.28667" stroke-linecap="round" stroke-linejoin="round"/>
<path d="M8.94331 5.61361C8.63248 4.04004 7.11322 0.225785 9.9419 0.629882C10.9569 0.774882 11.6379 1.82493 12.235 2.48838C13.7884 4.21445 13.6223 6.29781 11.1069 6.44577C10.448 6.48453 9.52032 7.79116 8.77688 6.86186C7.9351 5.80964 8.79445 5.88035 8.94331 4.61502C9.04071 3.78715 8.50053 3.85585 8.26833 3.04315C8.09021 2.41972 8.4602 1.73709 8.61044 1.28637" stroke="#00ADB5" stroke-opacity="0.2" stroke-width="1.28667" stroke-linecap="round" stroke-linejoin="round"/>
<path d="M9.94201 3.78279C9.92719 4.18032 9.31421 7.76241 10.617 7.17616C11.0532 6.97985 11.4299 6.69448 11.6063 6.24229C11.7773 5.80413 11.5956 5.54239 11.4029 5.11425C10.9065 4.01116 9.46655 2.29669 9.90502 4.78138C10.1817 6.34912 11.9325 5.98275 12.0686 4.4855C12.1726 3.34212 10.7308 1.81029 9.81256 3.11706C9.16305 4.04136 10.3198 6.07963 10.9961 4.65193C11.3395 3.92702 10.5184 2.0842 9.64613 2.98761C8.7518 3.91387 10.0959 5.86778 10.9776 5.07726C11.8494 4.29561 11.2569 1.91118 10.3119 2.82118C9.44745 3.65357 10.7444 5.30993 11.4029 4.04168C12.1374 2.62702 10.5193 1.56108 10.016 3.04309C9.56663 4.36616 10.9678 5.78925 11.292 3.9862C11.5387 2.6138 9.01738 1.8841 9.01738 3.52389C9.01738 5.03451 10.3673 4.87996 10.3673 3.5054C10.3673 2.0727 8.9246 2.39521 9.52592 3.59786C10.1273 4.80058 10.9334 2.66602 10.2564 1.98901C9.46609 1.19872 8.41986 2.42055 9.35025 3.18178C9.98444 3.70067 10.8515 1.54761 9.78482 1.14761C8.8636 0.802147 9.37313 2.68279 9.69236 2.25716C10.1872 1.59738 9.42868 1.15566 9.95125 1.2863C10.4118 1.40143 11.5307 1.64747 11.8467 2.05374C12.0955 2.37353 13.1042 4.15298 13.1042 4.61495C13.1042 6.02869 10.942 6.79085 9.7016 6.43646C8.81139 6.18212 8.54798 6.81104 8.86019 6.60289C9.61752 6.09801 9.77557 4.78118 9.77557 5.28068" stroke="#00ADB5" stroke-opacity="0.2" stroke-width="1.28667" stroke-linecap="round" stroke-linejoin="round"/>
<path d="M9.77538 29.4136C8.91843 31.2317 8.15788 33.0583 7.14944 34.7764C6.92233 35.1633 6.49682 35.9529 6.44673 36.4037C6.31181 37.6179 7.53142 33.5079 7.77819 32.9087" stroke="#00ADB5" stroke-opacity="0.2" stroke-width="1.28667" stroke-linecap="round" stroke-linejoin="round"/>
<path d="M26.5851 25.9185C28.6929 28.58 31.017 30.478 32.6599 33.3987C32.8217 33.6863 33.1021 33.9149 33.3256 34.1384C34.0733 34.8861 31.9377 32.5427 31.2452 31.7436" stroke="#00ADB5" stroke-opacity="0.2" stroke-width="1.28667" stroke-linecap="round" stroke-linejoin="round"/>
</svg>
