<svg width="44" height="47" viewBox="0 0 44 47" fill="none" xmlns="http://www.w3.org/2000/svg">
<path d="M18.0474 7.09639C11.4046 8.37157 6.57522 10.2894 2.36495 15.7026C-0.303232 19.1331 0.281795 24.5328 2.03027 28.1696C4.91122 34.162 11.9926 37.5459 18.382 37.8396C25.8251 38.1819 36.1725 35.9947 37.6982 27.1178C38.5161 22.359 33.9698 17.8599 31.8412 13.9574C30.1095 10.7827 27.5017 6.50296 23.8565 5.16C22.3686 4.61181 18.9148 4.80212 17.8322 6.28359C17.3486 6.94541 16.7261 7.64395 16.3739 8.38732C16.0886 8.98964 16.3949 6.85464 16.3261 6.23577" stroke="#00ADB5" stroke-opacity="0.5" stroke-width="1.66333" stroke-linecap="round" stroke-linejoin="round"/>
<path d="M20.8443 23.4481C19.0517 24.3693 16.1429 24.98 17.7126 26.9982C18.0702 27.458 18.5807 27.4329 19.0155 26.9982C19.3871 26.6265 21.2611 24.6748 19.8761 24.2131C17.0529 23.2721 18.0851 28.9054 20.1032 26.4125C21.187 25.0736 19.6699 23.7559 18.3102 24.5717C16.6902 25.5437 17.9718 27.2411 19.2426 25.767C20.2002 24.6561 19.4355 23.805 18.3939 24.8466C17.4609 25.7796 18.4086 27.2678 19.3262 26.0061C20.2674 24.712 19.1942 23.616 18.0592 24.751C16.7454 26.0648 18.1675 25.9269 19.0991 25.0618C20.0384 24.1896 18.3727 24.3184 17.8321 25.002C16.5765 26.59 18.5433 26.3642 18.8601 25.002C19.3254 23.001 17.261 27.5984 18.2624 24.0936" stroke="#00ADB5" stroke-opacity="0.5" stroke-width="1.66333" stroke-linecap="round" stroke-linejoin="round"/>
<path d="M13.5292 16.7783C15.4403 19.3002 17.399 21.6915 19.0037 24.2131C19.4484 24.9119 19.0934 25.6133 19.3384 25.5997C20.2437 25.5494 21.1709 25.3845 22.1354 25.3845C24.3423 25.3845 26.0805 24.3087 28.2075 24.3087C30.7833 24.3087 34.5675 23.6399 30.3113 21.5117" stroke="#00ADB5" stroke-opacity="0.5" stroke-width="1.66333" stroke-linecap="round" stroke-linejoin="round"/>
<path d="M11.3774 6.88123C10.9756 4.847 9.01155 -0.0838667 12.6683 0.438529C13.9805 0.625976 14.8608 1.98342 15.6327 2.84109C17.6409 5.07247 17.4261 7.76572 14.1744 7.957C13.3226 8.00711 12.1233 9.69624 11.1622 8.49489C10.074 7.13464 11.1849 7.22605 11.3774 5.5903C11.5033 4.52007 10.805 4.60889 10.5048 3.55828C10.2746 2.75234 10.7529 1.86987 10.9471 1.2872" stroke="#00ADB5" stroke-opacity="0.5" stroke-width="1.66333" stroke-linecap="round" stroke-linejoin="round"/>
<path d="M12.6683 4.51458C12.6492 5.02849 11.8567 9.65922 13.5409 8.90135C14.1048 8.64758 14.5918 8.27867 14.8199 7.69409C15.0409 7.12766 14.806 6.7893 14.5569 6.23582C13.9152 4.80981 12.0537 2.59343 12.6205 5.80551C12.9782 7.8322 15.2416 7.35858 15.4175 5.42301C15.5519 3.94491 13.6881 1.96464 12.501 3.65396C11.6613 4.84885 13.1567 7.48382 14.031 5.63817C14.4749 4.70104 13.4134 2.31874 12.2858 3.48662C11.1297 4.68404 12.8672 7.20995 14.0071 6.18801C15.1341 5.17753 14.3681 2.09506 13.1465 3.27146C12.029 4.34753 13.7056 6.48878 14.5569 4.84927C15.5065 3.02047 13.4146 1.64248 12.764 3.55834C12.1831 5.26873 13.9944 7.10843 14.4135 4.77755C14.7324 3.00337 11.473 2.06006 11.473 4.17989C11.473 6.13275 13.2182 5.93295 13.2182 4.15599C13.2182 2.30387 11.3531 2.72079 12.1304 4.27552C12.9078 5.83033 13.9499 3.07089 13.0747 2.19569C12.0531 1.17404 10.7006 2.75356 11.9033 3.73763C12.7232 4.40842 13.8441 1.62506 12.4651 1.10796C11.2742 0.661369 11.9329 3.09256 12.3456 2.54233C12.9853 1.6894 12.0047 1.11837 12.6803 1.28726C13.2756 1.43609 14.7222 1.75415 15.1307 2.27936C15.4522 2.69277 16.7563 4.99315 16.7563 5.59036C16.7563 7.41796 13.961 8.40325 12.3576 7.94511C11.2067 7.6163 10.8662 8.42934 11.2698 8.16026C12.2488 7.50758 12.4532 5.80524 12.4532 6.45098" stroke="#00ADB5" stroke-opacity="0.5" stroke-width="1.66333" stroke-linecap="round" stroke-linejoin="round"/>
<path d="M12.4531 37.6484C11.3453 39.9988 10.3621 42.3602 9.05845 44.5812C8.76486 45.0814 8.21478 46.1021 8.15002 46.6849C7.97562 48.2546 9.55226 42.9414 9.87126 42.1667" stroke="#00ADB5" stroke-opacity="0.5" stroke-width="1.66333" stroke-linecap="round" stroke-linejoin="round"/>
<path d="M34.184 33.1302C36.9088 36.571 39.9133 39.0246 42.0371 42.8003C42.2463 43.1721 42.6088 43.4676 42.8977 43.7565C43.8643 44.7231 41.1036 41.6937 40.2083 40.6607" stroke="#00ADB5" stroke-opacity="0.5" stroke-width="1.66333" stroke-linecap="round" stroke-linejoin="round"/>
</svg>
