<svg width="44" height="48" viewBox="0 0 44 48" fill="none" xmlns="http://www.w3.org/2000/svg">
<path d="M18.074 7.50643C11.4312 8.7816 6.60183 10.6994 2.39156 16.1126C-0.276621 19.5431 0.308406 24.9428 2.05688 28.5797C4.93783 34.572 12.0192 37.9559 18.4087 38.2497C25.8518 38.5919 36.1991 36.4048 37.7248 27.5278C38.5427 22.7691 33.9964 18.27 31.8678 14.3675C30.1361 11.1927 27.5283 6.91299 23.8832 5.57003C22.3952 5.02184 18.9414 5.21216 17.8588 6.69362C17.3752 7.35544 16.7527 8.05399 16.4005 8.79736C16.1152 9.39967 16.4215 7.26467 16.3527 6.64581" stroke="#00ADB5" stroke-opacity="0.5" stroke-width="1.66333" stroke-linecap="round" stroke-linejoin="round"/>
<path d="M20.871 23.8582C19.0785 24.7793 16.1696 25.39 17.7393 27.4082C18.097 27.8681 18.6074 27.843 19.0422 27.4082C19.4138 27.0366 21.2878 25.0848 19.9028 24.6231C17.0796 23.6821 18.1119 29.3154 20.1299 26.8225C21.2138 25.4837 19.6967 24.1659 18.337 24.9817C16.7169 25.9538 17.9986 27.6511 19.2693 26.177C20.227 25.0662 19.4623 24.215 18.4206 25.2567C17.4876 26.1897 18.4354 27.6778 19.353 26.4161C20.2941 25.122 19.221 24.026 18.0859 25.161C16.7721 26.4749 18.1942 26.3369 19.1259 25.4718C20.0651 24.5997 18.3994 24.7284 17.8588 25.4121C16.6032 27 18.57 26.7742 18.8868 25.4121C19.3522 23.411 17.2878 28.0084 18.2892 24.5036" stroke="#00ADB5" stroke-opacity="0.5" stroke-width="1.66333" stroke-linecap="round" stroke-linejoin="round"/>
<path d="M13.5558 17.1884C15.4669 19.7102 17.4256 22.1015 19.0303 24.6232C19.475 25.322 19.12 26.0233 19.365 26.0097C20.2703 25.9594 21.1975 25.7946 22.162 25.7946C24.3689 25.7946 26.1071 24.7188 28.2341 24.7188C30.8099 24.7188 34.5942 24.0499 30.3379 21.9218" stroke="#00ADB5" stroke-opacity="0.5" stroke-width="1.66333" stroke-linecap="round" stroke-linejoin="round"/>
<path d="M11.4041 7.29126C11.0023 5.25704 9.03829 0.326167 12.6951 0.848563C14.0072 1.03601 14.8875 2.39346 15.6594 3.25113C17.6676 5.4825 17.4529 8.17576 14.2011 8.36703C13.3493 8.41714 12.15 10.1063 11.189 8.90492C10.1008 7.54467 11.2117 7.63609 11.4041 6.00033C11.53 4.93011 10.8317 5.01893 10.5316 3.96831C10.3013 3.16237 10.7796 2.2799 10.9738 1.69723" stroke="#00ADB5" stroke-opacity="0.5" stroke-width="1.66333" stroke-linecap="round" stroke-linejoin="round"/>
<path d="M12.6951 4.92461C12.6759 5.43853 11.8835 10.0693 13.5676 9.31139C14.1316 9.05761 14.6185 8.6887 14.8466 8.10413C15.0677 7.5377 14.8327 7.19933 14.5836 6.64585C13.9419 5.21985 12.0804 3.00347 12.6473 6.21554C13.0049 8.24223 15.2683 7.76861 15.4443 5.83305C15.5786 4.35494 13.7148 2.37468 12.5277 4.06399C11.6881 5.25888 13.1835 7.89385 14.0577 6.0482C14.5016 5.11108 13.4402 2.72878 12.3126 3.89665C11.1564 5.09407 12.8939 7.61999 14.0338 6.59804C15.1609 5.58756 14.3948 2.5051 13.1732 3.6815C12.0557 4.75757 13.7324 6.89882 14.5836 5.2593C15.5332 3.4305 13.4414 2.05251 12.7907 3.96837C12.2098 5.67876 14.0212 7.51846 14.4402 5.18758C14.7592 3.41341 11.4998 2.47009 11.4998 4.58993C11.4998 6.54278 13.2449 6.34298 13.2449 4.56602C13.2449 2.7139 11.3798 3.13083 12.1572 4.68555C12.9346 6.24037 13.9767 3.48092 13.1015 2.60572C12.0798 1.58407 10.7273 3.16359 11.9301 4.14767C12.7499 4.81845 13.8708 2.0351 12.4919 1.51799C11.301 1.0714 11.9597 3.5026 12.3723 2.95236C13.012 2.09944 12.0315 1.5284 12.707 1.69729C13.3024 1.84613 14.7489 2.16419 15.1574 2.68939C15.4789 3.1028 16.783 5.40318 16.783 6.00039C16.783 7.82799 13.9878 8.81328 12.3843 8.35514C11.2335 8.02634 10.8929 8.83937 11.2966 8.5703C12.2756 7.91761 12.4799 6.21528 12.4799 6.86101" stroke="#00ADB5" stroke-opacity="0.5" stroke-width="1.66333" stroke-linecap="round" stroke-linejoin="round"/>
<path d="M12.4799 38.0585C11.372 40.4088 10.3888 42.7702 9.08519 44.9912C8.79159 45.4914 8.24152 46.5121 8.17676 47.095C8.00235 48.6646 9.57899 43.3514 9.898 42.5767" stroke="#00ADB5" stroke-opacity="0.5" stroke-width="1.66333" stroke-linecap="round" stroke-linejoin="round"/>
<path d="M34.2107 33.5403C36.9356 36.981 39.94 39.4346 42.0639 43.2103C42.273 43.5821 42.6355 43.8776 42.9245 44.1666C43.8911 45.1331 41.1303 42.1037 40.235 41.0707" stroke="#00ADB5" stroke-opacity="0.5" stroke-width="1.66333" stroke-linecap="round" stroke-linejoin="round"/>
</svg>
