<svg width="34" height="37" viewBox="0 0 34 37" fill="none" xmlns="http://www.w3.org/2000/svg">
<path d="M14.4761 5.51991C9.33759 6.50632 5.60184 7.98984 2.34501 12.1772C0.281039 14.8309 0.733586 19.0078 2.08611 21.8211C4.31466 26.4564 9.79242 29.074 14.735 29.3013C20.4926 29.566 28.4967 27.8741 29.6769 21.0074C30.3096 17.3263 26.7929 13.846 25.1463 10.8273C23.8067 8.37145 21.7895 5.06086 18.9698 4.02201C17.8188 3.59796 15.1471 3.74518 14.3097 4.89116C13.9355 5.40311 13.454 5.94347 13.1816 6.5185C12.9609 6.98442 13.1978 5.3329 13.1446 4.85418" stroke="#00ADB5" stroke-opacity="0.2" stroke-width="1.28667" stroke-linecap="round" stroke-linejoin="round"/>
<path d="M16.6397 18.1689C15.2531 18.8815 13.003 19.3539 14.2172 20.9151C14.4939 21.2708 14.8887 21.2514 15.225 20.9151C15.5125 20.6276 16.9621 19.1178 15.8908 18.7607C13.7069 18.0328 14.5054 22.3904 16.0664 20.462C16.9048 19.4264 15.7313 18.407 14.6795 19.0381C13.4263 19.79 14.4177 21.103 15.4007 19.9627C16.1415 19.1034 15.55 18.445 14.7442 19.2508C14.0225 19.9725 14.7556 21.1236 15.4654 20.1476C16.1935 19.1466 15.3633 18.2988 14.4853 19.1768C13.469 20.1931 14.5691 20.0864 15.2898 19.4172C16.0163 18.7425 14.7278 18.8421 14.3097 19.371C13.3384 20.5993 14.8598 20.4247 15.1048 19.371C15.4648 17.8231 13.8679 21.3794 14.6425 18.6682" stroke="#00ADB5" stroke-opacity="0.2" stroke-width="1.28667" stroke-linecap="round" stroke-linejoin="round"/>
<path d="M10.981 13.0095C12.4593 14.9603 13.9745 16.8101 15.2158 18.7607C15.5598 19.3013 15.2852 19.8438 15.4747 19.8333C16.175 19.7943 16.8923 19.6668 17.6383 19.6668C19.3455 19.6668 20.69 18.8347 22.3354 18.8347C24.3279 18.8347 27.2552 18.3173 23.9628 16.671" stroke="#00ADB5" stroke-opacity="0.2" stroke-width="1.28667" stroke-linecap="round" stroke-linejoin="round"/>
<path d="M9.31672 5.3536C9.00589 3.78003 7.48664 -0.0342247 10.3153 0.369873C11.3303 0.514872 12.0113 1.56492 12.6084 2.22837C14.1619 3.95444 13.9957 6.0378 11.4803 6.18576C10.8214 6.22452 9.89373 7.53115 9.15029 6.60185C8.30852 5.54963 9.16786 5.62034 9.31672 4.35501C9.41412 3.52714 8.87395 3.59584 8.64175 2.78314C8.46362 2.15972 8.83362 1.47708 8.98386 1.02636" stroke="#00ADB5" stroke-opacity="0.2" stroke-width="1.28667" stroke-linecap="round" stroke-linejoin="round"/>
<path d="M10.3154 3.52278C10.3005 3.92031 9.68756 7.5024 10.9903 6.91615C11.4266 6.71984 11.8032 6.43447 11.9797 5.98228C12.1507 5.54412 11.9689 5.28238 11.7763 4.85424C11.2799 3.75115 9.8399 2.03668 10.2784 4.52137C10.555 6.08911 12.3059 5.72274 12.442 4.22549C12.5459 3.08211 11.1042 1.55028 10.1859 2.85705C9.5364 3.78135 10.6932 5.81962 11.3694 4.39192C11.7128 3.66701 10.8917 1.82419 10.0195 2.7276C9.12516 3.65386 10.4692 5.60777 11.3509 4.81725C12.2228 4.0356 11.6302 1.65117 10.6852 2.56117C9.8208 3.39356 11.1178 5.04992 11.7763 3.78167C12.5108 2.36701 10.8927 1.30107 10.3893 2.78308C9.93998 4.10615 11.3412 5.52924 11.6653 3.72619C11.912 2.35379 9.39073 1.62409 9.39073 3.26388C9.39073 4.77451 10.7407 4.61995 10.7407 3.24539C10.7407 1.81269 9.29795 2.1352 9.89928 3.33785C10.5006 4.54057 11.3067 2.40601 10.6297 1.729C9.83944 0.938712 8.79321 2.16054 9.7236 2.92177C10.3578 3.44066 11.2249 1.2876 10.1582 0.887595C9.23695 0.542137 9.74648 2.42278 10.0657 1.99715C10.5605 1.33737 9.80203 0.895646 10.3246 1.02629C10.7851 1.14142 11.9041 1.38746 12.2201 1.79373C12.4688 2.11352 13.4776 3.89297 13.4776 4.35494C13.4776 5.76868 11.3153 6.53084 10.075 6.17645C9.18475 5.92211 8.92133 6.55103 9.23355 6.34288C9.99087 5.838 10.1489 4.52117 10.1489 5.02067" stroke="#00ADB5" stroke-opacity="0.2" stroke-width="1.28667" stroke-linecap="round" stroke-linejoin="round"/>
<path d="M10.1487 29.1536C9.29178 30.9717 8.53123 32.7983 7.52279 34.5164C7.29568 34.9033 6.87017 35.6929 6.82008 36.1437C6.68517 37.3579 7.90478 33.2479 8.15154 32.6486" stroke="#00ADB5" stroke-opacity="0.2" stroke-width="1.28667" stroke-linecap="round" stroke-linejoin="round"/>
<path d="M26.9585 25.6584C29.0663 28.32 31.3904 30.218 33.0333 33.1387C33.1951 33.4263 33.4755 33.6549 33.699 33.8784C34.4467 34.6261 32.3111 32.2827 31.6186 31.4836" stroke="#00ADB5" stroke-opacity="0.2" stroke-width="1.28667" stroke-linecap="round" stroke-linejoin="round"/>
</svg>
