<svg width="34" height="37" viewBox="0 0 34 37" fill="none" xmlns="http://www.w3.org/2000/svg">
<path d="M14.0894 5.3932C8.95087 6.37961 5.21513 7.86314 1.95829 12.0505C-0.105679 14.7042 0.346867 18.8811 1.69939 21.6943C3.92795 26.3297 9.4057 28.9473 14.3483 29.1746C20.1058 29.4393 28.11 27.7474 29.2902 20.8807C29.9229 17.1996 26.4061 13.7193 24.7595 10.7005C23.42 8.24474 21.4028 4.93415 18.583 3.89531C17.432 3.47125 14.7604 3.61847 13.9229 4.76445C13.5488 5.27641 13.0673 5.81676 12.7949 6.39179C12.5742 6.85771 12.8111 5.20619 12.7579 4.72747" stroke="#00ADB5" stroke-opacity="0.2" stroke-width="1.28667" stroke-linecap="round" stroke-linejoin="round"/>
<path d="M16.253 18.0422C14.8664 18.7548 12.6162 19.2272 13.8305 20.7884C14.1071 21.1441 14.502 21.1247 14.8383 20.7884C15.1258 20.5009 16.5754 18.9911 15.504 18.634C13.3202 17.906 14.1187 22.2637 15.6797 20.3353C16.5181 19.2996 15.3446 18.2803 14.2928 18.9114C13.0396 19.6633 14.031 20.9763 15.014 19.836C15.7548 18.9767 15.1633 18.3183 14.3575 19.124C13.6358 19.8458 14.3689 20.9969 15.0787 20.0209C15.8067 19.0199 14.9766 18.1721 14.0986 19.0501C13.0823 20.0664 14.1824 19.9597 14.903 19.2905C15.6296 18.6158 14.3411 18.7154 13.9229 19.2442C12.9516 20.4726 14.4731 20.298 14.7181 19.2442C15.0781 17.6964 13.4812 21.2527 14.2558 18.5415" stroke="#00ADB5" stroke-opacity="0.2" stroke-width="1.28667" stroke-linecap="round" stroke-linejoin="round"/>
<path d="M10.5944 12.8828C12.0727 14.8336 13.5879 16.6834 14.8291 18.634C15.1731 19.1746 14.8986 19.7171 15.088 19.7065C15.7884 19.6676 16.5056 19.5401 17.2517 19.5401C18.9588 19.5401 20.3034 18.708 21.9488 18.708C23.9413 18.708 26.8685 18.1905 23.5761 16.5443" stroke="#00ADB5" stroke-opacity="0.2" stroke-width="1.28667" stroke-linecap="round" stroke-linejoin="round"/>
<path d="M8.93006 5.22689C8.61924 3.65332 7.09998 -0.160934 9.92866 0.243164C10.9437 0.388163 11.6246 1.43821 12.2217 2.10166C13.7752 3.82773 13.609 5.91109 11.0937 6.05906C10.4348 6.09781 9.50707 7.40444 8.76363 6.47514C7.92186 5.42292 8.7812 5.49363 8.93006 4.2283C9.02746 3.40043 8.48729 3.46913 8.25509 2.65643C8.07697 2.03301 8.44696 1.35037 8.5972 0.899647" stroke="#00ADB5" stroke-opacity="0.2" stroke-width="1.28667" stroke-linecap="round" stroke-linejoin="round"/>
<path d="M9.92876 3.39607C9.91395 3.7936 9.30096 7.37569 10.6037 6.78944C11.04 6.59314 11.4166 6.30777 11.5931 5.85557C11.7641 5.41741 11.5823 5.15567 11.3897 4.72753C10.8933 3.62444 9.4533 1.90997 9.89178 4.39466C10.1684 5.9624 11.9193 5.59603 12.0554 4.09878C12.1593 2.9554 10.7176 1.42357 9.79931 2.73034C9.14981 3.65464 10.3066 5.69291 10.9828 4.26522C11.3262 3.54031 10.5051 1.69748 9.63288 2.60089C8.73856 3.52715 10.0826 5.48106 10.9643 4.69054C11.8362 3.90889 11.2436 1.52446 10.2986 2.43446C9.4342 3.26685 10.7312 4.92321 11.3897 3.65496C12.1242 2.2403 10.5061 1.17436 10.0027 2.65637C9.55339 3.97944 10.9546 5.40253 11.2787 3.59949C11.5254 2.22708 9.00414 1.49738 9.00414 3.13717C9.00414 4.6478 10.3541 4.49324 10.3541 3.11868C10.3541 1.68598 8.91135 2.00849 9.51268 3.21114C10.114 4.41386 10.9201 2.27931 10.2431 1.6023C9.45284 0.812003 8.40661 2.03383 9.337 2.79506C9.97119 3.31395 10.8383 1.16089 9.77158 0.760886C8.85035 0.415428 9.35989 2.29607 9.67911 1.87044C10.1739 1.21066 9.41543 0.768937 9.93801 0.89958C10.3985 1.01471 11.5175 1.26075 11.8335 1.66702C12.0822 1.98681 13.091 3.76626 13.091 4.22823C13.091 5.64197 10.9287 6.40413 9.68836 6.04974C8.79815 5.7954 8.53474 6.42432 8.84695 6.21617C9.60427 5.71129 9.76233 4.39446 9.76233 4.89396" stroke="#00ADB5" stroke-opacity="0.2" stroke-width="1.28667" stroke-linecap="round" stroke-linejoin="round"/>
<path d="M9.76213 29.0269C8.90519 30.845 8.14463 32.6716 7.1362 34.3897C6.90908 34.7766 6.48358 35.5662 6.43348 36.017C6.29857 37.2312 7.51818 33.1212 7.76494 32.5219" stroke="#00ADB5" stroke-opacity="0.2" stroke-width="1.28667" stroke-linecap="round" stroke-linejoin="round"/>
<path d="M26.5718 25.5317C28.6796 28.1933 31.0037 30.0913 32.6466 33.012C32.8083 33.2996 33.0888 33.5281 33.3123 33.7517C34.06 34.4994 31.9244 32.156 31.2319 31.3569" stroke="#00ADB5" stroke-opacity="0.2" stroke-width="1.28667" stroke-linecap="round" stroke-linejoin="round"/>
</svg>
