<svg width="44" height="48" viewBox="0 0 44 48" fill="none" xmlns="http://www.w3.org/2000/svg">
<path d="M18.0574 7.47945C11.4146 8.75463 6.58523 10.6725 2.37496 16.0856C-0.293223 19.5162 0.291805 24.9159 2.04028 28.5527C4.92123 34.5451 12.0026 37.9289 18.3921 38.2227C25.8352 38.5649 36.1825 36.3778 37.7082 27.5008C38.5261 22.7421 33.9798 18.243 31.8512 14.3405C30.1195 11.1658 27.5117 6.88601 23.8666 5.54305C22.3786 4.99486 18.9248 5.18518 17.8422 6.66664C17.3586 7.32847 16.7361 8.02701 16.3839 8.77038C16.0986 9.37269 16.4049 7.23769 16.3361 6.61883" stroke="#00ADB5" stroke-opacity="0.5" stroke-width="1.66333" stroke-linecap="round" stroke-linejoin="round"/>
<path d="M20.8544 23.8313C19.0619 24.7525 16.153 25.3632 17.7227 27.3814C18.0804 27.8412 18.5908 27.8161 19.0256 27.3814C19.3972 27.0097 21.2712 25.058 19.8862 24.5963C17.063 23.6552 18.0953 29.2885 20.1133 26.7957C21.1971 25.4568 19.6801 24.1391 18.3204 24.9549C16.7003 25.9269 17.982 27.6242 19.2527 26.1502C20.2104 25.0393 19.4457 24.1882 18.404 25.2298C17.471 26.1628 18.4188 27.651 19.3364 26.3893C20.2775 25.0952 19.2044 23.9992 18.0693 25.1342C16.7555 26.448 18.1776 26.31 19.1093 25.445C20.0485 24.5728 18.3828 24.7015 17.8422 25.3852C16.5866 26.9732 18.5534 26.7474 18.8702 25.3852C19.3356 23.3842 17.2712 27.9816 18.2725 24.4768" stroke="#00ADB5" stroke-opacity="0.5" stroke-width="1.66333" stroke-linecap="round" stroke-linejoin="round"/>
<path d="M13.5391 17.1616C15.4502 19.6835 17.4089 22.0748 19.0136 24.5964C19.4583 25.2952 19.1033 25.9966 19.3482 25.983C20.2536 25.9327 21.1808 25.7678 22.1453 25.7678C24.3522 25.7678 26.0903 24.692 28.2174 24.692C30.7932 24.692 34.5774 24.0232 30.3212 21.895" stroke="#00ADB5" stroke-opacity="0.5" stroke-width="1.66333" stroke-linecap="round" stroke-linejoin="round"/>
<path d="M11.3876 7.2644C10.9858 5.23018 9.02181 0.299312 12.6786 0.821707C13.9907 1.00915 14.871 2.3666 15.6429 3.22427C17.6512 5.45565 17.4364 8.1489 14.1847 8.34018C13.3329 8.39028 12.1336 10.0794 11.1725 8.87807C10.0843 7.51782 11.1952 7.60923 11.3876 5.97347C11.5136 4.90325 10.8152 4.99207 10.5151 3.94145C10.2848 3.13552 10.7631 2.25305 10.9573 1.67037" stroke="#00ADB5" stroke-opacity="0.5" stroke-width="1.66333" stroke-linecap="round" stroke-linejoin="round"/>
<path d="M12.6783 4.89776C12.6592 5.41167 11.8668 10.0424 13.5509 9.28453C14.1149 9.03076 14.6018 8.66184 14.8299 8.07727C15.0509 7.51084 14.816 7.17248 14.5669 6.619C13.9252 5.19299 12.0637 2.97661 12.6305 6.18869C12.9882 8.21538 15.2516 7.74176 15.4275 5.80619C15.5619 4.32809 13.6981 2.34782 12.511 4.03714C11.6713 5.23202 13.1667 7.867 14.041 6.02135C14.4849 5.08422 13.4234 2.70192 12.2958 3.8698C11.1397 5.06722 12.8772 7.59313 14.0171 6.57119C15.1442 5.56071 14.3781 2.47824 13.1565 3.65464C12.039 4.73071 13.7156 6.87196 14.5669 5.23244C15.5165 3.40365 13.4246 2.02566 12.774 3.94151C12.1931 5.65191 14.0045 7.49161 14.4235 5.16073C14.7424 3.38655 11.483 2.44324 11.483 4.56307C11.483 6.51593 13.2282 6.31613 13.2282 4.53917C13.2282 2.68705 11.3631 3.10397 12.1405 4.6587C12.9179 6.21351 13.9599 3.45407 13.0847 2.57887C12.0631 1.55722 10.7106 3.13674 11.9133 4.12081C12.7332 4.7916 13.8541 2.00824 12.4751 1.49114C11.2842 1.04455 11.9429 3.47574 12.3556 2.9255C12.9953 2.07258 12.0147 1.50155 12.6903 1.67043C13.2856 1.81927 14.7322 2.13733 15.1407 2.66254C15.4622 3.07594 16.7663 5.37633 16.7663 5.97353C16.7663 7.80114 13.971 8.78642 12.3676 8.32829C11.2167 7.99948 10.8762 8.81252 11.2798 8.54344C12.2589 7.89076 12.4632 6.18842 12.4632 6.83415" stroke="#00ADB5" stroke-opacity="0.5" stroke-width="1.66333" stroke-linecap="round" stroke-linejoin="round"/>
<path d="M12.4633 38.0317C11.3554 40.3821 10.3722 42.7435 9.06859 44.9645C8.77499 45.4647 8.22491 46.4854 8.16015 47.0682C7.98575 48.6379 9.56239 43.3247 9.88139 42.55" stroke="#00ADB5" stroke-opacity="0.5" stroke-width="1.66333" stroke-linecap="round" stroke-linejoin="round"/>
<path d="M34.194 33.5134C36.9188 36.9541 39.9233 39.4078 42.0471 43.1835C42.2563 43.5553 42.6188 43.8508 42.9077 44.1397C43.8743 45.1063 41.1136 42.0769 40.2183 41.0439" stroke="#00ADB5" stroke-opacity="0.5" stroke-width="1.66333" stroke-linecap="round" stroke-linejoin="round"/>
</svg>
