<svg width="34" height="37" viewBox="0 0 34 37" fill="none" xmlns="http://www.w3.org/2000/svg">
<path d="M14.0894 5.3932C8.95093 6.37961 5.21519 7.86314 1.95835 12.0505C-0.105618 14.7042 0.346928 18.8811 1.69945 21.6943C3.92801 26.3297 9.40576 28.9473 14.3483 29.1746C20.1059 29.4393 28.11 27.7474 29.2903 20.8807C29.923 17.1996 26.4062 13.7193 24.7596 10.7005C23.4201 8.24474 21.4028 4.93415 18.5831 3.89531C17.4321 3.47125 14.7604 3.61847 13.923 4.76445C13.5489 5.27641 13.0673 5.81676 12.795 6.39179C12.5743 6.85771 12.8112 5.20619 12.758 4.72747" stroke="#00ADB5" stroke-opacity="0.2" stroke-width="1.28667" stroke-linecap="round" stroke-linejoin="round"/>
<path d="M16.253 18.0422C14.8664 18.7548 12.6163 19.2272 13.8305 20.7884C14.1072 21.1441 14.5021 21.1247 14.8384 20.7884C15.1259 20.5009 16.5755 18.9911 15.5041 18.634C13.3202 17.906 14.1187 22.2637 15.6798 20.3353C16.5182 19.2996 15.3446 18.2803 14.2928 18.9114C13.0397 19.6633 14.0311 20.9763 15.0141 19.836C15.7549 18.9767 15.1633 18.3183 14.3576 19.124C13.6358 19.8458 14.369 20.9969 15.0788 20.0209C15.8068 19.0199 14.9767 18.1721 14.0987 19.0501C13.0824 20.0664 14.1824 19.9597 14.9031 19.2905C15.6296 18.6158 14.3411 18.7154 13.923 19.2442C12.9517 20.4726 14.4731 20.298 14.7182 19.2442C15.0781 17.6964 13.4812 21.2527 14.2559 18.5415" stroke="#00ADB5" stroke-opacity="0.2" stroke-width="1.28667" stroke-linecap="round" stroke-linejoin="round"/>
<path d="M10.5944 12.8828C12.0727 14.8336 13.5879 16.6834 14.8291 18.634C15.1731 19.1746 14.8986 19.7171 15.088 19.7065C15.7884 19.6676 16.5056 19.5401 17.2517 19.5401C18.9588 19.5401 20.3034 18.708 21.9488 18.708C23.9413 18.708 26.8685 18.1905 23.5761 16.5443" stroke="#00ADB5" stroke-opacity="0.2" stroke-width="1.28667" stroke-linecap="round" stroke-linejoin="round"/>
<path d="M8.93 5.22689C8.61918 3.65332 7.09992 -0.160934 9.9286 0.243164C10.9436 0.388163 11.6246 1.43821 12.2217 2.10166C13.7751 3.82773 13.609 5.91109 11.0936 6.05906C10.4347 6.09781 9.50701 7.40444 8.76357 6.47514C7.9218 5.42292 8.78114 5.49363 8.93 4.2283C9.0274 3.40043 8.48723 3.46913 8.25503 2.65643C8.0769 2.03301 8.4469 1.35037 8.59714 0.899647" stroke="#00ADB5" stroke-opacity="0.2" stroke-width="1.28667" stroke-linecap="round" stroke-linejoin="round"/>
<path d="M9.9287 3.39607C9.91389 3.7936 9.3009 7.37569 10.6037 6.78944C11.0399 6.59314 11.4166 6.30777 11.593 5.85557C11.764 5.41741 11.5823 5.15567 11.3896 4.72753C10.8932 3.62444 9.45324 1.90997 9.89172 4.39466C10.1684 5.9624 11.9192 5.59603 12.0553 4.09878C12.1593 2.9554 10.7175 1.42357 9.79925 2.73034C9.14974 3.65464 10.3065 5.69291 10.9828 4.26522C11.3262 3.54031 10.5051 1.69748 9.63282 2.60089C8.7385 3.52715 10.0825 5.48106 10.9643 4.69054C11.8361 3.90889 11.2436 1.52446 10.2986 2.43446C9.43414 3.26685 10.7311 4.92321 11.3896 3.65496C12.1241 2.2403 10.506 1.17436 10.0027 2.65637C9.55333 3.97944 10.9545 5.40253 11.2787 3.59949C11.5254 2.22708 9.00408 1.49738 9.00408 3.13717C9.00408 4.6478 10.354 4.49324 10.354 3.11868C10.354 1.68598 8.91129 2.00849 9.51262 3.21114C10.114 4.41386 10.9201 2.27931 10.2431 1.6023C9.45278 0.812003 8.40655 2.03383 9.33694 2.79506C9.97113 3.31395 10.8382 1.16089 9.77151 0.760886C8.85029 0.415428 9.35983 2.29607 9.67905 1.87044C10.1739 1.21066 9.41537 0.768937 9.93795 0.89958C10.3985 1.01471 11.5174 1.26075 11.8334 1.66702C12.0822 1.98681 13.0909 3.76626 13.0909 4.22823C13.0909 5.64197 10.9287 6.40413 9.6883 6.04974C8.79809 5.7954 8.53468 6.42432 8.84689 6.21617C9.60421 5.71129 9.76227 4.39446 9.76227 4.89396" stroke="#00ADB5" stroke-opacity="0.2" stroke-width="1.28667" stroke-linecap="round" stroke-linejoin="round"/>
<path d="M9.76207 29.0269C8.90513 30.845 8.14457 32.6716 7.13614 34.3897C6.90902 34.7766 6.48351 35.5662 6.43342 36.017C6.29851 37.2312 7.51812 33.1212 7.76488 32.5219" stroke="#00ADB5" stroke-opacity="0.2" stroke-width="1.28667" stroke-linecap="round" stroke-linejoin="round"/>
<path d="M26.5718 25.5317C28.6797 28.1933 31.0037 30.0913 32.6466 33.012C32.8084 33.2996 33.0888 33.5281 33.3124 33.7517C34.0601 34.4994 31.9245 32.156 31.2319 31.3569" stroke="#00ADB5" stroke-opacity="0.2" stroke-width="1.28667" stroke-linecap="round" stroke-linejoin="round"/>
</svg>
