<svg width="34" height="37" viewBox="0 0 34 37" fill="none" xmlns="http://www.w3.org/2000/svg">
<path d="M14.2428 6.14662C9.10431 7.13303 5.36857 8.61655 2.11173 12.8039C0.0477631 15.4576 0.500309 19.6345 1.85283 22.4478C4.08139 27.0832 9.55915 29.7007 14.5017 29.928C20.2593 30.1927 28.2634 28.5008 29.4436 21.6341C30.0763 17.953 26.5596 14.4727 24.913 11.454C23.5735 8.99816 21.5562 5.68756 18.7365 4.64872C17.5855 4.22467 14.9138 4.37189 14.0764 5.51787C13.7023 6.02982 13.2207 6.57018 12.9483 7.14521C12.7276 7.61113 12.9645 5.95961 12.9114 5.48089" stroke="#00ADB5" stroke-opacity="0.2" stroke-width="1.28667" stroke-linecap="round" stroke-linejoin="round"/>
<path d="M16.4064 18.7957C15.0198 19.5082 12.7697 19.9806 13.9839 21.5418C14.2606 21.8975 14.6554 21.8781 14.9918 21.5418C15.2792 21.2543 16.7288 19.7445 15.6575 19.3874C13.4736 18.6595 14.2721 23.0171 15.8332 21.0887C16.6716 20.0531 15.498 19.0337 14.4462 19.6648C13.1931 20.4167 14.1845 21.7297 15.1674 20.5894C15.9082 19.7301 15.3167 19.0717 14.5109 19.8775C13.7892 20.5992 14.5223 21.7504 15.2322 20.7744C15.9602 19.7733 15.13 18.9255 14.2521 19.8035C13.2357 20.8198 14.3358 20.7131 15.0565 20.0439C15.783 19.3692 14.4945 19.4688 14.0764 19.9977C13.1051 21.2261 14.6265 21.0514 14.8716 19.9977C15.2315 18.4498 13.6346 22.0061 14.4092 19.295" stroke="#00ADB5" stroke-opacity="0.2" stroke-width="1.28667" stroke-linecap="round" stroke-linejoin="round"/>
<path d="M10.7477 13.6362C12.2261 15.587 13.7412 17.4368 14.9825 19.3874C15.3265 19.928 15.0519 20.4705 15.2414 20.46C15.9418 20.4211 16.659 20.2935 17.405 20.2935C19.1122 20.2935 20.4567 19.4614 22.1021 19.4614C24.0946 19.4614 27.0219 18.944 23.7295 17.2977" stroke="#00ADB5" stroke-opacity="0.2" stroke-width="1.28667" stroke-linecap="round" stroke-linejoin="round"/>
<path d="M9.08345 5.98031C8.77262 4.40674 7.25336 0.592484 10.082 0.996582C11.097 1.14158 11.778 2.19163 12.3751 2.85508C13.9286 4.58115 13.7624 6.66451 11.2471 6.81247C10.5882 6.85123 9.66045 8.15785 8.91701 7.22855C8.07524 6.17634 8.93458 6.24705 9.08345 4.98172C9.18084 4.15385 8.64067 4.22255 8.40847 3.40985C8.23035 2.78642 8.60034 2.10379 8.75058 1.65307" stroke="#00ADB5" stroke-opacity="0.2" stroke-width="1.28667" stroke-linecap="round" stroke-linejoin="round"/>
<path d="M10.0821 4.14949C10.0673 4.54702 9.45428 8.12911 10.7571 7.54286C11.1933 7.34655 11.5699 7.06118 11.7464 6.60899C11.9174 6.17083 11.7357 5.90909 11.543 5.48095C11.0466 4.37786 9.60662 2.66339 10.0451 5.14808C10.3218 6.71582 12.0726 6.34945 12.2087 4.8522C12.3127 3.70882 10.8709 2.17699 9.95263 3.48376C9.30313 4.40806 10.4599 6.44633 11.1362 5.01863C11.4795 4.29372 10.6585 2.4509 9.7862 3.35431C8.89188 4.28057 10.2359 6.23448 11.1177 5.44396C11.9895 4.66231 11.3969 2.27788 10.4519 3.18788C9.58752 4.02027 10.8845 5.67662 11.543 4.40838C12.2775 2.99372 10.6594 1.92778 10.1561 3.40979C9.70671 4.73286 11.1079 6.15595 11.432 4.3529C11.6788 2.9805 9.15746 2.2508 9.15746 3.89059C9.15746 5.40121 10.5074 5.24666 10.5074 3.8721C10.5074 2.4394 9.06467 2.76191 9.666 3.96456C10.2674 5.16728 11.0735 3.03272 10.3965 2.35571C9.60616 1.56542 8.55993 2.78725 9.49032 3.54848C10.1245 4.06736 10.9916 1.91431 9.9249 1.5143C9.00367 1.16885 9.51321 3.04949 9.83243 2.62385C10.3273 1.96408 9.56875 1.52235 10.0913 1.653C10.5519 1.76813 11.6708 2.01417 11.9868 2.42044C12.2355 2.74023 13.2443 4.51968 13.2443 4.98165C13.2443 6.39539 11.082 7.15755 9.84168 6.80316C8.95147 6.54881 8.68806 7.17773 9.00027 6.96959C9.75759 6.46471 9.91565 5.14788 9.91565 5.64738" stroke="#00ADB5" stroke-opacity="0.2" stroke-width="1.28667" stroke-linecap="round" stroke-linejoin="round"/>
<path d="M9.91545 29.7803C9.05851 31.5984 8.29795 33.425 7.28952 35.1431C7.0624 35.53 6.6369 36.3196 6.5868 36.7704C6.45189 37.9846 7.6715 33.8746 7.91826 33.2754" stroke="#00ADB5" stroke-opacity="0.2" stroke-width="1.28667" stroke-linecap="round" stroke-linejoin="round"/>
<path d="M26.7252 26.2852C28.833 28.9467 31.1571 30.8447 32.8 33.7654C32.9618 34.053 33.2422 34.2816 33.4657 34.5051C34.2134 35.2528 32.0779 32.9094 31.3853 32.1103" stroke="#00ADB5" stroke-opacity="0.2" stroke-width="1.28667" stroke-linecap="round" stroke-linejoin="round"/>
</svg>
