<svg width="34" height="37" viewBox="0 0 34 37" fill="none" xmlns="http://www.w3.org/2000/svg">
<path d="M14.1028 5.77992C8.96429 6.76633 5.22855 8.24985 1.97171 12.4372C-0.0922515 15.0909 0.360295 19.2678 1.71282 22.0811C3.94137 26.7165 9.41913 29.334 14.3617 29.5613C20.1193 29.826 28.1234 28.1341 29.3036 21.2674C29.9363 17.5863 26.4196 14.106 24.773 11.0873C23.4334 8.63146 21.4162 5.32087 18.5965 4.28202C17.4455 3.85797 14.7738 4.00519 13.9364 5.15117C13.5622 5.66312 13.0807 6.20348 12.8083 6.77851C12.5876 7.24443 12.8245 5.59291 12.7713 5.11419" stroke="#00ADB5" stroke-opacity="0.2" stroke-width="1.28667" stroke-linecap="round" stroke-linejoin="round"/>
<path d="M16.2664 18.429C14.8798 19.1415 12.6297 19.6139 13.8439 21.1751C14.1206 21.5308 14.5154 21.5114 14.8517 21.1751C15.1392 20.8876 16.5888 19.3778 15.5175 19.0207C13.3336 18.2928 14.1321 22.6504 15.6931 20.722C16.5315 19.6864 15.358 18.667 14.3062 19.2981C13.053 20.05 14.0444 21.363 15.0274 20.2227C15.7682 19.3634 15.1767 18.705 14.3709 19.5108C13.6492 20.2325 14.3823 21.3837 15.0921 20.4077C15.8202 19.4066 14.99 18.5588 14.112 19.4368C13.0957 20.4531 14.1958 20.3464 14.9165 19.6772C15.643 19.0025 14.3545 19.1021 13.9364 19.631C12.9651 20.8594 14.4865 20.6847 14.7315 19.631C15.0915 18.0831 13.4946 21.6394 14.2692 18.9283" stroke="#00ADB5" stroke-opacity="0.2" stroke-width="1.28667" stroke-linecap="round" stroke-linejoin="round"/>
<path d="M10.6077 13.2695C12.086 15.2203 13.6012 17.0701 14.8424 19.0207C15.1865 19.5613 14.9119 20.1038 15.1013 20.0933C15.8017 20.0544 16.5189 19.9268 17.265 19.9268C18.9721 19.9268 20.3167 19.0947 21.9621 19.0947C23.9546 19.0947 26.8818 18.5773 23.5894 16.931" stroke="#00ADB5" stroke-opacity="0.2" stroke-width="1.28667" stroke-linecap="round" stroke-linejoin="round"/>
<path d="M8.94337 5.61361C8.63254 4.04004 7.11328 0.225785 9.94197 0.629882C10.957 0.774882 11.6379 1.82493 12.235 2.48838C13.7885 4.21445 13.6223 6.29781 11.107 6.44577C10.4481 6.48453 9.52038 7.79116 8.77694 6.86186C7.93516 5.80964 8.79451 5.88035 8.94337 4.61502C9.04077 3.78715 8.50059 3.85585 8.26839 3.04315C8.09027 2.41972 8.46026 1.73709 8.61051 1.28637" stroke="#00ADB5" stroke-opacity="0.2" stroke-width="1.28667" stroke-linecap="round" stroke-linejoin="round"/>
<path d="M9.94207 3.78279C9.92725 4.18032 9.31427 7.76241 10.617 7.17616C11.0533 6.97985 11.4299 6.69448 11.6064 6.24229C11.7774 5.80413 11.5956 5.54239 11.403 5.11425C10.9066 4.01116 9.46661 2.29669 9.90508 4.78138C10.1817 6.34912 11.9326 5.98275 12.0687 4.4855C12.1726 3.34212 10.7309 1.81029 9.81262 3.11706C9.16311 4.04136 10.3199 6.07963 10.9961 4.65193C11.3395 3.92702 10.5184 2.0842 9.64619 2.98761C8.75187 3.91387 10.0959 5.86778 10.9776 5.07726C11.8495 4.29561 11.2569 1.91118 10.3119 2.82118C9.44751 3.65357 10.7445 5.30993 11.403 4.04168C12.1375 2.62702 10.5194 1.56108 10.016 3.04309C9.56669 4.36616 10.9679 5.78925 11.292 3.9862C11.5387 2.6138 9.01744 1.8841 9.01744 3.52389C9.01744 5.03451 10.3674 4.87996 10.3674 3.5054C10.3674 2.0727 8.92466 2.39521 9.52599 3.59786C10.1273 4.80058 10.9334 2.66602 10.2564 1.98901C9.46615 1.19872 8.41992 2.42055 9.35031 3.18178C9.9845 3.70067 10.8516 1.54761 9.78488 1.14761C8.86366 0.802147 9.37319 2.68279 9.69242 2.25716C10.1873 1.59738 9.42874 1.15566 9.95131 1.2863C10.4118 1.40143 11.5308 1.64747 11.8468 2.05374C12.0955 2.37353 13.1043 4.15298 13.1043 4.61495C13.1043 6.02869 10.942 6.79085 9.70166 6.43646C8.81145 6.18212 8.54804 6.81104 8.86026 6.60289C9.61758 6.09801 9.77563 4.78118 9.77563 5.28068" stroke="#00ADB5" stroke-opacity="0.2" stroke-width="1.28667" stroke-linecap="round" stroke-linejoin="round"/>
<path d="M9.77544 29.4136C8.91849 31.2317 8.15794 33.0583 7.1495 34.7764C6.92239 35.1633 6.49688 35.9529 6.44679 36.4037C6.31188 37.6179 7.53148 33.5079 7.77825 32.9087" stroke="#00ADB5" stroke-opacity="0.2" stroke-width="1.28667" stroke-linecap="round" stroke-linejoin="round"/>
<path d="M26.5852 25.9185C28.693 28.58 31.0171 30.478 32.66 33.3987C32.8218 33.6863 33.1022 33.9149 33.3257 34.1384C34.0734 34.8861 31.9378 32.5427 31.2453 31.7436" stroke="#00ADB5" stroke-opacity="0.2" stroke-width="1.28667" stroke-linecap="round" stroke-linejoin="round"/>
</svg>
