<svg width="43" height="47" viewBox="0 0 43 47" fill="none" xmlns="http://www.w3.org/2000/svg">
<path d="M17.7607 6.78304C11.118 8.05821 6.2886 9.97604 2.07833 15.3892C-0.589853 18.8198 -0.00482599 24.2195 1.74365 27.8563C4.6246 33.8487 11.706 37.2325 18.0954 37.5263C25.5385 37.8685 35.8858 35.6814 37.4116 26.8044C38.2295 22.0457 33.6832 17.5466 31.5546 13.6441C29.8229 10.4694 27.2151 6.1896 23.5699 4.84664C22.082 4.29845 18.6282 4.48877 17.5456 5.97023C17.0619 6.63206 16.4394 7.3306 16.0873 8.07397C15.802 8.67628 16.1083 6.54128 16.0395 5.92242" stroke="#00ADB5" stroke-opacity="0.5" stroke-width="1.66333" stroke-linecap="round" stroke-linejoin="round"/>
<path d="M20.5575 23.1348C18.765 24.0559 15.8561 24.6667 17.4258 26.6848C17.7835 27.1447 18.294 27.1196 18.7287 26.6848C19.1004 26.3132 20.9743 24.3614 19.5893 23.8998C16.7662 22.9587 17.7984 28.592 19.8164 26.0991C20.9003 24.7603 19.3832 23.4425 18.0235 24.2584C16.4035 25.2304 17.6851 26.9277 18.9558 25.4537C19.9135 24.3428 19.1488 23.4916 18.1072 24.5333C17.1741 25.4663 18.1219 26.9544 19.0395 25.6927C19.9806 24.3986 18.9075 23.3026 17.7725 24.4376C16.4586 25.7515 17.8808 25.6135 18.8124 24.7484C19.7516 23.8763 18.0859 24.005 17.5454 24.6887C16.2897 26.2767 18.2565 26.0509 18.5733 24.6887C19.0387 22.6876 16.9743 27.2851 17.9757 23.7802" stroke="#00ADB5" stroke-opacity="0.5" stroke-width="1.66333" stroke-linecap="round" stroke-linejoin="round"/>
<path d="M13.2424 16.465C15.1535 18.9868 17.1123 21.3782 18.7169 23.8998C19.1616 24.5986 18.8067 25.2999 19.0516 25.2863C19.957 25.236 20.8842 25.0712 21.8486 25.0712C24.0556 25.0712 25.7937 23.9954 27.9208 23.9954C30.4966 23.9954 34.2808 23.3265 30.0245 21.1984" stroke="#00ADB5" stroke-opacity="0.5" stroke-width="1.66333" stroke-linecap="round" stroke-linejoin="round"/>
<path d="M11.091 6.56787C10.6892 4.53365 8.72518 -0.397221 12.3819 0.125174C13.6941 0.312621 14.5744 1.67007 15.3463 2.52774C17.3545 4.75911 17.1397 7.45237 13.888 7.64365C13.0362 7.69375 11.8369 9.38288 10.8759 8.18153C9.78766 6.82128 10.8986 6.9127 11.091 5.27694C11.2169 4.20672 10.5186 4.29554 10.2184 3.24492C9.98817 2.43899 10.4665 1.55651 10.6607 0.973841" stroke="#00ADB5" stroke-opacity="0.5" stroke-width="1.66333" stroke-linecap="round" stroke-linejoin="round"/>
<path d="M12.3817 4.20123C12.3626 4.71514 11.5701 9.34587 13.2543 8.588C13.8182 8.33422 14.3051 7.96531 14.5333 7.38074C14.7543 6.81431 14.5194 6.47595 14.2703 5.92247C13.6286 4.49646 11.7671 2.28008 12.3339 5.49216C12.6915 7.51885 14.955 7.04522 15.1309 5.10966C15.2653 3.63155 13.4015 1.65129 12.2144 3.34061C11.3747 4.53549 12.8701 7.17046 13.7444 5.32481C14.1883 4.38769 13.1268 2.00539 11.9992 3.17326C10.8431 4.37068 12.5806 6.8966 13.7205 5.87465C14.8475 4.86417 14.0815 1.78171 12.8598 2.95811C11.7424 4.03418 13.419 6.17543 14.2703 4.53591C15.2199 2.70712 13.128 1.32912 12.4773 3.24498C11.8964 4.95538 13.7078 6.79507 14.1269 4.46419C14.4458 2.69002 11.1864 1.7467 11.1864 3.86654C11.1864 5.81939 12.9316 5.61959 12.9316 3.84263C12.9316 1.99052 11.0665 2.40744 11.8438 3.96216C12.6212 5.51698 13.6633 2.75754 12.7881 1.88233C11.7665 0.860686 10.414 2.4402 11.6167 3.42428C12.4366 4.09506 13.5575 1.31171 12.1785 0.794605C10.9876 0.348015 11.6463 2.77921 12.059 2.22897C12.6987 1.37605 11.7181 0.805012 12.3937 0.973901C12.989 1.12274 14.4355 1.4408 14.844 1.966C15.1656 2.37941 16.4697 4.67979 16.4697 5.277C16.4697 7.10461 13.6744 8.08989 12.0709 7.63175C10.9201 7.30295 10.5796 8.11598 10.9832 7.84691C11.9622 7.19423 12.1666 5.49189 12.1666 6.13762" stroke="#00ADB5" stroke-opacity="0.5" stroke-width="1.66333" stroke-linecap="round" stroke-linejoin="round"/>
<path d="M12.1664 37.3351C11.0586 39.6854 10.0754 42.0468 8.77171 44.2679C8.47811 44.7681 7.92804 45.7888 7.86328 46.3716C7.68887 47.9412 9.26552 42.6281 9.58452 41.8533" stroke="#00ADB5" stroke-opacity="0.5" stroke-width="1.66333" stroke-linecap="round" stroke-linejoin="round"/>
<path d="M33.8972 32.8168C36.6221 36.2575 39.6265 38.7111 41.7504 42.4868C41.9595 42.8586 42.3221 43.1541 42.611 43.443C43.5776 44.4096 40.8168 41.3802 39.9216 40.3472" stroke="#00ADB5" stroke-opacity="0.5" stroke-width="1.66333" stroke-linecap="round" stroke-linejoin="round"/>
</svg>
