<svg width="39" height="43" viewBox="0 0 39 43" fill="none" xmlns="http://www.w3.org/2000/svg">
<path d="M29.2826 4.26936C29.8642 2.50482 30.1856 1.2846 31.8627 0.436441C32.4831 0.122672 32.9353 -0.0225326 33.2768 0.647314C33.7344 1.54495 33.5515 2.75061 33.3884 3.71117C33.0083 5.94982 33.0697 8.2846 32.7682 10.5459C32.54 12.2575 31.9031 17.9069 34.1947 18.6707C35.0872 18.9682 36.9621 17.6778 36.8492 16.6612C36.7976 16.1966 36.5875 14.1344 35.646 14.7882C34.0084 15.9254 36.0655 19.2336 36.6507 20.5934C37.8873 23.4665 38.8387 27.9382 38.5238 31.0874C38.362 32.7048 37.5333 33.9097 36.5143 35.0816C35.8468 35.8492 34.943 38.1837 33.4752 37.4632C32.0407 36.759 30.7107 34.7493 30.982 33.1217C31.148 32.1253 31.5729 33.4334 30.9572 31.9557" stroke="#00ADB5" stroke-opacity="0.2" stroke-width="1.28667" stroke-linecap="round" stroke-linejoin="round"/>
<path d="M11.1973 6.16704C10.6497 4.87472 10.445 3.80069 9.11337 3.35127C8.35641 3.0958 7.66957 2.90053 6.86819 2.8427C5.09622 2.71482 3.58293 4.1399 4.05243 5.94376C4.79617 8.80129 6.13947 11.1376 6.17356 14.205C6.19302 15.9567 6.21084 17.7284 5.86345 19.452C5.54623 21.0259 5.40974 23.4087 4.22609 24.637C3.54624 25.3425 2.30053 26.5286 1.23666 26.1503C0.233379 25.7936 0.661201 24.4349 1.14983 23.7563C2.10887 22.4243 3.46434 25.5952 3.60587 26.3736C4.06942 28.9231 4.45597 31.5539 4.77187 34.1263C5.00375 36.0144 5.02588 38.0206 5.89446 39.7578C6.47589 40.9207 7.58054 43.0735 9.16919 42.9333C10.0501 42.8556 11.4307 42.037 11.6873 41.1533C12.0743 39.8202 11.5578 39.6344 10.7507 38.9887" stroke="#00ADB5" stroke-opacity="0.2" stroke-width="1.28667" stroke-linecap="round" stroke-linejoin="round"/>
</svg>
