<svg width="37" height="41" viewBox="0 0 37 41" fill="none" xmlns="http://www.w3.org/2000/svg">
<path d="M27.7391 4.17984C28.2871 2.51731 28.59 1.36764 30.17 0.568526C30.7546 0.272898 31.1806 0.136089 31.5024 0.767206C31.9335 1.61295 31.7612 2.74889 31.6076 3.65392C31.2494 5.76314 31.3073 7.96292 31.0232 10.0935C30.8082 11.7061 30.2081 17.0289 32.3672 17.7485C33.2082 18.0289 34.9747 16.813 34.8683 15.8552C34.8196 15.4175 34.6217 13.4745 33.7346 14.0905C32.1917 15.162 34.1299 18.2789 34.6813 19.56C35.8463 22.2671 36.7427 26.4802 36.446 29.4473C36.2936 30.9712 35.5128 32.1064 34.5527 33.2106C33.9238 33.9338 33.0723 36.1334 31.6894 35.4545C30.3378 34.791 29.0847 32.8975 29.3403 31.364C29.4967 30.4252 29.897 31.6577 29.3169 30.2654" stroke="#00ADB5" stroke-opacity="0.5" stroke-width="1.66333" stroke-linecap="round" stroke-linejoin="round"/>
<path d="M10.6994 5.96791C10.1835 4.75031 9.9906 3.73837 8.73597 3.31494C8.02279 3.07424 7.37566 2.89025 6.62061 2.83577C4.95109 2.71529 3.52529 4.05796 3.96764 5.75754C4.66838 8.44985 5.93402 10.6511 5.96613 13.5411C5.98447 15.1915 6.00126 16.8609 5.67396 18.4848C5.37508 19.9677 5.24648 22.2127 4.13126 23.37C3.49072 24.0347 2.31704 25.1522 1.31467 24.7958C0.369402 24.4597 0.772488 23.1796 1.23286 22.5402C2.13645 21.2852 3.41356 24.2728 3.54691 25.0062C3.98366 27.4083 4.34785 29.8869 4.64549 32.3106C4.86397 34.0896 4.88481 35.9798 5.70317 37.6165C6.25099 38.7122 7.29177 40.7405 8.78857 40.6084C9.61857 40.5352 10.9193 39.7639 11.161 38.9313C11.5257 37.6753 11.039 37.5002 10.2787 36.8919" stroke="#00ADB5" stroke-opacity="0.5" stroke-width="1.66333" stroke-linecap="round" stroke-linejoin="round"/>
</svg>
