<svg width="29" height="32" viewBox="0 0 29 32" fill="none" xmlns="http://www.w3.org/2000/svg">
<path d="M21.245 3.46579C21.6689 2.17975 21.9032 1.29042 23.1254 0.672269C23.5776 0.443586 23.9072 0.337758 24.156 0.825957C24.4896 1.48018 24.3563 2.35888 24.2374 3.05896C23.9603 4.69055 24.0051 6.39218 23.7854 8.04029C23.6191 9.2877 23.1549 13.4051 24.825 13.9618C25.4755 14.1787 26.842 13.2381 26.7597 12.4973C26.7221 12.1586 26.5689 10.6556 25.8828 11.1321C24.6892 11.961 26.1885 14.3721 26.6151 15.3631C27.5163 17.4571 28.2097 20.7161 27.9802 23.0114C27.8623 24.1902 27.2583 25.0683 26.5156 25.9224C26.0291 26.4819 25.3704 28.1833 24.3007 27.6582C23.2552 27.1449 22.2858 25.6803 22.4835 24.494C22.6046 23.7678 22.9142 24.7212 22.4655 23.6442" stroke="#00ADB5" stroke-opacity="0.2" stroke-width="1.28667" stroke-linecap="round" stroke-linejoin="round"/>
<path d="M8.06394 4.84884C7.66484 3.90697 7.51565 3.12419 6.54513 2.79664C5.99345 2.61045 5.49286 2.46813 4.9088 2.42598C3.61734 2.33278 2.51442 3.37141 2.8566 4.68611C3.39866 6.76874 4.37769 8.47148 4.40253 10.7071C4.41672 11.9837 4.4297 13.2751 4.17652 14.5312C3.94532 15.6783 3.84585 17.4149 2.98317 18.3102C2.48768 18.8244 1.57979 19.6888 0.804408 19.4131C0.0731955 19.1531 0.385002 18.1629 0.741124 17.6683C1.44009 16.6975 2.428 19.0085 2.53115 19.5758C2.86899 21.434 3.15071 23.3513 3.38095 25.2262C3.54995 26.6023 3.56608 28.0645 4.19912 29.3305C4.62288 30.1781 5.42797 31.7471 6.58582 31.6449C7.22786 31.5883 8.23406 30.9917 8.42104 30.3476C8.70312 29.376 8.32666 29.2406 7.73848 28.77" stroke="#00ADB5" stroke-opacity="0.2" stroke-width="1.28667" stroke-linecap="round" stroke-linejoin="round"/>
</svg>
