<svg width="50" height="56" viewBox="0 0 50 56" fill="none" xmlns="http://www.w3.org/2000/svg">
<path d="M37.5181 5.68241C38.2699 3.40131 38.6855 1.82387 40.8535 0.727423C41.6555 0.321798 42.2401 0.134086 42.6815 1.00003C43.2731 2.16045 43.0367 3.71905 42.8258 4.96081C42.3344 7.85483 42.4138 10.8731 42.0241 13.7964C41.729 16.009 40.9057 23.3122 43.8682 24.2997C45.022 24.6843 47.4458 23.0161 47.2998 21.7019C47.233 21.1013 46.9614 18.4354 45.7443 19.2806C43.6273 20.7507 46.2867 25.0274 47.0432 26.7852C48.6417 30.4995 49.8717 36.2802 49.4646 40.3513C49.2555 42.4423 48.1841 43.9998 46.8668 45.5148C46.0039 46.5072 44.8356 49.5251 42.9381 48.5936C41.0836 47.6832 39.3643 45.0853 39.7149 42.9811C39.9296 41.6931 40.4788 43.3841 39.6829 41.4738" stroke="#00ADB5" stroke-opacity="0.5" stroke-width="1.66333" stroke-linecap="round" stroke-linejoin="round"/>
<path d="M14.1385 8.13573C13.4306 6.46509 13.1659 5.07664 11.4445 4.49566C10.4659 4.1654 9.57802 3.91296 8.54204 3.8382C6.25133 3.67289 4.29503 5.51515 4.90197 7.84709C5.86344 11.5411 7.59999 14.5614 7.64405 18.5268C7.66921 20.7912 7.69225 23.0817 7.24316 25.3098C6.83308 27.3445 6.65664 30.4248 5.12647 32.0127C4.2476 32.9247 2.63722 34.458 1.2619 33.969C-0.0350869 33.5079 0.517978 31.7515 1.14965 30.8742C2.38944 29.1522 4.14173 33.2514 4.32469 34.2577C4.92394 37.5536 5.42365 40.9545 5.83203 44.2799C6.1318 46.7208 6.1604 49.3143 7.28325 51.5601C8.0349 53.0633 9.46292 55.8464 11.5166 55.6652C12.6555 55.5647 14.4402 54.5064 14.7719 53.3641C15.2722 51.6407 14.6045 51.4005 13.5612 50.5658" stroke="#00ADB5" stroke-opacity="0.5" stroke-width="1.66333" stroke-linecap="round" stroke-linejoin="round"/>
</svg>
