<svg width="60" height="34" viewBox="0 0 60 34" fill="none" xmlns="http://www.w3.org/2000/svg">
<path d="M9.22541 32.2314C8.2924 29.4651 7.8448 25.0889 4.07439 25.5917C2.58629 25.7901 1.64627 26.2487 0.754519 27.4377C-2.2967 31.506 4.84322 36.8999 6.87321 31.1C9.12283 24.6725 5.85004 20.7484 3.99996 14.8281C2.77239 10.8999 5.74879 23.1152 8.15352 26.4551C8.88793 27.4751 11.0773 31.1495 12.7686 30.564C16.0392 29.4319 14.9438 22.0092 11.6372 21.2743C8.21212 20.5132 12.1262 28.8767 13.0961 29.8197C16.7364 33.3588 22.6323 25.3275 20.4802 21.5125C19.7174 20.1602 17.8878 19.2961 16.7882 20.8277C15.4146 22.741 16.7261 25.466 18.0685 26.9762C18.9288 27.9441 20.1916 24.9989 20.3016 24.6091C20.8063 22.8196 20.4083 21.6532 19.4083 20.2322C18.3626 18.7462 19.2219 20.7364 19.4679 21.3041C20.1114 22.789 20.781 24.9005 22.5049 25.3832C25.1942 26.1362 27.7988 21.976 28.3705 19.7707C28.7298 18.3847 27.1963 15.0649 25.6015 14.8877C24.0671 14.7172 23.8502 19.1057 24.083 20.0238C24.3341 21.0143 24.728 23.3883 26.1076 23.3883C27.9551 23.3883 28.4398 21.2436 28.2216 19.7707C27.6092 15.6367 22.4751 12.1868 22.4751 7.75664C22.4751 5.80038 25.0533 10.774 25.8397 12.5653C26.961 15.1195 28.2719 17.4615 29.5317 19.9345C31.9072 24.5975 33.2484 19.916 32.1072 16.8528C30.8559 13.494 28.3642 8.76229 25.8397 6.08926C25.375 5.59724 27.8361 8.08983 28.1919 8.64988C29.846 11.2543 30.6387 14.2283 32.003 16.957C33.0811 19.1132 36.6614 25.2309 37.7495 19.3241C38.4357 15.5992 35.2156 12.4348 34.9507 8.85831C34.8315 7.2489 35.2518 8.6082 35.7546 9.51335C36.9122 11.5969 37.7324 13.8813 38.8363 16.0042C39.3091 16.9135 39.9932 17.6822 40.6972 18.3862C41.641 19.33 39.8659 15.8458 39.5658 14.5453C39.2338 13.1068 40.8242 6.47175 42.9303 9.78132C44.1536 11.7036 44.2334 16.8769 46.4586 12.1484C46.8743 11.265 47.0419 3.49798 45.0741 4.15391C42.8185 4.90578 47.1949 12.6249 48.6024 13.5925C52.7178 16.4218 52.8185 6.58941 52.6368 5.13648C52.5309 4.28927 52.3032 0.355023 51.0141 0.193884C49.1475 -0.0394381 50.5246 5.53799 50.8206 6.11904C52.2536 8.93192 56.1499 3.86666 57.9963 4.5261C60.4033 5.38576 59.3485 10.6222 57.9963 12.1335C55.4073 15.0271 55.2389 8.42449 55.5845 7.04205" stroke="#00ADB5" stroke-opacity="0.2" stroke-width="1.28667" stroke-linecap="round" stroke-linejoin="round"/>
<path d="M31.7352 6.23815C33.0003 6.20729 34.5062 6.50024 34.9509 5.16626" stroke="#00ADB5" stroke-opacity="0.2" stroke-width="1.28667" stroke-linecap="round" stroke-linejoin="round"/>
</svg>
