<svg width="60" height="35" viewBox="0 0 60 35" fill="none" xmlns="http://www.w3.org/2000/svg">
<path d="M9.53876 32.6313C8.60576 29.865 8.15815 25.4888 4.38775 25.9916C2.89964 26.19 1.95963 26.6486 1.06787 27.8376C-1.98335 31.9059 5.15658 37.2998 7.18656 31.4999C9.43619 25.0724 6.1634 21.1483 4.31331 15.228C3.08575 11.2998 6.06214 23.5151 8.46687 26.855C9.20128 27.875 11.3907 31.5494 13.0819 30.9639C16.3525 29.8318 15.2572 22.4091 11.9505 21.6742C8.52547 20.9131 12.4395 29.2766 13.4095 30.2196C17.0497 33.7587 22.9456 25.7274 20.7936 21.9124C20.0307 20.5601 18.2011 19.6961 17.1015 21.2276C15.7279 23.1409 17.0395 25.8659 18.3818 27.3761C19.2422 28.344 20.505 25.3988 20.6149 25.009C21.1197 23.2195 20.7216 22.0531 19.7217 20.6321C18.676 19.1461 19.5352 21.1363 19.7812 21.704C20.4247 23.1889 21.0943 25.3004 22.8183 25.7831C25.5076 26.5361 28.1121 22.3759 28.6839 20.1706C29.0432 18.7846 27.5097 15.4648 25.9148 15.2876C24.3805 15.1171 24.1636 19.5056 24.3963 20.4237C24.6474 21.4142 25.0413 23.7882 26.421 23.7882C28.2684 23.7882 28.7532 21.6435 28.535 20.1706C27.9225 16.0366 22.7885 12.5867 22.7885 8.15655C22.7885 6.20028 25.3666 11.1739 26.153 12.9652C27.2744 15.5194 28.5853 17.8614 29.8451 20.3344C32.2206 24.9974 33.5618 20.3159 32.4206 17.2527C31.1693 13.8939 28.6775 9.16219 26.153 6.48917C25.6883 5.99714 28.1495 8.48973 28.5052 9.04979C30.1594 11.6542 30.952 14.6283 32.3164 17.3569C33.3944 19.5131 36.9748 25.6308 38.0629 19.724C38.749 15.9991 35.529 12.8347 35.2641 9.25821C35.1448 7.6488 35.5651 9.0081 36.068 9.91325C37.2255 11.9968 38.0457 14.2812 39.1496 16.4041C39.6225 17.3134 40.3066 18.0821 41.0106 18.7861C41.9543 19.7299 40.1792 16.2457 39.8791 14.9452C39.5472 13.5067 41.1376 6.87166 43.2437 10.1812C44.4669 12.1035 44.5468 17.2768 46.772 12.5483C47.1877 11.6649 47.3552 3.89789 45.3874 4.55381C43.1318 5.30568 47.5083 13.0248 48.9157 13.9924C53.0311 16.8217 53.1318 6.98931 52.9502 5.53638C52.8443 4.68917 52.6166 0.754926 51.3275 0.593786C49.4609 0.360464 50.8379 5.9379 51.1339 6.51894C52.5669 9.33182 56.4632 4.26656 58.3096 4.926C60.7167 5.78566 59.6618 11.0221 58.3096 12.5334C55.7207 15.427 55.5523 8.8244 55.8979 7.44196" stroke="#00ADB5" stroke-opacity="0.2" stroke-width="1.28667" stroke-linecap="round" stroke-linejoin="round"/>
<path d="M32.0485 6.63805C33.3136 6.60719 34.8195 6.90015 35.2641 5.56616" stroke="#00ADB5" stroke-opacity="0.2" stroke-width="1.28667" stroke-linecap="round" stroke-linejoin="round"/>
</svg>
