<svg width="78" height="44" viewBox="0 0 78 44" fill="none" xmlns="http://www.w3.org/2000/svg">
<path d="M12.7973 41.5389C11.5912 37.9628 11.0125 32.3055 6.13836 32.9554C4.21461 33.2119 2.99942 33.8047 1.84661 35.3418C-2.09785 40.6011 7.13226 47.5741 9.75652 40.0762C12.6647 31.7671 8.43382 26.6943 6.04213 19.0408C4.4552 13.9627 8.30293 29.7539 11.4116 34.0716C12.361 35.3902 15.1914 40.1402 17.3777 39.3834C21.6058 37.9198 20.1898 28.3241 15.9151 27.3742C11.4874 26.3902 16.5473 37.202 17.8011 38.4211C22.5071 42.9963 30.129 32.6139 27.3469 27.6821C26.3608 25.9339 23.9955 24.8169 22.574 26.7968C20.7983 29.2701 22.4938 32.7929 24.2292 34.7452C25.3413 35.9964 26.9738 32.1891 27.116 31.6851C27.7685 29.3718 27.2539 27.8639 25.9613 26.027C24.6094 24.1059 25.7202 26.6788 26.0382 27.4126C26.8701 29.3323 27.7357 32.0619 29.9643 32.6859C33.4409 33.6594 36.808 28.2812 37.5471 25.4304C38.0116 23.6386 36.0291 19.3469 33.9674 19.1178C31.9839 18.8974 31.7035 24.5707 32.0043 25.7575C32.329 27.0379 32.8382 30.107 34.6217 30.107C37.01 30.107 37.6367 27.3344 37.3546 25.4304C36.5629 20.0861 29.9258 15.6262 29.9258 9.89921C29.9258 7.37025 33.2587 13.7999 34.2753 16.1155C35.725 19.4175 37.4196 22.4452 39.0482 25.6421C42.1191 31.6701 43.8529 25.6181 42.3777 21.6582C40.7601 17.3162 37.5389 11.1993 34.2753 7.74371C33.6746 7.10765 36.8563 10.3299 37.3161 11.0539C39.4545 14.4208 40.4792 18.2655 42.243 21.7929C43.6367 24.5803 48.2651 32.489 49.6717 24.853C50.5588 20.0376 46.3961 15.9469 46.0536 11.3234C45.8995 9.24282 46.4428 11.0001 47.0928 12.1702C48.5893 14.8637 49.6496 17.8169 51.0767 20.5612C51.6879 21.7367 52.5723 22.7305 53.4824 23.6405C54.7024 24.8606 52.4077 20.3564 52.0197 18.6752C51.5906 16.8156 53.6465 8.23817 56.3692 12.5166C57.9505 15.0016 58.0538 21.6894 60.9304 15.5766C61.4678 14.4346 61.6844 4.39384 59.1405 5.24179C56.2246 6.21376 61.8823 16.1926 63.7017 17.4435C69.0219 21.1011 69.1521 8.39027 68.9173 6.512C68.7804 5.41677 68.486 0.330793 66.8195 0.122481C64.4065 -0.179145 66.1867 7.03106 66.5693 7.7822C68.4218 11.4185 73.4587 4.87045 75.8457 5.72293C78.9574 6.83425 77.5937 13.6037 75.8457 15.5574C72.4988 19.298 72.2811 10.7626 72.7279 8.97542" stroke="#00ADB5" stroke-opacity="0.5" stroke-width="1.66333" stroke-linecap="round" stroke-linejoin="round"/>
<path d="M41.8966 7.93609C43.5321 7.8962 45.4788 8.27492 46.0536 6.55042" stroke="#00ADB5" stroke-opacity="0.5" stroke-width="1.66333" stroke-linecap="round" stroke-linejoin="round"/>
</svg>
