<svg width="60" height="34" viewBox="0 0 60 34" fill="none" xmlns="http://www.w3.org/2000/svg">
<path d="M9.22535 32.2314C8.29234 29.4651 7.84474 25.0889 4.07433 25.5917C2.58622 25.7901 1.64621 26.2487 0.754458 27.4377C-2.29677 31.506 4.84316 36.8999 6.87315 31.1C9.12277 24.6725 5.84998 20.7484 3.99989 14.8281C2.77233 10.8999 5.74873 23.1152 8.15346 26.4551C8.88787 27.4751 11.0773 31.1495 12.7685 30.564C16.0391 29.4319 14.9438 22.0092 11.6371 21.2743C8.21206 20.5132 12.1261 28.8767 13.096 29.8197C16.7363 33.3588 22.6322 25.3275 20.4802 21.5125C19.7173 20.1602 17.8877 19.2961 16.7881 20.8277C15.4145 22.741 16.726 25.466 18.0684 26.9762C18.9287 27.9441 20.1916 24.9989 20.3015 24.6091C20.8062 22.8196 20.4082 21.6532 19.4083 20.2322C18.3625 18.7462 19.2218 20.7364 19.4678 21.3041C20.1113 22.789 20.7809 24.9005 22.5048 25.3832C25.1942 26.1362 27.7987 21.976 28.3704 19.7707C28.7298 18.3847 27.1962 15.0649 25.6014 14.8877C24.0671 14.7172 23.8501 19.1057 24.0829 20.0238C24.334 21.0143 24.7279 23.3883 26.1076 23.3883C27.955 23.3883 28.4398 21.2436 28.2216 19.7707C27.6091 15.6367 22.4751 12.1868 22.4751 7.75664C22.4751 5.80038 25.0532 10.774 25.8396 12.5653C26.961 15.1195 28.2719 17.4615 29.5317 19.9345C31.9071 24.5975 33.2483 19.916 32.1072 16.8528C30.8558 13.494 28.3641 8.76229 25.8396 6.08926C25.3749 5.59724 27.8361 8.08983 28.1918 8.64988C29.8459 11.2543 30.6386 14.2283 32.0029 16.957C33.081 19.1132 36.6614 25.2309 37.7495 19.3241C38.4356 15.5992 35.2156 12.4348 34.9506 8.85831C34.8314 7.2489 35.2517 8.6082 35.7546 9.51335C36.9121 11.5969 37.7323 13.8813 38.8362 16.0042C39.309 16.9135 39.9932 17.6822 40.6971 18.3862C41.6409 19.33 39.8658 15.8458 39.5657 14.5453C39.2337 13.1068 40.8242 6.47175 42.9302 9.78132C44.1535 11.7036 44.2334 16.8769 46.4585 12.1484C46.8743 11.265 47.0418 3.49798 45.074 4.15391C42.8184 4.90578 47.1949 12.6249 48.6023 13.5925C52.7177 16.4218 52.8184 6.58941 52.6368 5.13648C52.5309 4.28927 52.3032 0.355023 51.0141 0.193884C49.1475 -0.0394381 50.5245 5.53799 50.8205 6.11904C52.2535 8.93192 56.1498 3.86666 57.9962 4.5261C60.4033 5.38576 59.3484 10.6222 57.9962 12.1335C55.4073 15.0271 55.2389 8.42449 55.5845 7.04205" stroke="#00ADB5" stroke-opacity="0.2" stroke-width="1.28667" stroke-linecap="round" stroke-linejoin="round"/>
<path d="M31.7352 6.23815C33.0003 6.20729 34.5062 6.50024 34.9508 5.16626" stroke="#00ADB5" stroke-opacity="0.2" stroke-width="1.28667" stroke-linecap="round" stroke-linejoin="round"/>
</svg>
