<svg width="77" height="44" viewBox="0 0 77 44" fill="none" xmlns="http://www.w3.org/2000/svg">
<path d="M12.0607 41.9389C10.8546 38.3628 10.276 32.7055 5.40179 33.3554C3.47804 33.6119 2.26284 34.2047 1.11003 35.7418C-2.83442 41.0011 6.39569 47.9741 9.01995 40.4762C11.9281 32.1671 7.69725 27.0943 5.30556 19.4409C3.71863 14.3627 7.56635 30.154 10.6751 34.4716C11.6245 35.7902 14.4548 40.5402 16.6412 39.7834C20.8692 38.3198 19.4532 28.7241 15.1785 27.7742C10.7508 26.7902 15.8107 37.6021 17.0646 38.8211C21.7705 43.3963 29.3924 33.0139 26.6104 28.0821C25.6242 26.3339 23.259 25.2169 21.8375 27.1968C20.0617 29.6702 21.7572 33.193 23.4926 35.1452C24.6048 36.3964 26.2373 32.5891 26.3794 32.0852C27.0319 29.7718 26.5174 28.264 25.2247 26.427C23.8728 24.5059 24.9837 27.0788 25.3017 27.8127C26.1335 29.7323 26.9991 32.4619 29.2278 33.0859C32.7044 34.0594 36.0714 28.6812 36.8105 25.8304C37.275 24.0387 35.2925 19.7469 33.2308 19.5178C31.2473 19.2975 30.9669 24.9707 31.2678 26.1576C31.5924 27.438 32.1016 30.507 33.8852 30.507C36.2734 30.507 36.9001 27.7344 36.618 25.8304C35.8263 20.4861 29.1893 16.0263 29.1893 10.2992C29.1893 7.77028 32.5221 14.1999 33.5387 16.5155C34.9884 19.8175 36.683 22.8452 38.3116 26.0421C41.3825 32.0701 43.1164 26.0182 41.6411 22.0583C40.0235 17.7162 36.8023 11.5993 33.5387 8.14373C32.938 7.50767 36.1197 10.73 36.5795 11.454C38.7179 14.8208 39.7427 18.6655 41.5064 22.193C42.9001 24.9803 47.5285 32.889 48.9352 25.253C49.8222 20.4377 45.6595 16.3469 45.317 11.7234C45.1629 9.64284 45.7062 11.4001 46.3563 12.5702C47.8527 15.2637 48.913 18.2169 50.3401 20.9613C50.9513 22.1367 51.8357 23.1305 52.7458 24.0405C53.9659 25.2606 51.6711 20.7564 51.2831 19.0752C50.854 17.2156 52.91 8.63819 55.6326 12.9166C57.214 15.4016 57.3172 22.0894 60.1938 15.9767C60.7312 14.8346 60.9478 4.79387 58.404 5.64182C55.4881 6.61379 61.1457 16.5926 62.9652 17.8435C68.2853 21.5011 68.4155 8.7903 68.1807 6.91202C68.0438 5.8168 67.7494 0.730818 66.0829 0.522506C63.6699 0.220879 65.4501 7.43108 65.8327 8.18223C67.6852 11.8186 72.7221 5.27047 75.1091 6.12295C78.2208 7.23428 76.8572 14.0037 75.1091 15.9574C71.7622 19.698 71.5445 11.1626 71.9913 9.37545" stroke="#00ADB5" stroke-opacity="0.5" stroke-width="1.66333" stroke-linecap="round" stroke-linejoin="round"/>
<path d="M41.16 8.33612C42.7955 8.29623 44.7422 8.67494 45.3171 6.95044" stroke="#00ADB5" stroke-opacity="0.5" stroke-width="1.66333" stroke-linecap="round" stroke-linejoin="round"/>
</svg>
