<svg width="76" height="56" viewBox="0 0 76 56" fill="none" xmlns="http://www.w3.org/2000/svg">
<path d="M1.01709 29.5998C1.39752 31.5563 2.36466 32.8275 3.11433 34.6079C3.62476 35.8202 4.57905 36.7589 5.1105 37.9484C5.68445 39.2329 6.54388 40.7418 7.34419 41.8851C8.03028 42.8652 8.47985 43.794 9.34541 44.6595C10.8755 46.1896 12.0331 48.013 13.5702 49.5211C15.8046 51.7134 19.5882 54.5736 22.8436 54.3928C23.8892 54.3347 25.0471 54.6588 26.0728 54.5039C26.9527 54.3711 28.0212 54.3267 28.9028 54.4787C30.3516 54.7285 31.9237 54.4772 33.3096 54.7768C34.0576 54.9386 34.8718 54.7023 35.6292 54.8425C36.6111 55.0244 37.7616 55.0699 38.7624 55.0699C42.0377 55.0699 45.3046 55.0502 48.5714 54.6353C50.3414 54.4106 52.0952 54.9974 53.8474 54.6859C55.492 54.3935 57.6827 54.6955 59.2294 54.0188C61.1305 53.1871 63.0217 51.879 64.4902 50.4105C65.2268 49.674 65.7857 48.7942 66.2843 47.8837C66.9392 46.6878 67.3038 45.3978 67.9621 44.2047C70.2577 40.0439 71.5662 35.4126 73.425 31.0755C73.8631 30.0533 74.5832 29.2252 75.1078 28.2808C75.2405 28.042 75.3007 27.7368 75.5172 27.5076C76.3275 26.6496 74.7752 26.5584 74.0617 26.2341" stroke="#00ADB5" stroke-opacity="0.5" stroke-width="1.66333" stroke-linecap="round" stroke-linejoin="round"/>
<path d="M0.65332 29.7817C2.27895 27.6547 3.65797 26.0925 6.02024 24.8898C7.99842 23.8828 10.0498 22.6866 11.8369 21.3725C14.5834 19.353 18.363 18.4531 21.7066 17.8451C25.346 17.1834 28.9281 16.4099 32.6325 16.4099C33.7785 16.4099 34.9127 16.755 36.0588 16.7738C37.4311 16.7963 38.8067 16.8395 40.1724 16.9557C42.2687 17.1341 44.4202 17.092 46.5197 17.1376C49.4489 17.2013 52.2529 18.7176 55.1816 18.9519C56.9237 19.0912 58.9554 19.3518 60.6496 19.8261C61.2841 20.0038 62.008 20.1247 62.6003 20.4124C63.3371 20.7702 63.8537 21.3758 64.5308 21.797C66.7161 23.1568 69.1591 23.7964 71.5199 24.8292C72.2434 25.1458 73.4879 25.6883 74.2892 25.6883C75.3924 25.6883 75.3353 27.7247 75.3353 25.6883" stroke="#00ADB5" stroke-opacity="0.5" stroke-width="1.66333" stroke-linecap="round" stroke-linejoin="round"/>
<path d="M75.1533 26.9619C73.8041 28.7701 72.8425 29.4586 70.9285 30.5146C69.4259 31.3436 67.7613 31.93 66.077 32.2379C64.5054 32.5252 62.7884 32.7522 61.1953 32.8797C59.8691 32.9858 58.5167 32.8315 57.1625 32.9858C54.1 33.3347 51.0097 34.1241 48.0559 34.987C43.8389 36.2189 39.7669 36.3478 35.4118 36.584C30.6574 36.8417 25.8901 36.4784 21.2314 35.5126C19.6604 35.1869 17.9995 35.4793 16.4002 35.4166C14.6387 35.3475 12.913 34.8622 11.2556 34.2896C10.5581 34.0487 9.91522 33.6781 9.18366 33.5114C8.32716 33.3162 7.45654 33.3932 6.60633 33.1879C5.42166 32.902 4.03868 32.3845 3.03849 31.6921C2.60328 31.3908 1.94984 31.1418 1.60832 30.6864C1.50869 30.5536 1.38091 30.2581 1.38091 30.1002C1.38091 29.7236 1.07243 29.8187 1.56284 30.1457" stroke="#00ADB5" stroke-opacity="0.5" stroke-width="1.66333" stroke-linecap="round" stroke-linejoin="round"/>
<path d="M36.0387 45.4276C37.1458 45.3046 38.6089 45.3257 38.1511 43.9014C38.0041 43.4442 37.6339 43.3954 37.2414 43.2646C36.0714 42.8746 33.9769 43.6298 33.5371 44.8515C32.7479 47.0437 34.2416 49.4114 36.5895 48.6518C37.2282 48.4451 38.3616 47.9937 38.7676 47.4136C39.2551 46.7172 38.5232 46.9229 38.0399 46.2462" stroke="#00ADB5" stroke-opacity="0.5" stroke-width="1.66333" stroke-linecap="round" stroke-linejoin="round"/>
<path d="M32.673 43.0626C34.4376 42.3546 35.3405 42.062 37.1252 42.062C37.8445 42.062 38.2043 42.0113 38.8383 42.4259C39.8859 43.1108 40.2463 44.4126 40.1371 45.5591C40.0449 46.5272 39.7245 47.8542 39.3841 48.7732C39.1309 49.4568 38.5043 49.5748 37.863 49.7031C37.2769 49.8203 35.9992 49.4925 35.5384 49.7485C35.0492 50.0203 33.5519 50.1119 33.1733 49.607C32.8249 49.1426 32.4514 48.9423 32.1979 48.379C31.9559 47.8412 31.8467 47.3273 31.6521 46.7922C31.3849 46.0573 30.9046 44.0507 31.8998 43.6084C32.483 43.3492 32.7327 43.194 33.4007 43.194C33.5903 43.194 33.7527 43.3355 33.9465 43.3355C34.226 43.3355 33.4073 43.1536 33.1278 43.1536" stroke="#00ADB5" stroke-opacity="0.5" stroke-width="1.66333" stroke-linecap="round" stroke-linejoin="round"/>
<path d="M35.8567 35.7854C37.1398 34.1262 38.3107 32.4154 39.6368 30.8025C40.3492 29.9361 41.2341 29.1908 42.0019 28.3616C44.2002 25.9874 46.4404 23.389 48.1167 20.6145C49.768 17.8813 52.0215 14.9049 54.4691 12.8522C55.7619 11.7678 56.9172 10.5694 58.042 9.3197C59.1333 8.10716 59.636 6.41139 60.6698 5.13027C61.4705 4.13816 66.7113 -2.61343 67.6236 1.49168C67.982 3.10464 66.4084 4.23304 65.4202 5.22123C64.2988 6.34263 63.172 7.76736 62.2162 9.04175C61.2948 10.2703 60.175 11.3503 59.2801 12.5894C58.0626 14.2752 55.8473 15.481 54.9593 17.3903C54.2267 18.9653 53.0113 20.2312 52.0989 21.6909C50.8346 23.7139 49.3533 25.4034 47.864 27.2549C46.684 28.722 44.8345 29.9281 43.998 31.601C43.2993 32.9984 42.0608 33.5874 40.9305 34.4917C40.4384 34.8853 39.8404 35.1038 39.4043 35.6489C39.2593 35.8302 38.9996 36.0399 38.8636 35.8359C38.786 35.7196 38.4901 35.9803 38.5452 36.1088C38.7391 36.5613 38.2674 35.0204 38.2218 34.8757" stroke="#00ADB5" stroke-opacity="0.5" stroke-width="1.66333" stroke-linecap="round" stroke-linejoin="round"/>
<path d="M35.1289 36.2403C35.4775 36.417 37.6759 38.086 37.6759 36.7406C37.6759 36.3334 38.199 35.6545 38.3834 35.2397C38.5228 34.926 37.2666 35.2266 37.0796 35.4671C36.8352 35.7813 36.3615 36.0364 37.1301 36.0584C37.7206 36.0753 38.1821 35.8213 38.631 35.4722C38.7601 35.3718 40.4955 35.6465 38.9494 35.6036C38.1272 35.5807 37.3282 35.6036 36.5389 35.6036C35.8565 35.6036 37.2392 35.4216 37.4384 35.4216C37.5975 35.4216 36.2853 36.2021 36.0588 35.9472C36.0037 35.8852 35.908 35.7143 36.1295 35.6036" stroke="#00ADB5" stroke-opacity="0.5" stroke-width="1.66333" stroke-linecap="round" stroke-linejoin="round"/>
<path d="M6.20215 29.5088C6.30446 29.5631 9.55549 31.2652 9.56784 31.0552C9.58281 30.8008 9.40158 30.5792 9.52741 30.3275C10.0774 29.2275 10.7892 29.755 11.7358 30.181C12.4744 30.5133 11.3536 26.8333 13.5804 28.3869C14.731 29.1897 15.0379 29.0618 14.8488 27.7148C14.7057 26.6948 15.0579 26.6919 15.9354 26.8001C16.5318 26.8736 16.9593 27.0038 17.2998 26.4362C17.713 25.7476 18.1786 25.3558 19.0231 25.6529C19.7234 25.8993 20.3453 26.5921 20.8272 25.7085C21.0393 25.3198 20.8604 24.1563 21.5297 24.3794C21.9493 24.5193 22.5019 25.067 22.9801 24.8949C23.3424 24.7645 23.6207 23.641 24.0312 23.8185C24.4594 24.0036 24.8959 24.8165 25.4361 24.622C25.697 24.5281 26.1807 23.6756 25.6686 23.7781" stroke="#00ADB5" stroke-opacity="0.5" stroke-width="1.66333" stroke-linecap="round" stroke-linejoin="round"/>
<path d="M19.0282 27.8715C20.1557 28.7889 24.3785 33.6892 25.6181 30.0294C25.8401 29.374 25.8754 28.0756 26.4974 29.15C27.0101 30.0355 27.7818 30.6502 28.6199 29.8121C29.1753 29.2567 29.4226 28.314 30.2169 28.0231C30.9457 27.7562 31.4808 29.1265 32.0867 28.3263C32.5753 27.681 32.3389 26.5712 31.6218 26.1836C31.3865 26.0564 31.3209 26.4946 31.2175 26.598" stroke="#00ADB5" stroke-opacity="0.5" stroke-width="1.66333" stroke-linecap="round" stroke-linejoin="round"/>
<path d="M28.7615 22.2316C30.5183 21.9299 32.7313 21.3155 34.0677 22.8886C34.6872 23.6178 34.6286 24.5488 34.2194 25.3749C33.9202 25.9788 33.1158 26.28 32.6022 25.6883C32.181 25.2029 33.0496 24.4027 33.3602 24.1065C34.425 23.0913 36.0034 24.7169 36.3368 25.8197C36.6153 26.741 34.0969 28.8755 34.4013 27.9624" stroke="#00ADB5" stroke-opacity="0.5" stroke-width="1.66333" stroke-linecap="round" stroke-linejoin="round"/>
<path d="M58.3248 25.3245C58.847 25.1451 62.2035 24.0641 61.5591 25.85C61.2285 26.7663 59.9635 27.2579 59.1334 27.5582C58.7408 27.7002 57.7268 27.6756 58.3854 27.1033C58.9557 26.6079 59.7592 26.3754 60.508 26.4363C63.427 26.6736 59.3449 30.0268 58.5067 30.4892C56.8781 31.3878 54.6626 32.3331 52.9579 31.2372" stroke="#00ADB5" stroke-opacity="0.5" stroke-width="1.66333" stroke-linecap="round" stroke-linejoin="round"/>
<path d="M40.4048 19.9575C41.0973 21.084 41.9307 22.2158 42.5223 23.399C42.7259 23.8063 41.8448 22.7636 41.6379 22.358C41.5831 22.2506 41.2039 21.0563 41.1679 21.0643C40.7248 21.1627 40.6207 23.1913 40.5009 23.5658C39.9341 25.3368 38.5338 24.6583 37.1604 24.526C35.4978 24.3657 34.7541 26.0058 33.8352 27.0528C33.0999 27.8905 32.8109 28.1476 33.3096 29.145C33.7131 29.952 33.8809 30.7345 33.3096 31.4646C32.8638 32.0342 32.3056 32.3942 31.7682 32.8644C31.2759 33.2952 31.982 33.2243 31.8895 32.9655C31.6372 32.259 30.08 32.4062 29.5699 32.4399C27.6769 32.5651 25.7484 32.0902 23.8897 32.2074C22.9022 32.2697 21.9727 32.8205 20.994 32.9655C19.9999 33.1127 21.3139 33.9755 21.6863 34.2238C22.3271 34.651 20.4318 33.3151 19.7356 32.9857C18.5681 32.4331 17.4897 32.0053 16.8854 30.7823C16.2797 29.5565 15.7464 28.7207 14.7225 27.8209C14.3694 27.5107 14.3277 27.0388 14.5001 26.6182C14.8995 25.6437 15.7852 24.8505 16.663 24.3238" stroke="#00ADB5" stroke-opacity="0.5" stroke-width="1.66333" stroke-linecap="round" stroke-linejoin="round"/>
<path d="M40.223 23.5962C37.9428 22.0048 36.0613 21.3194 33.3805 20.9582C32.438 20.8312 31.4328 20.1787 30.8183 19.4573C30.2729 18.8171 30.5821 18.9864 29.939 19.8565C29.0605 21.045 28.4082 19.9781 27.2858 20.2911C25.5656 20.7708 24.0891 22.3699 22.3434 22.6663C21.8654 22.7475 21.9806 21.9477 21.3832 22.2923C20.3772 22.8727 19.6078 23.4218 18.4319 23.6063C17.7208 23.7178 16.3731 24.1861 16.4812 25.0516" stroke="#00ADB5" stroke-opacity="0.5" stroke-width="1.66333" stroke-linecap="round" stroke-linejoin="round"/>
<path d="M55.6869 23.5962C57.8872 23.8083 60.1165 23.7809 62.3071 24.0156C63.0785 24.0983 63.4726 24.41 64.0152 24.9152C64.5046 25.3709 65.2686 26.4435 65.971 26.502C66.9836 26.5864 67.5068 26.1658 68.4523 25.8703C69.0214 25.6924 70.8376 25.8703 70.2412 25.8703" stroke="#00ADB5" stroke-opacity="0.5" stroke-width="1.66333" stroke-linecap="round" stroke-linejoin="round"/>
<path d="M54.0495 26.0522C51.6844 27.6108 50.4209 29.9746 47.8892 31.3939C47.3879 31.6749 45.8534 32.2189 45.9688 33.1424C46.0524 33.8108 51.1769 31.7184 51.9573 31.3282" stroke="#00ADB5" stroke-opacity="0.5" stroke-width="1.66333" stroke-linecap="round" stroke-linejoin="round"/>
<path d="M62.8732 28.2354C64.1593 29.1927 65.268 30.5609 66.8756 30.0749C67.3107 29.9433 68.2208 29.892 68.513 29.5998" stroke="#00ADB5" stroke-opacity="0.5" stroke-width="1.66333" stroke-linecap="round" stroke-linejoin="round"/>
</svg>
