<svg width="76" height="55" viewBox="0 0 76 55" fill="none" xmlns="http://www.w3.org/2000/svg">
<path d="M1.09717 29.4966C1.4776 31.4531 2.44473 32.7242 3.19441 34.5047C3.70484 35.7169 4.65913 36.6557 5.19058 37.8451C5.76452 39.1296 6.62396 40.6385 7.42427 41.7818C8.11035 42.762 8.55993 43.6907 9.42549 44.5563C10.9556 46.0864 12.1132 47.9097 13.6503 49.4178C15.8847 51.6101 19.6683 54.4703 22.9236 54.2895C23.9693 54.2314 25.1272 54.5555 26.1529 54.4007C27.0327 54.2679 28.1013 54.2234 28.9829 54.3754C30.4317 54.6252 32.0038 54.3739 33.3896 54.6736C34.1376 54.8353 34.9518 54.599 35.7092 54.7393C36.6912 54.9211 37.8417 54.9667 38.8425 54.9667C42.1178 54.9667 45.3847 54.9469 48.6515 54.5321C50.4214 54.3073 52.1752 54.8941 53.9274 54.5826C55.5721 54.2902 57.7628 54.5922 59.3095 53.9155C61.2106 53.0838 63.1018 51.7758 64.5703 50.3073C65.3068 49.5707 65.8658 48.6909 66.3643 47.7805C67.0193 46.5845 67.3839 45.2945 68.0421 44.1014C70.3378 39.9406 71.6463 35.3093 73.5051 30.9722C73.9431 29.95 74.6633 29.1219 75.1879 28.1776C75.3206 27.9387 75.3808 27.6336 75.5973 27.4044C76.4076 26.5463 74.8553 26.4552 74.1418 26.1309" stroke="#00ADB5" stroke-opacity="0.5" stroke-width="1.66333" stroke-linecap="round" stroke-linejoin="round"/>
<path d="M0.733276 29.6785C2.3589 27.5515 3.73792 25.9892 6.10019 24.7866C8.07837 23.7795 10.1297 22.5834 11.9169 21.2693C14.6634 19.2498 18.4429 18.3498 21.7866 17.7419C25.4259 17.0802 29.008 16.3066 32.7124 16.3066C33.8584 16.3066 34.9926 16.6517 36.1388 16.6705C37.511 16.693 38.8866 16.7362 40.2524 16.8524C42.3486 17.0308 44.5002 16.9887 46.5997 17.0344C49.5289 17.098 52.3328 18.6143 55.2616 18.8486C57.0037 18.988 59.0354 19.2485 60.7295 19.7229C61.364 19.9005 62.0879 20.0214 62.6802 20.3091C63.417 20.667 63.9337 21.2725 64.6107 21.6938C66.7961 23.0536 69.2391 23.6931 71.5998 24.7259C72.3234 25.0425 73.5679 25.585 74.3692 25.585C75.4723 25.585 75.4153 27.6214 75.4153 25.585" stroke="#00ADB5" stroke-opacity="0.5" stroke-width="1.66333" stroke-linecap="round" stroke-linejoin="round"/>
<path d="M75.2332 26.8585C73.884 28.6667 72.9225 29.3552 71.0084 30.4112C69.5058 31.2402 67.8413 31.8266 66.157 32.1345C64.5853 32.4218 62.8683 32.6488 61.2752 32.7763C59.949 32.8824 58.5967 32.7281 57.2424 32.8824C54.1799 33.2313 51.0897 34.0207 48.1359 34.8836C43.9189 36.1156 39.8469 36.2444 35.4918 36.4806C30.7374 36.7383 25.9701 36.375 21.3114 35.4092C19.7403 35.0835 18.0795 35.3759 16.4801 35.3132C14.7187 35.2441 12.993 34.7588 11.3356 34.1862C10.638 33.9453 9.99517 33.5747 9.26362 33.408C8.40711 33.2128 7.53649 33.2898 6.68628 33.0845C5.50161 32.7986 4.11863 32.2811 3.11844 31.5887C2.68324 31.2874 2.0298 31.0384 1.68828 30.583C1.58865 30.4502 1.46087 30.1547 1.46087 29.9968C1.46087 29.6203 1.15239 29.7153 1.6428 30.0423" stroke="#00ADB5" stroke-opacity="0.5" stroke-width="1.66333" stroke-linecap="round" stroke-linejoin="round"/>
<path d="M36.1186 45.3244C37.2257 45.2014 38.6889 45.2226 38.231 43.7982C38.0841 43.341 37.7138 43.2923 37.3214 43.1615C36.1513 42.7715 34.0569 43.5267 33.6171 44.7483C32.8279 46.9405 34.3215 49.3082 36.6695 48.5486C37.3082 48.342 38.4415 47.8906 38.8476 47.3105C39.3351 46.614 38.6032 46.8198 38.1198 46.1431" stroke="#00ADB5" stroke-opacity="0.5" stroke-width="1.66333" stroke-linecap="round" stroke-linejoin="round"/>
<path d="M32.753 42.9594C34.5177 42.2513 35.4206 41.9587 37.2053 41.9587C37.9246 41.9587 38.2844 41.908 38.9184 42.3226C39.9659 43.0075 40.3264 44.3093 40.2172 45.4558C40.125 46.424 39.8046 47.7509 39.4642 48.6699C39.211 49.3535 38.5844 49.4715 37.9431 49.5998C37.3569 49.717 36.0792 49.3893 35.6184 49.6453C35.1293 49.917 33.632 50.0086 33.2533 49.5038C32.905 49.0393 32.5315 48.839 32.278 48.2757C32.036 47.7379 31.9268 47.224 31.7322 46.6889C31.465 45.954 30.9847 43.9474 31.9798 43.5051C32.5631 43.2459 32.8128 43.0908 33.4808 43.0908C33.6704 43.0908 33.8328 43.2323 34.0265 43.2323C34.3061 43.2323 33.4874 43.0503 33.2079 43.0503" stroke="#00ADB5" stroke-opacity="0.5" stroke-width="1.66333" stroke-linecap="round" stroke-linejoin="round"/>
<path d="M35.9366 35.6821C37.2197 34.0229 38.3906 32.3121 39.7167 30.6993C40.4291 29.8328 41.3141 29.0875 42.0818 28.2584C44.2802 25.8842 46.5204 23.2857 48.1967 20.5112C49.8479 17.7781 52.1015 14.8017 54.549 12.7489C55.8419 11.6646 56.9972 10.4662 58.1219 9.21643C59.2132 8.00389 59.7159 6.30812 60.7498 5.027C61.5504 4.03489 66.7913 -2.71671 67.7035 1.38841C68.062 3.00137 66.4884 4.12977 65.5002 5.11796C64.3788 6.23936 63.252 7.66408 62.2962 8.93848C61.3748 10.167 60.2549 11.2471 59.3601 12.4861C58.1425 14.1719 55.9273 15.3777 55.0392 17.287C54.3067 18.8621 53.0912 20.1279 52.1789 21.5876C50.9145 23.6106 49.4332 25.3001 47.944 27.1516C46.7639 28.6187 44.9144 29.8248 44.078 31.4977C43.3793 32.8951 42.1408 33.4841 41.0105 34.3884C40.5184 34.7821 39.9204 35.0005 39.4843 35.5457C39.3392 35.727 39.0795 35.9366 38.9435 35.7326C38.866 35.6163 38.5701 35.8771 38.6252 36.0055C38.8191 36.458 38.3474 34.9171 38.3017 34.7725" stroke="#00ADB5" stroke-opacity="0.5" stroke-width="1.66333" stroke-linecap="round" stroke-linejoin="round"/>
<path d="M35.2089 36.1369C35.5575 36.3136 37.7559 37.9826 37.7559 36.6372C37.7559 36.23 38.279 35.5512 38.4634 35.1363C38.6028 34.8226 37.3466 35.1232 37.1595 35.3637C36.9152 35.6779 36.4415 35.933 37.2101 35.955C37.8006 35.9719 38.2621 35.7179 38.711 35.3688C38.84 35.2684 40.5755 35.5431 39.0294 35.5002C38.2072 35.4773 37.4081 35.5002 36.6188 35.5002C35.9365 35.5002 37.3191 35.3182 37.5184 35.3182C37.6774 35.3182 36.3653 36.0987 36.1387 35.8438C36.0836 35.7818 35.988 35.6109 36.2095 35.5002" stroke="#00ADB5" stroke-opacity="0.5" stroke-width="1.66333" stroke-linecap="round" stroke-linejoin="round"/>
<path d="M6.28223 29.4056C6.38454 29.4598 9.63557 31.1619 9.64792 30.952C9.66288 30.6976 9.48166 30.4759 9.60749 30.2242C10.1575 29.1242 10.8692 29.6517 11.8159 30.0777C12.5544 30.41 11.4337 26.7301 13.6605 28.2837C14.8111 29.0864 15.118 28.9586 14.9289 27.6115C14.7858 26.5916 15.138 26.5887 16.0154 26.6968C16.6119 26.7704 17.0394 26.9006 17.3799 26.333C17.7931 25.6443 18.2586 25.2525 19.1032 25.5497C19.8035 25.7961 20.4254 26.4888 20.9073 25.6053C21.1194 25.2165 20.9405 24.0531 21.6098 24.2762C22.0293 24.416 22.582 24.9638 23.0602 24.7916C23.4224 24.6612 23.7008 23.5377 24.1113 23.7152C24.5395 23.9004 24.976 24.7132 25.5162 24.5187C25.777 24.4248 26.2608 23.5724 25.7487 23.6748" stroke="#00ADB5" stroke-opacity="0.5" stroke-width="1.66333" stroke-linecap="round" stroke-linejoin="round"/>
<path d="M19.108 27.7682C20.2355 28.6856 24.4583 33.586 25.6979 29.9261C25.9199 29.2707 25.9552 27.9724 26.5772 29.0468C27.0899 29.9323 27.8617 30.5469 28.6998 29.7088C29.2551 29.1534 29.5024 28.2107 30.2967 27.9198C31.0255 27.6529 31.5606 29.0233 32.1665 28.223C32.6551 27.5777 32.4187 26.4679 31.7016 26.0803C31.4663 25.9532 31.4007 26.3913 31.2973 26.4947" stroke="#00ADB5" stroke-opacity="0.5" stroke-width="1.66333" stroke-linecap="round" stroke-linejoin="round"/>
<path d="M28.8416 22.1283C30.5983 21.8266 32.8114 21.2122 34.1478 22.7853C34.7673 23.5145 34.7087 24.4455 34.2994 25.2717C34.0003 25.8755 33.1958 26.1767 32.6823 25.585C32.261 25.0997 33.1297 24.2994 33.4403 24.0032C34.505 22.988 36.0835 24.6136 36.4169 25.7164C36.6954 26.6377 34.177 28.7722 34.4814 27.8591" stroke="#00ADB5" stroke-opacity="0.5" stroke-width="1.66333" stroke-linecap="round" stroke-linejoin="round"/>
<path d="M58.4049 25.2212C58.927 25.0418 62.2836 23.9609 61.6392 25.7468C61.3086 26.663 60.0436 27.1546 59.2135 27.4549C58.8208 27.5969 57.8069 27.5723 58.4655 27.0001C59.0358 26.5046 59.8392 26.2721 60.588 26.333C63.507 26.5703 59.425 29.9235 58.5868 30.386C56.9582 31.2845 54.7427 32.2298 53.038 31.1339" stroke="#00ADB5" stroke-opacity="0.5" stroke-width="1.66333" stroke-linecap="round" stroke-linejoin="round"/>
<path d="M40.4848 19.8542C41.1772 20.9808 42.0106 22.1125 42.6022 23.2957C42.8059 23.703 41.9248 22.6603 41.7179 22.2547C41.6631 22.1473 41.2839 20.953 41.2479 20.961C40.8048 21.0594 40.7007 23.088 40.5808 23.4625C40.0141 25.2335 38.6138 24.5551 37.2404 24.4227C35.5777 24.2624 34.8341 25.9026 33.9151 26.9495C33.1798 27.7872 32.8908 28.0443 33.3895 29.0417C33.7931 29.8487 33.9609 30.6313 33.3895 31.3613C32.9437 31.931 32.3856 32.2909 31.8482 32.7611C31.3558 33.192 32.0619 33.121 31.9695 32.8622C31.7172 32.1557 30.16 32.3029 29.6499 32.3366C27.7568 32.4618 25.8283 31.9869 23.9696 32.1042C22.9822 32.1664 22.0527 32.7172 21.0739 32.8622C20.0799 33.0095 21.3939 33.8723 21.7663 34.1205C22.4071 34.5477 20.5117 33.2119 19.8156 32.8824C18.6481 32.3299 17.5696 31.902 16.9654 30.679C16.3596 29.4532 15.8263 28.6174 14.8024 27.7176C14.4494 27.4074 14.4077 26.9355 14.5801 26.5149C14.9794 25.5404 15.8652 24.7472 16.743 24.2206" stroke="#00ADB5" stroke-opacity="0.5" stroke-width="1.66333" stroke-linecap="round" stroke-linejoin="round"/>
<path d="M40.3031 23.4929C38.0229 21.9015 36.1414 21.2162 33.4605 20.8549C32.5181 20.7279 31.5129 20.0754 30.8984 19.354C30.353 18.7138 30.6621 18.8831 30.019 19.7532C29.1406 20.9417 28.4883 19.8749 27.3659 20.1878C25.6457 20.6675 24.1692 22.2666 22.4235 22.563C21.9454 22.6442 22.0607 21.8444 21.4633 22.1891C20.4573 22.7694 19.6879 23.3185 18.512 23.503C17.8009 23.6146 16.4531 24.0829 16.5613 24.9483" stroke="#00ADB5" stroke-opacity="0.5" stroke-width="1.66333" stroke-linecap="round" stroke-linejoin="round"/>
<path d="M55.767 23.4929C57.9672 23.705 60.1966 23.6777 62.3872 23.9124C63.1585 23.995 63.5527 24.3067 64.0953 24.8119C64.5847 25.2676 65.3487 26.3402 66.051 26.3987C67.0637 26.4831 67.5869 26.0625 68.5323 25.767C69.1015 25.5892 70.9176 25.767 70.3213 25.767" stroke="#00ADB5" stroke-opacity="0.5" stroke-width="1.66333" stroke-linecap="round" stroke-linejoin="round"/>
<path d="M54.1296 25.949C51.7644 27.5075 50.501 29.8713 47.9693 31.2906C47.468 31.5716 45.9335 32.1156 46.0489 33.0392C46.1324 33.7075 51.257 31.6151 52.0374 31.2249" stroke="#00ADB5" stroke-opacity="0.5" stroke-width="1.66333" stroke-linecap="round" stroke-linejoin="round"/>
<path d="M62.9532 28.1321C64.2393 29.0894 65.3481 30.4576 66.9557 29.9716C67.3907 29.8401 68.3009 29.7887 68.5931 29.4966" stroke="#00ADB5" stroke-opacity="0.5" stroke-width="1.66333" stroke-linecap="round" stroke-linejoin="round"/>
</svg>
