<svg width="59" height="43" viewBox="0 0 59 43" fill="none" xmlns="http://www.w3.org/2000/svg">
<path d="M0.508301 22.9109C0.802584 24.4244 1.55071 25.4076 2.13062 26.7849C2.52546 27.7227 3.26365 28.4488 3.67475 29.3689C4.11872 30.3625 4.78353 31.5297 5.40261 32.4141C5.93333 33.1723 6.2811 33.8907 6.95065 34.5603C8.13425 35.7439 9.0297 37.1543 10.2187 38.3209C11.9472 40.0168 14.8739 42.2293 17.3921 42.0894C18.201 42.0445 19.0966 42.2952 19.8901 42.1754C20.5707 42.0727 21.3973 42.0383 22.0792 42.1559C23.2 42.3491 24.416 42.1547 25.488 42.3865C26.0667 42.5116 26.6965 42.3288 27.2824 42.4373C28.0419 42.578 28.9319 42.6132 29.7061 42.6132C32.2397 42.6132 34.7668 42.5979 37.2938 42.277C38.6629 42.1032 40.0196 42.5571 41.375 42.3161C42.6472 42.09 44.3418 42.3236 45.5383 41.8001C47.0088 41.1568 48.4718 40.1449 49.6078 39.009C50.1775 38.4392 50.6098 37.7586 50.9955 37.0544C51.5021 36.1292 51.7842 35.1314 52.2934 34.2085C54.0692 30.9899 55.0814 27.4073 56.5192 24.0524C56.8581 23.2617 57.4151 22.6211 57.821 21.8906C57.9236 21.7058 57.9702 21.4698 58.1376 21.2925C58.7645 20.6288 57.5637 20.5582 57.0118 20.3074" stroke="#00ADB5" stroke-opacity="0.2" stroke-width="1.28667" stroke-linecap="round" stroke-linejoin="round"/>
<path d="M0.226807 23.0517C1.4843 21.4064 2.55104 20.1979 4.37837 19.2676C5.90859 18.4886 7.4954 17.5633 8.87785 16.5468C11.0024 14.9847 13.9261 14.2885 16.5125 13.8182C19.3277 13.3064 22.0987 12.708 24.9642 12.708C25.8507 12.708 26.728 12.9749 27.6146 12.9895C28.6761 13.0069 29.7402 13.0403 30.7967 13.1302C32.4182 13.2682 34.0825 13.2356 35.7066 13.2709C37.9725 13.3202 40.1415 14.4931 42.407 14.6743C43.7546 14.7821 45.3262 14.9837 46.6367 15.3506C47.1276 15.488 47.6875 15.5815 48.1457 15.8041C48.7157 16.0809 49.1153 16.5493 49.639 16.8752C51.3295 17.9271 53.2193 18.4218 55.0454 19.2207C55.6051 19.4656 56.5678 19.8853 57.1877 19.8853C58.041 19.8853 57.9969 21.4605 57.9969 19.8853" stroke="#00ADB5" stroke-opacity="0.2" stroke-width="1.28667" stroke-linecap="round" stroke-linejoin="round"/>
<path d="M57.856 20.8704C56.8124 22.2691 56.0686 22.8016 54.588 23.6185C53.4256 24.2598 52.138 24.7134 50.8351 24.9516C49.6194 25.1738 48.2912 25.3494 47.0589 25.448C46.033 25.5301 44.9869 25.4108 43.9393 25.5301C41.5703 25.8 39.1799 26.4107 36.895 27.0782C33.6329 28.0311 30.483 28.1308 27.1142 28.3135C23.4364 28.5129 19.7487 28.2318 16.145 27.4847C14.9297 27.2328 13.6449 27.459 12.4078 27.4104C11.0452 27.357 9.71026 26.9816 8.42821 26.5387C7.88862 26.3523 7.39133 26.0656 6.82544 25.9367C6.16289 25.7857 5.48943 25.8452 4.83175 25.6865C3.91535 25.4653 2.84555 25.065 2.07186 24.5294C1.73521 24.2963 1.22974 24.1037 0.96556 23.7514C0.888491 23.6487 0.789646 23.4201 0.789646 23.298C0.789646 23.0067 0.551023 23.0803 0.930377 23.3332" stroke="#00ADB5" stroke-opacity="0.2" stroke-width="1.28667" stroke-linecap="round" stroke-linejoin="round"/>
<path d="M27.5988 35.1546C28.4552 35.0595 29.587 35.0758 29.2329 33.974C29.1192 33.6204 28.8328 33.5827 28.5292 33.4815C27.6241 33.1798 26.004 33.764 25.6638 34.709C25.0533 36.4048 26.2087 38.2363 28.0249 37.6487C28.519 37.4888 29.3957 37.1396 29.7098 36.6909C30.0869 36.1522 29.5208 36.3113 29.1469 35.7879" stroke="#00ADB5" stroke-opacity="0.2" stroke-width="1.28667" stroke-linecap="round" stroke-linejoin="round"/>
<path d="M24.9954 33.3251C26.3605 32.7774 27.0589 32.5511 28.4394 32.5511C28.9959 32.5511 29.2742 32.5118 29.7646 32.8325C30.5749 33.3624 30.8538 34.3694 30.7693 35.2562C30.698 36.0051 30.4501 37.0316 30.1868 37.7425C29.991 38.2713 29.5062 38.3626 29.0102 38.4618C28.5568 38.5525 27.5684 38.2989 27.2119 38.497C26.8336 38.7072 25.6754 38.7781 25.3824 38.3875C25.113 38.0282 24.824 37.8733 24.628 37.4376C24.4408 37.0215 24.3563 36.624 24.2058 36.2101C23.9991 35.6416 23.6276 34.0894 24.3973 33.7473C24.8485 33.5468 25.0416 33.4267 25.5584 33.4267C25.705 33.4267 25.8307 33.5362 25.9805 33.5362C26.1968 33.5362 25.5635 33.3955 25.3473 33.3955" stroke="#00ADB5" stroke-opacity="0.2" stroke-width="1.28667" stroke-linecap="round" stroke-linejoin="round"/>
<path d="M27.4583 27.6958C28.4508 26.4124 29.3565 25.0889 30.3823 23.8413C30.9334 23.1711 31.6179 22.5946 32.2118 21.9532C33.9124 20.1166 35.6453 18.1066 36.942 15.9604C38.2193 13.8462 39.9625 11.5438 41.8558 9.95589C42.8559 9.11711 43.7496 8.19009 44.6196 7.22336C45.4638 6.2854 45.8526 4.97365 46.6524 3.98264C47.2717 3.2152 51.3258 -2.00748 52.0314 1.16802C52.3087 2.41572 51.0914 3.28859 50.327 4.05301C49.4596 4.92046 48.588 6.02255 47.8486 7.00835C47.1358 7.95871 46.2696 8.79416 45.5774 9.75261C44.6356 11.0566 42.9219 11.9894 42.235 13.4663C41.6683 14.6847 40.7281 15.6639 40.0224 16.7931C39.0444 18.3579 37.8985 19.6649 36.7465 21.0971C35.8337 22.232 34.403 23.1649 33.756 24.459C33.2155 25.5399 32.2574 25.9956 31.3831 26.6951C31.0024 26.9996 30.5398 27.1686 30.2025 27.5903C30.0903 27.7305 29.8894 27.8927 29.7842 27.7349C29.7242 27.6449 29.4954 27.8466 29.5379 27.946C29.688 28.296 29.3231 27.104 29.2878 26.9922" stroke="#00ADB5" stroke-opacity="0.2" stroke-width="1.28667" stroke-linecap="round" stroke-linejoin="round"/>
<path d="M26.8953 28.0477C27.1649 28.1844 28.8655 29.4754 28.8655 28.4347C28.8655 28.1197 29.2702 27.5945 29.4128 27.2736C29.5206 27.031 28.5489 27.2635 28.4042 27.4496C28.2152 27.6926 27.8488 27.8899 28.4433 27.9069C28.9001 27.92 29.2571 27.7236 29.6043 27.4535C29.7041 27.3758 31.0466 27.5883 29.8506 27.5551C29.2146 27.5374 28.5965 27.5551 27.9859 27.5551C27.4581 27.5551 28.5277 27.4144 28.6818 27.4144C28.8048 27.4144 27.7898 28.0181 27.6146 27.8209C27.5719 27.773 27.4979 27.6408 27.6693 27.5551" stroke="#00ADB5" stroke-opacity="0.2" stroke-width="1.28667" stroke-linecap="round" stroke-linejoin="round"/>
<path d="M4.51904 22.8405C4.59819 22.8825 7.11301 24.1991 7.12257 24.0367C7.13414 23.8399 6.99395 23.6685 7.09129 23.4738C7.51676 22.6229 8.06731 23.0309 8.79961 23.3604C9.37089 23.6175 8.50392 20.7709 10.2265 21.9727C11.1165 22.5936 11.3539 22.4947 11.2077 21.4527C11.0969 20.6637 11.3694 20.6615 12.0481 20.7452C12.5095 20.8021 12.8402 20.9028 13.1036 20.4637C13.4232 19.931 13.7834 19.6279 14.4367 19.8578C14.9784 20.0484 15.4594 20.5843 15.8322 19.9008C15.9963 19.6001 15.8579 18.7001 16.3756 18.8727C16.7002 18.9809 17.1277 19.4046 17.4976 19.2714C17.7778 19.1705 17.9931 18.3014 18.3107 18.4387C18.6419 18.582 18.9796 19.2107 19.3974 19.0603C19.5992 18.9877 19.9734 18.3282 19.5773 18.4075" stroke="#00ADB5" stroke-opacity="0.2" stroke-width="1.28667" stroke-linecap="round" stroke-linejoin="round"/>
<path d="M14.4408 21.5742C15.313 22.2838 18.5795 26.0745 19.5384 23.2434C19.7101 22.7364 19.7374 21.7321 20.2186 22.5632C20.6151 23.2482 21.2121 23.7236 21.8604 23.0753C22.29 22.6457 22.4813 21.9164 23.0958 21.6914C23.6595 21.485 24.0735 22.545 24.5422 21.926C24.9201 21.4268 24.7372 20.5683 24.1825 20.2685C24.0005 20.1701 23.9497 20.5091 23.8698 20.589" stroke="#00ADB5" stroke-opacity="0.2" stroke-width="1.28667" stroke-linecap="round" stroke-linejoin="round"/>
<path d="M21.9697 17.2115C23.3287 16.9781 25.0406 16.5028 26.0744 17.7197C26.5536 18.2837 26.5082 19.0039 26.1917 19.643C25.9603 20.1101 25.338 20.3431 24.9407 19.8853C24.6149 19.5099 25.2868 18.8909 25.5271 18.6618C26.3507 17.8765 27.5717 19.1339 27.8296 19.987C28.0451 20.6997 26.0969 22.3508 26.3324 21.6445" stroke="#00ADB5" stroke-opacity="0.2" stroke-width="1.28667" stroke-linecap="round" stroke-linejoin="round"/>
<path d="M44.8386 19.6039C45.2425 19.4651 47.8389 18.629 47.3405 20.0105C47.0847 20.7192 46.1062 21.0995 45.464 21.3318C45.1603 21.4416 44.376 21.4226 44.8855 20.9799C45.3266 20.5967 45.9481 20.4168 46.5273 20.4639C48.7853 20.6475 45.6277 23.2414 44.9793 23.5991C43.7195 24.2942 42.0057 25.0254 40.687 24.1777" stroke="#00ADB5" stroke-opacity="0.2" stroke-width="1.28667" stroke-linecap="round" stroke-linejoin="round"/>
<path d="M30.9767 15.4521C31.5123 16.3236 32.157 17.199 32.6146 18.1143C32.7721 18.4293 32.0906 17.6228 31.9305 17.309C31.8881 17.2259 31.5948 16.3021 31.5669 16.3083C31.2242 16.3844 31.1436 17.9536 31.0509 18.2433C30.6126 19.6132 29.5294 19.0885 28.467 18.9861C27.1808 18.8621 26.6056 20.1308 25.8947 20.9407C25.3259 21.5886 25.1024 21.7875 25.4882 22.5591C25.8003 23.1833 25.9301 23.7887 25.4882 24.3534C25.1433 24.794 24.7116 25.0725 24.2958 25.4362C23.915 25.7695 24.4612 25.7146 24.3897 25.5144C24.1945 24.9679 22.9899 25.0818 22.5953 25.1079C21.131 25.2047 19.6392 24.8374 18.2014 24.928C17.4376 24.9762 16.7186 25.4022 15.9614 25.5144C15.1925 25.6283 16.2089 26.2958 16.497 26.4878C16.9927 26.8183 15.5265 25.7849 14.9881 25.53C14.0849 25.1026 13.2507 24.7716 12.7833 23.8256C12.3147 22.8774 11.9022 22.2309 11.1101 21.5349C10.8371 21.2949 10.8048 20.9299 10.9381 20.6045C11.2471 19.8507 11.9322 19.2371 12.6113 18.8297" stroke="#00ADB5" stroke-opacity="0.2" stroke-width="1.28667" stroke-linecap="round" stroke-linejoin="round"/>
<path d="M30.8356 18.2669C29.0717 17.0359 27.6163 16.5057 25.5425 16.2263C24.8135 16.128 24.036 15.6233 23.5606 15.0653C23.1387 14.57 23.3779 14.701 22.8804 15.3741C22.2009 16.2934 21.6963 15.4682 20.8281 15.7103C19.4974 16.0813 18.3553 17.3183 17.0049 17.5476C16.6351 17.6104 16.7242 16.9917 16.2621 17.2583C15.484 17.7073 14.8888 18.132 13.9792 18.2747C13.429 18.361 12.3865 18.7233 12.4702 19.3927" stroke="#00ADB5" stroke-opacity="0.2" stroke-width="1.28667" stroke-linecap="round" stroke-linejoin="round"/>
<path d="M42.798 18.2668C44.5 18.4309 46.2245 18.4098 47.919 18.5913C48.5157 18.6552 48.8206 18.8964 49.2403 19.2871C49.6189 19.6396 50.2099 20.4694 50.7532 20.5146C51.5365 20.5799 51.9413 20.2545 52.6726 20.026C53.1129 19.8884 54.5177 20.026 54.0565 20.026" stroke="#00ADB5" stroke-opacity="0.2" stroke-width="1.28667" stroke-linecap="round" stroke-linejoin="round"/>
<path d="M41.5315 20.1667C39.7019 21.3724 38.7245 23.2009 36.7662 24.2988C36.3784 24.5161 35.1914 24.937 35.2807 25.6513C35.3453 26.1683 39.3094 24.5498 39.9131 24.2479" stroke="#00ADB5" stroke-opacity="0.2" stroke-width="1.28667" stroke-linecap="round" stroke-linejoin="round"/>
<path d="M48.3568 21.8555C49.3517 22.596 50.2094 23.6544 51.4529 23.2784C51.7894 23.1767 52.4935 23.137 52.7195 22.911" stroke="#00ADB5" stroke-opacity="0.2" stroke-width="1.28667" stroke-linecap="round" stroke-linejoin="round"/>
</svg>
