<svg width="59" height="43" viewBox="0 0 59 43" fill="none" xmlns="http://www.w3.org/2000/svg">
<path d="M0.548096 22.8308C0.842379 24.3443 1.5905 25.3275 2.17041 26.7048C2.56525 27.6426 3.30344 28.3687 3.71454 29.2888C4.15852 30.2825 4.82333 31.4497 5.44241 32.3341C5.97312 33.0922 6.3209 33.8107 6.99045 34.4802C8.17405 35.6638 9.0695 37.0743 10.2585 38.2409C11.987 39.9367 14.9137 42.1492 17.4319 42.0093C18.2408 41.9644 19.1364 42.2151 19.9299 42.0953C20.6105 41.9926 21.4371 41.9582 22.119 42.0758C23.2398 42.269 24.4558 42.0746 25.5278 42.3064C26.1065 42.4315 26.7363 42.2487 27.3222 42.3572C28.0817 42.4979 28.9717 42.5332 29.7459 42.5332C32.2795 42.5332 34.8066 42.5179 37.3336 42.197C38.7027 42.0231 40.0594 42.477 41.4148 42.2361C42.687 42.0099 44.3816 42.2435 45.5781 41.72C47.0486 41.0767 48.5116 40.0648 49.6476 38.9289C50.2173 38.3591 50.6496 37.6786 51.0353 36.9743C51.5419 36.0491 51.824 35.0513 52.3332 34.1284C54.109 30.9098 55.1212 27.3272 56.559 23.9723C56.8979 23.1816 57.4549 22.541 57.8608 21.8105C57.9634 21.6257 58.01 21.3897 58.1774 21.2124C58.8043 20.5487 57.6035 20.4782 57.0516 20.2273" stroke="#00ADB5" stroke-opacity="0.2" stroke-width="1.28667" stroke-linecap="round" stroke-linejoin="round"/>
<path d="M0.266724 22.9717C1.52422 21.3263 2.59096 20.1178 4.41829 19.1876C5.9485 18.4085 7.53532 17.4833 8.91777 16.4668C11.0423 14.9046 13.966 14.2084 16.5524 13.7381C19.3676 13.2263 22.1386 12.6279 25.0041 12.6279C25.8906 12.6279 26.7679 12.8949 27.6545 12.9094C28.716 12.9268 29.7801 12.9602 30.8366 13.0501C32.4582 13.1881 34.1225 13.1555 35.7466 13.1909C38.0124 13.2401 40.1814 14.413 42.4469 14.5943C43.7945 14.7021 45.3662 14.9036 46.6767 15.2705C47.1675 15.408 47.7274 15.5015 48.1856 15.724C48.7556 16.0008 49.1552 16.4693 49.6789 16.7951C51.3694 17.847 53.2592 18.3417 55.0853 19.1406C55.645 19.3855 56.6077 19.8052 57.2276 19.8052C58.0809 19.8052 58.0368 21.3804 58.0368 19.8052" stroke="#00ADB5" stroke-opacity="0.2" stroke-width="1.28667" stroke-linecap="round" stroke-linejoin="round"/>
<path d="M57.896 20.7903C56.8523 22.189 56.1085 22.7216 54.6279 23.5384C53.4655 24.1797 52.1779 24.6333 50.875 24.8715C49.6593 25.0937 48.3311 25.2694 47.0988 25.3679C46.0729 25.45 45.0268 25.3307 43.9792 25.45C41.6103 25.7199 39.2198 26.3306 36.9349 26.9981C33.6728 27.951 30.5229 28.0507 27.1541 28.2334C23.4763 28.4328 19.7886 28.1518 16.1849 27.4046C14.9696 27.1527 13.6849 27.3789 12.4477 27.3304C11.0851 27.2769 9.75018 26.9015 8.46813 26.4586C7.92853 26.2722 7.43125 25.9855 6.86536 25.8566C6.20281 25.7056 5.52935 25.7652 4.87167 25.6064C3.95527 25.3852 2.88547 24.9849 2.11178 24.4493C1.77513 24.2162 1.26966 24.0236 1.00548 23.6714C0.928408 23.5686 0.829563 23.3401 0.829563 23.2179C0.829563 22.9266 0.59094 23.0002 0.970294 23.2531" stroke="#00ADB5" stroke-opacity="0.2" stroke-width="1.28667" stroke-linecap="round" stroke-linejoin="round"/>
<path d="M27.6388 35.0745C28.4951 34.9794 29.6269 34.9958 29.2728 33.894C29.1591 33.5403 28.8727 33.5026 28.5691 33.4014C27.664 33.0997 26.0439 33.6839 25.7037 34.6289C25.0932 36.3247 26.2486 38.1562 28.0649 37.5686C28.5589 37.4088 29.4356 37.0596 29.7497 36.6108C30.1268 36.0721 29.5607 36.2313 29.1868 35.7078" stroke="#00ADB5" stroke-opacity="0.2" stroke-width="1.28667" stroke-linecap="round" stroke-linejoin="round"/>
<path d="M25.0353 33.245C26.4004 32.6973 27.0988 32.471 28.4793 32.471C29.0358 32.471 29.3141 32.4318 29.8046 32.7525C30.6149 33.2823 30.8937 34.2893 30.8092 35.1762C30.7379 35.9251 30.4901 36.9515 30.2268 37.6624C30.0309 38.1912 29.5461 38.2825 29.0501 38.3817C28.5967 38.4724 27.6083 38.2189 27.2519 38.4169C26.8735 38.6271 25.7153 38.698 25.4224 38.3074C25.1529 37.9481 24.864 37.7932 24.6679 37.3575C24.4807 36.9415 24.3962 36.5439 24.2457 36.13C24.039 35.5615 23.6675 34.0093 24.4372 33.6672C24.8884 33.4667 25.0815 33.3467 25.5983 33.3467C25.7449 33.3467 25.8706 33.4561 26.0205 33.4561C26.2367 33.4561 25.6034 33.3154 25.3872 33.3154" stroke="#00ADB5" stroke-opacity="0.2" stroke-width="1.28667" stroke-linecap="round" stroke-linejoin="round"/>
<path d="M27.498 27.6157C28.4906 26.3323 29.3963 25.0089 30.4221 23.7613C30.9732 23.091 31.6577 22.5145 32.2516 21.8731C33.9521 20.0366 35.6851 18.0265 36.9817 15.8803C38.2591 13.7661 40.0023 11.4637 41.8956 9.87581C42.8957 9.03703 43.7893 8.11001 44.6594 7.14328C45.5036 6.20532 45.8924 4.89357 46.6922 3.90256C47.3115 3.13512 51.3656 -2.08756 52.0712 1.08794C52.3485 2.33564 51.1312 3.20851 50.3668 3.97293C49.4994 4.84038 48.6278 5.94247 47.8884 6.92828C47.1756 7.87863 46.3094 8.71408 45.6172 9.67253C44.6754 10.9766 42.9617 11.9093 42.2748 13.3863C41.7081 14.6046 40.7679 15.5838 40.0622 16.713C39.0842 18.2779 37.9383 19.5848 36.7863 21.017C35.8735 22.1519 34.4428 23.0848 33.7958 24.3789C33.2553 25.4599 32.2972 25.9155 31.4229 26.615C31.0422 26.9195 30.5796 27.0885 30.2423 27.5102C30.1301 27.6504 29.9292 27.8126 29.824 27.6548C29.764 27.5649 29.5351 27.7665 29.5777 27.8659C29.7277 28.2159 29.3629 27.024 29.3275 26.9121" stroke="#00ADB5" stroke-opacity="0.2" stroke-width="1.28667" stroke-linecap="round" stroke-linejoin="round"/>
<path d="M26.9352 27.9676C27.2048 28.1043 28.9054 29.3953 28.9054 28.3546C28.9054 28.0396 29.3101 27.5145 29.4527 27.1936C29.5605 26.9509 28.5888 27.1835 28.4441 27.3695C28.2551 27.6125 27.8887 27.8099 28.4832 27.8269C28.94 27.8399 29.297 27.6435 29.6443 27.3734C29.744 27.2958 31.0865 27.5082 29.8905 27.475C29.2545 27.4574 28.6364 27.475 28.0258 27.475C27.498 27.475 28.5676 27.3343 28.7217 27.3343C28.8447 27.3343 27.8297 27.938 27.6545 27.7409C27.6118 27.6929 27.5378 27.5607 27.7092 27.475" stroke="#00ADB5" stroke-opacity="0.2" stroke-width="1.28667" stroke-linecap="round" stroke-linejoin="round"/>
<path d="M4.55896 22.7604C4.63811 22.8024 7.15293 24.1191 7.16248 23.9566C7.17406 23.7599 7.03387 23.5884 7.13121 23.3937C7.55667 22.5428 8.10723 22.9508 8.83953 23.2803C9.41081 23.5374 8.54384 20.6908 10.2664 21.8926C11.1564 22.5135 11.3938 22.4146 11.2476 21.3727C11.1369 20.5837 11.4093 20.5814 12.0881 20.6651C12.5495 20.722 12.8801 20.8227 13.1435 20.3836C13.4632 19.8509 13.8233 19.5478 14.4766 19.7777C15.0183 19.9683 15.4994 20.5042 15.8722 19.8207C16.0362 19.52 15.8978 18.62 16.4155 18.7926C16.7401 18.9008 17.1676 19.3245 17.5375 19.1913C17.8177 19.0904 18.0331 18.2214 18.3506 18.3587C18.6818 18.5019 19.0195 19.1307 19.4373 18.9802C19.6391 18.9076 20.0133 18.2482 19.6172 18.3274" stroke="#00ADB5" stroke-opacity="0.2" stroke-width="1.28667" stroke-linecap="round" stroke-linejoin="round"/>
<path d="M14.4806 21.4941C15.3528 22.2037 18.6193 25.9944 19.5782 23.1633C19.7499 22.6563 19.7772 21.652 20.2584 22.4831C20.6549 23.1681 21.2519 23.6435 21.9002 22.9952C22.3298 22.5656 22.5211 21.8363 23.1355 21.6113C23.6993 21.4049 24.1133 22.4649 24.5819 21.8459C24.9599 21.3467 24.777 20.4882 24.2223 20.1884C24.0403 20.09 23.9895 20.429 23.9096 20.509" stroke="#00ADB5" stroke-opacity="0.2" stroke-width="1.28667" stroke-linecap="round" stroke-linejoin="round"/>
<path d="M22.0096 17.1314C23.3686 16.898 25.0805 16.4227 26.1143 17.6396C26.5935 18.2036 26.5481 18.9238 26.2316 19.5629C26.0002 20.03 25.3779 20.263 24.9806 19.8053C24.6548 19.4298 25.3267 18.8108 25.567 18.5817C26.3906 17.7964 27.6116 19.0538 27.8695 19.9069C28.085 20.6196 26.1369 22.2707 26.3723 21.5644" stroke="#00ADB5" stroke-opacity="0.2" stroke-width="1.28667" stroke-linecap="round" stroke-linejoin="round"/>
<path d="M44.8785 19.5238C45.2824 19.385 47.8788 18.5489 47.3804 19.9304C47.1246 20.6391 46.1461 21.0194 45.504 21.2517C45.2003 21.3615 44.4159 21.3425 44.9254 20.8999C45.3665 20.5166 45.988 20.3368 46.5673 20.3838C48.8253 20.5674 45.6676 23.1613 45.0192 23.519C43.7594 24.2141 42.0456 24.9453 40.7269 24.0976" stroke="#00ADB5" stroke-opacity="0.2" stroke-width="1.28667" stroke-linecap="round" stroke-linejoin="round"/>
<path d="M31.0165 15.3721C31.5521 16.2435 32.1968 17.1189 32.6544 18.0342C32.8119 18.3493 32.1304 17.5427 31.9703 17.2289C31.9279 17.1459 31.6346 16.222 31.6067 16.2282C31.264 16.3044 31.1834 17.8735 31.0907 18.1632C30.6523 19.5332 29.5692 19.0084 28.5068 18.906C27.2206 18.782 26.6454 20.0507 25.9345 20.8606C25.3657 21.5086 25.1422 21.7074 25.5279 22.479C25.8401 23.1033 25.9699 23.7086 25.5279 24.2733C25.1831 24.714 24.7513 24.9924 24.3356 25.3561C23.9548 25.6894 24.501 25.6345 24.4295 25.4343C24.2343 24.8878 23.0297 25.0017 22.6351 25.0278C21.1708 25.1246 19.679 24.7573 18.2412 24.848C17.4773 24.8961 16.7584 25.3222 16.0012 25.4343C15.2323 25.5482 16.2487 26.2157 16.5368 26.4077C17.0325 26.7382 15.5663 25.7048 15.0279 25.45C14.1247 25.0225 13.2905 24.6916 12.8231 23.7456C12.3545 22.7973 11.942 22.1508 11.1499 21.4548C10.8768 21.2148 10.8446 20.8498 10.9779 20.5244C11.2869 19.7706 11.972 19.157 12.6511 18.7496" stroke="#00ADB5" stroke-opacity="0.2" stroke-width="1.28667" stroke-linecap="round" stroke-linejoin="round"/>
<path d="M30.8755 18.1868C29.1117 16.9558 27.6562 16.4256 25.5825 16.1462C24.8535 16.048 24.0759 15.5432 23.6005 14.9852C23.1787 14.49 23.4178 14.6209 22.9203 15.294C22.2408 16.2133 21.7362 15.3881 20.868 15.6302C19.5373 16.0012 18.3952 17.2382 17.0448 17.4675C16.675 17.5303 16.7642 16.9116 16.302 17.1782C15.5239 17.6272 14.9287 18.0519 14.0191 18.1946C13.469 18.2809 12.4264 18.6432 12.5101 19.3127" stroke="#00ADB5" stroke-opacity="0.2" stroke-width="1.28667" stroke-linecap="round" stroke-linejoin="round"/>
<path d="M42.8379 18.1868C44.5399 18.3508 46.2644 18.3297 47.9589 18.5112C48.5556 18.5752 48.8605 18.8163 49.2802 19.2071C49.6588 19.5596 50.2498 20.3893 50.7931 20.4346C51.5764 20.4998 51.9812 20.1744 52.7125 19.9459C53.1528 19.8083 54.5577 19.9459 54.0964 19.9459" stroke="#00ADB5" stroke-opacity="0.2" stroke-width="1.28667" stroke-linecap="round" stroke-linejoin="round"/>
<path d="M41.5714 20.0867C39.7418 21.2923 38.7644 23.1208 36.8061 24.2187C36.4183 24.4361 35.2313 24.8569 35.3206 25.5713C35.3852 26.0883 39.3493 24.4697 39.953 24.1679" stroke="#00ADB5" stroke-opacity="0.2" stroke-width="1.28667" stroke-linecap="round" stroke-linejoin="round"/>
<path d="M48.3967 21.7754C49.3916 22.5159 50.2493 23.5743 51.4928 23.1983C51.8293 23.0966 52.5334 23.0569 52.7594 22.8309" stroke="#00ADB5" stroke-opacity="0.2" stroke-width="1.28667" stroke-linecap="round" stroke-linejoin="round"/>
</svg>
