<svg width="59" height="43" viewBox="0 0 59 43" fill="none" xmlns="http://www.w3.org/2000/svg">
<path d="M0.548157 22.8308C0.84244 24.3443 1.59056 25.3275 2.17047 26.7048C2.56531 27.6426 3.3035 28.3687 3.7146 29.2888C4.15858 30.2825 4.82339 31.4497 5.44247 32.3341C5.97319 33.0922 6.32096 33.8107 6.99051 34.4802C8.17411 35.6638 9.06956 37.0743 10.2586 38.2409C11.987 39.9367 14.9138 42.1492 17.432 42.0093C18.2408 41.9644 19.1365 42.2151 19.9299 42.0953C20.6105 41.9926 21.4371 41.9582 22.1191 42.0758C23.2398 42.269 24.4559 42.0746 25.5279 42.3064C26.1065 42.4315 26.7363 42.2487 27.3222 42.3572C28.0818 42.4979 28.9718 42.5332 29.7459 42.5332C32.2795 42.5332 34.8067 42.5179 37.3337 42.197C38.7028 42.0231 40.0595 42.477 41.4149 42.2361C42.6871 42.0099 44.3817 42.2435 45.5782 41.72C47.0487 41.0767 48.5117 40.0648 49.6476 38.9289C50.2174 38.3591 50.6497 37.6786 51.0354 36.9743C51.542 36.0491 51.824 35.0513 52.3332 34.1284C54.109 30.9098 55.1212 27.3272 56.5591 23.9723C56.8979 23.1816 57.455 22.541 57.8608 21.8105C57.9635 21.6257 58.01 21.3897 58.1775 21.2124C58.8043 20.5487 57.6035 20.4782 57.0516 20.2273" stroke="#00ADB5" stroke-opacity="0.2" stroke-width="1.28667" stroke-linecap="round" stroke-linejoin="round"/>
<path d="M0.266724 22.9717C1.52422 21.3263 2.59096 20.1178 4.41829 19.1876C5.9485 18.4085 7.53532 17.4833 8.91777 16.4668C11.0423 14.9046 13.966 14.2084 16.5524 13.7381C19.3676 13.2263 22.1386 12.6279 25.0041 12.6279C25.8906 12.6279 26.7679 12.8949 27.6545 12.9094C28.716 12.9268 29.7801 12.9602 30.8366 13.0501C32.4582 13.1881 34.1225 13.1555 35.7466 13.1909C38.0124 13.2401 40.1814 14.413 42.4469 14.5943C43.7945 14.7021 45.3662 14.9036 46.6767 15.2705C47.1675 15.408 47.7274 15.5015 48.1856 15.724C48.7556 16.0008 49.1552 16.4693 49.6789 16.7951C51.3694 17.847 53.2592 18.3417 55.0853 19.1406C55.645 19.3855 56.6077 19.8052 57.2276 19.8052C58.0809 19.8052 58.0368 21.3804 58.0368 19.8052" stroke="#00ADB5" stroke-opacity="0.2" stroke-width="1.28667" stroke-linecap="round" stroke-linejoin="round"/>
<path d="M57.896 20.7903C56.8523 22.189 56.1085 22.7216 54.6279 23.5384C53.4655 24.1797 52.1779 24.6333 50.875 24.8715C49.6593 25.0937 48.3311 25.2694 47.0988 25.3679C46.0729 25.45 45.0268 25.3307 43.9792 25.45C41.6103 25.7199 39.2198 26.3306 36.9349 26.9981C33.6728 27.951 30.5229 28.0507 27.1541 28.2334C23.4763 28.4328 19.7886 28.1518 16.1849 27.4046C14.9696 27.1527 13.6849 27.3789 12.4477 27.3304C11.0851 27.2769 9.75018 26.9015 8.46813 26.4586C7.92853 26.2722 7.43125 25.9855 6.86536 25.8566C6.20281 25.7056 5.52935 25.7652 4.87167 25.6064C3.95527 25.3852 2.88547 24.9849 2.11178 24.4493C1.77513 24.2162 1.26966 24.0236 1.00548 23.6714C0.928408 23.5686 0.829563 23.3401 0.829563 23.2179C0.829563 22.9266 0.59094 23.0002 0.970294 23.2531" stroke="#00ADB5" stroke-opacity="0.2" stroke-width="1.28667" stroke-linecap="round" stroke-linejoin="round"/>
<path d="M27.6388 35.0745C28.4952 34.9794 29.627 34.9958 29.2729 33.894C29.1592 33.5403 28.8728 33.5026 28.5692 33.4014C27.6641 33.0997 26.044 33.6839 25.7038 34.6289C25.0933 36.3247 26.2487 38.1562 28.0649 37.5686C28.559 37.4088 29.4357 37.0596 29.7498 36.6108C30.1269 36.0721 29.5607 36.2313 29.1869 35.7078" stroke="#00ADB5" stroke-opacity="0.2" stroke-width="1.28667" stroke-linecap="round" stroke-linejoin="round"/>
<path d="M25.0354 33.245C26.4005 32.6973 27.0989 32.471 28.4794 32.471C29.0359 32.471 29.3141 32.4318 29.8046 32.7525C30.6149 33.2823 30.8937 34.2893 30.8093 35.1762C30.738 35.9251 30.4901 36.9515 30.2268 37.6624C30.031 38.1912 29.5462 38.2825 29.0501 38.3817C28.5967 38.4724 27.6084 38.2189 27.2519 38.4169C26.8735 38.6271 25.7153 38.698 25.4224 38.3074C25.1529 37.9481 24.864 37.7932 24.6679 37.3575C24.4807 36.9415 24.3963 36.5439 24.2457 36.13C24.039 35.5615 23.6675 34.0093 24.4373 33.6672C24.8885 33.4667 25.0816 33.3467 25.5983 33.3467C25.745 33.3467 25.8706 33.4561 26.0205 33.4561C26.2368 33.4561 25.6035 33.3154 25.3872 33.3154" stroke="#00ADB5" stroke-opacity="0.2" stroke-width="1.28667" stroke-linecap="round" stroke-linejoin="round"/>
<path d="M27.4981 27.6157C28.4906 26.3323 29.3964 25.0089 30.4222 23.7613C30.9733 23.091 31.6578 22.5145 32.2517 21.8731C33.9522 20.0366 35.6851 18.0265 36.9818 15.8803C38.2592 13.7661 40.0024 11.4637 41.8957 9.87581C42.8957 9.03703 43.7894 8.11001 44.6595 7.14328C45.5036 6.20532 45.8925 4.89357 46.6922 3.90256C47.3116 3.13512 51.3656 -2.08756 52.0713 1.08794C52.3486 2.33564 51.1313 3.20851 50.3669 3.97293C49.4994 4.84038 48.6278 5.94247 47.8885 6.92828C47.1757 7.87863 46.3094 8.71408 45.6172 9.67253C44.6754 10.9766 42.9618 11.9093 42.2749 13.3863C41.7082 14.6046 40.768 15.5838 40.0623 16.713C39.0842 18.2779 37.9383 19.5848 36.7864 21.017C35.8735 22.1519 34.4429 23.0848 33.7958 24.3789C33.2553 25.4599 32.2973 25.9155 31.4229 26.615C31.0423 26.9195 30.5797 27.0885 30.2424 27.5102C30.1302 27.6504 29.9293 27.8126 29.8241 27.6548C29.7641 27.5649 29.5352 27.7665 29.5778 27.8659C29.7278 28.2159 29.3629 27.024 29.3276 26.9121" stroke="#00ADB5" stroke-opacity="0.2" stroke-width="1.28667" stroke-linecap="round" stroke-linejoin="round"/>
<path d="M26.9352 27.9676C27.2049 28.1043 28.9055 29.3953 28.9055 28.3546C28.9055 28.0396 29.3101 27.5145 29.4528 27.1936C29.5606 26.9509 28.5889 27.1835 28.4442 27.3695C28.2552 27.6125 27.8887 27.8099 28.4833 27.8269C28.9401 27.8399 29.297 27.6435 29.6443 27.3734C29.7441 27.2958 31.0866 27.5082 29.8906 27.475C29.2546 27.4574 28.6365 27.475 28.0259 27.475C27.4981 27.475 28.5676 27.3343 28.7217 27.3343C28.8448 27.3343 27.8298 27.938 27.6545 27.7409C27.6119 27.6929 27.5379 27.5607 27.7093 27.475" stroke="#00ADB5" stroke-opacity="0.2" stroke-width="1.28667" stroke-linecap="round" stroke-linejoin="round"/>
<path d="M4.55896 22.7604C4.63811 22.8024 7.15293 24.1191 7.16248 23.9566C7.17406 23.7599 7.03387 23.5884 7.13121 23.3937C7.55667 22.5428 8.10723 22.9508 8.83953 23.2803C9.41081 23.5374 8.54384 20.6908 10.2664 21.8926C11.1564 22.5135 11.3938 22.4146 11.2476 21.3727C11.1369 20.5837 11.4093 20.5814 12.0881 20.6651C12.5495 20.722 12.8801 20.8227 13.1435 20.3836C13.4632 19.8509 13.8233 19.5478 14.4766 19.7777C15.0183 19.9683 15.4994 20.5042 15.8722 19.8207C16.0362 19.52 15.8978 18.62 16.4155 18.7926C16.7401 18.9008 17.1676 19.3245 17.5375 19.1913C17.8177 19.0904 18.0331 18.2214 18.3506 18.3587C18.6818 18.5019 19.0195 19.1307 19.4373 18.9802C19.6391 18.9076 20.0133 18.2482 19.6172 18.3274" stroke="#00ADB5" stroke-opacity="0.2" stroke-width="1.28667" stroke-linecap="round" stroke-linejoin="round"/>
<path d="M14.4807 21.4941C15.3529 22.2037 18.6194 25.9944 19.5783 23.1633C19.75 22.6563 19.7773 21.652 20.2585 22.4831C20.6551 23.1681 21.252 23.6435 21.9004 22.9952C22.33 22.5656 22.5213 21.8363 23.1357 21.6113C23.6995 21.4049 24.1134 22.4649 24.5821 21.8459C24.96 21.3467 24.7771 20.4882 24.2224 20.1884C24.0404 20.09 23.9897 20.429 23.9097 20.509" stroke="#00ADB5" stroke-opacity="0.2" stroke-width="1.28667" stroke-linecap="round" stroke-linejoin="round"/>
<path d="M22.0097 17.1314C23.3687 16.898 25.0806 16.4227 26.1144 17.6396C26.5936 18.2036 26.5482 18.9238 26.2316 19.5629C26.0003 20.03 25.3779 20.263 24.9807 19.8053C24.6548 19.4298 25.3268 18.8108 25.5671 18.5817C26.3907 17.7964 27.6117 19.0538 27.8696 19.9069C28.085 20.6196 26.1369 22.2707 26.3724 21.5644" stroke="#00ADB5" stroke-opacity="0.2" stroke-width="1.28667" stroke-linecap="round" stroke-linejoin="round"/>
<path d="M44.8786 19.5238C45.2825 19.385 47.8789 18.5489 47.3804 19.9304C47.1247 20.6391 46.1462 21.0194 45.504 21.2517C45.2003 21.3615 44.416 21.3425 44.9255 20.8999C45.3666 20.5166 45.9881 20.3368 46.5673 20.3838C48.8253 20.5674 45.6677 23.1613 45.0193 23.519C43.7595 24.2141 42.0457 24.9453 40.727 24.0976" stroke="#00ADB5" stroke-opacity="0.2" stroke-width="1.28667" stroke-linecap="round" stroke-linejoin="round"/>
<path d="M31.0166 15.3721C31.5522 16.2435 32.1969 17.1189 32.6545 18.0342C32.812 18.3493 32.1305 17.5427 31.9704 17.2289C31.928 17.1459 31.6347 16.222 31.6069 16.2282C31.2641 16.3044 31.1836 17.8735 31.0908 18.1632C30.6525 19.5332 29.5693 19.0084 28.5069 18.906C27.2207 18.782 26.6455 20.0507 25.9346 20.8606C25.3658 21.5086 25.1423 21.7074 25.5281 22.479C25.8402 23.1033 25.97 23.7086 25.5281 24.2733C25.1832 24.714 24.7515 24.9924 24.3358 25.3561C23.9549 25.6894 24.5011 25.6345 24.4296 25.4343C24.2344 24.8878 23.0298 25.0017 22.6353 25.0278C21.1709 25.1246 19.6791 24.7573 18.2413 24.848C17.4775 24.8961 16.7585 25.3222 16.0014 25.4343C15.2324 25.5482 16.2489 26.2157 16.5369 26.4077C17.0326 26.7382 15.5665 25.7048 15.028 25.45C14.1249 25.0225 13.2906 24.6916 12.8232 23.7456C12.3546 22.7973 11.9421 22.1508 11.1501 21.4548C10.877 21.2148 10.8447 20.8498 10.978 20.5244C11.287 19.7706 11.9722 19.157 12.6512 18.7496" stroke="#00ADB5" stroke-opacity="0.2" stroke-width="1.28667" stroke-linecap="round" stroke-linejoin="round"/>
<path d="M30.8756 18.1868C29.1117 16.9558 27.6563 16.4256 25.5825 16.1462C24.8535 16.048 24.0759 15.5432 23.6006 14.9852C23.1787 14.49 23.4178 14.6209 22.9204 15.294C22.2409 16.2133 21.7363 15.3881 20.868 15.6302C19.5374 16.0012 18.3952 17.2382 17.0448 17.4675C16.6751 17.5303 16.7642 16.9116 16.3021 17.1782C15.5239 17.6272 14.9287 18.0519 14.0191 18.1946C13.469 18.2809 12.4265 18.6432 12.5102 19.3127" stroke="#00ADB5" stroke-opacity="0.2" stroke-width="1.28667" stroke-linecap="round" stroke-linejoin="round"/>
<path d="M42.838 18.1868C44.54 18.3508 46.2645 18.3297 47.959 18.5112C48.5557 18.5752 48.8606 18.8163 49.2803 19.2071C49.6589 19.5596 50.2499 20.3893 50.7932 20.4346C51.5765 20.4998 51.9812 20.1744 52.7126 19.9459C53.1529 19.8083 54.5577 19.9459 54.0964 19.9459" stroke="#00ADB5" stroke-opacity="0.2" stroke-width="1.28667" stroke-linecap="round" stroke-linejoin="round"/>
<path d="M41.5714 20.0867C39.7419 21.2923 38.7645 23.1208 36.8061 24.2187C36.4184 24.4361 35.2313 24.8569 35.3206 25.5713C35.3853 26.0883 39.3494 24.4697 39.953 24.1679" stroke="#00ADB5" stroke-opacity="0.2" stroke-width="1.28667" stroke-linecap="round" stroke-linejoin="round"/>
<path d="M48.3967 21.7754C49.3916 22.5159 50.2493 23.5743 51.4928 23.1983C51.8293 23.0966 52.5334 23.0569 52.7594 22.8309" stroke="#00ADB5" stroke-opacity="0.2" stroke-width="1.28667" stroke-linecap="round" stroke-linejoin="round"/>
</svg>
