<svg width="76" height="56" viewBox="0 0 76 56" fill="none" xmlns="http://www.w3.org/2000/svg">
<path d="M1.10046 30.0199C1.4809 31.9764 2.44803 33.2475 3.19771 35.028C3.70813 36.2403 4.66243 37.179 5.19388 38.3684C5.76782 39.653 6.62725 41.1619 7.42756 42.3052C8.11365 43.2853 8.56323 44.214 9.42879 45.0796C10.9589 46.6097 12.1165 48.433 13.6536 49.9411C15.888 52.1334 19.6716 54.9937 22.9269 54.8128C23.9726 54.7547 25.1305 55.0788 26.1562 54.924C27.036 54.7912 28.1046 54.7467 28.9862 54.8987C30.435 55.1485 32.0071 54.8972 33.3929 55.1969C34.1409 55.3586 34.9551 55.1223 35.7125 55.2626C36.6945 55.4444 37.845 55.49 38.8458 55.49C42.1211 55.49 45.388 55.4702 48.6548 55.0554C50.4247 54.8306 52.1785 55.4174 53.9307 55.1059C55.5754 54.8135 57.7661 55.1155 59.3128 54.4388C61.2139 53.6071 63.1051 52.2991 64.5736 50.8306C65.3101 50.094 65.869 49.2142 66.3676 48.3038C67.0226 47.1078 67.3872 45.8178 68.0454 44.6248C70.3411 40.4639 71.6496 35.8326 73.5084 31.4955C73.9464 30.4733 74.6666 29.6452 75.1912 28.7009C75.3239 28.462 75.3841 28.1569 75.6006 27.9277C76.4109 27.0697 74.8586 26.9785 74.1451 26.6542" stroke="#00ADB5" stroke-opacity="0.5" stroke-width="1.66333" stroke-linecap="round" stroke-linejoin="round"/>
<path d="M0.736694 30.2018C2.36232 28.0748 3.74134 26.5125 6.10361 25.3099C8.08179 24.3028 10.1331 23.1067 11.9203 21.7926C14.6668 19.7731 18.4463 18.8731 21.79 18.2652C25.4293 17.6035 29.0115 16.83 32.7158 16.83C33.8619 16.83 34.9961 17.175 36.1422 17.1938C37.5144 17.2163 38.89 17.2595 40.2558 17.3757C42.352 17.5541 44.5036 17.512 46.6031 17.5577C49.5323 17.6214 52.3362 19.1376 55.265 19.3719C57.0071 19.5113 59.0388 19.7718 60.733 20.2462C61.3675 20.4238 62.0914 20.5447 62.6837 20.8324C63.4205 21.1903 63.9371 21.7958 64.6141 22.2171C66.7995 23.5769 69.2425 24.2164 71.6032 25.2492C72.3268 25.5658 73.5713 26.1084 74.3726 26.1084C75.4757 26.1084 75.4187 28.1447 75.4187 26.1084" stroke="#00ADB5" stroke-opacity="0.5" stroke-width="1.66333" stroke-linecap="round" stroke-linejoin="round"/>
<path d="M75.2367 27.3818C73.8875 29.19 72.9259 29.8785 71.0118 30.9345C69.5092 31.7635 67.8447 32.3499 66.1604 32.6578C64.5887 32.9451 62.8717 33.1721 61.2786 33.2996C59.9525 33.4057 58.6001 33.2514 57.2459 33.4057C54.1834 33.7546 51.0931 34.544 48.1393 35.4069C43.9223 36.6389 39.8503 36.7678 35.4952 37.0039C30.7408 37.2616 25.9735 36.8983 21.3148 35.9325C19.7437 35.6068 18.0829 35.8992 16.4836 35.8365C14.7221 35.7674 12.9964 35.2821 11.339 34.7095C10.6415 34.4686 9.99859 34.098 9.26703 33.9313C8.41053 33.7361 7.53991 33.8131 6.6897 33.6079C5.50503 33.3219 4.12205 32.8044 3.12186 32.112C2.68666 31.8107 2.03322 31.5617 1.6917 31.1063C1.59207 30.9735 1.46428 30.678 1.46428 30.5201C1.46428 30.1436 1.1558 30.2387 1.64621 30.5656" stroke="#00ADB5" stroke-opacity="0.5" stroke-width="1.66333" stroke-linecap="round" stroke-linejoin="round"/>
<path d="M36.1219 45.8477C37.229 45.7247 38.6921 45.7459 38.2343 44.3215C38.0874 43.8643 37.7171 43.8156 37.3247 43.6848C36.1546 43.2948 34.0602 44.05 33.6204 45.2716C32.8312 47.4638 34.3248 49.8316 36.6728 49.0719C37.3115 48.8653 38.4448 48.4139 38.8509 47.8338C39.3384 47.1374 38.6065 47.3431 38.1231 46.6664" stroke="#00ADB5" stroke-opacity="0.5" stroke-width="1.66333" stroke-linecap="round" stroke-linejoin="round"/>
<path d="M32.7563 43.4827C34.521 42.7746 35.4239 42.4821 37.2086 42.4821C37.9279 42.4821 38.2877 42.4313 38.9217 42.8459C39.9692 43.5308 40.3297 44.8326 40.2205 45.9791C40.1283 46.9473 39.8079 48.2742 39.4675 49.1932C39.2143 49.8768 38.5877 49.9948 37.9464 50.1231C37.3602 50.2403 36.0825 49.9126 35.6217 50.1686C35.1326 50.4403 33.6353 50.532 33.2566 50.0271C32.9083 49.5626 32.5348 49.3623 32.2813 48.7991C32.0393 48.2612 31.9301 47.7473 31.7355 47.2122C31.4683 46.4774 30.988 44.4707 31.9831 44.0285C32.5664 43.7693 32.8161 43.6141 33.4841 43.6141C33.6736 43.6141 33.8361 43.7556 34.0298 43.7556C34.3094 43.7556 33.4907 43.5736 33.2112 43.5736" stroke="#00ADB5" stroke-opacity="0.5" stroke-width="1.66333" stroke-linecap="round" stroke-linejoin="round"/>
<path d="M35.9399 36.2054C37.223 34.5463 38.3939 32.8354 39.72 31.2226C40.4324 30.3561 41.3174 29.6109 42.0851 28.7817C44.2835 26.4075 46.5237 23.809 48.2 21.0345C49.8512 18.3014 52.1048 15.325 54.5523 13.2722C55.8452 12.1879 57.0005 10.9895 58.1252 9.73974C59.2165 8.5272 59.7192 6.83144 60.7531 5.55031C61.5537 4.5582 66.7946 -2.19339 67.7068 1.91173C68.0653 3.52469 66.4917 4.65309 65.5035 5.64128C64.3821 6.76268 63.2553 8.1874 62.2995 9.4618C61.3781 10.6904 60.2582 11.7704 59.3634 13.0094C58.1458 14.6952 55.9306 15.9011 55.0425 17.8103C54.31 19.3854 53.0945 20.6512 52.1822 22.1109C50.9178 24.1339 49.4365 25.8235 47.9473 27.6749C46.7672 29.142 44.9177 30.3481 44.0813 32.021C43.3826 33.4184 42.1441 34.0074 41.0138 34.9117C40.5217 35.3054 39.9237 35.5239 39.4876 36.069C39.3425 36.2503 39.0828 36.4599 38.9468 36.256C38.8693 36.1397 38.5734 36.4004 38.6285 36.5288C38.8224 36.9813 38.3507 35.4404 38.305 35.2958" stroke="#00ADB5" stroke-opacity="0.5" stroke-width="1.66333" stroke-linecap="round" stroke-linejoin="round"/>
<path d="M35.2122 36.6602C35.5608 36.837 37.7592 38.5059 37.7592 37.1605C37.7592 36.7533 38.2823 36.0745 38.4667 35.6596C38.6061 35.346 37.3499 35.6465 37.1628 35.887C36.9185 36.2012 36.4448 36.4563 37.2134 36.4783C37.8039 36.4952 38.2654 36.2412 38.7143 35.8921C38.8433 35.7917 40.5788 36.0664 39.0327 36.0235C38.2105 36.0006 37.4114 36.0235 36.6221 36.0235C35.9398 36.0235 37.3224 35.8415 37.5217 35.8415C37.6807 35.8415 36.3686 36.622 36.142 36.3671C36.0869 36.3051 35.9912 36.1342 36.2128 36.0235" stroke="#00ADB5" stroke-opacity="0.5" stroke-width="1.66333" stroke-linecap="round" stroke-linejoin="round"/>
<path d="M6.28552 29.9289C6.38784 29.9831 9.63886 31.6853 9.65122 31.4753C9.66618 31.2209 9.48495 30.9992 9.61079 30.7476C10.1608 29.6475 10.8725 30.175 11.8192 30.601C12.5577 30.9333 11.437 27.2534 13.6638 28.807C14.8144 29.6097 15.1213 29.4819 14.9322 28.1349C14.7891 27.1149 15.1413 27.112 16.0187 27.2202C16.6152 27.2937 17.0427 27.4239 17.3832 26.8563C17.7964 26.1677 18.2619 25.7758 19.1065 26.073C19.8068 26.3194 20.4287 27.0121 20.9106 26.1286C21.1227 25.7398 20.9438 24.5764 21.6131 24.7995C22.0326 24.9393 22.5853 25.4871 23.0635 25.3149C23.4257 25.1845 23.7041 24.061 24.1146 24.2385C24.5428 24.4237 24.9793 25.2365 25.5195 25.0421C25.7803 24.9481 26.2641 24.0957 25.752 24.1981" stroke="#00ADB5" stroke-opacity="0.5" stroke-width="1.66333" stroke-linecap="round" stroke-linejoin="round"/>
<path d="M19.1115 28.2915C20.239 29.2089 24.4617 34.1093 25.7013 30.4494C25.9233 29.794 25.9586 28.4957 26.5807 29.5701C27.0933 30.4556 27.8651 31.0702 28.7032 30.2321C29.2585 29.6768 29.5058 28.734 30.3001 28.4431C31.0289 28.1762 31.5641 29.5466 32.1699 28.7464C32.6585 28.101 32.4221 26.9913 31.705 26.6036C31.4698 26.4765 31.4041 26.9146 31.3007 27.018" stroke="#00ADB5" stroke-opacity="0.5" stroke-width="1.66333" stroke-linecap="round" stroke-linejoin="round"/>
<path d="M28.8448 22.6517C30.6016 22.3499 32.8147 21.7355 34.1511 23.3086C34.7706 24.0378 34.7119 24.9688 34.3027 25.795C34.0036 26.3989 33.1991 26.7 32.6856 26.1083C32.2643 25.623 33.133 24.8227 33.4436 24.5265C34.5083 23.5114 36.0868 25.1369 36.4202 26.2397C36.6987 27.161 34.1803 29.2955 34.4847 28.3824" stroke="#00ADB5" stroke-opacity="0.5" stroke-width="1.66333" stroke-linecap="round" stroke-linejoin="round"/>
<path d="M58.4082 25.7445C58.9303 25.5651 62.2869 24.4842 61.6425 26.2701C61.3119 27.1863 60.0469 27.6779 59.2168 27.9782C58.8241 28.1202 57.8102 28.0957 58.4688 27.5234C59.0391 27.0279 59.8425 26.7954 60.5913 26.8563C63.5103 27.0936 59.4283 30.4468 58.5901 30.9093C56.9615 31.8078 54.746 32.7531 53.0413 31.6572" stroke="#00ADB5" stroke-opacity="0.5" stroke-width="1.66333" stroke-linecap="round" stroke-linejoin="round"/>
<path d="M40.4882 20.3776C41.1807 21.5041 42.014 22.6358 42.6057 23.8191C42.8093 24.2263 41.9282 23.1836 41.7213 22.778C41.6665 22.6706 41.2873 21.4763 41.2513 21.4843C40.8082 21.5828 40.7041 23.6113 40.5842 23.9858C40.0175 25.7568 38.6172 25.0784 37.2438 24.946C35.5811 24.7858 34.8375 26.4259 33.9185 27.4728C33.1832 28.3105 32.8943 28.5676 33.393 29.565C33.7965 30.372 33.9643 31.1546 33.393 31.8846C32.9471 32.4543 32.389 32.8142 31.8516 33.2844C31.3592 33.7153 32.0653 33.6443 31.9729 33.3855C31.7206 32.679 30.1634 32.8262 29.6533 32.8599C27.7602 32.9851 25.8317 32.5103 23.9731 32.6275C22.9856 32.6897 22.0561 33.2405 21.0774 33.3855C20.0833 33.5328 21.3973 34.3956 21.7697 34.6439C22.4105 35.0711 20.5151 33.7352 19.819 33.4057C18.6515 32.8532 17.5731 32.4253 16.9688 31.2024C16.3631 29.9765 15.8297 29.1407 14.8058 28.241C14.4528 27.9307 14.4111 27.4589 14.5835 27.0382C14.9829 26.0637 15.8686 25.2705 16.7464 24.7439" stroke="#00ADB5" stroke-opacity="0.5" stroke-width="1.66333" stroke-linecap="round" stroke-linejoin="round"/>
<path d="M40.3064 24.0162C38.0262 22.4248 36.1447 21.7395 33.4638 21.3782C32.5214 21.2512 31.5162 20.5987 30.9017 19.8773C30.3563 19.2371 30.6654 19.4065 30.0223 20.2765C29.1439 21.465 28.4916 20.3982 27.3692 20.7112C25.649 21.1908 24.1725 22.7899 22.4268 23.0863C21.9487 23.1675 22.064 22.3677 21.4666 22.7124C20.4606 23.2928 19.6912 23.8419 18.5153 24.0263C17.8042 24.1379 16.4564 24.6062 16.5646 25.4716" stroke="#00ADB5" stroke-opacity="0.5" stroke-width="1.66333" stroke-linecap="round" stroke-linejoin="round"/>
<path d="M55.7703 24.0162C57.9705 24.2283 60.1999 24.201 62.3905 24.4357C63.1618 24.5183 63.556 24.83 64.0986 25.3352C64.588 25.7909 65.352 26.8635 66.0543 26.9221C67.067 27.0064 67.5902 26.5858 68.5356 26.2904C69.1048 26.1125 70.9209 26.2904 70.3246 26.2904" stroke="#00ADB5" stroke-opacity="0.5" stroke-width="1.66333" stroke-linecap="round" stroke-linejoin="round"/>
<path d="M54.1329 26.4722C51.7677 28.0307 50.5043 30.3945 47.9726 31.8138C47.4713 32.0948 45.9368 32.6388 46.0522 33.5624C46.1357 34.2307 51.2603 32.1383 52.0407 31.7481" stroke="#00ADB5" stroke-opacity="0.5" stroke-width="1.66333" stroke-linecap="round" stroke-linejoin="round"/>
<path d="M62.9565 28.6554C64.2426 29.6127 65.3514 30.9809 66.959 30.4949C67.394 30.3634 68.3042 30.312 68.5964 30.0199" stroke="#00ADB5" stroke-opacity="0.5" stroke-width="1.66333" stroke-linecap="round" stroke-linejoin="round"/>
</svg>
