<svg width="59" height="43" viewBox="0 0 59 43" fill="none" xmlns="http://www.w3.org/2000/svg">
<path d="M0.59491 23.1575C0.889193 24.6709 1.63732 25.6542 2.21722 27.0315C2.61207 27.9692 3.35026 28.6954 3.76136 29.6155C4.20533 30.6091 4.87014 31.7763 5.48922 32.6607C6.01994 33.4189 6.36771 34.1373 7.03726 34.8069C8.22086 35.9905 9.11631 37.4009 10.3053 38.5675C12.0338 40.2633 14.9606 42.4759 17.4787 42.336C18.2876 42.291 19.1833 42.5417 19.9767 42.422C20.6573 42.3192 21.4839 42.2849 22.1658 42.4024C23.2866 42.5957 24.5026 42.4013 25.5747 42.6331C26.1533 42.7582 26.7831 42.5754 27.369 42.6839C28.1285 42.8246 29.0185 42.8598 29.7927 42.8598C32.3263 42.8598 34.8534 42.8445 37.3804 42.5236C38.7495 42.3498 40.1062 42.8037 41.4616 42.5627C42.7338 42.3365 44.4284 42.5702 45.6249 42.0467C47.0955 41.4033 48.5584 40.3915 49.6944 39.2555C50.2641 38.6858 50.6965 38.0052 51.0821 37.3009C51.5888 36.3758 51.8708 35.3779 52.38 34.455C54.1558 31.2364 55.168 27.6539 56.6058 24.299C56.9447 23.5083 57.5017 22.8677 57.9076 22.1372C58.0102 21.9524 58.0568 21.7164 58.2242 21.5391C58.8511 20.8753 57.6503 20.8048 57.0984 20.554" stroke="#00ADB5" stroke-opacity="0.2" stroke-width="1.28667" stroke-linecap="round" stroke-linejoin="round"/>
<path d="M0.313477 23.2983C1.57097 21.653 2.63771 20.4445 4.46504 19.5142C5.99526 18.7352 7.58207 17.8099 8.96452 16.7934C11.0891 15.2312 14.0127 14.5351 16.5992 14.0648C19.4144 13.5529 22.1853 12.9546 25.0508 12.9546C25.9374 12.9546 26.8147 13.2215 27.7013 13.2361C28.7628 13.2535 29.8269 13.2869 30.8834 13.3768C32.5049 13.5148 34.1692 13.4822 35.7933 13.5175C38.0592 13.5668 40.2281 14.7397 42.4937 14.9209C43.8413 15.0287 45.4129 15.2303 46.7234 15.5972C47.2142 15.7346 47.7742 15.8281 48.2324 16.0507C48.8023 16.3275 49.202 16.7959 49.7257 17.1218C51.4162 18.1737 53.3059 18.6684 55.1321 19.4673C55.6918 19.7122 56.6545 20.1319 57.2743 20.1319C58.1276 20.1319 58.0835 21.7071 58.0835 20.1319" stroke="#00ADB5" stroke-opacity="0.2" stroke-width="1.28667" stroke-linecap="round" stroke-linejoin="round"/>
<path d="M57.9427 21.1169C56.8991 22.5157 56.1552 23.0482 54.6746 23.8651C53.5123 24.5064 52.2247 24.96 50.9218 25.1981C49.706 25.4204 48.3779 25.596 47.1455 25.6946C46.1197 25.7767 45.0736 25.6574 44.026 25.7767C41.657 26.0466 39.2665 26.6572 36.9816 27.3247C33.7196 28.2777 30.5697 28.3774 27.2008 28.56C23.5231 28.7594 19.8354 28.4784 16.2316 27.7313C15.0163 27.4793 13.7316 27.7055 12.4944 27.657C11.1318 27.6036 9.79693 27.2282 8.51488 26.7853C7.97529 26.5989 7.478 26.3122 6.91211 26.1833C6.24956 26.0323 5.5761 26.0918 4.91842 25.9331C4.00202 25.7119 2.93222 25.3116 2.15853 24.7759C1.82188 24.5429 1.31641 24.3503 1.05223 23.998C0.975161 23.8953 0.876316 23.6667 0.876316 23.5446C0.876316 23.2533 0.637693 23.3268 1.01705 23.5797" stroke="#00ADB5" stroke-opacity="0.2" stroke-width="1.28667" stroke-linecap="round" stroke-linejoin="round"/>
<path d="M27.6855 35.4012C28.5419 35.306 29.6737 35.3224 29.3195 34.2206C29.2059 33.8669 28.9195 33.8293 28.6159 33.7281C27.7108 33.4264 26.0906 34.0106 25.7505 34.9555C25.14 36.6513 26.2954 38.4829 28.1116 37.8953C28.6057 37.7354 29.4824 37.3862 29.7965 36.9375C30.1736 36.3988 29.6074 36.5579 29.2335 36.0345" stroke="#00ADB5" stroke-opacity="0.2" stroke-width="1.28667" stroke-linecap="round" stroke-linejoin="round"/>
<path d="M25.0822 33.5717C26.4472 33.024 27.1456 32.7977 28.5262 32.7977C29.0826 32.7977 29.3609 32.7584 29.8514 33.0791C30.6617 33.6089 30.9405 34.6159 30.856 35.5028C30.7847 36.2517 30.5369 37.2782 30.2736 37.9891C30.0777 38.5179 29.593 38.6091 29.0969 38.7084C28.6435 38.799 27.6551 38.5455 27.2987 38.7435C26.9203 38.9538 25.7621 39.0246 25.4692 38.6341C25.1997 38.2748 24.9108 38.1199 24.7147 37.6842C24.5275 37.2681 24.443 36.8706 24.2925 36.4567C24.0858 35.8882 23.7143 34.336 24.4841 33.9939C24.9352 33.7934 25.1284 33.6733 25.6451 33.6733C25.7917 33.6733 25.9174 33.7828 26.0673 33.7828C26.2835 33.7828 25.6502 33.642 25.434 33.642" stroke="#00ADB5" stroke-opacity="0.2" stroke-width="1.28667" stroke-linecap="round" stroke-linejoin="round"/>
<path d="M27.5449 27.9424C28.5374 26.6589 29.4431 25.3355 30.4689 24.0879C31.02 23.4177 31.7045 22.8412 32.2984 22.1998C33.999 20.3632 35.7319 18.3532 37.0286 16.207C38.3059 14.0928 40.0491 11.7904 41.9424 10.2025C42.9425 9.36369 43.8362 8.43667 44.7062 7.46994C45.5504 6.53198 45.9392 5.22023 46.739 4.22922C47.3583 3.46178 51.4124 -1.7609 52.1181 1.4146C52.3953 2.66231 51.1781 3.53517 50.4136 4.29959C49.5462 5.16704 48.6746 6.26913 47.9352 7.25494C47.2224 8.20529 46.3562 9.04074 45.664 9.99919C44.7222 11.3032 43.0086 12.236 42.3216 13.7129C41.7549 14.9313 40.8147 15.9105 40.109 17.0396C39.131 18.6045 37.9851 19.9115 36.8331 21.3437C35.9203 22.4785 34.4896 23.4115 33.8426 24.7056C33.3021 25.7865 32.3441 26.2421 31.4697 26.9416C31.089 27.2462 30.6264 27.4152 30.2891 27.8368C30.1769 27.9771 29.976 28.1393 29.8708 27.9815C29.8109 27.8915 29.582 28.0932 29.6246 28.1926C29.7746 28.5426 29.4097 27.3506 29.3744 27.2387" stroke="#00ADB5" stroke-opacity="0.2" stroke-width="1.28667" stroke-linecap="round" stroke-linejoin="round"/>
<path d="M26.9819 28.2942C27.2516 28.431 28.9522 29.722 28.9522 28.6813C28.9522 28.3662 29.3568 27.8411 29.4995 27.5202C29.6073 27.2776 28.6356 27.5101 28.4909 27.6961C28.3019 27.9392 27.9354 28.1365 28.53 28.1535C28.9868 28.1666 29.3437 27.9701 29.691 27.7C29.7908 27.6224 31.1333 27.8349 29.9373 27.8017C29.3013 27.784 28.6832 27.8017 28.0726 27.8017C27.5448 27.8017 28.6143 27.661 28.7684 27.661C28.8915 27.661 27.8765 28.2647 27.7012 28.0675C27.6586 28.0196 27.5846 27.8874 27.756 27.8017" stroke="#00ADB5" stroke-opacity="0.2" stroke-width="1.28667" stroke-linecap="round" stroke-linejoin="round"/>
<path d="M4.60571 23.0871C4.68486 23.1291 7.19968 24.4457 7.20924 24.2833C7.22081 24.0865 7.08062 23.915 7.17796 23.7204C7.60343 22.8694 8.15398 23.2775 8.88628 23.607C9.45756 23.8641 8.59059 21.0175 10.3131 22.2192C11.2032 22.8402 11.4406 22.7413 11.2943 21.6993C11.1836 20.9103 11.456 20.9081 12.1348 20.9918C12.5962 21.0486 12.9269 21.1493 13.1903 20.7103C13.5099 20.1776 13.87 19.8745 14.5233 20.1044C15.065 20.295 15.5461 20.8308 15.9189 20.1474C16.0829 19.8467 15.9445 18.9467 16.4623 19.1192C16.7869 19.2274 17.2144 19.6511 17.5842 19.518C17.8645 19.4171 18.0798 18.548 18.3973 18.6853C18.7286 18.8286 19.0662 19.4573 19.4841 19.3069C19.6859 19.2343 20.0601 18.5748 19.6639 18.6541" stroke="#00ADB5" stroke-opacity="0.2" stroke-width="1.28667" stroke-linecap="round" stroke-linejoin="round"/>
<path d="M14.5274 21.8207C15.3996 22.5304 18.6661 26.321 19.625 23.49C19.7967 22.983 19.824 21.9786 20.3052 22.8098C20.7018 23.4947 21.2987 23.9702 21.9471 23.3219C22.3766 22.8923 22.568 22.163 23.1824 21.938C23.7462 21.7316 24.1601 22.7916 24.6288 22.1726C25.0067 21.6734 24.8238 20.8149 24.2691 20.5151C24.0871 20.4167 24.0363 20.7556 23.9564 20.8356" stroke="#00ADB5" stroke-opacity="0.2" stroke-width="1.28667" stroke-linecap="round" stroke-linejoin="round"/>
<path d="M22.0564 17.458C23.4154 17.2246 25.1272 16.7494 26.161 17.9662C26.6403 18.5303 26.5949 19.2505 26.2783 19.8896C26.0469 20.3567 25.4246 20.5896 25.0274 20.1319C24.7015 19.7565 25.3735 19.1375 25.6138 18.9084C26.4374 18.1231 27.6584 19.3805 27.9163 20.2336C28.1317 20.9462 26.1836 22.5974 26.4191 21.8911" stroke="#00ADB5" stroke-opacity="0.2" stroke-width="1.28667" stroke-linecap="round" stroke-linejoin="round"/>
<path d="M44.9253 19.8505C45.3292 19.7117 47.9257 18.8756 47.4272 20.257C47.1715 20.9658 46.193 21.3461 45.5508 21.5783C45.2471 21.6882 44.4627 21.6692 44.9722 21.2265C45.4133 20.8432 46.0348 20.6634 46.6141 20.7105C48.8721 20.8941 45.7144 23.4879 45.066 23.8457C43.8062 24.5407 42.0924 25.272 40.7737 24.4242" stroke="#00ADB5" stroke-opacity="0.2" stroke-width="1.28667" stroke-linecap="round" stroke-linejoin="round"/>
<path d="M31.0633 15.6987C31.5989 16.5701 32.2436 17.4456 32.7012 18.3609C32.8587 18.6759 32.1772 17.8693 32.0171 17.5556C31.9747 17.4725 31.6814 16.5487 31.6536 16.5548C31.3108 16.631 31.2302 18.2002 31.1375 18.4899C30.6992 19.8598 29.616 19.335 28.5536 19.2326C27.2674 19.1087 26.6922 20.3774 25.9813 21.1872C25.4125 21.8352 25.189 22.0341 25.5748 22.8056C25.8869 23.4299 26.0167 24.0353 25.5748 24.6C25.2299 25.0406 24.7982 25.3191 24.3825 25.6828C24.0016 26.0161 24.5478 25.9612 24.4763 25.761C24.2811 25.2145 23.0765 25.3284 22.682 25.3544C21.2176 25.4513 19.7258 25.0839 18.288 25.1746C17.5242 25.2228 16.8052 25.6488 16.0481 25.761C15.2791 25.8749 16.2955 26.5423 16.5836 26.7344C17.0793 27.0648 15.6131 26.0315 15.0747 25.7766C14.1715 25.3492 13.3373 25.0182 12.8699 24.0722C12.4013 23.124 11.9888 22.4775 11.1967 21.7814C10.9237 21.5415 10.8914 21.1764 11.0247 20.851C11.3337 20.0972 12.0189 19.4837 12.6979 19.0763" stroke="#00ADB5" stroke-opacity="0.2" stroke-width="1.28667" stroke-linecap="round" stroke-linejoin="round"/>
<path d="M30.9223 18.5135C29.1585 17.2824 27.703 16.7523 25.6293 16.4729C24.9003 16.3746 24.1227 15.8699 23.6473 15.3118C23.2255 14.8166 23.4646 14.9476 22.9671 15.6207C22.2876 16.54 21.783 15.7147 20.9148 15.9569C19.5841 16.3279 18.442 17.5649 17.0916 17.7942C16.7218 17.857 16.811 17.2383 16.3489 17.5049C15.5707 17.9538 14.9755 18.3786 14.0659 18.5213C13.5158 18.6076 12.4733 18.9698 12.5569 19.6393" stroke="#00ADB5" stroke-opacity="0.2" stroke-width="1.28667" stroke-linecap="round" stroke-linejoin="round"/>
<path d="M42.8846 18.5134C44.5867 18.6775 46.3112 18.6563 48.0057 18.8379C48.6024 18.9018 48.9073 19.1429 49.327 19.5337C49.7056 19.8862 50.2966 20.7159 50.8399 20.7612C51.6232 20.8265 52.0279 20.5011 52.7593 20.2726C53.1996 20.135 54.6044 20.2726 54.1431 20.2726" stroke="#00ADB5" stroke-opacity="0.2" stroke-width="1.28667" stroke-linecap="round" stroke-linejoin="round"/>
<path d="M41.6181 20.4133C39.7886 21.6189 38.8112 23.4475 36.8528 24.5453C36.4651 24.7627 35.278 25.1835 35.3673 25.8979C35.432 26.4149 39.3961 24.7964 39.9997 24.4945" stroke="#00ADB5" stroke-opacity="0.2" stroke-width="1.28667" stroke-linecap="round" stroke-linejoin="round"/>
<path d="M48.4435 22.1021C49.4383 22.8426 50.296 23.9009 51.5396 23.525C51.8761 23.4233 52.5801 23.3835 52.8061 23.1575" stroke="#00ADB5" stroke-opacity="0.2" stroke-width="1.28667" stroke-linecap="round" stroke-linejoin="round"/>
</svg>
