<svg width="76" height="56" viewBox="0 0 76 56" fill="none" xmlns="http://www.w3.org/2000/svg">
<path d="M0.737305 29.7165C1.11774 31.673 2.08487 32.9442 2.83455 34.7246C3.34498 35.9369 4.29927 36.8756 4.83072 38.0651C5.40466 39.3496 6.26409 40.8585 7.0644 42.0018C7.75049 42.9819 8.20007 43.9107 9.06563 44.7762C10.5957 46.3063 11.7533 48.1297 13.2904 49.6378C15.5249 51.8301 19.3084 54.6903 22.5638 54.5095C23.6094 54.4514 24.7673 54.7755 25.793 54.6206C26.6729 54.4878 27.7414 54.4434 28.623 54.5954C30.0719 54.8452 31.6439 54.5939 33.0298 54.8935C33.7778 55.0553 34.592 54.819 35.3494 54.9592C36.3313 55.1411 37.4818 55.1866 38.4826 55.1866C41.7579 55.1866 45.0249 55.1669 48.2916 54.752C50.0616 54.5273 51.8154 55.1141 53.5676 54.8026C55.2122 54.5102 57.4029 54.8122 58.9497 54.1355C60.8507 53.3038 62.7419 51.9957 64.2104 50.5272C64.947 49.7907 65.5059 48.9109 66.0045 48.0004C66.6594 46.8045 67.024 45.5145 67.6823 44.3214C69.9779 40.1606 71.2865 35.5293 73.1452 31.1922C73.5833 30.17 74.3034 29.3419 74.8281 28.3975C74.9608 28.1587 75.0209 27.8535 75.2374 27.6243C76.0478 26.7663 74.4954 26.6751 73.782 26.3508" stroke="#00ADB5" stroke-opacity="0.5" stroke-width="1.66333" stroke-linecap="round" stroke-linejoin="round"/>
<path d="M0.373413 29.8984C1.99904 27.7714 3.37806 26.2092 5.74033 25.0065C7.71851 23.9995 9.76986 22.8033 11.557 21.4892C14.3035 19.4697 18.0831 18.5698 21.4267 17.9618C25.0661 17.3001 28.6482 16.5266 32.3526 16.5266C33.4986 16.5266 34.6328 16.8717 35.7789 16.8905C37.1512 16.913 38.5268 16.9562 39.8925 17.0724C41.9888 17.2508 44.1403 17.2087 46.2398 17.2543C49.169 17.318 51.973 18.8343 54.9017 19.0686C56.6438 19.2079 58.6755 19.4685 60.3697 19.9428C61.0042 20.1205 61.7281 20.2414 62.3204 20.5291C63.0572 20.8869 63.5738 21.4925 64.2508 21.9137C66.4362 23.2735 68.8792 23.9131 71.24 24.9459C71.9635 25.2624 73.208 25.805 74.0093 25.805C75.1125 25.805 75.0554 27.8414 75.0554 25.805" stroke="#00ADB5" stroke-opacity="0.5" stroke-width="1.66333" stroke-linecap="round" stroke-linejoin="round"/>
<path d="M74.8734 27.0786C73.5242 28.8868 72.5626 29.5753 70.6486 30.6313C69.146 31.4603 67.4814 32.0467 65.7971 32.3546C64.2255 32.6419 62.5085 32.8689 60.9153 32.9964C59.5892 33.1025 58.2368 32.9482 56.8826 33.1025C53.8201 33.4514 50.7298 34.2408 47.776 35.1037C43.559 36.3356 39.487 36.4645 35.1319 36.7007C30.3775 36.9584 25.6102 36.5951 20.9515 35.6293C19.3805 35.3036 17.7196 35.596 16.1203 35.5333C14.3588 35.4642 12.6331 34.9789 10.9757 34.4063C10.2782 34.1654 9.63531 33.7948 8.90375 33.6281C8.04725 33.4329 7.17663 33.5099 6.32642 33.3046C5.14175 33.0187 3.75877 32.5012 2.75858 31.8088C2.32338 31.5075 1.66993 31.2585 1.32841 30.8031C1.22878 30.6703 1.101 30.3748 1.101 30.2169C1.101 29.8403 0.792523 29.9354 1.28293 30.2624" stroke="#00ADB5" stroke-opacity="0.5" stroke-width="1.66333" stroke-linecap="round" stroke-linejoin="round"/>
<path d="M35.7588 45.5444C36.8659 45.4214 38.329 45.4425 37.8712 44.0182C37.7242 43.561 37.354 43.5123 36.9615 43.3814C35.7915 42.9914 33.697 43.7467 33.2572 44.9683C32.468 47.1605 33.9617 49.5282 36.3096 48.7686C36.9483 48.5619 38.0816 48.1105 38.4877 47.5304C38.9752 46.834 38.2433 47.0397 37.76 46.3631" stroke="#00ADB5" stroke-opacity="0.5" stroke-width="1.66333" stroke-linecap="round" stroke-linejoin="round"/>
<path d="M32.3929 43.1793C34.1576 42.4713 35.0605 42.1787 36.8452 42.1787C37.5645 42.1787 37.9243 42.128 38.5583 42.5426C39.6058 43.2275 39.9663 44.5293 39.8571 45.6758C39.7649 46.6439 39.4445 47.9709 39.1041 48.8899C38.8509 49.5735 38.2242 49.6915 37.583 49.8198C36.9968 49.937 35.7191 49.6092 35.2583 49.8652C34.7692 50.137 33.2719 50.2286 32.8932 49.7237C32.5449 49.2593 32.1714 49.059 31.9179 48.4957C31.6759 47.9579 31.5667 47.444 31.3721 46.9089C31.1049 46.174 30.6246 44.1674 31.6197 43.7251C32.203 43.4659 32.4527 43.3107 33.1207 43.3107C33.3102 43.3107 33.4727 43.4522 33.6664 43.4522C33.946 43.4522 33.1273 43.2703 32.8478 43.2703" stroke="#00ADB5" stroke-opacity="0.5" stroke-width="1.66333" stroke-linecap="round" stroke-linejoin="round"/>
<path d="M35.5767 35.9021C36.8597 34.2429 38.0306 32.5321 39.3567 30.9192C40.0691 30.0528 40.9541 29.3075 41.7218 28.4783C43.9202 26.1041 46.1604 23.5057 47.8367 20.7312C49.488 17.998 51.7415 15.0216 54.189 12.9689C55.4819 11.8845 56.6372 10.6861 57.7619 9.4364C58.8532 8.22386 59.3559 6.52809 60.3898 5.24697C61.1905 4.25486 66.4313 -2.49674 67.3436 1.60838C67.702 3.22134 66.1284 4.34974 65.1402 5.33793C64.0188 6.45933 62.892 7.88406 61.9362 9.15845C61.0148 10.387 59.8949 11.467 59.0001 12.7061C57.7826 14.3919 55.5673 15.5977 54.6792 17.507C53.9467 19.082 52.7312 20.3479 51.8189 21.8076C50.5546 23.8306 49.0732 25.5201 47.584 27.3716C46.4039 28.8387 44.5545 30.0448 43.718 31.7177C43.0193 33.1151 41.7808 33.7041 40.6505 34.6084C40.1584 35.002 39.5604 35.2205 39.1243 35.7656C38.9792 35.9469 38.7195 36.1566 38.5835 35.9526C38.506 35.8363 38.2101 36.097 38.2652 36.2255C38.4591 36.678 37.9874 35.1371 37.9417 34.9924" stroke="#00ADB5" stroke-opacity="0.5" stroke-width="1.66333" stroke-linecap="round" stroke-linejoin="round"/>
<path d="M34.849 36.3569C35.1976 36.5336 37.396 38.2026 37.396 36.8572C37.396 36.45 37.9191 35.7711 38.1035 35.3563C38.2429 35.0426 36.9867 35.3432 36.7997 35.5837C36.5553 35.8979 36.0816 36.153 36.8502 36.175C37.4407 36.1918 37.9022 35.9379 38.3511 35.5887C38.4802 35.4884 40.2156 35.7631 38.6695 35.7201C37.8473 35.6973 37.0483 35.7201 36.259 35.7201C35.5766 35.7201 36.9593 35.5382 37.1585 35.5382C37.3175 35.5382 36.0054 36.3187 35.7789 36.0638C35.7237 36.0018 35.6281 35.8309 35.8496 35.7201" stroke="#00ADB5" stroke-opacity="0.5" stroke-width="1.66333" stroke-linecap="round" stroke-linejoin="round"/>
<path d="M5.92212 29.6255C6.02443 29.6798 9.27546 31.3819 9.28781 31.1719C9.30278 30.9175 9.12155 30.6959 9.24738 30.4442C9.7974 29.3442 10.5091 29.8717 11.4558 30.2977C12.1943 30.63 11.0736 26.95 13.3004 28.5036C14.451 29.3064 14.7579 29.1785 14.5688 27.8315C14.4257 26.8115 14.7779 26.8086 15.6553 26.9168C16.2518 26.9903 16.6793 27.1205 17.0198 26.5529C17.433 25.8643 17.8985 25.4725 18.7431 25.7696C19.4434 26.016 20.0653 26.7088 20.5472 25.8252C20.7593 25.4365 20.5804 24.273 21.2497 24.4961C21.6692 24.636 22.2219 25.1837 22.7001 25.0116C23.0623 24.8812 23.3407 23.7577 23.7512 23.9352C24.1794 24.1203 24.6159 24.9332 25.1561 24.7387C25.4169 24.6448 25.9007 23.7923 25.3886 23.8948" stroke="#00ADB5" stroke-opacity="0.5" stroke-width="1.66333" stroke-linecap="round" stroke-linejoin="round"/>
<path d="M18.7483 27.9882C19.8758 28.9056 24.0985 33.8059 25.3382 30.1461C25.5602 29.4907 25.5955 28.1923 26.2175 29.2667C26.7302 30.1522 27.5019 30.7669 28.34 29.9288C28.8954 29.3734 29.1427 28.4307 29.9369 28.1398C30.6658 27.8729 31.2009 29.2432 31.8068 28.443C32.2954 27.7977 32.059 26.6879 31.3418 26.3003C31.1066 26.1731 31.0409 26.6113 30.9376 26.7147" stroke="#00ADB5" stroke-opacity="0.5" stroke-width="1.66333" stroke-linecap="round" stroke-linejoin="round"/>
<path d="M28.4814 22.3483C30.2382 22.0466 32.4513 21.4322 33.7877 23.0053C34.4072 23.7345 34.3485 24.6655 33.9393 25.4916C33.6402 26.0955 32.8357 26.3967 32.3222 25.805C31.9009 25.3196 32.7696 24.5194 33.0802 24.2232C34.1449 23.208 35.7234 24.8336 36.0568 25.9364C36.3353 26.8577 33.8169 28.9922 34.1213 28.0791" stroke="#00ADB5" stroke-opacity="0.5" stroke-width="1.66333" stroke-linecap="round" stroke-linejoin="round"/>
<path d="M58.045 25.4412C58.5672 25.2618 61.9237 24.1808 61.2793 25.9667C60.9487 26.883 59.6838 27.3746 58.8536 27.6749C58.461 27.8169 57.447 27.7923 58.1057 27.22C58.6759 26.7246 59.4794 26.4921 60.2282 26.553C63.1472 26.7903 59.0652 30.1435 58.2269 30.6059C56.5984 31.5045 54.3828 32.4498 52.6781 31.3539" stroke="#00ADB5" stroke-opacity="0.5" stroke-width="1.66333" stroke-linecap="round" stroke-linejoin="round"/>
<path d="M40.1247 20.0742C40.8171 21.2007 41.6505 22.3325 42.2421 23.5157C42.4458 23.923 41.5647 22.8803 41.3578 22.4747C41.303 22.3673 40.9238 21.173 40.8878 21.181C40.4447 21.2794 40.3405 23.308 40.2207 23.6825C39.654 25.4535 38.2537 24.775 36.8803 24.6427C35.2176 24.4824 34.474 26.1225 33.555 27.1695C32.8197 28.0072 32.5307 28.2643 33.0294 29.2617C33.433 30.0687 33.6007 30.8512 33.0294 31.5813C32.5836 32.1509 32.0255 32.5109 31.4881 32.9811C30.9957 33.4119 31.7018 33.341 31.6094 33.0822C31.3571 32.3757 29.7998 32.5229 29.2898 32.5566C27.3967 32.6818 25.4682 32.2069 23.6095 32.3241C22.6221 32.3864 21.6926 32.9372 20.7138 33.0822C19.7198 33.2294 21.0338 34.0922 21.4062 34.3405C22.047 34.7677 20.1516 33.4318 19.4555 33.1024C18.288 32.5498 17.2095 32.122 16.6053 30.899C15.9995 29.6732 15.4662 28.8374 14.4423 27.9376C14.0893 27.6274 14.0476 27.1555 14.22 26.7349C14.6193 25.7604 15.5051 24.9672 16.3829 24.4405" stroke="#00ADB5" stroke-opacity="0.5" stroke-width="1.66333" stroke-linecap="round" stroke-linejoin="round"/>
<path d="M39.943 23.7129C37.6628 22.1215 35.7813 21.4361 33.1004 21.0749C32.158 20.9479 31.1528 20.2954 30.5383 19.574C29.9929 18.9338 30.302 19.1031 29.6589 19.9732C28.7805 21.1617 28.1282 20.0948 27.0058 20.4078C25.2856 20.8875 23.8091 22.4866 22.0634 22.783C21.5853 22.8642 21.7006 22.0644 21.1032 22.409C20.0972 22.9894 19.3278 23.5385 18.1519 23.723C17.4408 23.8345 16.093 24.3028 16.2012 25.1683" stroke="#00ADB5" stroke-opacity="0.5" stroke-width="1.66333" stroke-linecap="round" stroke-linejoin="round"/>
<path d="M55.4069 23.7129C57.6071 23.925 59.8365 23.8976 62.0271 24.1323C62.7984 24.215 63.1926 24.5267 63.7352 25.0319C64.2246 25.4876 64.9886 26.5602 65.6909 26.6187C66.7036 26.7031 67.2268 26.2825 68.1722 25.987C68.7414 25.8091 70.5575 25.987 69.9612 25.987" stroke="#00ADB5" stroke-opacity="0.5" stroke-width="1.66333" stroke-linecap="round" stroke-linejoin="round"/>
<path d="M53.7695 26.1689C51.4043 27.7275 50.1408 30.0913 47.6092 31.5106C47.1079 31.7916 45.5734 32.3356 45.6888 33.2591C45.7723 33.9275 50.8969 31.8351 51.6773 31.4449" stroke="#00ADB5" stroke-opacity="0.5" stroke-width="1.66333" stroke-linecap="round" stroke-linejoin="round"/>
<path d="M62.5931 28.3521C63.8792 29.3094 64.988 30.6776 66.5956 30.1916C67.0306 30.06 67.9408 30.0087 68.233 29.7165" stroke="#00ADB5" stroke-opacity="0.5" stroke-width="1.66333" stroke-linecap="round" stroke-linejoin="round"/>
</svg>
