<svg width="59" height="43" viewBox="0 0 59 43" fill="none" xmlns="http://www.w3.org/2000/svg">
<path d="M0.428101 23.2776C0.722384 24.7911 1.47051 25.7743 2.05042 27.1516C2.44526 28.0894 3.18345 28.8155 3.59455 29.7356C4.03852 30.7292 4.70333 31.8964 5.32241 32.7808C5.85313 33.539 6.2009 34.2574 6.87045 34.927C8.05405 36.1106 8.9495 37.521 10.1385 38.6876C11.867 40.3835 14.7937 42.596 17.3119 42.4561C18.1208 42.4112 19.0164 42.6619 19.8099 42.5421C20.4905 42.4394 21.3171 42.405 21.999 42.5226C23.1198 42.7158 24.3358 42.5214 25.4078 42.7532C25.9865 42.8783 26.6163 42.6955 27.2022 42.804C27.9617 42.9447 28.8517 42.9799 29.6259 42.9799C32.1595 42.9799 34.6866 42.9646 37.2136 42.6437C38.5827 42.4699 39.9394 42.9238 41.2948 42.6828C42.567 42.4567 44.2616 42.6903 45.4581 42.1668C46.9286 41.5235 48.3916 40.5116 49.5276 39.3757C50.0973 38.8059 50.5296 38.1253 50.9153 37.4211C51.4219 36.4959 51.704 35.4981 52.2132 34.5752C53.989 31.3566 55.0012 27.774 56.439 24.4191C56.7779 23.6284 57.3349 22.9878 57.7408 22.2573C57.8434 22.0725 57.89 21.8365 58.0574 21.6592C58.6843 20.9955 57.4835 20.9249 56.9316 20.6741" stroke="#00ADB5" stroke-opacity="0.2" stroke-width="1.28667" stroke-linecap="round" stroke-linejoin="round"/>
<path d="M0.146606 23.4184C1.4041 21.7731 2.47084 20.5646 4.29817 19.6343C5.82838 18.8553 7.4152 17.93 8.79765 16.9135C10.9222 15.3514 13.8459 14.6552 16.4323 14.1849C19.2475 13.6731 22.0185 13.0747 24.884 13.0747C25.7705 13.0747 26.6478 13.3416 27.5344 13.3562C28.5959 13.3736 29.66 13.407 30.7165 13.4969C32.338 13.6349 34.0023 13.6023 35.6264 13.6376C37.8923 13.6869 40.0613 14.8598 42.3268 15.041C43.6744 15.1488 45.246 15.3504 46.5565 15.7173C47.0474 15.8547 47.6073 15.9482 48.0655 16.1708C48.6355 16.4476 49.0351 16.916 49.5588 17.2419C51.2493 18.2938 53.1391 18.7885 54.9652 19.5874C55.5249 19.8323 56.4876 20.252 57.1075 20.252C57.9608 20.252 57.9167 21.8272 57.9167 20.252" stroke="#00ADB5" stroke-opacity="0.2" stroke-width="1.28667" stroke-linecap="round" stroke-linejoin="round"/>
<path d="M57.776 21.2371C56.7323 22.6358 55.9885 23.1683 54.5079 23.9852C53.3455 24.6265 52.0579 25.0801 50.7551 25.3183C49.5393 25.5405 48.2111 25.7161 46.9788 25.8147C45.9529 25.8968 44.9068 25.7775 43.8592 25.8968C41.4903 26.1667 39.0998 26.7774 36.8149 27.4449C33.5528 28.3978 30.403 28.4975 27.0341 28.6802C23.3563 28.8796 19.6686 28.5985 16.0649 27.8514C14.8496 27.5995 13.5649 27.8257 12.3277 27.7771C10.9651 27.7237 9.63019 27.3483 8.34813 26.9054C7.80854 26.719 7.31126 26.4323 6.74536 26.3034C6.08282 26.1524 5.40935 26.2119 4.75167 26.0532C3.83528 25.832 2.76548 25.4317 1.99178 24.8961C1.65513 24.663 1.14966 24.4704 0.885482 24.1181C0.808413 24.0154 0.709568 23.7868 0.709568 23.6647C0.709568 23.3734 0.470945 23.4469 0.850299 23.6999" stroke="#00ADB5" stroke-opacity="0.2" stroke-width="1.28667" stroke-linecap="round" stroke-linejoin="round"/>
<path d="M27.5188 35.5213C28.3752 35.4262 29.5069 35.4425 29.1528 34.3407C29.0391 33.9871 28.7527 33.9494 28.4491 33.8482C27.5441 33.5465 25.9239 34.1307 25.5837 35.0757C24.9732 36.7715 26.1286 38.603 27.9449 38.0154C28.4389 37.8555 29.3156 37.5063 29.6297 37.0576C30.0068 36.5189 29.4407 36.678 29.0668 36.1546" stroke="#00ADB5" stroke-opacity="0.2" stroke-width="1.28667" stroke-linecap="round" stroke-linejoin="round"/>
<path d="M24.9153 33.6918C26.2804 33.1441 26.9788 32.9178 28.3593 32.9178C28.9158 32.9178 29.1941 32.8785 29.6846 33.1992C30.4949 33.7291 30.7737 34.7361 30.6892 35.6229C30.6179 36.3718 30.3701 37.3983 30.1068 38.1092C29.9109 38.638 29.4261 38.7293 28.9301 38.8285C28.4767 38.9192 27.4883 38.6656 27.1319 38.8637C26.7535 39.0739 25.5953 39.1448 25.3024 38.7542C25.0329 38.3949 24.744 38.24 24.5479 37.8043C24.3607 37.3882 24.2762 36.9907 24.1257 36.5768C23.919 36.0083 23.5475 34.4561 24.3172 34.114C24.7684 33.9135 24.9615 33.7934 25.4783 33.7934C25.6249 33.7934 25.7506 33.9029 25.9005 33.9029C26.1167 33.9029 25.4834 33.7622 25.2672 33.7622" stroke="#00ADB5" stroke-opacity="0.2" stroke-width="1.28667" stroke-linecap="round" stroke-linejoin="round"/>
<path d="M27.3781 28.0625C28.3706 26.7791 29.2763 25.4556 30.3021 24.208C30.8532 23.5378 31.5377 22.9613 32.1316 22.3199C33.8322 20.4833 35.5651 18.4733 36.8618 16.3271C38.1391 14.2129 39.8823 11.9105 41.7756 10.3226C42.7757 9.48381 43.6694 8.55679 44.5394 7.59006C45.3836 6.6521 45.7724 5.34035 46.5722 4.34934C47.1915 3.5819 51.2456 -1.64078 51.9512 1.53472C52.2285 2.78242 51.0112 3.65529 50.2468 4.4197C49.3794 5.28716 48.5078 6.38925 47.7684 7.37505C47.0556 8.32541 46.1894 9.16086 45.4972 10.1193C44.5554 11.4233 42.8417 12.3561 42.1548 13.833C41.5881 15.0514 40.6479 16.0306 39.9422 17.1598C38.9642 18.7246 37.8183 20.0316 36.6663 21.4638C35.7535 22.5987 34.3228 23.5316 33.6758 24.8257C33.1353 25.9066 32.1772 26.3623 31.3029 27.0618C30.9222 27.3663 30.4596 27.5353 30.1223 27.957C30.0101 28.0972 29.8092 28.2594 29.704 28.1016C29.644 28.0116 29.4152 28.2133 29.4577 28.3127C29.6078 28.6627 29.2429 27.4707 29.2076 27.3588" stroke="#00ADB5" stroke-opacity="0.2" stroke-width="1.28667" stroke-linecap="round" stroke-linejoin="round"/>
<path d="M26.8152 28.4144C27.0849 28.5511 28.7854 29.8421 28.7854 28.8014C28.7854 28.4864 29.1901 27.9612 29.3327 27.6403C29.4405 27.3977 28.4688 27.6302 28.3241 27.8163C28.1351 28.0593 27.7687 28.2566 28.3632 28.2736C28.82 28.2867 29.177 28.0903 29.5243 27.8202C29.6241 27.7425 30.9665 27.955 29.7705 27.9218C29.1345 27.9041 28.5164 27.9218 27.9059 27.9218C27.378 27.9218 28.4476 27.7811 28.6017 27.7811C28.7247 27.7811 27.7097 28.3848 27.5345 28.1876C27.4918 28.1397 27.4178 28.0075 27.5892 27.9218" stroke="#00ADB5" stroke-opacity="0.2" stroke-width="1.28667" stroke-linecap="round" stroke-linejoin="round"/>
<path d="M4.43896 23.2074C4.51811 23.2494 7.03293 24.5661 7.04249 24.4037C7.05406 24.2069 6.91388 24.0354 7.01121 23.8407C7.43668 22.9898 7.98723 23.3978 8.71953 23.7274C9.29082 23.9844 8.42384 21.1378 10.1464 22.3396C11.0364 22.9606 11.2738 22.8617 11.1276 21.8197C11.0169 21.0307 11.2893 21.0284 11.9681 21.1121C12.4295 21.169 12.7601 21.2697 13.0236 20.8307C13.3432 20.298 13.7033 19.9949 14.3566 20.2247C14.8983 20.4153 15.3794 20.9512 15.7522 20.2677C15.9162 19.967 15.7778 19.067 16.2955 19.2396C16.6201 19.3478 17.0476 19.7715 17.4175 19.6383C17.6977 19.5375 17.9131 18.6684 18.2306 18.8057C18.5618 18.9489 18.8995 19.5777 19.3174 19.4273C19.5191 19.3546 19.8933 18.6952 19.4972 18.7744" stroke="#00ADB5" stroke-opacity="0.2" stroke-width="1.28667" stroke-linecap="round" stroke-linejoin="round"/>
<path d="M14.3606 21.9409C15.2328 22.6505 18.4993 26.4412 19.4582 23.6101C19.6299 23.1031 19.6572 22.0988 20.1384 22.9299C20.5349 23.6149 21.1319 24.0903 21.7802 23.442C22.2098 23.0124 22.4011 22.2831 23.0155 22.0581C23.5793 21.8517 23.9933 22.9117 24.462 22.2927C24.8399 21.7935 24.657 20.935 24.1023 20.6352C23.9203 20.5368 23.8695 20.8758 23.7896 20.9557" stroke="#00ADB5" stroke-opacity="0.2" stroke-width="1.28667" stroke-linecap="round" stroke-linejoin="round"/>
<path d="M21.8896 17.5782C23.2486 17.3448 24.9605 16.8695 25.9943 18.0864C26.4735 18.6504 26.4281 19.3706 26.1116 20.0097C25.8802 20.4768 25.2579 20.7098 24.8606 20.252C24.5348 19.8766 25.2067 19.2576 25.447 19.0285C26.2706 18.2432 27.4916 19.5006 27.7495 20.3537C27.965 21.0664 26.0169 22.7175 26.2523 22.0112" stroke="#00ADB5" stroke-opacity="0.2" stroke-width="1.28667" stroke-linecap="round" stroke-linejoin="round"/>
<path d="M44.7585 19.9706C45.1624 19.8318 47.7589 18.9957 47.2604 20.3772C47.0046 21.0859 46.0261 21.4662 45.384 21.6985C45.0803 21.8083 44.2959 21.7893 44.8054 21.3466C45.2465 20.9634 45.868 20.7835 46.4473 20.8306C48.7053 21.0142 45.5476 23.6081 44.8992 23.9658C43.6394 24.6609 41.9256 25.3921 40.6069 24.5444" stroke="#00ADB5" stroke-opacity="0.2" stroke-width="1.28667" stroke-linecap="round" stroke-linejoin="round"/>
<path d="M30.8965 15.8188C31.4321 16.6903 32.0768 17.5657 32.5344 18.481C32.6919 18.796 32.0104 17.9895 31.8503 17.6757C31.8079 17.5926 31.5146 16.6688 31.4867 16.675C31.144 16.7511 31.0634 18.3203 30.9707 18.61C30.5324 19.9799 29.4492 19.4552 28.3868 19.3528C27.1006 19.2288 26.5254 20.4975 25.8145 21.3074C25.2457 21.9553 25.0222 22.1542 25.408 22.9258C25.7201 23.55 25.8499 24.1554 25.408 24.7201C25.0631 25.1607 24.6314 25.4392 24.2156 25.8029C23.8348 26.1362 24.381 26.0813 24.3095 25.8811C24.1143 25.3346 22.9097 25.4485 22.5151 25.4746C21.0508 25.5714 19.559 25.2041 18.1212 25.2947C17.3574 25.3429 16.6384 25.7689 15.8812 25.8811C15.1123 25.995 16.1287 26.6625 16.4168 26.8545C16.9125 27.185 15.4463 26.1516 14.9079 25.8967C14.0047 25.4693 13.1705 25.1383 12.7031 24.1923C12.2345 23.2441 11.822 22.5976 11.0299 21.9016C10.7569 21.6616 10.7246 21.2966 10.8579 20.9712C11.1669 20.2174 11.852 19.6038 12.5311 19.1964" stroke="#00ADB5" stroke-opacity="0.2" stroke-width="1.28667" stroke-linecap="round" stroke-linejoin="round"/>
<path d="M30.7555 18.6336C28.9917 17.4026 27.5362 16.8724 25.4625 16.593C24.7335 16.4947 23.9559 15.99 23.4805 15.432C23.0587 14.9367 23.2978 15.0677 22.8003 15.7408C22.1208 16.6601 21.6162 15.8349 20.748 16.077C19.4173 16.448 18.2752 17.685 16.9248 17.9143C16.555 17.9771 16.6442 17.3584 16.182 17.625C15.4039 18.074 14.8087 18.4987 13.8991 18.6414C13.349 18.7277 12.3064 19.09 12.3901 19.7594" stroke="#00ADB5" stroke-opacity="0.2" stroke-width="1.28667" stroke-linecap="round" stroke-linejoin="round"/>
<path d="M42.7179 18.6335C44.4199 18.7976 46.1444 18.7765 47.8389 18.958C48.4356 19.0219 48.7405 19.2631 49.1602 19.6538C49.5388 20.0063 50.1298 20.8361 50.6731 20.8813C51.4564 20.9466 51.8612 20.6212 52.5925 20.3927C53.0328 20.2551 54.4377 20.3927 53.9764 20.3927" stroke="#00ADB5" stroke-opacity="0.2" stroke-width="1.28667" stroke-linecap="round" stroke-linejoin="round"/>
<path d="M41.4514 20.5334C39.6218 21.7391 38.6445 23.5676 36.6861 24.6655C36.2983 24.8828 35.1113 25.3037 35.2006 26.018C35.2652 26.535 39.2293 24.9165 39.833 24.6146" stroke="#00ADB5" stroke-opacity="0.2" stroke-width="1.28667" stroke-linecap="round" stroke-linejoin="round"/>
<path d="M48.2766 22.2222C49.2715 22.9627 50.1292 24.0211 51.3727 23.6451C51.7092 23.5434 52.4133 23.5037 52.6393 23.2777" stroke="#00ADB5" stroke-opacity="0.2" stroke-width="1.28667" stroke-linecap="round" stroke-linejoin="round"/>
</svg>
