<svg width="93" height="201" viewBox="0 0 93 201" fill="none" xmlns="http://www.w3.org/2000/svg">
<path d="M5.06681 8.57038C3.06915 8.8659 0.718676 9.02183 0.242908 11.4007C-0.125795 13.2442 0.0137589 15.1416 1.11879 16.741C3.00707 19.474 5.81254 21.0691 9.19131 20.5059C12.2124 20.0024 16.3618 17.2648 16.3618 13.8649C16.3618 11.9476 14.9812 10.0181 13.8387 8.58346C12.6142 7.0457 11.5563 5.42881 10.0149 4.17135C7.93587 2.47529 6.25642 2.30879 4.38702 4.30862C3.36407 5.40294 2.39665 6.89581 1.94892 8.32853C1.72822 9.03479 1.89009 9.60097 1.89009 10.3091C1.89009 11.2528 1.71498 9.86094 1.89009 9.39398" stroke="#00ADB5" stroke-opacity="0.2" stroke-width="1.28667" stroke-linecap="round" stroke-linejoin="round"/>
<path d="M15.4205 13.9722C17.1205 15.4816 18.5614 16.8468 21.5675 16.9204C23.6723 16.972 25.7762 16.4466 27.7485 15.8812C29.1605 15.4764 33.6879 13.3323 30.0195 13.1589" stroke="#00ADB5" stroke-opacity="0.2" stroke-width="1.28667" stroke-linecap="round" stroke-linejoin="round"/>
<path d="M32.9513 0.80502C30.7081 3.28237 27.6117 8.13695 28.7745 11.8582C29.1835 13.1667 29.7774 14.0477 30.5459 15.1656C32.0926 17.4153 34.4897 16.7141 36.664 16.1265C38.2403 15.7004 40.1132 14.3584 40.7166 12.8321C41.5495 10.7256 39.8138 7.43223 38.3635 5.98189C36.7442 4.36257 35.4614 2.39251 33.6573 0.974968C33.1772 0.597781 32.8127 0.18872 32.1866 0.327859C31.4827 0.484272 31.1929 1.15799 32.1277 1.15799" stroke="#00ADB5" stroke-opacity="0.2" stroke-width="1.28667" stroke-linecap="round" stroke-linejoin="round"/>
<path d="M56.5334 188.704C54.5357 188.999 52.1852 189.155 51.7095 191.534C51.3408 193.377 51.4803 195.275 52.5853 196.874C54.4736 199.607 57.2791 201.202 60.6579 200.639C63.679 200.136 67.8284 197.398 67.8284 193.998C67.8284 192.081 66.4477 190.151 65.3053 188.717C64.0808 187.179 63.0229 185.562 61.4815 184.305C59.4024 182.609 57.723 182.442 55.8536 184.442C54.8306 185.536 53.8632 187.029 53.4155 188.462C53.1948 189.168 53.3566 189.734 53.3566 190.442C53.3566 191.386 53.1815 189.994 53.3566 189.527" stroke="#00ADB5" stroke-opacity="0.2" stroke-width="1.28667" stroke-linecap="round" stroke-linejoin="round"/>
<path d="M66.8872 194.106C68.5872 195.615 70.0281 196.98 73.0341 197.054C75.139 197.105 77.2428 196.58 79.2152 196.015C80.6272 195.61 85.1546 193.466 81.4861 193.292" stroke="#00ADB5" stroke-opacity="0.2" stroke-width="1.28667" stroke-linecap="round" stroke-linejoin="round"/>
<path d="M84.418 180.938C82.1747 183.416 79.0783 188.27 80.2412 191.991C80.6501 193.3 81.244 194.181 82.0126 195.299C83.5593 197.549 85.9564 196.847 88.1307 196.26C89.707 195.834 91.5799 194.492 92.1833 192.965C93.0161 190.859 91.2805 187.566 89.8302 186.115C88.2109 184.496 86.9281 182.526 85.1239 181.108C84.6439 180.731 84.2794 180.322 83.6532 180.461C82.9494 180.618 82.6596 181.291 83.5944 181.291" stroke="#00ADB5" stroke-opacity="0.2" stroke-width="1.28667" stroke-linecap="round" stroke-linejoin="round"/>
<path d="M19.6562 27.0423C19.8572 29.3203 20.129 31.6544 22.0094 33.1866C23.808 34.6521 25.4625 33.0124 26.245 31.2518C26.9852 29.5862 26.8926 28.218 26.5065 26.4802C26.219 25.1868 26.5842 25.5889 25.3037 26.1011" stroke="#00ADB5" stroke-opacity="0.2" stroke-width="1.28667" stroke-linecap="round" stroke-linejoin="round"/>
</svg>
