<svg width="33" height="17" viewBox="0 0 33 17" fill="none" xmlns="http://www.w3.org/2000/svg">
<path d="M4.0672 6.63906C2.46838 6.87557 0.587182 7.00037 0.206402 8.90428C-0.088689 10.3797 0.0230027 11.8983 0.907415 13.1784C2.4187 15.3657 4.66405 16.6424 7.36824 16.1917C9.78618 15.7887 13.1071 13.5976 13.1071 10.8765C13.1071 9.34202 12.0021 7.79777 11.0878 6.64952C10.1078 5.41878 9.26106 4.12471 8.02741 3.1183C6.36345 1.76086 5.01931 1.6276 3.52314 3.22816C2.70442 4.104 1.93015 5.29882 1.57181 6.4455C1.39517 7.01075 1.52472 7.46389 1.52472 8.03062C1.52472 8.78593 1.38457 7.67196 1.52472 7.29822" stroke="#00ADB5" stroke-opacity="0.2" stroke-width="1.28667" stroke-linecap="round" stroke-linejoin="round"/>
<path d="M12.3536 10.9624C13.7142 12.1704 14.8674 13.2631 17.2733 13.322C18.9579 13.3633 20.6417 12.9428 22.2203 12.4903C23.3504 12.1663 26.9739 10.4503 24.0379 10.3115" stroke="#00ADB5" stroke-opacity="0.2" stroke-width="1.28667" stroke-linecap="round" stroke-linejoin="round"/>
<path d="M26.3844 0.424173C24.589 2.40692 22.1108 6.29227 23.0415 9.27054C23.3688 10.3178 23.8441 11.023 24.4592 11.9176C25.6971 13.7182 27.6156 13.157 29.3559 12.6867C30.6175 12.3457 32.1164 11.2716 32.5994 10.05C33.2659 8.36406 31.8768 5.72825 30.716 4.56747C29.42 3.27145 28.3934 1.69472 26.9494 0.56019C26.5652 0.258309 26.2734 -0.0690823 25.7723 0.0422775C25.209 0.167462 24.9771 0.706671 25.7252 0.706671" stroke="#00ADB5" stroke-opacity="0.2" stroke-width="1.28667" stroke-linecap="round" stroke-linejoin="round"/>
</svg>
