<svg width="44" height="22" viewBox="0 0 44 22" fill="none" xmlns="http://www.w3.org/2000/svg">
<path d="M5.97026 8.9867C3.90339 9.29245 1.47148 9.45379 0.979223 11.9151C0.597746 13.8224 0.742135 15.7856 1.88546 17.4404C3.83916 20.2681 6.74183 21.9184 10.2377 21.3358C13.3634 20.8148 17.6566 17.9823 17.6566 14.4647C17.6566 12.4809 16.2281 10.4846 15.0461 9.00023C13.7792 7.4092 12.6846 5.73628 11.0898 4.43525C8.93872 2.68043 7.20109 2.50816 5.26692 4.57728C4.20852 5.70951 3.20759 7.25411 2.74435 8.73647C2.51599 9.4672 2.68348 10.053 2.68348 10.7856C2.68348 11.7621 2.5023 10.322 2.68348 9.83883" stroke="#00ADB5" stroke-opacity="0.5" stroke-width="1.66333" stroke-linecap="round" stroke-linejoin="round"/>
<path d="M16.6826 14.5758C18.4415 16.1375 19.9323 17.55 23.0425 17.6262C25.2203 17.6796 27.397 17.136 29.4377 16.551C30.8987 16.1322 35.5829 13.9137 31.7874 13.7344" stroke="#00ADB5" stroke-opacity="0.5" stroke-width="1.66333" stroke-linecap="round" stroke-linejoin="round"/>
<path d="M34.8209 0.952399C32.4999 3.51558 29.2962 8.53836 30.4994 12.3885C30.9225 13.7424 31.537 14.6539 32.3321 15.8105C33.9324 18.1382 36.4125 17.4127 38.6622 16.8047C40.2931 16.3639 42.2309 14.9753 42.8552 13.3962C43.7169 11.2167 41.9212 7.80922 40.4206 6.30864C38.7452 4.63321 37.4179 2.5949 35.5513 1.12824C35.0546 0.737979 34.6774 0.314746 34.0296 0.458706C33.3014 0.620538 33.0015 1.3176 33.9687 1.3176" stroke="#00ADB5" stroke-opacity="0.5" stroke-width="1.66333" stroke-linecap="round" stroke-linejoin="round"/>
</svg>
