<svg width="34" height="17" viewBox="0 0 34 17" fill="none" xmlns="http://www.w3.org/2000/svg">
<path d="M4.49396 7.03237C2.89514 7.26888 1.01394 7.39368 0.633159 9.29759C0.338069 10.773 0.449761 12.2916 1.33417 13.5717C2.84545 15.7591 5.09081 17.0357 7.795 16.585C10.2129 16.182 13.5339 13.9909 13.5339 11.2698C13.5339 9.73533 12.4289 8.19108 11.5146 7.04283C10.5345 5.8121 9.68782 4.51802 8.45416 3.51161C6.79021 2.15417 5.44607 2.02091 3.94989 3.62147C3.13117 4.49731 2.3569 5.69213 1.99857 6.83881C1.82192 7.40406 1.95148 7.8572 1.95148 8.42393C1.95148 9.17924 1.81133 8.06527 1.95148 7.69153" stroke="#00ADB5" stroke-opacity="0.2" stroke-width="1.28667" stroke-linecap="round" stroke-linejoin="round"/>
<path d="M12.7805 11.3558C14.1411 12.5638 15.2943 13.6564 17.7002 13.7153C19.3848 13.7566 21.0686 13.3361 22.6472 12.8836C23.7773 12.5596 27.4008 10.8436 24.4648 10.7048" stroke="#00ADB5" stroke-opacity="0.2" stroke-width="1.28667" stroke-linecap="round" stroke-linejoin="round"/>
<path d="M26.8112 0.817483C25.0158 2.80023 22.5376 6.68558 23.4683 9.66385C23.7956 10.7111 24.2709 11.4163 24.886 12.311C26.1239 14.1115 28.0424 13.5503 29.7826 13.08C31.0442 12.739 32.5432 11.6649 33.0261 10.4433C33.6927 8.75737 32.3036 6.12156 31.1428 4.96078C29.8468 3.66476 28.8201 2.08803 27.3762 0.953501C26.9919 0.651619 26.7002 0.324228 26.1991 0.435588C25.6358 0.560773 25.4038 1.09998 26.152 1.09998" stroke="#00ADB5" stroke-opacity="0.2" stroke-width="1.28667" stroke-linecap="round" stroke-linejoin="round"/>
</svg>
