<svg width="33" height="17" viewBox="0 0 33 17" fill="none" xmlns="http://www.w3.org/2000/svg">
<path d="M4.06708 6.63906C2.46826 6.87557 0.58706 7.00037 0.20628 8.90428C-0.0888111 10.3797 0.0228807 11.8983 0.907293 13.1784C2.41857 15.3657 4.66393 16.6424 7.36812 16.1917C9.78606 15.7887 13.107 13.5976 13.107 10.8765C13.107 9.34202 12.002 7.79777 11.0877 6.64952C10.1076 5.41878 9.26094 4.12471 8.02728 3.1183C6.36333 1.76086 5.01919 1.6276 3.52301 3.22816C2.70429 4.104 1.93002 5.29882 1.57169 6.4455C1.39504 7.01075 1.5246 7.46389 1.5246 8.03062C1.5246 8.78593 1.38445 7.67196 1.5246 7.29822" stroke="#00ADB5" stroke-opacity="0.2" stroke-width="1.28667" stroke-linecap="round" stroke-linejoin="round"/>
<path d="M12.3536 10.9624C13.7142 12.1704 14.8674 13.2631 17.2733 13.322C18.9579 13.3633 20.6417 12.9428 22.2203 12.4903C23.3504 12.1663 26.9739 10.4503 24.0379 10.3115" stroke="#00ADB5" stroke-opacity="0.2" stroke-width="1.28667" stroke-linecap="round" stroke-linejoin="round"/>
<path d="M26.3843 0.424173C24.5889 2.40692 22.1107 6.29227 23.0415 9.27054C23.3687 10.3178 23.8441 11.023 24.4592 11.9176C25.6971 13.7182 27.6156 13.157 29.3558 12.6867C30.6174 12.3457 32.1164 11.2716 32.5993 10.05C33.2658 8.36406 31.8768 5.72825 30.716 4.56747C29.42 3.27145 28.3933 1.69472 26.9493 0.56019C26.5651 0.258309 26.2734 -0.0690823 25.7723 0.0422775C25.2089 0.167462 24.977 0.706671 25.7252 0.706671" stroke="#00ADB5" stroke-opacity="0.2" stroke-width="1.28667" stroke-linecap="round" stroke-linejoin="round"/>
</svg>
