<svg width="120" height="261" viewBox="0 0 120 261" fill="none" xmlns="http://www.w3.org/2000/svg">
<path d="M6.7625 11.6413C4.18003 12.0233 1.14146 12.2249 0.526417 15.3001C0.0497775 17.6833 0.230185 20.1362 1.65871 22.2038C4.09978 25.7369 7.72654 27.7989 12.0944 27.0709C16 26.42 21.3641 22.8809 21.3641 18.4858C21.3641 16.0072 19.5792 13.5129 18.1024 11.6582C16.5194 9.67027 15.1518 7.58003 13.1591 5.95446C10.4715 3.76188 8.30036 3.54664 5.8837 6.13191C4.56128 7.54659 3.31066 9.47649 2.73186 11.3286C2.44654 12.2417 2.65581 12.9736 2.65581 13.889C2.65581 15.109 2.42943 13.3097 2.65581 12.706" stroke="#00ADB5" stroke-opacity="0.5" stroke-width="1.66333" stroke-linecap="round" stroke-linejoin="round"/>
<path d="M20.1473 18.6246C22.345 20.5758 24.2077 22.3407 28.0937 22.4359C30.8148 22.5026 33.5345 21.8234 36.0843 21.0925C37.9097 20.5692 43.7624 17.7973 39.0201 17.5732" stroke="#00ADB5" stroke-opacity="0.5" stroke-width="1.66333" stroke-linecap="round" stroke-linejoin="round"/>
<path d="M42.81 1.60275C39.9101 4.80534 35.9072 11.0811 37.4105 15.8917C37.9391 17.5833 38.7069 18.7222 39.7004 20.1673C41.6999 23.0756 44.7987 22.1692 47.6096 21.4095C49.6474 20.8587 52.0686 19.1238 52.8486 17.1507C53.9252 14.4275 51.6815 10.17 49.8066 8.29513C47.7132 6.20176 46.0549 3.65498 43.7226 1.82245C43.102 1.33484 42.6308 0.806031 41.8214 0.985903C40.9115 1.1881 40.5368 2.05905 41.7453 2.05905" stroke="#00ADB5" stroke-opacity="0.5" stroke-width="1.66333" stroke-linecap="round" stroke-linejoin="round"/>
<path d="M73.2958 244.508C70.7134 244.89 67.6748 245.092 67.0597 248.167C66.5831 250.55 66.7635 253.003 68.192 255.07C70.6331 258.604 74.2599 260.666 78.6278 259.938C82.5333 259.287 87.8974 255.748 87.8974 251.352C87.8974 248.874 86.1126 246.38 84.6357 244.525C83.0527 242.537 81.6851 240.447 79.6925 238.821C77.0048 236.629 74.8337 236.413 72.417 238.999C71.0946 240.413 69.844 242.343 69.2652 244.195C68.9799 245.108 69.1891 245.84 69.1891 246.756C69.1891 247.976 68.9628 246.176 69.1891 245.573" stroke="#00ADB5" stroke-opacity="0.5" stroke-width="1.66333" stroke-linecap="round" stroke-linejoin="round"/>
<path d="M86.6805 251.491C88.8782 253.443 90.7409 255.207 94.627 255.303C97.348 255.369 100.068 254.69 102.618 253.959C104.443 253.436 110.296 250.664 105.553 250.44" stroke="#00ADB5" stroke-opacity="0.5" stroke-width="1.66333" stroke-linecap="round" stroke-linejoin="round"/>
<path d="M109.343 234.469C106.443 237.672 102.441 243.948 103.944 248.758C104.472 250.45 105.24 251.589 106.234 253.034C108.233 255.942 111.332 255.036 114.143 254.276C116.181 253.725 118.602 251.99 119.382 250.017C120.459 247.294 118.215 243.037 116.34 241.162C114.247 239.068 112.588 236.522 110.256 234.689C109.635 234.202 109.164 233.673 108.355 233.853C107.445 234.055 107.07 234.926 108.279 234.926" stroke="#00ADB5" stroke-opacity="0.5" stroke-width="1.66333" stroke-linecap="round" stroke-linejoin="round"/>
<path d="M25.6228 35.521C25.8826 38.4659 26.234 41.4833 28.6648 43.464C30.99 45.3586 33.1288 43.2389 34.1404 40.9628C35.0973 38.8096 34.9776 37.0409 34.4784 34.7943C34.1068 33.1224 34.5788 33.6421 32.9236 34.3042" stroke="#00ADB5" stroke-opacity="0.5" stroke-width="1.66333" stroke-linecap="round" stroke-linejoin="round"/>
</svg>
