<svg width="121" height="260" viewBox="0 0 121 260" fill="none" xmlns="http://www.w3.org/2000/svg">
<path d="M7.39568 11.0713C4.81321 11.4534 1.77464 11.6549 1.1596 14.7302C0.682956 17.1134 0.863364 19.5662 2.29189 21.6338C4.73296 25.1669 8.35972 27.229 12.7276 26.501C16.6331 25.8501 21.9972 22.311 21.9972 17.9158C21.9972 15.4372 20.2124 12.9429 18.7355 11.0882C17.1526 9.10032 15.785 7.01009 13.7923 5.38451C11.1046 3.19194 8.93354 2.9767 6.51688 5.56196C5.19446 6.97664 3.94384 8.90654 3.36504 10.7587C3.07972 11.6717 3.28899 12.4036 3.28899 13.319C3.28899 14.539 3.06261 12.7397 3.28899 12.136" stroke="#00ADB5" stroke-opacity="0.5" stroke-width="1.66333" stroke-linecap="round" stroke-linejoin="round"/>
<path d="M20.7806 18.0547C22.9783 20.0059 24.841 21.7707 28.727 21.8659C31.4481 21.9326 34.1678 21.2535 36.7176 20.5225C38.543 19.9992 44.3957 17.2274 39.6534 17.0033" stroke="#00ADB5" stroke-opacity="0.5" stroke-width="1.66333" stroke-linecap="round" stroke-linejoin="round"/>
<path d="M43.4433 1.0328C40.5434 4.23539 36.5405 10.5111 38.0438 15.3217C38.5724 17.0133 39.3402 18.1523 40.3337 19.5974C42.3332 22.5057 45.432 21.5992 48.2429 20.8395C50.2807 20.2888 52.7019 18.5538 53.4819 16.5808C54.5585 13.8575 52.3148 9.6001 50.4399 7.72519C48.3465 5.63182 46.6882 3.08503 44.3559 1.2525C43.7353 0.764897 43.2641 0.236085 42.4547 0.415957C41.5448 0.618159 41.1701 1.4891 42.3786 1.4891" stroke="#00ADB5" stroke-opacity="0.5" stroke-width="1.66333" stroke-linecap="round" stroke-linejoin="round"/>
<path d="M73.9291 243.938C71.3467 244.32 68.3081 244.522 67.693 247.597C67.2164 249.98 67.3968 252.433 68.8253 254.5C71.2664 258.034 74.8932 260.096 79.2611 259.368C83.1666 258.717 88.5307 255.178 88.5307 250.782C88.5307 248.304 86.7459 245.81 85.269 243.955C83.686 241.967 82.3184 239.877 80.3258 238.251C77.6381 236.059 75.467 235.843 73.0503 238.429C71.7279 239.843 70.4773 241.773 69.8985 243.625C69.6132 244.538 69.8224 245.27 69.8224 246.186C69.8224 247.406 69.5961 245.606 69.8224 245.003" stroke="#00ADB5" stroke-opacity="0.5" stroke-width="1.66333" stroke-linecap="round" stroke-linejoin="round"/>
<path d="M87.314 250.921C89.5116 252.872 91.3743 254.637 95.2604 254.733C97.9814 254.799 100.701 254.12 103.251 253.389C105.076 252.866 110.929 250.094 106.187 249.87" stroke="#00ADB5" stroke-opacity="0.5" stroke-width="1.66333" stroke-linecap="round" stroke-linejoin="round"/>
<path d="M109.977 233.899C107.077 237.102 103.074 243.378 104.577 248.188C105.106 249.88 105.874 251.019 106.867 252.464C108.867 255.372 111.965 254.466 114.776 253.706C116.814 253.155 119.235 251.42 120.015 249.447C121.092 246.724 118.848 242.467 116.973 240.592C114.88 238.498 113.222 235.952 110.889 234.119C110.269 233.631 109.797 233.103 108.988 233.283C108.078 233.485 107.703 234.356 108.912 234.356" stroke="#00ADB5" stroke-opacity="0.5" stroke-width="1.66333" stroke-linecap="round" stroke-linejoin="round"/>
<path d="M26.2561 34.9511C26.5159 37.8959 26.8673 40.9134 29.2981 42.894C31.6233 44.7886 33.7621 42.6689 34.7737 40.3928C35.7306 38.2397 35.6109 36.4709 35.1117 34.2244C34.7401 32.5524 35.2121 33.0722 33.5569 33.7343" stroke="#00ADB5" stroke-opacity="0.5" stroke-width="1.66333" stroke-linecap="round" stroke-linejoin="round"/>
</svg>
