<svg width="43" height="22" viewBox="0 0 43 22" fill="none" xmlns="http://www.w3.org/2000/svg">
<path d="M5.64336 9.44349C3.57648 9.74924 1.14457 9.91058 0.652319 12.3718C0.270842 14.2792 0.415231 16.2423 1.55855 17.8971C3.51225 20.7249 6.41492 22.3752 9.91076 21.7926C13.0365 21.2716 17.3297 18.4391 17.3297 14.9215C17.3297 12.9377 15.9012 10.9414 14.7192 9.45702C13.4523 7.86598 12.3577 6.19307 10.7629 4.89204C8.61182 3.13722 6.87419 2.96495 4.94001 5.03406C3.88162 6.1663 2.88068 7.71089 2.41744 9.19326C2.18909 9.92399 2.35658 10.5098 2.35658 11.2424C2.35658 12.2188 2.1754 10.7788 2.35658 10.2956" stroke="#00ADB5" stroke-opacity="0.5" stroke-width="1.66333" stroke-linecap="round" stroke-linejoin="round"/>
<path d="M16.3557 15.0326C18.1146 16.5943 19.6054 18.0068 22.7156 18.083C24.8934 18.1363 27.0701 17.5928 29.1108 17.0078C30.5718 16.589 35.256 14.3705 31.4605 14.1912" stroke="#00ADB5" stroke-opacity="0.5" stroke-width="1.66333" stroke-linecap="round" stroke-linejoin="round"/>
<path d="M34.4941 1.40919C32.1731 3.97237 28.9694 8.99515 30.1726 12.8453C30.5957 14.1992 31.2102 15.1107 32.0053 16.2673C33.6056 18.595 36.0858 17.8695 38.3354 17.2615C39.9663 16.8207 41.9041 15.4321 42.5284 13.853C43.3901 11.6734 41.5944 8.26601 40.0938 6.76542C38.4184 5.09 37.0911 3.05168 35.2245 1.58502C34.7278 1.19477 34.3507 0.771533 33.7028 0.915493C32.9746 1.07732 32.6747 1.77438 33.642 1.77438" stroke="#00ADB5" stroke-opacity="0.5" stroke-width="1.66333" stroke-linecap="round" stroke-linejoin="round"/>
</svg>
