<svg width="94" height="201" viewBox="0 0 94 201" fill="none" xmlns="http://www.w3.org/2000/svg">
<path d="M5.93333 8.5904C3.93567 8.88591 1.58519 9.04185 1.10942 11.4207C0.740721 13.2642 0.880275 15.1616 1.98531 16.761C3.87359 19.494 6.67906 21.0891 10.0578 20.526C13.0789 20.0225 17.2283 17.2848 17.2283 13.8849C17.2283 11.9676 15.8477 10.0382 14.7052 8.60348C13.4807 7.06572 12.4228 5.44883 10.8814 4.19137C8.80238 2.49531 7.12294 2.32881 5.25354 4.32863C4.23058 5.42296 3.26317 6.91583 2.81544 8.34855C2.59473 9.05481 2.75661 9.62099 2.75661 10.3291C2.75661 11.2728 2.5815 9.88096 2.75661 9.414" stroke="#00ADB5" stroke-opacity="0.2" stroke-width="1.28667" stroke-linecap="round" stroke-linejoin="round"/>
<path d="M16.287 13.9923C17.987 15.5016 19.4279 16.8668 22.434 16.9404C24.5388 16.992 26.6427 16.4667 28.615 15.9012C30.027 15.4965 34.5544 13.3523 30.886 13.179" stroke="#00ADB5" stroke-opacity="0.2" stroke-width="1.28667" stroke-linecap="round" stroke-linejoin="round"/>
<path d="M33.8179 0.82504C31.5746 3.30239 28.4782 8.15697 29.6411 11.8782C30.05 13.1867 30.644 14.0678 31.4125 15.1856C32.9592 17.4353 35.3563 16.7341 37.5306 16.1465C39.1069 15.7205 40.9798 14.3784 41.5832 12.8521C42.416 10.7456 40.6804 7.45224 39.2301 6.00191C37.6108 4.38259 36.328 2.41253 34.5238 0.994988C34.0438 0.6178 33.6793 0.20874 33.0531 0.347879C32.3493 0.504292 32.0595 1.17801 32.9943 1.17801" stroke="#00ADB5" stroke-opacity="0.2" stroke-width="1.28667" stroke-linecap="round" stroke-linejoin="round"/>
<path d="M57.3999 188.723C55.4023 189.019 53.0518 189.175 52.576 191.554C52.2073 193.397 52.3469 195.295 53.4519 196.894C55.3402 199.627 58.1457 201.222 61.5244 200.659C64.5455 200.156 68.6949 197.418 68.6949 194.018C68.6949 192.101 67.3143 190.171 66.1719 188.737C64.9474 187.199 63.8894 185.582 62.348 184.324C60.269 182.628 58.5896 182.462 56.7201 184.462C55.6972 185.556 54.7298 187.049 54.2821 188.482C54.0613 189.188 54.2232 189.754 54.2232 190.462C54.2232 191.406 54.0481 190.014 54.2232 189.547" stroke="#00ADB5" stroke-opacity="0.2" stroke-width="1.28667" stroke-linecap="round" stroke-linejoin="round"/>
<path d="M67.7537 194.126C69.4537 195.635 70.8946 197 73.9006 197.074C76.0055 197.125 78.1093 196.6 80.0817 196.035C81.4937 195.63 86.0211 193.486 82.3527 193.312" stroke="#00ADB5" stroke-opacity="0.2" stroke-width="1.28667" stroke-linecap="round" stroke-linejoin="round"/>
<path d="M85.2846 180.958C83.0413 183.436 79.9449 188.29 81.1078 192.011C81.5167 193.32 82.1106 194.201 82.8792 195.319C84.4258 197.569 86.8229 196.867 88.9973 196.28C90.5736 195.854 92.4465 194.512 93.0499 192.985C93.8827 190.879 92.1471 187.586 90.6968 186.135C89.0774 184.516 87.7947 182.546 85.9905 181.128C85.5105 180.751 85.1459 180.342 84.5198 180.481C83.816 180.638 83.5262 181.311 84.461 181.311" stroke="#00ADB5" stroke-opacity="0.2" stroke-width="1.28667" stroke-linecap="round" stroke-linejoin="round"/>
<path d="M20.5228 27.0623C20.7238 29.3403 20.9955 31.6745 22.8759 33.2066C24.6745 34.6722 26.329 33.0324 27.1115 31.2718C27.8518 29.6062 27.7591 28.238 27.373 26.5002C27.0856 25.2069 27.4507 25.6089 26.1703 26.1211" stroke="#00ADB5" stroke-opacity="0.2" stroke-width="1.28667" stroke-linecap="round" stroke-linejoin="round"/>
</svg>
