<svg width="38" height="47" viewBox="0 0 38 47" fill="none" xmlns="http://www.w3.org/2000/svg">
<path d="M36.1886 8.28625C29.2402 8.28625 24.9205 7.92977 23.0674 7.67921C22.8339 7.64765 22.7853 7.34807 22.9918 7.23484L35.329 0.471333C35.5568 0.346416 35.4681 5.56707e-05 35.2082 5.56707e-05H22.3783" stroke="#EEEEEE" stroke-width="1.39887" stroke-linecap="round"/>
<path d="M14.0919 15.0658C7.14348 15.0658 2.82386 14.7093 0.970685 14.4588C0.737253 14.4272 0.688587 14.1276 0.895139 14.0144L13.2323 7.25087C13.4601 7.12596 13.3714 6.7796 13.1116 6.7796H0.281586" stroke="#EEEEEE" stroke-width="1.39887" stroke-linecap="round"/>
<path d="M37.6951 46.4529C30.7466 46.4529 26.427 46.0964 24.5738 45.8458C24.3404 45.8143 24.2917 45.5147 24.4983 45.4015L36.8354 38.638C37.0633 38.513 36.9746 38.1667 36.7147 38.1667H23.8847" stroke="#EEEEEE" stroke-width="1.39887" stroke-linecap="round"/>
</svg>
