<svg width="263" height="285" viewBox="0 0 263 285" fill="none" xmlns="http://www.w3.org/2000/svg">
<path fill-rule="evenodd" clip-rule="evenodd" d="M114.375 107.666C115.665 105.875 116.676 103.851 117.303 101.568C122.039 84.3384 107.387 73.1572 95.4629 70.2564C83.5383 67.3556 43.9312 98.665 87.2807 120.186C87.3977 120.18 87.5165 120.172 87.6371 120.164C94.5831 125.661 96.8051 132.915 99.4712 141.618C100.559 145.168 101.72 148.959 103.306 152.97L123.128 137.315C123.57 125.646 120.413 116.331 114.375 107.666Z" fill="#F5B9AB"/>
<path d="M117.303 101.568L117.978 101.754L117.978 101.754L117.303 101.568ZM114.375 107.666L113.807 107.257C113.634 107.498 113.631 107.822 113.801 108.066L114.375 107.666ZM95.4629 70.2564L95.6282 69.5768L95.4629 70.2564ZM87.2807 120.186L86.9697 120.812C87.078 120.866 87.1984 120.891 87.3191 120.884L87.2807 120.186ZM87.6371 120.164L88.0711 119.616C87.9352 119.508 87.7641 119.455 87.5911 119.467L87.6371 120.164ZM99.4712 141.618L100.14 141.413L99.4712 141.618ZM103.306 152.97L102.655 153.227C102.737 153.433 102.911 153.588 103.124 153.646C103.338 153.703 103.566 153.656 103.739 153.519L103.306 152.97ZM123.128 137.315L123.562 137.864C123.722 137.737 123.819 137.546 123.827 137.341L123.128 137.315ZM116.629 101.383C116.025 103.58 115.051 105.529 113.807 107.257L114.943 108.075C116.278 106.22 117.327 104.121 117.978 101.754L116.629 101.383ZM95.2976 70.936C101.142 72.3578 107.649 75.8116 112.1 80.9946C116.53 86.1531 118.927 93.0203 116.629 101.383L117.978 101.754C120.415 92.8864 117.854 85.5481 113.161 80.0833C108.489 74.643 101.708 71.0559 95.6282 69.5768L95.2976 70.936ZM87.5918 119.56C76.8403 114.222 71.3609 108.34 69.2499 102.654C67.1458 96.9864 68.3352 91.3673 71.2469 86.4176C74.1641 81.4585 78.7865 77.2214 83.4209 74.4055C85.7356 72.999 88.0352 71.9582 90.1045 71.358C92.1869 70.7541 93.9745 70.6142 95.2976 70.936L95.6282 69.5768C93.9702 69.1734 91.9116 69.3774 89.7148 70.0145C87.505 70.6554 85.0926 71.7528 82.6945 73.21C77.9035 76.1212 73.0976 80.5126 70.0412 85.7084C66.9792 90.9135 65.6496 96.9757 67.9385 103.141C70.2207 109.288 76.0464 115.39 86.9697 120.812L87.5918 119.56ZM87.5911 119.467C87.4731 119.474 87.3568 119.481 87.2424 119.488L87.3191 120.884C87.4387 120.878 87.56 120.87 87.6831 120.862L87.5911 119.467ZM100.14 141.413C97.4829 132.739 95.2129 125.267 88.0711 119.616L87.2031 120.713C93.9533 126.054 96.1274 133.09 98.8024 141.823L100.14 141.413ZM103.956 152.713C102.382 148.731 101.228 144.965 100.14 141.413L98.8024 141.823C99.8892 145.37 101.058 149.187 102.655 153.227L103.956 152.713ZM122.695 136.766L102.872 152.421L103.739 153.519L123.562 137.864L122.695 136.766ZM113.801 108.066C119.759 116.615 122.865 125.782 122.429 137.288L123.827 137.341C124.275 125.509 121.068 116.046 114.949 107.266L113.801 108.066Z" fill="black"/>
<path d="M69.2294 101.666C69.052 108.418 80.1789 117.235 84.6748 118.277C55.1064 120.956 50.4302 84.8374 60.3866 85.2364C54.7117 74.5648 63.7319 63.3081 77.2179 66.4296C86.0103 37.4441 105.263 63.5661 101.156 72.3201C97.0494 81.0741 86.0635 82.8625 83.1616 87.9095C80.2597 92.9566 86.2456 107.513 80.0368 101.396C73.8281 95.2786 69.4511 93.2251 69.2294 101.666Z" fill="#00ADB5" stroke="black" stroke-width="1.39887"/>
<path d="M197.864 196.774C210.62 167.384 169.652 137.401 160.615 131.243C159.454 130.452 158.275 129.756 157.046 129.074C133.529 116.013 100.434 114.303 88.3872 138.355C67.3292 180.397 119.829 224.289 139.22 252.247L197.864 196.774Z" fill="#EEEEEE"/>
<path d="M160.615 131.243L161.009 130.665L160.615 131.243ZM197.864 196.774L198.345 197.282L198.449 197.184L198.506 197.052L197.864 196.774ZM139.22 252.247L138.645 252.645C138.761 252.813 138.945 252.921 139.147 252.942C139.35 252.963 139.552 252.895 139.7 252.755L139.22 252.247ZM88.3872 138.355L87.7619 138.042L88.3872 138.355ZM157.046 129.074L157.386 128.462L157.046 129.074ZM160.221 131.821C164.721 134.888 177.157 143.878 186.871 155.74C196.609 167.632 203.435 182.182 197.222 196.495L198.506 197.052C205.049 181.976 197.769 166.84 187.953 154.853C178.112 142.836 165.546 133.757 161.009 130.665L160.221 131.821ZM197.383 196.266L138.739 251.738L139.7 252.755L198.345 197.282L197.383 196.266ZM139.794 251.848C134.923 244.824 127.976 236.804 120.671 228.119C113.352 219.416 105.654 210.023 99.2203 200.2C86.3368 180.527 78.6596 159.338 89.0126 138.669L87.7619 138.042C77.0568 159.415 85.1006 181.193 98.0501 200.966C104.533 210.866 112.28 220.315 119.6 229.019C126.934 237.74 133.821 245.69 138.645 252.645L139.794 251.848ZM156.707 129.685C157.925 130.362 159.085 131.046 160.221 131.821L161.009 130.665C159.824 129.857 158.624 129.15 157.386 128.462L156.707 129.685ZM157.386 128.462C145.53 121.878 131.242 118.142 118.364 119.1C105.468 120.059 93.9236 125.74 87.7619 138.042L89.0126 138.669C94.8981 126.918 105.924 121.428 118.468 120.495C131.028 119.56 145.046 123.209 156.707 129.685L157.386 128.462Z" fill="black"/>
<path d="M213.68 181.568L193.339 157.621L163.777 180.647C159.091 146.9 121.546 119.692 107.019 123.459C67.9654 133.588 112.243 221.239 140.491 233.922C168.739 246.605 213.68 181.568 213.68 181.568Z" fill="#EEEEEE" stroke="black" stroke-width="1.39887"/>
<path d="M195.103 155.683L192.521 158.259L213.19 182.272L217.409 178.075C224.484 171.036 223.345 159.283 215.049 153.735C208.786 149.547 200.437 150.362 195.103 155.683Z" fill="#F5B9AB" stroke="black" stroke-width="1.39887" stroke-linejoin="round"/>
</svg>
