<svg width="212" height="206" viewBox="0 0 212 206" fill="none" xmlns="http://www.w3.org/2000/svg">
<path d="M33.738 52.2243L101.736 48.9356C101.736 48.9356 161.552 24.9513 189.394 73.0201C217.236 121.089 137.634 181.411 137.634 181.411L109.645 175.477L125.716 115.198C125.716 115.198 57.0195 132.236 33.738 52.2243Z" fill="#00ADB5"/>
<path d="M33.738 52.2243L33.7042 51.5256C33.4903 51.536 33.293 51.6437 33.1686 51.8181C33.0442 51.9924 33.0066 52.2141 33.0664 52.4197L33.738 52.2243ZM101.736 48.9356L101.77 49.6342L101.888 49.6285L101.997 49.5848L101.736 48.9356ZM137.634 181.411L137.489 182.096L137.802 182.162L138.056 181.969L137.634 181.411ZM109.645 175.477L108.969 175.297L108.779 176.008L109.5 176.161L109.645 175.477ZM125.716 115.198L126.392 115.378L126.697 114.234L125.548 114.519L125.716 115.198ZM33.7718 52.9229L101.77 49.6342L101.703 48.237L33.7042 51.5256L33.7718 52.9229ZM137.779 180.727L109.79 174.793L109.5 176.161L137.489 182.096L137.779 180.727ZM110.32 175.657L126.392 115.378L125.04 115.018L108.969 175.297L110.32 175.657ZM125.716 115.198C125.548 114.519 125.548 114.519 125.548 114.519C125.547 114.519 125.547 114.519 125.546 114.52C125.545 114.52 125.542 114.521 125.538 114.522C125.531 114.523 125.52 114.526 125.504 114.53C125.473 114.537 125.426 114.548 125.363 114.563C125.237 114.591 125.047 114.633 124.797 114.685C124.298 114.788 123.559 114.93 122.608 115.083C120.705 115.39 117.956 115.739 114.583 115.912C107.834 116.256 98.5994 115.888 88.6499 113.043C68.7959 107.367 45.983 91.8032 34.4096 52.0288L33.0664 52.4197C44.7746 92.6572 67.9507 108.58 88.2654 114.388C98.4002 117.286 107.795 117.659 114.654 117.309C118.085 117.134 120.885 116.778 122.83 116.465C123.803 116.308 124.562 116.162 125.081 116.055C125.34 116.001 125.539 115.957 125.674 115.926C125.741 115.911 125.793 115.899 125.828 115.891C125.846 115.886 125.859 115.883 125.869 115.881C125.874 115.88 125.877 115.879 125.88 115.878C125.881 115.878 125.882 115.878 125.883 115.877C125.884 115.877 125.885 115.877 125.716 115.198ZM101.736 48.9356C101.997 49.5848 101.997 49.5848 101.997 49.5847C101.997 49.5846 101.998 49.5844 101.998 49.5841C102 49.5836 102.002 49.5826 102.005 49.5813C102.012 49.5787 102.022 49.5747 102.036 49.5693C102.063 49.5586 102.105 49.5423 102.16 49.521C102.271 49.4782 102.438 49.415 102.657 49.3343C103.095 49.1728 103.744 48.9411 104.582 48.6626C106.257 48.1056 108.684 47.3618 111.686 46.618C117.691 45.1298 125.979 43.6453 135.124 43.6515C153.402 43.6639 175.033 49.622 188.789 73.3706L189.999 72.6695C175.913 48.3494 153.715 42.2652 135.125 42.2526C125.835 42.2463 117.429 43.7535 111.349 45.2602C108.308 46.0139 105.845 46.7683 104.14 47.3352C103.288 47.6187 102.624 47.8553 102.173 48.0217C101.947 48.1049 101.774 48.1705 101.657 48.2156C101.599 48.2381 101.554 48.2555 101.524 48.2675C101.509 48.2734 101.497 48.278 101.489 48.2812C101.485 48.2828 101.482 48.284 101.48 48.2849C101.479 48.2853 101.478 48.2857 101.477 48.2859C101.477 48.2862 101.476 48.2864 101.736 48.9356ZM188.789 73.3706C195.632 85.1859 195.888 97.7641 192.38 110.043C188.867 122.338 181.585 134.303 173.403 144.812C165.225 155.315 156.175 164.328 149.166 170.718C145.662 173.912 142.67 176.448 140.556 178.185C139.499 179.053 138.661 179.722 138.088 180.173C137.802 180.398 137.582 180.569 137.434 180.683C137.36 180.74 137.304 180.783 137.267 180.812C137.248 180.826 137.234 180.837 137.225 180.844C137.22 180.847 137.217 180.85 137.215 180.852C137.213 180.852 137.213 180.853 137.212 180.853C137.212 180.854 137.211 180.854 137.634 181.411C138.056 181.969 138.057 181.968 138.058 181.968C138.058 181.967 138.059 181.967 138.061 181.966C138.063 181.964 138.067 181.961 138.072 181.957C138.082 181.949 138.097 181.938 138.116 181.923C138.155 181.893 138.213 181.849 138.289 181.79C138.44 181.674 138.664 181.5 138.954 181.272C139.533 180.815 140.379 180.141 141.444 179.266C143.574 177.516 146.584 174.964 150.108 171.752C157.154 165.329 166.264 156.257 174.507 145.671C182.745 135.091 190.143 122.963 193.725 110.427C197.311 97.8766 197.077 84.8887 189.999 72.6695L188.789 73.3706Z" fill="black"/>
<path d="M138.916 180.465L110.951 171.596L100.173 195.367C100.173 195.367 124.116 203.631 140.202 204.225L132.366 195.407L138.916 180.465Z" fill="#EEEEEE" stroke="black" stroke-width="1.39887" stroke-linejoin="round"/>
<path d="M30.9753 54.5888L120.716 53.8304C120.716 53.8304 183.829 66.8656 180.496 122.316C177.164 177.766 77.4886 184.099 77.4886 184.099L57.431 163.695L106.952 116.266C106.952 116.266 39.448 131.534 30.9753 54.5888Z" fill="#00ADB5" stroke="black" stroke-width="1.39887"/>
<path d="M79.0808 184.018L60.6638 161.181L38.551 175.048C38.551 175.048 53.9484 195.159 67.032 204.537L65.3684 192.858L79.0808 184.018Z" fill="#EEEEEE" stroke="black" stroke-width="1.39887" stroke-linejoin="round"/>
</svg>
