<svg width="245" height="233" viewBox="0 0 245 233" fill="none" xmlns="http://www.w3.org/2000/svg">
<path d="M15.4592 92.1333C27.3768 86.4553 37.0108 77.0675 46.6982 68.2148C54.312 61.2569 62.2966 54.3816 70.6992 48.3772C72.3572 47.1924 74.6996 44.8081 76.9409 45.8243C79.1619 46.8313 80.4423 49.573 82.1977 51.1965C86.5206 55.1947 90.4076 60.0806 93.9617 64.7791C97.8742 69.9513 92.007 72.814 88.38 76.2004C84.2601 80.047 80.3255 84.0138 75.8252 87.408C71.5476 90.6344 68.1107 95.0813 64.1947 98.7337C58.2267 104.3 52.6447 110.226 46.694 115.798C43.1516 119.115 39.0872 121.823 35.6759 125.258C34.4806 126.462 33.375 128.053 31.9965 129.055C30.8894 129.86 29.3571 126.764 28.9629 126.181C25.8346 121.554 20.9884 118.389 17.9251 113.549C15.9991 110.507 14.7031 106.751 12.3976 103.972C11.2971 102.646 8.54562 99.6597 9.75112 97.7219C10.9819 95.7433 14.4769 94.7953 16.3832 93.3783C17.8692 92.2736 19.6756 90.9099 21.3669 90.1418C22.596 89.5836 23.8027 88.5941 24.9019 87.8321C27.7949 85.8267 24.7292 86.6839 22.7726 87.429" stroke="#00ADB5" stroke-opacity="0.5" stroke-width="1.66333" stroke-linecap="round" stroke-linejoin="round"/>
<path d="M17.2799 101.217C24.535 105.709 31.0429 112.208 36.7067 118.618C36.8502 118.781 38.2286 119.742 38.0184 120.097C37.6127 120.784 32.9038 117.685 32.4539 117.374" stroke="#00ADB5" stroke-opacity="0.5" stroke-width="1.66333" stroke-linecap="round" stroke-linejoin="round"/>
<path d="M24.4723 94.7239C30.3543 96.4082 33.8598 99.613 38.6088 103.042C40.7242 104.569 42.8789 105.948 44.7776 107.744C45.6692 108.587 46.3042 109.698 47.128 110.607C48.2572 111.854 43.6463 109.16 43.1032 108.85" stroke="#00ADB5" stroke-opacity="0.5" stroke-width="1.66333" stroke-linecap="round" stroke-linejoin="round"/>
<path d="M33.0188 89.6902C37.135 93.405 41.2727 97.0686 45.518 100.634C47.1308 101.989 48.9616 103.232 50.3545 104.827C52.8271 107.659 49.5889 103.984 48.489 102.947" stroke="#00ADB5" stroke-opacity="0.5" stroke-width="1.66333" stroke-linecap="round" stroke-linejoin="round"/>
<path d="M38.786 86.1492C41.8392 88.0053 45.0283 89.8041 47.6135 92.307C48.674 93.3337 49.5538 94.5439 50.6875 95.495C52.0842 96.6667 53.3078 98.0336 54.7137 99.1725C56.7157 100.794 57.0167 101.268 54.6384 99.2323" stroke="#00ADB5" stroke-opacity="0.5" stroke-width="1.66333" stroke-linecap="round" stroke-linejoin="round"/>
<path d="M46.2214 80.6982C49.5898 83.3343 52.7073 86.0113 55.5238 89.227C56.7713 90.6512 57.7766 92.2952 59.3598 93.3878C60.8102 94.3888 61.8267 94.678 60.1289 93.0513" stroke="#00ADB5" stroke-opacity="0.5" stroke-width="1.66333" stroke-linecap="round" stroke-linejoin="round"/>
<path d="M53.3787 75.1429C56.3445 77.3714 59.2685 79.4058 61.6375 82.2761C62.722 83.5901 63.5783 85.1003 64.7894 86.3122C67.2488 88.7733 65.5575 87.5327 63.7784 85.8623" stroke="#00ADB5" stroke-opacity="0.5" stroke-width="1.66333" stroke-linecap="round" stroke-linejoin="round"/>
<path d="M59.9803 69.3788C64.1441 73.362 67.6314 78.0274 71.8026 81.9618C74.6113 84.6109 70.5871 80.3658 69.9287 79.6117" stroke="#00ADB5" stroke-opacity="0.5" stroke-width="1.66333" stroke-linecap="round" stroke-linejoin="round"/>
<path d="M68.0405 64.7966C71.5452 63.3656 75.1807 61.6599 77.0642 58.1632C77.5836 57.1989 78.2527 56.3595 78.4662 55.2729C78.7593 53.7805 78.7019 54.4207 77.5958 55.3864" stroke="#00ADB5" stroke-opacity="0.5" stroke-width="1.66333" stroke-linecap="round" stroke-linejoin="round"/>
<path d="M73.6833 69.6093C76.4619 67.031 79.5679 64.2145 81.604 60.9416C82.6195 59.3091 84.5538 57.3165 81.8495 59.6777" stroke="#00ADB5" stroke-opacity="0.5" stroke-width="1.66333" stroke-linecap="round" stroke-linejoin="round"/>
<path d="M82.5913 75.0136C85.123 72.2625 87.3758 69.7038 89.7061 66.8271C90.4591 65.8976 92.7528 64.6916 89.9932 65.4291" stroke="#00ADB5" stroke-opacity="0.5" stroke-width="1.66333" stroke-linecap="round" stroke-linejoin="round"/>
<path d="M80.5769 73.6236C83.2268 71.3528 86.2236 68.7089 88.3235 65.8415C88.8837 65.0767 89.3147 64.2246 89.8276 63.4299C90.6869 62.0986 90.7412 62.5481 89.4381 62.6848" stroke="#00ADB5" stroke-opacity="0.5" stroke-width="1.66333" stroke-linecap="round" stroke-linejoin="round"/>
<path d="M24.434 105.805C37.6359 100.442 40.8934 85.8869 51.6518 77.6557C52.9605 76.6543 54.0236 75.5413 55.5498 74.8482C56.5703 74.3848 57.8305 74.1629 58.7594 73.5699C59.3261 73.2081 64.0314 69.6135 60.7614 71.0985" stroke="#00ADB5" stroke-opacity="0.5" stroke-width="1.66333" stroke-linecap="round" stroke-linejoin="round"/>
<path d="M18.287 101.912C19.7684 100.111 21.0838 98.5689 22.9633 97.266C23.2716 97.0523 23.7472 97.0163 24.0007 96.7308C24.5029 96.1654 25.2639 95.3388 25.4574 94.6095C26.2197 91.7375 29.9445 92.2685 31.9224 90.8284C33.8039 89.4584 35.6153 88.0716 37.5335 86.718C39.6468 85.2267 40.6245 83.9189 42.3218 82.0081C43.8809 80.2529 45.3944 78.4774 47.0446 76.8158C48.3947 75.4563 50.5161 74.22 51.3755 72.4801C52.3453 70.5165 54.824 68.2691 57.055 68.6331C57.8214 68.7581 63.4519 72.0209 59.7717 69.9346" stroke="#00ADB5" stroke-opacity="0.5" stroke-width="1.66333" stroke-linecap="round" stroke-linejoin="round"/>
<path d="M197.782 174.74C199.263 172.939 200.579 171.397 202.458 170.094C202.767 169.88 203.242 169.844 203.496 169.559C203.998 168.993 204.759 168.167 204.952 167.437C205.715 164.565 209.439 165.096 211.417 163.656C213.299 162.286 215.11 160.899 217.028 159.546C219.142 158.055 220.12 156.747 221.817 154.836C223.376 153.081 224.889 151.305 226.54 149.644C227.89 148.284 230.011 147.048 230.87 145.308C231.84 143.344 234.319 141.097 236.55 141.461C237.316 141.586 242.947 144.849 239.267 142.763" stroke="#00ADB5" stroke-opacity="0.5" stroke-width="1.66333" stroke-linecap="round" stroke-linejoin="round"/>
<path d="M30.2335 108.933C40.1541 103.7 45.6599 92.2904 52.3606 83.6719C54.8287 80.4974 58.3558 78.388 60.9392 75.2688C62.0442 73.9346 64.4845 72.5174 61.6464 72.5403" stroke="#00ADB5" stroke-opacity="0.5" stroke-width="1.66333" stroke-linecap="round" stroke-linejoin="round"/>
<path d="M33.7757 112.164C42.7648 106.638 48.5207 96.3559 55.061 88.2077C58.0365 84.5008 60.9083 80.7161 63.9203 77.0394C65.2936 75.3631 67.6879 74.3159 64.6154 76.0323" stroke="#00ADB5" stroke-opacity="0.5" stroke-width="1.66333" stroke-linecap="round" stroke-linejoin="round"/>
<path d="M37.3166 117.932C42.926 112.461 47.4548 106.558 52.0445 100.231C54.8353 96.3835 57.2477 92.0588 60.5248 88.5945C62.405 86.6068 63.8526 84.2793 65.5597 82.172C66.2473 81.3232 66.7218 80.3341 67.4286 79.4922C69.0205 77.596 67.9106 79.3115 66.8021 80.3402" stroke="#00ADB5" stroke-opacity="0.5" stroke-width="1.66333" stroke-linecap="round" stroke-linejoin="round"/>
<path d="M38.6359 120.329C41.4274 117.594 45.5173 114.962 47.3796 111.415C48.0557 110.128 49.7289 107.018 50.9022 106.23C52.4531 105.189 53.1923 102.973 54.3213 101.579C55.497 100.128 56.6479 98.7112 57.9236 97.3308C59.1199 96.0362 59.5029 93.7643 60.9838 92.6502C62.6335 91.4092 63.4362 89.4881 64.7522 88.0066C65.8912 86.7242 68.0595 85.3954 69.4726 84.4159C70.2555 83.8731 70.8024 83.1333 71.6904 82.73C73.4903 81.9126 72.3222 82.331 70.6746 82.2695" stroke="#00ADB5" stroke-opacity="0.5" stroke-width="1.66333" stroke-linecap="round" stroke-linejoin="round"/>
<path d="M67.8142 65.821C70.1235 66.4298 72.9707 66.8479 75.0751 68.1063C76.4332 68.9185 77.6157 69.7339 75.1426 68.255" stroke="#00ADB5" stroke-opacity="0.5" stroke-width="1.66333" stroke-linecap="round" stroke-linejoin="round"/>
<path d="M70.2123 61.9663C73.5064 62.8269 75.8344 63.7916 78.5206 65.543C80.2769 66.688 79.9951 66.371 78.1656 65.2688" stroke="#00ADB5" stroke-opacity="0.5" stroke-width="1.66333" stroke-linecap="round" stroke-linejoin="round"/>
<path d="M74.2083 58.0774C77.0369 59.6682 79.7813 61.4761 82.7062 62.8612C84.4266 63.6758 83.5237 63.6188 82.1958 62.9777" stroke="#00ADB5" stroke-opacity="0.5" stroke-width="1.66333" stroke-linecap="round" stroke-linejoin="round"/>
<path d="M76.4843 54.9691C79.4585 56.3234 82.2004 57.672 84.9389 59.3756C86.1877 60.1525 85.0544 60.2027 84.1072 59.5741" stroke="#00ADB5" stroke-opacity="0.5" stroke-width="1.66333" stroke-linecap="round" stroke-linejoin="round"/>
<path d="M69.2736 64.467C71.5207 61.7953 73.775 59.2638 75.8209 56.5254C76.4022 55.7473 79.9426 51.4155 78.4126 53.6326" stroke="#00ADB5" stroke-opacity="0.5" stroke-width="1.66333" stroke-linecap="round" stroke-linejoin="round"/>
<path d="M71.6341 69.1571C74.558 66.5723 78.7716 63.1259 79.7153 59.264C79.9931 58.1275 80.5954 56.9916 81.4782 56.2098C82.3735 55.417 83.3094 55.0589 81.9722 56.3953" stroke="#00ADB5" stroke-opacity="0.5" stroke-width="1.66333" stroke-linecap="round" stroke-linejoin="round"/>
<path d="M69.2896 69.0694C72.4073 65.7115 75.0719 63.4545 76.8333 59.318C77.2908 58.2437 77.8153 57.3533 78.5662 56.5079C79.3619 55.612 80.5041 54.7731 78.9676 56.3768" stroke="#00ADB5" stroke-opacity="0.5" stroke-width="1.66333" stroke-linecap="round" stroke-linejoin="round"/>
<path d="M80.8734 70.7233C82.3091 71.6335 83.7486 72.4769 85.2406 73.2344C85.8568 73.5472 85.0945 72.9418 84.8326 72.8434" stroke="#00ADB5" stroke-opacity="0.5" stroke-width="1.66333" stroke-linecap="round" stroke-linejoin="round"/>
<path d="M83.6708 66.226C83.7678 66.3084 89.4118 71.1444 88.4109 70.0658" stroke="#00ADB5" stroke-opacity="0.5" stroke-width="1.66333" stroke-linecap="round" stroke-linejoin="round"/>
<path d="M87.0237 64.4728C88.2686 65.6707 92.0816 69.174 90.7392 68.0865" stroke="#00ADB5" stroke-opacity="0.5" stroke-width="1.66333" stroke-linecap="round" stroke-linejoin="round"/>
<path d="M79.2053 72.6331C81.2685 70.7117 85.7935 66.9051 86.9021 63.9518C87.339 62.788 89.3403 61.2925 87.4582 62.8925" stroke="#00ADB5" stroke-opacity="0.5" stroke-width="1.66333" stroke-linecap="round" stroke-linejoin="round"/>
<path d="M79.4658 73.2062C79.6617 73.3631 83.608 77.6135 84.4496 75.5525C84.8791 74.5005 85.4385 73.1304 86.4922 72.5505C88.3408 71.5332 88.682 68.3293 90.5744 67.4699C92.7212 66.4949 92.5206 64.8599 90.5214 64.28C89.7359 64.0521 90.3555 62.5042 89.5397 62.6259C88.793 62.7372 88.3975 62.4615 87.5627 62.6146" stroke="#00ADB5" stroke-opacity="0.5" stroke-width="1.66333" stroke-linecap="round" stroke-linejoin="round"/>
<path d="M67.5541 65.2479C68.9076 67.8343 69.1636 68.772 71.3474 69.8507C71.9368 70.1418 72.7063 69.738 73.1536 69.9651C74.0387 70.4145 75.7881 70.4239 76.4488 69.6082C77.7773 67.9682 78.2663 66.9097 80.3018 65.9121C81.5859 65.2828 82.6187 63.7978 83.2129 62.5669C83.866 61.214 85.0421 60.1946 85.7315 58.8366C86.0251 58.2583 83.6554 56.7689 83.6339 55.7686C83.6279 55.4849 80.814 55.4764 80.3458 55.2387C79.7786 54.9507 79.5185 54.5448 79.2463 53.9454C78.8487 53.0699 78.1436 54.157 77.0752 54.2399" stroke="#00ADB5" stroke-opacity="0.5" stroke-width="1.66333" stroke-linecap="round" stroke-linejoin="round"/>
<path d="M20.6848 98.0576C23.8816 99.2727 26.6695 100.839 29.5476 102.573C32.0464 104.079 34.8702 104.881 37.3532 106.34C39.1208 107.379 40.9552 109.75 42.2598 111.308C42.6945 111.827 43.0191 112.312 43.3274 112.897C44.0347 114.239 43.2989 110.995 43.2239 110.639" stroke="#00ADB5" stroke-opacity="0.5" stroke-width="1.66333" stroke-linecap="round" stroke-linejoin="round"/>
<path d="M51.5555 73.666C52.442 74.5968 56.0317 79.7354 55.3236 75.873" stroke="#00ADB5" stroke-opacity="0.5" stroke-width="1.66333" stroke-linecap="round" stroke-linejoin="round"/>
</svg>
