<svg width="190" height="181" viewBox="0 0 190 181" fill="none" xmlns="http://www.w3.org/2000/svg">
<path d="M11.7641 71.5779C20.9829 67.1857 28.4353 59.9238 35.9289 53.0758C41.8186 47.6935 47.995 42.3752 54.4949 37.7305C55.7774 36.814 57.5893 34.9696 59.3231 35.7557C61.0411 36.5347 62.0316 38.6555 63.3894 39.9114C66.7334 43.0042 69.7402 46.7836 72.4895 50.4181C75.516 54.4191 70.9774 56.6335 68.1718 59.253C64.9848 62.2286 61.9412 65.2971 58.46 67.9227C55.1511 70.4184 52.4925 73.8583 49.4633 76.6836C44.8468 80.9895 40.5288 85.5737 35.9257 89.884C33.1854 92.4499 30.0414 94.5446 27.4026 97.2016C26.478 98.1326 25.6228 99.3632 24.5565 100.138C23.7001 100.761 22.5147 98.3667 22.2098 97.9157C19.7899 94.3364 16.0412 91.888 13.6716 88.1443C12.1817 85.7905 11.1792 82.8855 9.3958 80.7359C8.54447 79.7097 6.4161 77.3999 7.34861 75.9009C8.30071 74.3704 11.0042 73.6371 12.4788 72.5409C13.6283 71.6865 15.0257 70.6315 16.3339 70.0374C17.2847 69.6056 18.2181 68.8402 19.0685 68.2507C21.3063 66.6994 18.9349 67.3625 17.4213 67.9389" stroke="#00ADB5" stroke-opacity="0.2" stroke-width="1.28667" stroke-linecap="round" stroke-linejoin="round"/>
<path d="M13.1726 78.6047C18.7847 82.079 23.8189 87.1068 28.2001 92.0654C28.3111 92.191 29.3774 92.9341 29.2148 93.2092C28.901 93.7402 25.2584 91.3431 24.9104 91.1029" stroke="#00ADB5" stroke-opacity="0.2" stroke-width="1.28667" stroke-linecap="round" stroke-linejoin="round"/>
<path d="M18.7361 73.582C23.2861 74.8849 25.9977 77.364 29.6713 80.0164C31.3077 81.1979 32.9744 82.2642 34.4432 83.6536C35.1329 84.306 35.6241 85.1652 36.2614 85.8687C37.1348 86.833 33.5681 84.7493 33.1479 84.5093" stroke="#00ADB5" stroke-opacity="0.2" stroke-width="1.28667" stroke-linecap="round" stroke-linejoin="round"/>
<path d="M25.3473 69.688C28.5313 72.5616 31.7321 75.3955 35.016 78.1536C36.2636 79.2014 37.6798 80.163 38.7573 81.3971C40.67 83.5878 38.165 80.7451 37.3143 79.9427" stroke="#00ADB5" stroke-opacity="0.2" stroke-width="1.28667" stroke-linecap="round" stroke-linejoin="round"/>
<path d="M29.8085 66.949C32.1702 68.3848 34.6372 69.7762 36.637 71.7124C37.4573 72.5066 38.1378 73.4427 39.0149 74.1784C40.0953 75.0848 41.0417 76.1422 42.1293 77.0232C43.6779 78.2777 43.9108 78.6439 42.071 77.0694" stroke="#00ADB5" stroke-opacity="0.2" stroke-width="1.28667" stroke-linecap="round" stroke-linejoin="round"/>
<path d="M35.5602 62.7322C38.1658 64.7713 40.5773 66.842 42.756 69.3295C43.721 70.4312 44.4986 71.7029 45.7233 72.5481C46.8453 73.3225 47.6316 73.5462 46.3182 72.2879" stroke="#00ADB5" stroke-opacity="0.2" stroke-width="1.28667" stroke-linecap="round" stroke-linejoin="round"/>
<path d="M41.0967 58.4351C43.3909 60.1589 45.6528 61.7326 47.4853 63.9529C48.3242 64.9693 48.9866 66.1375 49.9234 67.075C51.8259 68.9788 50.5176 68.0191 49.1413 66.727" stroke="#00ADB5" stroke-opacity="0.2" stroke-width="1.28667" stroke-linecap="round" stroke-linejoin="round"/>
<path d="M46.2031 53.9763C49.424 57.0575 52.1216 60.6665 55.3482 63.7098C57.5208 65.7591 54.408 62.4753 53.8986 61.8919" stroke="#00ADB5" stroke-opacity="0.2" stroke-width="1.28667" stroke-linecap="round" stroke-linejoin="round"/>
<path d="M52.438 50.4316C55.1491 49.3246 57.9613 48.0052 59.4183 45.3003C59.8201 44.5544 60.3377 43.9051 60.5028 43.0645C60.7296 41.9101 60.6852 42.4053 59.8295 43.1524" stroke="#00ADB5" stroke-opacity="0.2" stroke-width="1.28667" stroke-linecap="round" stroke-linejoin="round"/>
<path d="M56.8032 54.1544C58.9525 52.1599 61.3552 49.9813 62.9302 47.4495C63.7157 46.1867 65.212 44.6453 63.1201 46.4718" stroke="#00ADB5" stroke-opacity="0.2" stroke-width="1.28667" stroke-linecap="round" stroke-linejoin="round"/>
<path d="M63.694 58.335C65.6523 56.2068 67.3949 54.2276 69.1976 52.0023C69.78 51.2833 71.5544 50.3504 69.4196 50.9209" stroke="#00ADB5" stroke-opacity="0.2" stroke-width="1.28667" stroke-linecap="round" stroke-linejoin="round"/>
<path d="M62.1358 57.2598C64.1857 55.5033 66.5038 53.4581 68.1282 51.2401C68.5615 50.6484 68.8949 49.9893 69.2917 49.3745C69.9564 48.3447 69.9984 48.6924 68.9903 48.7982" stroke="#00ADB5" stroke-opacity="0.2" stroke-width="1.28667" stroke-linecap="round" stroke-linejoin="round"/>
<path d="M18.7063 82.1534C28.9186 78.0049 31.4384 66.7462 39.7606 60.3789C40.7729 59.6043 41.5953 58.7433 42.7759 58.2072C43.5653 57.8487 44.5401 57.6771 45.2587 57.2183C45.697 56.9385 49.3368 54.1579 46.8073 55.3066" stroke="#00ADB5" stroke-opacity="0.2" stroke-width="1.28667" stroke-linecap="round" stroke-linejoin="round"/>
<path d="M13.9514 79.1425C15.0974 77.749 16.1149 76.5563 17.5688 75.5484C17.8072 75.3831 18.1752 75.3552 18.3713 75.1344C18.7598 74.6971 19.3484 74.0576 19.4981 73.4935C20.0878 71.2718 22.9691 71.6826 24.499 70.5686C25.9545 69.5089 27.3557 68.4361 28.8395 67.389C30.4743 66.2354 31.2306 65.2238 32.5435 63.7457C33.7495 62.3879 34.9203 61.0146 36.1968 59.7292C37.2412 58.6776 38.8822 57.7212 39.5469 56.3753C40.2972 54.8564 42.2145 53.118 43.9404 53.3995C44.5332 53.4962 48.8887 56.0201 46.0418 54.4063" stroke="#00ADB5" stroke-opacity="0.2" stroke-width="1.28667" stroke-linecap="round" stroke-linejoin="round"/>
<path d="M152.799 135.478C153.945 134.085 154.963 132.892 156.417 131.884C156.655 131.719 157.023 131.691 157.219 131.47C157.608 131.033 158.196 130.393 158.346 129.829C158.936 127.608 161.817 128.018 163.347 126.904C164.802 125.845 166.204 124.772 167.687 123.725C169.322 122.571 170.078 121.56 171.391 120.081C172.597 118.724 173.768 117.35 175.045 116.065C176.089 115.013 177.73 114.057 178.395 112.711C179.145 111.192 181.062 109.454 182.788 109.735C183.381 109.832 187.737 112.356 184.89 110.742" stroke="#00ADB5" stroke-opacity="0.2" stroke-width="1.28667" stroke-linecap="round" stroke-linejoin="round"/>
<path d="M23.1929 84.573C30.867 80.525 35.126 71.6995 40.3093 65.0326C42.2184 62.577 44.9468 60.9453 46.9452 58.5324C47.8 57.5004 49.6877 56.4041 47.4922 56.4218" stroke="#00ADB5" stroke-opacity="0.2" stroke-width="1.28667" stroke-linecap="round" stroke-linejoin="round"/>
<path d="M25.9325 87.0728C32.886 82.7978 37.3385 74.8442 42.3977 68.5413C44.6994 65.6738 46.9208 62.7461 49.2508 59.902C50.3131 58.6053 52.1652 57.7953 49.7884 59.123" stroke="#00ADB5" stroke-opacity="0.2" stroke-width="1.28667" stroke-linecap="round" stroke-linejoin="round"/>
<path d="M28.6718 91.534C33.011 87.3025 36.5142 82.7364 40.0645 77.8418C42.2233 74.8656 44.0895 71.5202 46.6244 68.8404C48.0789 67.3029 49.1987 65.5024 50.5192 63.8724C51.0511 63.2157 51.4182 62.4506 51.9648 61.7994C53.1963 60.3326 52.3377 61.6596 51.4802 62.4553" stroke="#00ADB5" stroke-opacity="0.2" stroke-width="1.28667" stroke-linecap="round" stroke-linejoin="round"/>
<path d="M29.6923 93.3886C31.8517 91.2734 35.0154 89.2374 36.456 86.4936C36.979 85.4974 38.2733 83.0923 39.1809 82.4827C40.3806 81.6769 40.9524 79.9626 41.8257 78.8845C42.7352 77.7618 43.6254 76.6663 44.6123 75.5984C45.5377 74.5971 45.8339 72.8396 46.9795 71.9778C48.2556 71.0178 48.8765 69.5318 49.8945 68.3857C50.7756 67.3938 52.4529 66.3659 53.546 65.6082C54.1516 65.1883 54.5746 64.6161 55.2616 64.3041C56.6539 63.6718 55.7503 63.9954 54.4758 63.9478" stroke="#00ADB5" stroke-opacity="0.2" stroke-width="1.28667" stroke-linecap="round" stroke-linejoin="round"/>
<path d="M52.2633 51.2241C54.0496 51.695 56.2521 52.0184 57.8799 52.9919C58.9305 53.6201 59.8452 54.2509 57.9321 53.1069" stroke="#00ADB5" stroke-opacity="0.2" stroke-width="1.28667" stroke-linecap="round" stroke-linejoin="round"/>
<path d="M54.1182 48.2424C56.6663 48.9081 58.4672 49.6544 60.545 51.0091C61.9036 51.8949 61.6856 51.6497 60.2704 50.7971" stroke="#00ADB5" stroke-opacity="0.2" stroke-width="1.28667" stroke-linecap="round" stroke-linejoin="round"/>
<path d="M57.2092 45.2341C59.3973 46.4647 61.5202 47.8632 63.7828 48.9346C65.1136 49.5648 64.4152 49.5207 63.388 49.0248" stroke="#00ADB5" stroke-opacity="0.2" stroke-width="1.28667" stroke-linecap="round" stroke-linejoin="round"/>
<path d="M58.9698 42.8296C61.2706 43.8772 63.3916 44.9204 65.5099 46.2382C66.4759 46.8391 65.5993 46.878 64.8665 46.3918" stroke="#00ADB5" stroke-opacity="0.2" stroke-width="1.28667" stroke-linecap="round" stroke-linejoin="round"/>
<path d="M53.3921 50.1767C55.1304 48.11 56.8742 46.1517 58.4568 44.0334C58.9065 43.4316 61.6452 40.0807 60.4616 41.7957" stroke="#00ADB5" stroke-opacity="0.2" stroke-width="1.28667" stroke-linecap="round" stroke-linejoin="round"/>
<path d="M55.2181 53.8047C57.4799 51.8052 60.7393 49.1392 61.4693 46.1519C61.6842 45.2728 62.1501 44.3941 62.833 43.7893C63.5255 43.176 64.2495 42.899 63.2151 43.9328" stroke="#00ADB5" stroke-opacity="0.2" stroke-width="1.28667" stroke-linecap="round" stroke-linejoin="round"/>
<path d="M53.4044 53.7368C55.8161 51.1393 57.8773 49.3934 59.2398 46.1936C59.5937 45.3626 59.9994 44.6738 60.5803 44.0199C61.1958 43.3269 62.0794 42.6779 60.8908 43.9185" stroke="#00ADB5" stroke-opacity="0.2" stroke-width="1.28667" stroke-linecap="round" stroke-linejoin="round"/>
<path d="M62.365 55.0161C63.4756 55.7202 64.589 56.3726 65.7432 56.9586C66.2198 57.2005 65.6302 56.7322 65.4276 56.6562" stroke="#00ADB5" stroke-opacity="0.2" stroke-width="1.28667" stroke-linecap="round" stroke-linejoin="round"/>
<path d="M64.5291 51.5374C64.6041 51.6011 68.97 55.342 68.1958 54.5077" stroke="#00ADB5" stroke-opacity="0.2" stroke-width="1.28667" stroke-linecap="round" stroke-linejoin="round"/>
<path d="M67.1224 50.1812C68.0855 51.1078 71.035 53.8178 69.9965 52.9765" stroke="#00ADB5" stroke-opacity="0.2" stroke-width="1.28667" stroke-linecap="round" stroke-linejoin="round"/>
<path d="M61.0748 56.4935C62.6708 55.0073 66.171 52.0627 67.0286 49.7781C67.3665 48.8779 68.9147 47.721 67.4588 48.9588" stroke="#00ADB5" stroke-opacity="0.2" stroke-width="1.28667" stroke-linecap="round" stroke-linejoin="round"/>
<path d="M61.2761 56.9371C61.4276 57.0584 64.4803 60.3463 65.1312 58.752C65.4635 57.9383 65.8962 56.8784 66.7113 56.4298C68.1413 55.6429 68.4052 53.1645 69.8691 52.4997C71.5297 51.7456 71.3746 50.4808 69.8281 50.0322C69.2205 49.8559 69.6998 48.6586 69.0687 48.7527C68.4911 48.8388 68.1852 48.6256 67.5394 48.7439" stroke="#00ADB5" stroke-opacity="0.2" stroke-width="1.28667" stroke-linecap="round" stroke-linejoin="round"/>
<path d="M52.0619 50.7807C53.1089 52.7814 53.3069 53.5068 54.9962 54.3412C55.4521 54.5664 56.0473 54.254 56.3933 54.4297C57.078 54.7773 58.4312 54.7845 58.9423 54.1536C59.97 52.885 60.3483 52.0662 61.9228 51.2945C62.9161 50.8077 63.715 49.659 64.1747 48.7068C64.6799 47.6603 65.5897 46.8717 66.123 45.8212C66.35 45.3739 64.517 44.2218 64.5004 43.448C64.4957 43.2285 62.319 43.222 61.9569 43.0381C61.5181 42.8153 61.3169 42.5013 61.1063 42.0377C60.7988 41.3605 60.2534 42.2013 59.4269 42.2655" stroke="#00ADB5" stroke-opacity="0.2" stroke-width="1.28667" stroke-linecap="round" stroke-linejoin="round"/>
<path d="M15.8065 76.1606C18.2794 77.1005 20.4359 78.3125 22.6623 79.6537C24.5952 80.8182 26.7796 81.4386 28.7003 82.5673C30.0676 83.3709 31.4866 85.2053 32.4958 86.4102C32.832 86.8116 33.0832 87.1873 33.3216 87.6397C33.8687 88.6778 33.2995 86.1683 33.2416 85.8932" stroke="#00ADB5" stroke-opacity="0.2" stroke-width="1.28667" stroke-linecap="round" stroke-linejoin="round"/>
<path d="M39.6863 57.2925C40.372 58.0125 43.1488 61.9874 42.6011 58.9997" stroke="#00ADB5" stroke-opacity="0.2" stroke-width="1.28667" stroke-linecap="round" stroke-linejoin="round"/>
</svg>
