<svg width="245" height="233" viewBox="0 0 245 233" fill="none" xmlns="http://www.w3.org/2000/svg">
<path d="M15.4227 92.1727C27.3403 86.4948 36.9743 77.107 46.6617 68.2542C54.2755 61.2963 62.2601 54.421 70.6627 48.4166C72.3208 47.2319 74.6631 44.8475 76.9044 45.8637C79.1254 46.8707 80.4058 49.6124 82.1612 51.236C86.4841 55.2342 90.3711 60.12 93.9252 64.8185C97.8377 69.9908 91.9705 72.8534 88.3435 76.2398C84.2236 80.0864 80.289 84.0532 75.7887 87.4475C71.5111 90.6738 68.0742 95.1207 64.1582 98.7732C58.1902 104.34 52.6082 110.266 46.6575 115.838C43.1151 119.155 39.0507 121.863 35.6394 125.298C34.4441 126.501 33.3385 128.092 31.96 129.094C30.8529 129.899 29.3206 126.804 28.9264 126.221C25.7981 121.594 20.9519 118.429 17.8886 113.589C15.9626 110.546 14.6666 106.791 12.3611 104.012C11.2606 102.685 8.50912 99.6991 9.71462 97.7613C10.9454 95.7827 14.4404 94.8348 16.3467 93.4177C17.8327 92.3131 19.6391 90.9493 21.3304 90.1812C22.5595 89.623 23.7662 88.6336 24.8654 87.8715C27.7584 85.8661 24.6927 86.7233 22.7361 87.4685" stroke="#00ADB5" stroke-opacity="0.5" stroke-width="1.66333" stroke-linecap="round" stroke-linejoin="round"/>
<path d="M17.2433 101.257C24.4983 105.748 31.0063 112.248 36.6701 118.658C36.8136 118.82 38.192 119.781 37.9818 120.137C37.5761 120.823 32.8672 117.724 32.4173 117.414" stroke="#00ADB5" stroke-opacity="0.5" stroke-width="1.66333" stroke-linecap="round" stroke-linejoin="round"/>
<path d="M24.4355 94.7634C30.3176 96.4478 33.823 99.6526 38.572 103.081C40.6875 104.609 42.8421 105.987 44.7409 107.783C45.6325 108.627 46.2675 109.737 47.0913 110.647C48.2204 111.894 43.6096 109.2 43.0664 108.89" stroke="#00ADB5" stroke-opacity="0.5" stroke-width="1.66333" stroke-linecap="round" stroke-linejoin="round"/>
<path d="M32.9822 89.7297C37.0983 93.4445 41.2361 97.1081 45.4814 100.674C47.0941 102.028 48.925 103.271 50.3179 104.867C52.7905 107.699 49.5522 104.024 48.4524 102.986" stroke="#00ADB5" stroke-opacity="0.5" stroke-width="1.66333" stroke-linecap="round" stroke-linejoin="round"/>
<path d="M38.7495 86.1886C41.8027 88.0447 44.9918 89.8435 47.577 92.3465C48.6375 93.3732 49.5173 94.5833 50.651 95.5345C52.0477 96.7062 53.2713 98.0731 54.6772 99.212C56.6792 100.834 56.9802 101.307 54.6019 99.2718" stroke="#00ADB5" stroke-opacity="0.5" stroke-width="1.66333" stroke-linecap="round" stroke-linejoin="round"/>
<path d="M46.1847 80.7375C49.5531 83.3736 52.6705 86.0506 55.4871 89.2663C56.7346 90.6905 57.7398 92.3345 59.323 93.4271C60.7734 94.4281 61.79 94.7173 60.0921 93.0906" stroke="#00ADB5" stroke-opacity="0.5" stroke-width="1.66333" stroke-linecap="round" stroke-linejoin="round"/>
<path d="M53.3419 75.1824C56.3078 77.4109 59.2318 79.4452 61.6008 82.3155C62.6853 83.6295 63.5415 85.1397 64.7527 86.3517C67.2121 88.8127 65.5207 87.5721 63.7416 85.9017" stroke="#00ADB5" stroke-opacity="0.5" stroke-width="1.66333" stroke-linecap="round" stroke-linejoin="round"/>
<path d="M59.9436 69.4182C64.1074 73.4014 67.5947 78.0669 71.7659 82.0012C74.5745 84.6503 70.5504 80.4053 69.8919 79.6511" stroke="#00ADB5" stroke-opacity="0.5" stroke-width="1.66333" stroke-linecap="round" stroke-linejoin="round"/>
<path d="M68.0039 64.836C71.5086 63.405 75.1441 61.6994 77.0276 58.2026C77.547 57.2384 78.2161 56.399 78.4296 55.3123C78.7227 53.82 78.6653 54.4601 77.5592 55.4259" stroke="#00ADB5" stroke-opacity="0.5" stroke-width="1.66333" stroke-linecap="round" stroke-linejoin="round"/>
<path d="M73.6467 69.6488C76.4253 67.0704 79.5313 64.254 81.5673 60.981C82.5829 59.3486 84.5172 57.3559 81.8128 59.7171" stroke="#00ADB5" stroke-opacity="0.5" stroke-width="1.66333" stroke-linecap="round" stroke-linejoin="round"/>
<path d="M82.5546 75.053C85.0862 72.3019 87.339 69.7432 89.6694 66.8665C90.4223 65.937 92.7161 64.731 89.9564 65.4685" stroke="#00ADB5" stroke-opacity="0.5" stroke-width="1.66333" stroke-linecap="round" stroke-linejoin="round"/>
<path d="M80.5403 73.663C83.1902 71.3922 86.187 68.7483 88.2869 65.881C88.8471 65.1161 89.278 64.264 89.791 63.4693C90.6502 62.138 90.7046 62.5875 89.4014 62.7243" stroke="#00ADB5" stroke-opacity="0.5" stroke-width="1.66333" stroke-linecap="round" stroke-linejoin="round"/>
<path d="M24.3972 105.844C37.5992 100.481 40.8566 85.9265 51.615 77.6952C52.9238 76.6939 53.9869 75.5809 55.5131 74.8878C56.5336 74.4243 57.7938 74.2024 58.7227 73.6094C59.2893 73.2476 63.9947 69.653 60.7247 71.1381" stroke="#00ADB5" stroke-opacity="0.5" stroke-width="1.66333" stroke-linecap="round" stroke-linejoin="round"/>
<path d="M18.2502 101.952C19.7317 100.15 21.047 98.6084 22.9266 97.3055C23.2348 97.0919 23.7104 97.0558 23.964 96.7704C24.4662 96.205 25.2271 95.3784 25.4207 94.6491C26.183 91.777 29.9077 92.3081 31.8856 90.868C33.7672 89.498 35.5786 88.1111 37.4968 86.7575C39.6101 85.2663 40.5878 83.9585 42.2851 82.0477C43.8441 80.2924 45.3576 78.517 47.0079 76.8553C48.358 75.4959 50.4794 74.2595 51.3387 72.5196C52.3086 70.5561 54.7873 68.3087 57.0183 68.6726C57.7846 68.7977 63.4152 72.0604 59.7349 69.9742" stroke="#00ADB5" stroke-opacity="0.5" stroke-width="1.66333" stroke-linecap="round" stroke-linejoin="round"/>
<path d="M197.745 174.78C199.227 172.978 200.542 171.436 202.422 170.133C202.73 169.92 203.206 169.884 203.459 169.598C203.961 169.033 204.722 168.206 204.916 167.477C205.678 164.605 209.403 165.136 211.381 163.696C213.262 162.326 215.074 160.939 216.992 159.585C219.105 158.094 220.083 156.786 221.78 154.876C223.339 153.12 224.853 151.345 226.503 149.683C227.853 148.324 229.975 147.087 230.834 145.348C231.804 143.384 234.282 141.137 236.514 141.501C237.28 141.626 242.91 144.888 239.23 142.802" stroke="#00ADB5" stroke-opacity="0.5" stroke-width="1.66333" stroke-linecap="round" stroke-linejoin="round"/>
<path d="M30.1969 108.972C40.1175 103.739 45.6233 92.33 52.324 83.7115C54.7921 80.537 58.3192 78.4275 60.9026 75.3083C62.0076 73.9741 64.4479 72.557 61.6098 72.5799" stroke="#00ADB5" stroke-opacity="0.5" stroke-width="1.66333" stroke-linecap="round" stroke-linejoin="round"/>
<path d="M33.739 112.204C42.7282 106.677 48.4841 96.3953 55.0244 88.2472C57.9998 84.5402 60.8717 80.7555 63.8837 77.0788C65.2569 75.4025 67.6513 74.3553 64.5787 76.0717" stroke="#00ADB5" stroke-opacity="0.5" stroke-width="1.66333" stroke-linecap="round" stroke-linejoin="round"/>
<path d="M37.28 117.971C42.8894 112.501 47.4182 106.598 52.0079 100.271C54.7986 96.4231 57.2111 92.0984 60.4881 88.6341C62.3684 86.6464 63.816 84.3189 65.5231 82.2116C66.2107 81.3627 66.6852 80.3736 67.3919 79.5318C68.9839 77.6356 67.874 79.3511 66.7655 80.3797" stroke="#00ADB5" stroke-opacity="0.5" stroke-width="1.66333" stroke-linecap="round" stroke-linejoin="round"/>
<path d="M38.5991 120.368C41.3906 117.634 45.4806 115.002 47.3429 111.455C48.019 110.167 49.6921 107.058 50.8654 106.27C52.4164 105.228 53.1555 103.012 54.2845 101.618C55.4602 100.167 56.6111 98.7507 57.8869 97.3702C59.0831 96.0757 59.4661 93.8037 60.9471 92.6896C62.5968 91.4486 63.3995 89.5276 64.7155 88.046C65.8545 86.7637 68.0228 85.4349 69.4358 84.4553C70.2188 83.9126 70.7657 83.1728 71.6537 82.7695C73.4536 81.9521 72.2854 82.3705 70.6378 82.3089" stroke="#00ADB5" stroke-opacity="0.5" stroke-width="1.66333" stroke-linecap="round" stroke-linejoin="round"/>
<path d="M67.7776 65.8605C70.0869 66.4692 72.9341 66.8873 75.0385 68.1458C76.3966 68.9579 77.579 69.7733 75.106 68.2944" stroke="#00ADB5" stroke-opacity="0.5" stroke-width="1.66333" stroke-linecap="round" stroke-linejoin="round"/>
<path d="M70.1758 62.0057C73.4699 62.8663 75.7979 63.831 78.4841 65.5824C80.2404 66.7275 79.9586 66.4104 78.1291 65.3082" stroke="#00ADB5" stroke-opacity="0.5" stroke-width="1.66333" stroke-linecap="round" stroke-linejoin="round"/>
<path d="M74.1716 58.1168C77.0003 59.7076 79.7446 61.5155 82.6696 62.9006C84.39 63.7152 83.4871 63.6583 82.1592 63.0172" stroke="#00ADB5" stroke-opacity="0.5" stroke-width="1.66333" stroke-linecap="round" stroke-linejoin="round"/>
<path d="M76.4478 55.0085C79.422 56.3628 82.1639 57.7115 84.9024 59.415C86.1512 60.1919 85.0179 60.2421 84.0707 59.6135" stroke="#00ADB5" stroke-opacity="0.5" stroke-width="1.66333" stroke-linecap="round" stroke-linejoin="round"/>
<path d="M69.2369 64.5064C71.4841 61.8348 73.7383 59.3032 75.7843 56.5648C76.3656 55.7867 79.906 51.455 78.3759 53.672" stroke="#00ADB5" stroke-opacity="0.5" stroke-width="1.66333" stroke-linecap="round" stroke-linejoin="round"/>
<path d="M71.5974 69.1965C74.5213 66.6117 78.7349 63.1653 79.6786 59.3035C79.9563 58.1669 80.5587 57.031 81.4415 56.2493C82.3368 55.4564 83.2727 55.0983 81.9354 56.4347" stroke="#00ADB5" stroke-opacity="0.5" stroke-width="1.66333" stroke-linecap="round" stroke-linejoin="round"/>
<path d="M69.2528 69.1088C72.3706 65.7509 75.0352 63.494 76.7966 59.3574C77.254 58.2831 77.7785 57.3927 78.5294 56.5473C79.3252 55.6515 80.4674 54.8125 78.9309 56.4162" stroke="#00ADB5" stroke-opacity="0.5" stroke-width="1.66333" stroke-linecap="round" stroke-linejoin="round"/>
<path d="M80.8367 70.7627C82.2723 71.6729 83.7118 72.5163 85.2038 73.2738C85.82 73.5866 85.0578 72.9812 84.7958 72.8829" stroke="#00ADB5" stroke-opacity="0.5" stroke-width="1.66333" stroke-linecap="round" stroke-linejoin="round"/>
<path d="M83.6344 66.2654C83.7314 66.3479 89.3754 71.1838 88.3745 70.1052" stroke="#00ADB5" stroke-opacity="0.5" stroke-width="1.66333" stroke-linecap="round" stroke-linejoin="round"/>
<path d="M86.9869 64.5122C88.2319 65.7101 92.0449 69.2134 90.7024 68.1259" stroke="#00ADB5" stroke-opacity="0.5" stroke-width="1.66333" stroke-linecap="round" stroke-linejoin="round"/>
<path d="M79.1686 72.6726C81.2318 70.7513 85.7567 66.9447 86.8653 63.9913C87.3022 62.8275 89.3035 61.332 87.4215 62.9321" stroke="#00ADB5" stroke-opacity="0.5" stroke-width="1.66333" stroke-linecap="round" stroke-linejoin="round"/>
<path d="M79.4291 73.2456C79.6249 73.4025 83.5713 77.6529 84.4128 75.5919C84.8424 74.54 85.4018 73.1698 86.4555 72.5899C88.3041 71.5727 88.6452 68.3687 90.5376 67.5093C92.6844 66.5343 92.4839 64.8993 90.4847 64.3194C89.6991 64.0915 90.3188 62.5437 89.503 62.6653C88.7563 62.7766 88.3608 62.501 87.5259 62.654" stroke="#00ADB5" stroke-opacity="0.5" stroke-width="1.66333" stroke-linecap="round" stroke-linejoin="round"/>
<path d="M67.5175 65.2874C68.871 67.8737 69.127 68.8115 71.3108 69.8901C71.9002 70.1812 72.6697 69.7775 73.117 70.0045C74.0021 70.4539 75.7514 70.4633 76.4121 69.6477C77.7407 68.0077 78.2297 66.9492 80.2651 65.9516C81.5493 65.3222 82.5821 63.8373 83.1763 62.6063C83.8294 61.2535 85.0055 60.2341 85.6949 58.876C85.9885 58.2977 83.6187 56.8084 83.5973 55.808C83.5913 55.5243 80.7774 55.5158 80.3092 55.2781C79.7419 54.9902 79.4819 54.5842 79.2097 53.9848C78.8121 53.1094 78.107 54.1964 77.0386 54.2794" stroke="#00ADB5" stroke-opacity="0.5" stroke-width="1.66333" stroke-linecap="round" stroke-linejoin="round"/>
<path d="M20.6482 98.0969C23.845 99.312 26.6329 100.879 29.511 102.613C32.0098 104.118 34.8336 104.92 37.3165 106.379C39.0842 107.418 40.9186 109.789 42.2232 111.347C42.6579 111.866 42.9825 112.352 43.2908 112.936C43.9981 114.278 43.2622 111.034 43.1873 110.679" stroke="#00ADB5" stroke-opacity="0.5" stroke-width="1.66333" stroke-linecap="round" stroke-linejoin="round"/>
<path d="M51.5189 73.7054C52.4054 74.6362 55.9951 79.7748 55.287 75.9124" stroke="#00ADB5" stroke-opacity="0.5" stroke-width="1.66333" stroke-linecap="round" stroke-linejoin="round"/>
</svg>
