<svg width="84" height="72" viewBox="0 0 84 72" fill="none" xmlns="http://www.w3.org/2000/svg">
<path d="M11.8574 40.0095C21.0762 35.6174 28.5285 28.3555 36.0222 21.5074C41.9118 16.1252 48.0883 10.8068 54.5881 6.16214C55.8707 5.24565 57.6826 3.40126 59.4163 4.18734C61.1344 4.96629 62.1248 7.08713 63.4827 8.34301C66.8267 11.4358 69.8335 15.2153 72.5827 18.8498C75.6092 22.8507 71.0707 25.0651 68.265 27.6847C65.0781 30.6602 62.0345 33.7287 58.5533 36.3543C55.2444 38.8501 52.5857 42.29 49.5566 45.1153C44.94 49.4212 40.6221 54.0054 36.0189 58.3157C33.2787 60.8815 30.1347 62.9762 27.4959 65.6333C26.5713 66.5643 25.7161 67.7948 24.6497 68.5701C23.7933 69.1927 22.608 66.7983 22.3031 66.3473C19.8832 62.7681 16.1344 60.3197 13.7648 56.5759C12.2749 54.2221 11.2724 51.3171 9.48906 49.1675C8.63773 48.1413 6.50936 45.8316 7.44187 44.3325C8.39397 42.802 11.0975 42.0687 12.5721 40.9726C13.7216 40.1181 15.1189 39.0632 16.4272 38.469C17.378 38.0372 18.3114 37.2718 19.1617 36.6824C21.3996 35.1311 19.0281 35.7942 17.5146 36.3706" stroke="#00ADB5" stroke-opacity="0.2" stroke-width="1.28667" stroke-linecap="round" stroke-linejoin="round"/>
<path d="M13.2659 47.0364C18.878 50.5107 23.9122 55.5385 28.2934 60.497C28.4044 60.6226 29.4706 61.3657 29.3081 61.6408C28.9942 62.1719 25.3517 59.7747 25.0037 59.5346" stroke="#00ADB5" stroke-opacity="0.2" stroke-width="1.28667" stroke-linecap="round" stroke-linejoin="round"/>
<path d="M18.8295 42.0137C23.3795 43.3166 26.0911 45.7956 29.7647 48.4481C31.4011 49.6296 33.0678 50.6959 34.5366 52.0852C35.2263 52.7377 35.7175 53.5968 36.3548 54.3003C37.2282 55.2646 33.6615 53.1809 33.2413 52.9409" stroke="#00ADB5" stroke-opacity="0.2" stroke-width="1.28667" stroke-linecap="round" stroke-linejoin="round"/>
<path d="M25.4406 38.1196C28.6246 40.9932 31.8254 43.8271 35.1093 46.5852C36.3568 47.633 37.773 48.5947 38.8505 49.8287C40.7632 52.0194 38.2583 49.1768 37.4075 48.3743" stroke="#00ADB5" stroke-opacity="0.2" stroke-width="1.28667" stroke-linecap="round" stroke-linejoin="round"/>
<path d="M29.9019 35.3806C32.2636 36.8164 34.7306 38.2079 36.7304 40.144C37.5507 40.9382 38.2312 41.8743 39.1082 42.6101C40.1887 43.5164 41.1351 44.5738 42.2227 45.4548C43.7713 46.7093 44.0042 47.0756 42.1644 45.5011" stroke="#00ADB5" stroke-opacity="0.2" stroke-width="1.28667" stroke-linecap="round" stroke-linejoin="round"/>
<path d="M35.6534 31.1641C38.2591 33.2032 40.6705 35.2739 42.8493 37.7614C43.8143 38.8631 44.5919 40.1348 45.8166 40.98C46.9385 41.7543 47.7249 41.978 46.4115 40.7197" stroke="#00ADB5" stroke-opacity="0.2" stroke-width="1.28667" stroke-linecap="round" stroke-linejoin="round"/>
<path d="M41.1899 26.8667C43.4842 28.5905 45.746 30.1642 47.5786 32.3845C48.4175 33.401 49.0798 34.5692 50.0167 35.5067C51.9192 37.4104 50.6108 36.4507 49.2346 35.1586" stroke="#00ADB5" stroke-opacity="0.2" stroke-width="1.28667" stroke-linecap="round" stroke-linejoin="round"/>
<path d="M46.2964 22.408C49.5173 25.4892 52.2149 29.0981 55.4415 32.1415C57.6141 34.1907 54.5012 30.907 53.9919 30.3236" stroke="#00ADB5" stroke-opacity="0.2" stroke-width="1.28667" stroke-linecap="round" stroke-linejoin="round"/>
<path d="M52.5314 18.8632C55.2425 17.7563 58.0547 16.4369 59.5117 13.732C59.9135 12.9861 60.4311 12.3368 60.5962 11.4962C60.8229 10.3418 60.7786 10.837 59.9229 11.584" stroke="#00ADB5" stroke-opacity="0.2" stroke-width="1.28667" stroke-linecap="round" stroke-linejoin="round"/>
<path d="M56.8964 22.5863C59.0458 20.5918 61.4485 18.4132 63.0234 15.8814C63.809 14.6186 65.3053 13.0772 63.2133 14.9037" stroke="#00ADB5" stroke-opacity="0.2" stroke-width="1.28667" stroke-linecap="round" stroke-linejoin="round"/>
<path d="M63.7872 26.7666C65.7456 24.6385 67.4882 22.6592 69.2909 20.4339C69.8733 19.715 71.6476 18.782 69.5129 19.3525" stroke="#00ADB5" stroke-opacity="0.2" stroke-width="1.28667" stroke-linecap="round" stroke-linejoin="round"/>
<path d="M62.2292 25.6915C64.2791 23.9349 66.5972 21.8897 68.2216 19.6717C68.6549 19.08 68.9883 18.4209 69.3851 17.8061C70.0497 16.7764 70.0918 17.1241 69.0837 17.2298" stroke="#00ADB5" stroke-opacity="0.2" stroke-width="1.28667" stroke-linecap="round" stroke-linejoin="round"/>
<path d="M18.7997 50.585C29.012 46.4366 31.5318 35.1778 39.8539 28.8105C40.8663 28.036 41.6887 27.175 42.8693 26.6388C43.6587 26.2803 44.6335 26.1087 45.352 25.65C45.7904 25.3701 49.4302 22.5895 46.9007 23.7383" stroke="#00ADB5" stroke-opacity="0.2" stroke-width="1.28667" stroke-linecap="round" stroke-linejoin="round"/>
<path d="M14.0448 47.5741C15.1908 46.1806 16.2083 44.9879 17.6622 43.98C17.9006 43.8147 18.2685 43.7869 18.4647 43.5661C18.8532 43.1287 19.4418 42.4893 19.5915 41.9252C20.1812 39.7035 23.0625 40.1143 24.5924 39.0003C26.0479 37.9405 27.4491 36.8677 28.9329 35.8207C30.5677 34.6671 31.324 33.6555 32.6369 32.1773C33.8429 30.8196 35.0137 29.4462 36.2902 28.1608C37.3346 27.1092 38.9756 26.1528 39.6403 24.807C40.3906 23.2881 42.3079 21.5496 44.0337 21.8311C44.6266 21.9278 48.9821 24.4518 46.1352 22.838" stroke="#00ADB5" stroke-opacity="0.2" stroke-width="1.28667" stroke-linecap="round" stroke-linejoin="round"/>
<path d="M23.2863 53.0047C30.9603 48.9567 35.2193 40.1311 40.4026 33.4643C42.3118 31.0087 45.0402 29.3769 47.0386 26.9641C47.8934 25.932 49.781 24.8358 47.5856 24.8535" stroke="#00ADB5" stroke-opacity="0.2" stroke-width="1.28667" stroke-linecap="round" stroke-linejoin="round"/>
<path d="M26.0259 55.5044C32.9794 51.2294 37.4319 43.2759 42.4911 36.9729C44.7927 34.1054 47.0142 31.1778 49.3442 28.3336C50.4064 27.037 52.2586 26.2269 49.8818 27.5546" stroke="#00ADB5" stroke-opacity="0.2" stroke-width="1.28667" stroke-linecap="round" stroke-linejoin="round"/>
<path d="M28.7651 59.9656C33.1042 55.7342 36.6075 51.168 40.1578 46.2734C42.3166 43.2973 44.1828 39.9519 46.7177 37.2721C48.1721 35.7345 49.292 33.9341 50.6124 32.304C51.1444 31.6474 51.5114 30.8822 52.0581 30.2311C53.2896 28.7643 52.431 30.0913 51.5735 30.887" stroke="#00ADB5" stroke-opacity="0.2" stroke-width="1.28667" stroke-linecap="round" stroke-linejoin="round"/>
<path d="M29.7856 61.8202C31.9449 59.705 35.1087 57.669 36.5493 54.9252C37.0723 53.929 38.3665 51.5239 39.2741 50.9143C40.4739 50.1085 41.0456 48.3943 41.919 47.3162C42.8284 46.1935 43.7187 45.0979 44.7055 44.0301C45.6309 43.0287 45.9272 41.2712 47.0727 40.4095C48.3489 39.4494 48.9698 37.9634 49.9878 36.8174C50.8689 35.8254 52.5462 34.7975 53.6392 34.0398C54.2449 33.62 54.6679 33.0477 55.3548 32.7357C56.7471 32.1034 55.8435 32.4271 54.569 32.3794" stroke="#00ADB5" stroke-opacity="0.2" stroke-width="1.28667" stroke-linecap="round" stroke-linejoin="round"/>
<path d="M52.3566 19.6558C54.1429 20.1267 56.3453 20.4501 57.9732 21.4235C59.0237 22.0518 59.9385 22.6825 58.0254 21.5385" stroke="#00ADB5" stroke-opacity="0.2" stroke-width="1.28667" stroke-linecap="round" stroke-linejoin="round"/>
<path d="M54.2115 16.6741C56.7597 17.3398 58.5605 18.086 60.6384 19.4408C61.997 20.3266 61.779 20.0813 60.3638 19.2287" stroke="#00ADB5" stroke-opacity="0.2" stroke-width="1.28667" stroke-linecap="round" stroke-linejoin="round"/>
<path d="M57.3025 13.6658C59.4906 14.8963 61.6135 16.2948 63.8761 17.3662C65.2069 17.9964 64.5084 17.9523 63.4812 17.4564" stroke="#00ADB5" stroke-opacity="0.2" stroke-width="1.28667" stroke-linecap="round" stroke-linejoin="round"/>
<path d="M59.0632 11.2612C61.364 12.3088 63.485 13.3521 65.6033 14.6699C66.5693 15.2708 65.6926 15.3097 64.9599 14.8234" stroke="#00ADB5" stroke-opacity="0.2" stroke-width="1.28667" stroke-linecap="round" stroke-linejoin="round"/>
<path d="M53.4855 18.6083C55.2238 16.5417 56.9676 14.5834 58.5502 12.4651C58.9999 11.8632 61.7386 8.51237 60.555 10.2274" stroke="#00ADB5" stroke-opacity="0.2" stroke-width="1.28667" stroke-linecap="round" stroke-linejoin="round"/>
<path d="M55.3115 22.2363C57.5733 20.2368 60.8327 17.5708 61.5627 14.5836C61.7775 13.7044 62.2435 12.8257 62.9264 12.221C63.6189 11.6077 64.3429 11.3307 63.3085 12.3644" stroke="#00ADB5" stroke-opacity="0.2" stroke-width="1.28667" stroke-linecap="round" stroke-linejoin="round"/>
<path d="M53.4976 22.1687C55.9093 19.5711 57.9706 17.8253 59.3331 14.6255C59.6869 13.7945 60.0927 13.1057 60.6735 12.4518C61.2891 11.7588 62.1726 11.1098 60.9841 12.3504" stroke="#00ADB5" stroke-opacity="0.2" stroke-width="1.28667" stroke-linecap="round" stroke-linejoin="round"/>
<path d="M62.4583 23.4478C63.5688 24.1518 64.6823 24.8043 65.8364 25.3902C66.3131 25.6322 65.7235 25.1639 65.5208 25.0878" stroke="#00ADB5" stroke-opacity="0.2" stroke-width="1.28667" stroke-linecap="round" stroke-linejoin="round"/>
<path d="M64.6223 19.969C64.6973 20.0328 69.0632 23.7736 68.289 22.9393" stroke="#00ADB5" stroke-opacity="0.2" stroke-width="1.28667" stroke-linecap="round" stroke-linejoin="round"/>
<path d="M67.2158 18.6128C68.1789 19.5394 71.1284 22.2494 70.0899 21.4082" stroke="#00ADB5" stroke-opacity="0.2" stroke-width="1.28667" stroke-linecap="round" stroke-linejoin="round"/>
<path d="M61.1682 24.9252C62.7642 23.4389 66.2644 20.4943 67.122 18.2098C67.4599 17.3095 69.008 16.1527 67.5522 17.3904" stroke="#00ADB5" stroke-opacity="0.2" stroke-width="1.28667" stroke-linecap="round" stroke-linejoin="round"/>
<path d="M61.3695 25.3687C61.521 25.4901 64.5736 28.778 65.2246 27.1837C65.5569 26.3699 65.9896 25.31 66.8047 24.8615C68.2347 24.0746 68.4986 21.5962 69.9625 20.9314C71.6231 20.1772 71.468 18.9124 69.9215 18.4638C69.3138 18.2876 69.7932 17.0902 69.1621 17.1843C68.5845 17.2704 68.2786 17.0572 67.6328 17.1756" stroke="#00ADB5" stroke-opacity="0.2" stroke-width="1.28667" stroke-linecap="round" stroke-linejoin="round"/>
<path d="M52.1552 19.2124C53.2022 21.213 53.4003 21.9384 55.0895 22.7728C55.5455 22.998 56.1407 22.6857 56.4867 22.8613C57.1714 23.2089 58.5246 23.2162 59.0357 22.5853C60.0634 21.3166 60.4416 20.4978 62.0162 19.7261C63.0095 19.2393 63.8084 18.0906 64.2681 17.1385C64.7733 16.092 65.683 15.3034 66.2163 14.2529C66.4434 13.8056 64.6103 12.6535 64.5938 11.8796C64.5891 11.6602 62.4124 11.6536 62.0503 11.4698C61.6114 11.247 61.4103 10.933 61.1997 10.4693C60.8922 9.79211 60.3468 10.633 59.5203 10.6972" stroke="#00ADB5" stroke-opacity="0.2" stroke-width="1.28667" stroke-linecap="round" stroke-linejoin="round"/>
<path d="M15.8999 44.5923C18.3728 45.5322 20.5293 46.7441 22.7557 48.0854C24.6886 49.2498 26.873 49.8703 28.7936 50.999C30.161 51.8025 31.58 53.637 32.5892 54.8418C32.9254 55.2433 33.1765 55.6189 33.415 56.0714C33.9621 57.1095 33.3929 54.5999 33.335 54.3248" stroke="#00ADB5" stroke-opacity="0.2" stroke-width="1.28667" stroke-linecap="round" stroke-linejoin="round"/>
<path d="M39.7795 25.7241C40.4653 26.4441 43.2421 30.4191 42.6943 27.4313" stroke="#00ADB5" stroke-opacity="0.2" stroke-width="1.28667" stroke-linecap="round" stroke-linejoin="round"/>
</svg>
