<svg width="108" height="92" viewBox="0 0 108 92" fill="none" xmlns="http://www.w3.org/2000/svg">
<path d="M15.4661 51.2561C27.3836 45.5781 37.0177 36.1903 46.705 27.3376C54.3189 20.3797 62.3035 13.5044 70.7061 7.50001C72.3641 6.31523 74.7064 3.9309 76.9477 4.9471C79.1688 5.95409 80.4491 8.69579 82.2045 10.3193C86.5274 14.3175 90.4144 19.2034 93.9686 23.9019C97.8811 29.0741 92.0139 31.9368 88.3868 35.3232C84.2669 39.1698 80.3323 43.1366 75.8321 46.5308C71.5544 49.7572 68.1175 54.2041 64.2016 57.8565C58.2336 63.423 52.6516 69.3492 46.7008 74.9213C43.1584 78.2383 39.094 80.9462 35.6827 84.3811C34.4874 85.5846 33.3819 87.1754 32.0033 88.1776C30.8962 88.9825 29.3639 85.8872 28.9698 85.3042C25.8414 80.6771 20.9952 77.5119 17.9319 72.6723C16.0059 69.6293 14.7099 65.8739 12.4045 63.095C11.3039 61.7685 8.55246 58.7825 9.75796 56.8447C10.9888 54.8661 14.4837 53.9181 16.39 52.5011C17.876 51.3964 19.6824 50.0327 21.3737 49.2646C22.6028 48.7064 23.8095 47.7169 24.9088 46.9549C27.8017 44.9495 24.7361 45.8067 22.7794 46.5518" stroke="#00ADB5" stroke-opacity="0.5" stroke-width="1.66333" stroke-linecap="round" stroke-linejoin="round"/>
<path d="M17.2866 60.3401C24.5417 64.8315 31.0496 71.3311 36.7134 77.7413C36.8569 77.9037 38.2353 78.8643 38.0251 79.2199C37.6194 79.9064 32.9105 76.8076 32.4607 76.4971" stroke="#00ADB5" stroke-opacity="0.5" stroke-width="1.66333" stroke-linecap="round" stroke-linejoin="round"/>
<path d="M24.479 53.8469C30.361 55.5313 33.8665 58.736 38.6155 62.165C40.7309 63.6923 42.8856 65.0708 44.7843 66.8669C45.6759 67.7103 46.311 68.821 47.1348 69.7305C48.2639 70.977 43.653 68.2833 43.1099 67.9731" stroke="#00ADB5" stroke-opacity="0.5" stroke-width="1.66333" stroke-linecap="round" stroke-linejoin="round"/>
<path d="M33.0255 48.813C37.1417 52.5278 41.2795 56.1914 45.5247 59.7569C47.1375 61.1114 48.9683 62.3545 50.3612 63.9499C52.8338 66.7819 49.5956 63.1071 48.4958 62.0697" stroke="#00ADB5" stroke-opacity="0.5" stroke-width="1.66333" stroke-linecap="round" stroke-linejoin="round"/>
<path d="M38.7926 45.272C41.8458 47.1281 45.0349 48.9269 47.6201 51.4298C48.6806 52.4565 49.5603 53.6667 50.6941 54.6178C52.0908 55.7895 53.3144 57.1564 54.7203 58.2953C56.7223 59.9171 57.0233 60.3906 54.645 58.3551" stroke="#00ADB5" stroke-opacity="0.5" stroke-width="1.66333" stroke-linecap="round" stroke-linejoin="round"/>
<path d="M46.228 39.821C49.5964 42.4571 52.7139 45.1341 55.5304 48.3498C56.7779 49.774 57.7832 51.418 59.3664 52.5106C60.8168 53.5116 61.8333 53.8008 60.1355 52.1741" stroke="#00ADB5" stroke-opacity="0.5" stroke-width="1.66333" stroke-linecap="round" stroke-linejoin="round"/>
<path d="M53.3853 34.2659C56.3511 36.4944 59.2751 38.5287 61.6441 41.399C62.7286 42.713 63.5849 44.2232 64.796 45.4352C67.2554 47.8962 65.5641 46.6556 63.785 44.9852" stroke="#00ADB5" stroke-opacity="0.5" stroke-width="1.66333" stroke-linecap="round" stroke-linejoin="round"/>
<path d="M59.9871 28.5017C64.1509 32.4849 67.6381 37.1504 71.8093 41.0847C74.618 43.7338 70.5938 39.4888 69.9354 38.7346" stroke="#00ADB5" stroke-opacity="0.5" stroke-width="1.66333" stroke-linecap="round" stroke-linejoin="round"/>
<path d="M68.0472 23.9195C71.5519 22.4885 75.1875 20.7829 77.071 17.2861C77.5903 16.3218 78.2595 15.4825 78.4729 14.3958C78.766 12.9035 78.7087 13.5436 77.6026 14.5094" stroke="#00ADB5" stroke-opacity="0.5" stroke-width="1.66333" stroke-linecap="round" stroke-linejoin="round"/>
<path d="M73.6902 28.7321C76.4687 26.1538 79.5748 23.3374 81.6108 20.0644C82.6263 18.4319 84.5607 16.4393 81.8563 18.8005" stroke="#00ADB5" stroke-opacity="0.5" stroke-width="1.66333" stroke-linecap="round" stroke-linejoin="round"/>
<path d="M82.5981 34.1365C85.1297 31.3854 87.3825 28.8267 89.7129 25.95C90.4658 25.0205 92.7596 23.8145 89.9999 24.552" stroke="#00ADB5" stroke-opacity="0.5" stroke-width="1.66333" stroke-linecap="round" stroke-linejoin="round"/>
<path d="M80.5837 32.7464C83.2337 30.4756 86.2305 27.8317 88.3304 24.9643C88.8905 24.1995 89.3215 23.3474 89.8345 22.5527C90.6937 21.2214 90.748 21.6709 89.4449 21.8076" stroke="#00ADB5" stroke-opacity="0.5" stroke-width="1.66333" stroke-linecap="round" stroke-linejoin="round"/>
<path d="M24.4404 64.9273C37.6424 59.5645 40.8998 45.0097 51.6583 36.7785C52.967 35.7771 54.0301 34.6641 55.5563 33.971C56.5768 33.5076 57.837 33.2857 58.7659 32.6927C59.3326 32.3309 64.0379 28.7363 60.7679 30.2213" stroke="#00ADB5" stroke-opacity="0.5" stroke-width="1.66333" stroke-linecap="round" stroke-linejoin="round"/>
<path d="M18.2937 61.035C19.7752 59.2336 21.0905 57.6917 22.97 56.3888C23.2783 56.1751 23.7539 56.1391 24.0074 55.8536C24.5096 55.2882 25.2706 54.4616 25.4641 53.7324C26.2264 50.8603 29.9512 51.3913 31.9291 49.9512C33.8106 48.5812 35.622 47.1944 37.5402 45.8408C39.6535 44.3495 40.6312 43.0417 42.3285 41.1309C43.8876 39.3757 45.4011 37.6002 47.0514 35.9386C48.4015 34.5791 50.5228 33.3428 51.3822 31.6029C52.352 29.6393 54.8307 27.3919 57.0617 27.7559C57.8281 27.8809 63.4587 31.1437 59.7784 29.0574" stroke="#00ADB5" stroke-opacity="0.5" stroke-width="1.66333" stroke-linecap="round" stroke-linejoin="round"/>
<path d="M30.2403 68.0555C40.161 62.8224 45.6668 51.4132 52.3675 42.7947C54.8356 39.6202 58.3626 37.5108 60.9461 34.3916C62.0511 33.0574 64.4914 31.6402 61.6533 31.6631" stroke="#00ADB5" stroke-opacity="0.5" stroke-width="1.66333" stroke-linecap="round" stroke-linejoin="round"/>
<path d="M33.7823 71.2871C42.7714 65.7606 48.5273 55.4787 55.0676 47.3305C58.0431 43.6236 60.9149 39.8389 63.9269 36.1622C65.3002 34.4859 67.6945 33.4387 64.622 35.1551" stroke="#00ADB5" stroke-opacity="0.5" stroke-width="1.66333" stroke-linecap="round" stroke-linejoin="round"/>
<path d="M37.3233 77.0543C42.9327 71.5841 47.4615 65.6812 52.0512 59.3538C54.842 55.5063 57.2545 51.1816 60.5315 47.7173C62.4117 45.7296 63.8594 43.4021 65.5664 41.2948C66.2541 40.446 66.7285 39.4569 67.4353 38.615C69.0272 36.7189 67.9173 38.4343 66.8088 39.463" stroke="#00ADB5" stroke-opacity="0.5" stroke-width="1.66333" stroke-linecap="round" stroke-linejoin="round"/>
<path d="M38.6426 79.4517C41.4341 76.7173 45.5241 74.0853 47.3863 70.5382C48.0624 69.2504 49.7356 66.1412 50.9089 65.3532C52.4598 64.3114 53.199 62.0954 54.328 60.7017C55.5037 59.2503 56.6546 57.834 57.9303 56.4536C59.1266 55.159 59.5096 52.8871 60.9905 51.773C62.6402 50.532 63.4429 48.6109 64.7589 47.1294C65.8979 45.847 68.0662 44.5182 69.4793 43.5387C70.2623 42.996 70.8091 42.2561 71.6971 41.8528C73.497 41.0354 72.3289 41.4538 70.6813 41.3923" stroke="#00ADB5" stroke-opacity="0.5" stroke-width="1.66333" stroke-linecap="round" stroke-linejoin="round"/>
<path d="M67.8209 24.9438C70.1302 25.5526 72.9774 25.9707 75.0818 27.2291C76.4399 28.0413 77.6224 28.8567 75.1493 27.3778" stroke="#00ADB5" stroke-opacity="0.5" stroke-width="1.66333" stroke-linecap="round" stroke-linejoin="round"/>
<path d="M70.219 21.0891C73.5131 21.9497 75.8411 22.9144 78.5273 24.6658C80.2836 25.8108 80.0018 25.4938 78.1723 24.3916" stroke="#00ADB5" stroke-opacity="0.5" stroke-width="1.66333" stroke-linecap="round" stroke-linejoin="round"/>
<path d="M74.2151 17.2002C77.0438 18.791 79.7881 20.5989 82.7131 21.984C84.4334 22.7986 83.5306 22.7416 82.2026 22.1005" stroke="#00ADB5" stroke-opacity="0.5" stroke-width="1.66333" stroke-linecap="round" stroke-linejoin="round"/>
<path d="M76.4911 14.092C79.4654 15.4463 82.2073 16.795 84.9458 18.4985C86.1946 19.2754 85.0612 19.3256 84.114 18.697" stroke="#00ADB5" stroke-opacity="0.5" stroke-width="1.66333" stroke-linecap="round" stroke-linejoin="round"/>
<path d="M69.2803 23.5898C71.5275 20.9181 73.7817 18.3866 75.8276 15.6482C76.4089 14.8701 79.9494 10.5383 78.4193 12.7554" stroke="#00ADB5" stroke-opacity="0.5" stroke-width="1.66333" stroke-linecap="round" stroke-linejoin="round"/>
<path d="M71.6407 28.2798C74.5646 25.6949 78.7782 22.2485 79.7219 18.3867C79.9997 17.2502 80.602 16.1143 81.4848 15.3325C82.3801 14.5396 83.316 14.1815 81.9788 15.5179" stroke="#00ADB5" stroke-opacity="0.5" stroke-width="1.66333" stroke-linecap="round" stroke-linejoin="round"/>
<path d="M69.2962 28.1923C72.4139 24.8344 75.0785 22.5775 76.8399 18.4409C77.2973 17.3666 77.8219 16.4762 78.5728 15.6308C79.3685 14.735 80.5107 13.896 78.9742 15.4997" stroke="#00ADB5" stroke-opacity="0.5" stroke-width="1.66333" stroke-linecap="round" stroke-linejoin="round"/>
<path d="M80.88 29.8462C82.3157 30.7564 83.7551 31.5998 85.2472 32.3573C85.8634 32.6701 85.1011 32.0647 84.8391 31.9664" stroke="#00ADB5" stroke-opacity="0.5" stroke-width="1.66333" stroke-linecap="round" stroke-linejoin="round"/>
<path d="M83.6775 25.3489C83.7745 25.4313 89.4185 30.2673 88.4176 29.1887" stroke="#00ADB5" stroke-opacity="0.5" stroke-width="1.66333" stroke-linecap="round" stroke-linejoin="round"/>
<path d="M87.0303 23.5957C88.2752 24.7936 92.0882 28.2969 90.7458 27.2094" stroke="#00ADB5" stroke-opacity="0.5" stroke-width="1.66333" stroke-linecap="round" stroke-linejoin="round"/>
<path d="M79.2119 31.7559C81.2751 29.8345 85.8001 26.0279 86.9087 23.0746C87.3455 21.9108 89.3469 20.4153 87.4648 22.0153" stroke="#00ADB5" stroke-opacity="0.5" stroke-width="1.66333" stroke-linecap="round" stroke-linejoin="round"/>
<path d="M79.4724 32.3291C79.6683 32.486 83.6146 36.7364 84.4562 34.6754C84.8857 33.6235 85.4451 32.2533 86.4988 31.6734C88.3474 30.6562 88.6886 27.4522 90.581 26.5928C92.7278 25.6178 92.5272 23.9828 90.528 23.4029C89.7425 23.175 90.3621 21.6271 89.5463 21.7488C88.7996 21.8601 88.4041 21.5845 87.5693 21.7375" stroke="#00ADB5" stroke-opacity="0.5" stroke-width="1.66333" stroke-linecap="round" stroke-linejoin="round"/>
<path d="M67.5607 24.3707C68.9142 26.9571 69.1702 27.8948 71.354 28.9735C71.9434 29.2646 72.7129 28.8608 73.1602 29.0879C74.0453 29.5373 75.7946 29.5467 76.4554 28.731C77.7839 27.091 78.2729 26.0325 80.3084 25.0349C81.5925 24.4056 82.6253 22.9206 83.2195 21.6897C83.8726 20.3368 85.0487 19.3174 85.7381 17.9594C86.0317 17.3811 83.662 15.8917 83.6405 14.8914C83.6345 14.6077 80.8206 14.5992 80.3524 14.3615C79.7851 14.0735 79.5251 13.6676 79.2529 13.0682C78.8553 12.1927 78.1502 13.2798 77.0818 13.3627" stroke="#00ADB5" stroke-opacity="0.5" stroke-width="1.66333" stroke-linecap="round" stroke-linejoin="round"/>
<path d="M20.6917 57.1804C23.8885 58.3955 26.6763 59.9622 29.5544 61.6961C32.0532 63.2015 34.877 64.0035 37.36 65.4626C39.1276 66.5014 40.9621 68.8729 42.2667 70.4305C42.7013 70.9494 43.026 71.4351 43.3342 72.02C44.0415 73.3619 43.3057 70.1177 43.2308 69.7621" stroke="#00ADB5" stroke-opacity="0.5" stroke-width="1.66333" stroke-linecap="round" stroke-linejoin="round"/>
<path d="M51.5621 32.7888C52.4486 33.7196 56.0383 38.8582 55.3302 34.9958" stroke="#00ADB5" stroke-opacity="0.5" stroke-width="1.66333" stroke-linecap="round" stroke-linejoin="round"/>
</svg>
