<svg width="84" height="72" viewBox="0 0 84 72" fill="none" xmlns="http://www.w3.org/2000/svg">
<path d="M11.8574 40.0095C21.0762 35.6174 28.5286 28.3555 36.0222 21.5074C41.9119 16.1252 48.0884 10.8068 54.5882 6.16214C55.8707 5.24565 57.6826 3.40126 59.4164 4.18734C61.1345 4.96629 62.1249 7.08713 63.4828 8.34301C66.8267 11.4358 69.8335 15.2153 72.5828 18.8498C75.6093 22.8507 71.0708 25.0651 68.2651 27.6847C65.0781 30.6602 62.0345 33.7287 58.5534 36.3543C55.2444 38.8501 52.5858 42.29 49.5566 45.1153C44.9401 49.4212 40.6221 54.0054 36.019 58.3157C33.2788 60.8815 30.1348 62.9762 27.4959 65.6333C26.5713 66.5643 25.7161 67.7948 24.6498 68.5701C23.7934 69.1927 22.6081 66.7983 22.3032 66.3473C19.8832 62.7681 16.1345 60.3197 13.7649 56.5759C12.275 54.2221 11.2725 51.3171 9.48912 49.1675C8.63779 48.1413 6.50942 45.8316 7.44193 44.3325C8.39403 42.802 11.0975 42.0687 12.5721 40.9726C13.7216 40.1181 15.119 39.0632 16.4272 38.469C17.3781 38.0372 18.3115 37.2718 19.1618 36.6824C21.3997 35.1311 19.0282 35.7942 17.5147 36.3706" stroke="#00ADB5" stroke-opacity="0.2" stroke-width="1.28667" stroke-linecap="round" stroke-linejoin="round"/>
<path d="M13.266 47.0364C18.8781 50.5107 23.9123 55.5385 28.2935 60.497C28.4045 60.6226 29.4708 61.3657 29.3082 61.6408C28.9944 62.1719 25.3518 59.7747 25.0038 59.5346" stroke="#00ADB5" stroke-opacity="0.2" stroke-width="1.28667" stroke-linecap="round" stroke-linejoin="round"/>
<path d="M18.8295 42.0137C23.3795 43.3166 26.0912 45.7956 29.7648 48.4481C31.4012 49.6296 33.0679 50.6959 34.5366 52.0852C35.2264 52.7377 35.7176 53.5968 36.3548 54.3003C37.2282 55.2646 33.6615 53.1809 33.2414 52.9409" stroke="#00ADB5" stroke-opacity="0.2" stroke-width="1.28667" stroke-linecap="round" stroke-linejoin="round"/>
<path d="M25.4406 38.1196C28.6247 40.9932 31.8254 43.8271 35.1093 46.5852C36.3569 47.633 37.7731 48.5947 38.8506 49.8287C40.7633 52.0194 38.2583 49.1768 37.4076 48.3743" stroke="#00ADB5" stroke-opacity="0.2" stroke-width="1.28667" stroke-linecap="round" stroke-linejoin="round"/>
<path d="M29.9019 35.3806C32.2636 36.8164 34.7306 38.2079 36.7304 40.144C37.5507 40.9382 38.2312 41.8743 39.1082 42.6101C40.1887 43.5164 41.1351 44.5738 42.2227 45.4548C43.7713 46.7093 44.0042 47.0756 42.1644 45.5011" stroke="#00ADB5" stroke-opacity="0.2" stroke-width="1.28667" stroke-linecap="round" stroke-linejoin="round"/>
<path d="M35.6536 31.1641C38.2592 33.2032 40.6707 35.2739 42.8494 37.7614C43.8144 38.8631 44.592 40.1348 45.8167 40.98C46.9386 41.7543 47.725 41.978 46.4116 40.7197" stroke="#00ADB5" stroke-opacity="0.2" stroke-width="1.28667" stroke-linecap="round" stroke-linejoin="round"/>
<path d="M41.1901 26.8667C43.4843 28.5905 45.7462 30.1642 47.5787 32.3845C48.4176 33.401 49.0799 34.5692 50.0168 35.5067C51.9193 37.4104 50.6109 36.4507 49.2347 35.1586" stroke="#00ADB5" stroke-opacity="0.2" stroke-width="1.28667" stroke-linecap="round" stroke-linejoin="round"/>
<path d="M46.2965 22.408C49.5174 25.4892 52.215 29.0981 55.4416 32.1415C57.6142 34.1907 54.5013 30.907 53.992 30.3236" stroke="#00ADB5" stroke-opacity="0.2" stroke-width="1.28667" stroke-linecap="round" stroke-linejoin="round"/>
<path d="M52.5314 18.8632C55.2425 17.7563 58.0547 16.4369 59.5117 13.732C59.9135 12.9861 60.4311 12.3368 60.5962 11.4962C60.8229 10.3418 60.7786 10.837 59.9229 11.584" stroke="#00ADB5" stroke-opacity="0.2" stroke-width="1.28667" stroke-linecap="round" stroke-linejoin="round"/>
<path d="M56.8966 22.5863C59.0459 20.5918 61.4486 18.4132 63.0235 15.8814C63.8091 14.6186 65.3054 13.0772 63.2134 14.9037" stroke="#00ADB5" stroke-opacity="0.2" stroke-width="1.28667" stroke-linecap="round" stroke-linejoin="round"/>
<path d="M63.7873 26.7666C65.7456 24.6385 67.4883 22.6592 69.2909 20.4339C69.8733 19.715 71.6477 18.782 69.5129 19.3525" stroke="#00ADB5" stroke-opacity="0.2" stroke-width="1.28667" stroke-linecap="round" stroke-linejoin="round"/>
<path d="M62.2293 25.6915C64.2791 23.9349 66.5973 21.8897 68.2217 19.6717C68.655 19.08 68.9883 18.4209 69.3851 17.8061C70.0498 16.7764 70.0918 17.1241 69.0838 17.2298" stroke="#00ADB5" stroke-opacity="0.2" stroke-width="1.28667" stroke-linecap="round" stroke-linejoin="round"/>
<path d="M18.7997 50.585C29.0121 46.4366 31.5318 35.1778 39.854 28.8105C40.8664 28.036 41.6887 27.175 42.8693 26.6388C43.6587 26.2803 44.6335 26.1087 45.3521 25.65C45.7904 25.3701 49.4302 22.5895 46.9007 23.7383" stroke="#00ADB5" stroke-opacity="0.2" stroke-width="1.28667" stroke-linecap="round" stroke-linejoin="round"/>
<path d="M14.0449 47.5741C15.1909 46.1806 16.2083 44.9879 17.6622 43.98C17.9007 43.8147 18.2686 43.7869 18.4647 43.5661C18.8532 43.1287 19.4418 42.4893 19.5916 41.9252C20.1812 39.7035 23.0625 40.1143 24.5925 39.0003C26.048 37.9405 27.4492 36.8677 28.933 35.8207C30.5677 34.6671 31.324 33.6555 32.6369 32.1773C33.843 30.8196 35.0137 29.4462 36.2903 28.1608C37.3347 27.1092 38.9756 26.1528 39.6404 24.807C40.3906 23.2881 42.308 21.5496 44.0338 21.8311C44.6266 21.9278 48.9821 24.4518 46.1353 22.838" stroke="#00ADB5" stroke-opacity="0.2" stroke-width="1.28667" stroke-linecap="round" stroke-linejoin="round"/>
<path d="M23.2863 53.0047C30.9604 48.9567 35.2194 40.1311 40.4027 33.4643C42.3119 31.0087 45.0402 29.3769 47.0386 26.9641C47.8934 25.932 49.7811 24.8358 47.5857 24.8535" stroke="#00ADB5" stroke-opacity="0.2" stroke-width="1.28667" stroke-linecap="round" stroke-linejoin="round"/>
<path d="M26.0259 55.5044C32.9795 51.2294 37.4319 43.2759 42.4911 36.9729C44.7928 34.1054 47.0143 31.1778 49.3442 28.3336C50.4065 27.037 52.2586 26.2269 49.8819 27.5546" stroke="#00ADB5" stroke-opacity="0.2" stroke-width="1.28667" stroke-linecap="round" stroke-linejoin="round"/>
<path d="M28.7652 59.9656C33.1043 55.7342 36.6076 51.168 40.1579 46.2734C42.3167 43.2973 44.1829 39.9519 46.7178 37.2721C48.1723 35.7345 49.2921 33.9341 50.6126 32.304C51.1445 31.6474 51.5115 30.8822 52.0582 30.2311C53.2897 28.7643 52.4311 30.0913 51.5736 30.887" stroke="#00ADB5" stroke-opacity="0.2" stroke-width="1.28667" stroke-linecap="round" stroke-linejoin="round"/>
<path d="M29.7856 61.8202C31.945 59.705 35.1088 57.669 36.5493 54.9252C37.0723 53.929 38.3666 51.5239 39.2742 50.9143C40.4739 50.1085 41.0457 48.3943 41.919 47.3162C42.8285 46.1935 43.7188 45.0979 44.7056 44.0301C45.631 43.0287 45.9272 41.2712 47.0728 40.4095C48.3489 39.4494 48.9699 37.9634 49.9878 36.8174C50.8689 35.8254 52.5462 34.7975 53.6393 34.0398C54.2449 33.62 54.668 33.0477 55.3549 32.7357C56.7472 32.1034 55.8436 32.4271 54.5691 32.3794" stroke="#00ADB5" stroke-opacity="0.2" stroke-width="1.28667" stroke-linecap="round" stroke-linejoin="round"/>
<path d="M52.3566 19.6558C54.143 20.1267 56.3454 20.4501 57.9733 21.4235C59.0238 22.0518 59.9385 22.6825 58.0255 21.5385" stroke="#00ADB5" stroke-opacity="0.2" stroke-width="1.28667" stroke-linecap="round" stroke-linejoin="round"/>
<path d="M54.2116 16.6741C56.7598 17.3398 58.5606 18.086 60.6385 19.4408C61.9971 20.3266 61.7791 20.0813 60.3639 19.2287" stroke="#00ADB5" stroke-opacity="0.2" stroke-width="1.28667" stroke-linecap="round" stroke-linejoin="round"/>
<path d="M57.3026 13.6658C59.4907 14.8963 61.6136 16.2948 63.8762 17.3662C65.207 17.9964 64.5086 17.9523 63.4813 17.4564" stroke="#00ADB5" stroke-opacity="0.2" stroke-width="1.28667" stroke-linecap="round" stroke-linejoin="round"/>
<path d="M59.0633 11.2612C61.364 12.3088 63.485 13.3521 65.6034 14.6699C66.5694 15.2708 65.6927 15.3097 64.96 14.8234" stroke="#00ADB5" stroke-opacity="0.2" stroke-width="1.28667" stroke-linecap="round" stroke-linejoin="round"/>
<path d="M53.4856 18.6083C55.2239 16.5417 56.9676 14.5834 58.5503 12.4651C58.9999 11.8632 61.7386 8.51237 60.555 10.2274" stroke="#00ADB5" stroke-opacity="0.2" stroke-width="1.28667" stroke-linecap="round" stroke-linejoin="round"/>
<path d="M55.3116 22.2363C57.5733 20.2368 60.8328 17.5708 61.5628 14.5836C61.7776 13.7044 62.2436 12.8257 62.9264 12.221C63.619 11.6077 64.343 11.3307 63.3085 12.3644" stroke="#00ADB5" stroke-opacity="0.2" stroke-width="1.28667" stroke-linecap="round" stroke-linejoin="round"/>
<path d="M53.4977 22.1687C55.9094 19.5711 57.9706 17.8253 59.3331 14.6255C59.687 13.7945 60.0927 13.1057 60.6736 12.4518C61.2891 11.7588 62.1727 11.1098 60.9841 12.3504" stroke="#00ADB5" stroke-opacity="0.2" stroke-width="1.28667" stroke-linecap="round" stroke-linejoin="round"/>
<path d="M62.4584 23.4478C63.5689 24.1518 64.6824 24.8043 65.8366 25.3902C66.3132 25.6322 65.7236 25.1639 65.521 25.0878" stroke="#00ADB5" stroke-opacity="0.2" stroke-width="1.28667" stroke-linecap="round" stroke-linejoin="round"/>
<path d="M64.6224 19.969C64.6974 20.0328 69.0633 23.7736 68.2891 22.9393" stroke="#00ADB5" stroke-opacity="0.2" stroke-width="1.28667" stroke-linecap="round" stroke-linejoin="round"/>
<path d="M67.2158 18.6128C68.1789 19.5394 71.1284 22.2494 70.0899 21.4082" stroke="#00ADB5" stroke-opacity="0.2" stroke-width="1.28667" stroke-linecap="round" stroke-linejoin="round"/>
<path d="M61.1682 24.9252C62.7642 23.4389 66.2645 20.4943 67.122 18.2098C67.46 17.3095 69.0081 16.1527 67.5522 17.3904" stroke="#00ADB5" stroke-opacity="0.2" stroke-width="1.28667" stroke-linecap="round" stroke-linejoin="round"/>
<path d="M61.3695 25.3687C61.521 25.4901 64.5736 28.778 65.2246 27.1837C65.5569 26.3699 65.9896 25.31 66.8047 24.8615C68.2347 24.0746 68.4986 21.5962 69.9625 20.9314C71.6231 20.1772 71.468 18.9124 69.9215 18.4638C69.3138 18.2876 69.7932 17.0902 69.1621 17.1843C68.5845 17.2704 68.2786 17.0572 67.6328 17.1756" stroke="#00ADB5" stroke-opacity="0.2" stroke-width="1.28667" stroke-linecap="round" stroke-linejoin="round"/>
<path d="M52.1553 19.2124C53.2023 21.213 53.4003 21.9384 55.0896 22.7728C55.5456 22.998 56.1408 22.6857 56.4868 22.8613C57.1715 23.2089 58.5247 23.2162 59.0358 22.5853C60.0634 21.3166 60.4417 20.4978 62.0162 19.7261C63.0096 19.2393 63.8085 18.0906 64.2682 17.1385C64.7734 16.092 65.6831 15.3034 66.2164 14.2529C66.4435 13.8056 64.6104 12.6535 64.5938 11.8796C64.5891 11.6602 62.4125 11.6536 62.0503 11.4698C61.6115 11.247 61.4104 10.933 61.1998 10.4693C60.8922 9.79211 60.3468 10.633 59.5204 10.6972" stroke="#00ADB5" stroke-opacity="0.2" stroke-width="1.28667" stroke-linecap="round" stroke-linejoin="round"/>
<path d="M15.9 44.5923C18.3729 45.5322 20.5294 46.7441 22.7558 48.0854C24.6887 49.2498 26.873 49.8703 28.7937 50.999C30.1611 51.8025 31.5801 53.637 32.5892 54.8418C32.9255 55.2433 33.1766 55.6189 33.4151 56.0714C33.9622 57.1095 33.393 54.5999 33.335 54.3248" stroke="#00ADB5" stroke-opacity="0.2" stroke-width="1.28667" stroke-linecap="round" stroke-linejoin="round"/>
<path d="M39.7796 25.7241C40.4653 26.4441 43.2421 30.4191 42.6944 27.4313" stroke="#00ADB5" stroke-opacity="0.2" stroke-width="1.28667" stroke-linecap="round" stroke-linejoin="round"/>
</svg>
