<svg width="84" height="72" viewBox="0 0 84 72" fill="none" xmlns="http://www.w3.org/2000/svg">
<path d="M11.7108 39.9031C20.9295 35.5109 28.3819 28.249 35.8756 21.401C41.7652 16.0187 47.9417 10.7004 54.4415 6.05569C55.7241 5.13921 57.5359 3.29481 59.2697 4.08089C60.9878 4.85985 61.9782 6.98068 63.3361 8.23657C66.6801 11.3294 69.6868 15.1088 72.4361 18.7433C75.4626 22.7443 70.9241 24.9587 68.1184 27.5782C64.9315 30.5538 61.8878 33.6223 58.4067 36.2479C55.0978 38.7436 52.4391 42.1835 49.41 45.0088C44.7934 49.3147 40.4755 53.8989 35.8723 58.2092C33.1321 60.7751 29.9881 62.8698 27.3493 65.5268C26.4247 66.4578 25.5695 67.6884 24.5031 68.4636C23.6467 69.0862 22.4614 66.6919 22.1565 66.2409C19.7366 62.6616 15.9878 60.2132 13.6182 56.4695C12.1283 54.1157 11.1258 51.2107 9.34246 49.0611C8.49113 48.0349 6.36275 45.7251 7.29526 44.2261C8.24736 42.6956 10.9508 41.9623 12.4255 40.8661C13.575 40.0116 14.9723 38.9567 16.2806 38.3626C17.2314 37.9308 18.1648 37.1654 19.0151 36.5759C21.253 35.0246 18.8815 35.6877 17.368 36.2641" stroke="#00ADB5" stroke-opacity="0.2" stroke-width="1.28667" stroke-linecap="round" stroke-linejoin="round"/>
<path d="M13.1194 46.9299C18.7315 50.4042 23.7657 55.432 28.1469 60.3906C28.2579 60.5162 29.3242 61.2593 29.1616 61.5344C28.8478 62.0654 25.2052 59.6683 24.8572 59.4281" stroke="#00ADB5" stroke-opacity="0.2" stroke-width="1.28667" stroke-linecap="round" stroke-linejoin="round"/>
<path d="M18.6829 41.9072C23.2329 43.2101 25.9445 45.6892 29.6181 48.3416C31.2545 49.5231 32.9212 50.5894 34.39 51.9788C35.0797 52.6312 35.5709 53.4904 36.2082 54.1939C37.0816 55.1582 33.5149 53.0745 33.0947 52.8345" stroke="#00ADB5" stroke-opacity="0.2" stroke-width="1.28667" stroke-linecap="round" stroke-linejoin="round"/>
<path d="M25.2941 38.0134C28.4781 40.887 31.6789 43.7209 34.9628 46.479C36.2103 47.5268 37.6266 48.4885 38.704 49.7225C40.6167 51.9132 38.1118 49.0706 37.261 48.2681" stroke="#00ADB5" stroke-opacity="0.2" stroke-width="1.28667" stroke-linecap="round" stroke-linejoin="round"/>
<path d="M29.7552 35.2739C32.117 36.7097 34.584 38.1012 36.5837 40.0373C37.4041 40.8315 38.0846 41.7676 38.9616 42.5034C40.0421 43.4098 40.9885 44.4671 42.0761 45.3481C43.6247 46.6026 43.8575 46.9689 42.0178 45.3944" stroke="#00ADB5" stroke-opacity="0.2" stroke-width="1.28667" stroke-linecap="round" stroke-linejoin="round"/>
<path d="M35.507 31.0574C38.1126 33.0965 40.524 35.1672 42.7028 37.6547C43.6678 38.7564 44.4454 40.0281 45.6701 40.8733C46.792 41.6477 47.5784 41.8714 46.265 40.6131" stroke="#00ADB5" stroke-opacity="0.2" stroke-width="1.28667" stroke-linecap="round" stroke-linejoin="round"/>
<path d="M41.0435 26.7603C43.3377 28.4841 45.5996 30.0578 47.4321 32.2781C48.271 33.2945 48.9333 34.4627 49.8702 35.4002C51.7727 37.304 50.4643 36.3443 49.0881 35.0522" stroke="#00ADB5" stroke-opacity="0.2" stroke-width="1.28667" stroke-linecap="round" stroke-linejoin="round"/>
<path d="M46.1499 22.3015C49.3708 25.3827 52.0684 28.9917 55.295 32.035C57.4676 34.0843 54.3547 30.8005 53.8454 30.2171" stroke="#00ADB5" stroke-opacity="0.2" stroke-width="1.28667" stroke-linecap="round" stroke-linejoin="round"/>
<path d="M52.3848 18.7568C55.0959 17.6498 57.9081 16.3304 59.3651 13.6255C59.7669 12.8796 60.2845 12.2303 60.4496 11.3897C60.6763 10.2353 60.6319 10.7305 59.7763 11.4776" stroke="#00ADB5" stroke-opacity="0.2" stroke-width="1.28667" stroke-linecap="round" stroke-linejoin="round"/>
<path d="M56.75 22.4799C58.8993 20.4854 61.302 18.3067 62.8769 15.775C63.6625 14.5122 65.1588 12.9708 63.0668 14.7973" stroke="#00ADB5" stroke-opacity="0.2" stroke-width="1.28667" stroke-linecap="round" stroke-linejoin="round"/>
<path d="M63.6407 26.6602C65.5991 24.532 67.3417 22.5528 69.1444 20.3275C69.7268 19.6085 71.5011 18.6756 69.3664 19.2461" stroke="#00ADB5" stroke-opacity="0.2" stroke-width="1.28667" stroke-linecap="round" stroke-linejoin="round"/>
<path d="M62.0826 25.585C64.1324 23.8284 66.4506 21.7833 68.075 19.5652C68.5083 18.9736 68.8417 18.3145 69.2385 17.6997C69.9031 16.6699 69.9452 17.0176 68.9371 17.1234" stroke="#00ADB5" stroke-opacity="0.2" stroke-width="1.28667" stroke-linecap="round" stroke-linejoin="round"/>
<path d="M18.6531 50.4786C28.8654 46.3301 31.3852 35.0713 39.7073 28.7041C40.7197 27.9295 41.5421 27.0685 42.7227 26.5324C43.5121 26.1739 44.4869 26.0023 45.2054 25.5435C45.6438 25.2637 49.2835 22.483 46.754 23.6318" stroke="#00ADB5" stroke-opacity="0.2" stroke-width="1.28667" stroke-linecap="round" stroke-linejoin="round"/>
<path d="M13.8982 47.4677C15.0442 46.0742 16.0617 44.8814 17.5156 43.8736C17.754 43.7083 18.1219 43.6804 18.3181 43.4596C18.7065 43.0223 19.2952 42.3828 19.4449 41.8187C20.0346 39.597 22.9159 40.0078 24.4458 38.8938C25.9013 37.8341 27.3025 36.7613 28.7863 35.7142C30.4211 34.5606 31.1774 33.549 32.4903 32.0709C33.6963 30.7131 34.8671 29.3398 36.1436 28.0544C37.188 27.0028 38.829 26.0464 39.4937 24.7005C40.2439 23.1816 42.1613 21.4432 43.8871 21.7247C44.4799 21.8214 48.8354 24.3453 45.9886 22.7315" stroke="#00ADB5" stroke-opacity="0.2" stroke-width="1.28667" stroke-linecap="round" stroke-linejoin="round"/>
<path d="M23.1397 52.8982C30.8137 48.8502 35.0727 40.0247 40.256 33.3578C42.1652 30.9022 44.8936 29.2705 46.892 26.8576C47.7468 25.8256 49.6344 24.7293 47.439 24.747" stroke="#00ADB5" stroke-opacity="0.2" stroke-width="1.28667" stroke-linecap="round" stroke-linejoin="round"/>
<path d="M25.8793 55.398C32.8328 51.123 37.2853 43.1694 42.3445 36.8665C44.6461 33.999 46.8676 31.0713 49.1976 28.2272C50.2598 26.9305 52.112 26.1205 49.7352 27.4482" stroke="#00ADB5" stroke-opacity="0.2" stroke-width="1.28667" stroke-linecap="round" stroke-linejoin="round"/>
<path d="M28.6186 59.8592C32.9577 55.6277 36.461 51.0616 40.0113 46.167C42.1701 43.1908 44.0363 39.8454 46.5712 37.1656C48.0257 35.6281 49.1455 33.8276 50.466 32.1976C50.9979 31.5409 51.3649 30.7758 51.9116 30.1246C53.1431 28.6578 52.2845 29.9848 51.427 30.7805" stroke="#00ADB5" stroke-opacity="0.2" stroke-width="1.28667" stroke-linecap="round" stroke-linejoin="round"/>
<path d="M29.6391 61.7138C31.7985 59.5986 34.9622 57.5626 36.4028 54.8187C36.9258 53.8226 38.2201 51.4175 39.1276 50.8079C40.3274 50.0021 40.8992 48.2878 41.7725 47.2097C42.682 46.087 43.5722 44.9915 44.559 43.9236C45.4844 42.9223 45.7807 41.1648 46.9263 40.303C48.2024 39.343 48.8233 37.857 49.8413 36.7109C50.7224 35.719 52.3997 34.6911 53.4927 33.9334C54.0984 33.5135 54.5214 32.9413 55.2083 32.6293C56.6006 31.997 55.697 32.3206 54.4225 32.273" stroke="#00ADB5" stroke-opacity="0.2" stroke-width="1.28667" stroke-linecap="round" stroke-linejoin="round"/>
<path d="M52.2101 19.5493C53.9964 20.0202 56.1989 20.3436 57.8267 21.3171C58.8773 21.9453 59.792 22.5761 57.8789 21.4321" stroke="#00ADB5" stroke-opacity="0.2" stroke-width="1.28667" stroke-linecap="round" stroke-linejoin="round"/>
<path d="M54.0649 16.5676C56.6131 17.2333 58.4139 17.9796 60.4918 19.3343C61.8504 20.2201 61.6324 19.9749 60.2172 19.1223" stroke="#00ADB5" stroke-opacity="0.2" stroke-width="1.28667" stroke-linecap="round" stroke-linejoin="round"/>
<path d="M57.156 13.5593C59.3441 14.7899 61.467 16.1884 63.7296 17.2598C65.0604 17.89 64.362 17.8459 63.3347 17.35" stroke="#00ADB5" stroke-opacity="0.2" stroke-width="1.28667" stroke-linecap="round" stroke-linejoin="round"/>
<path d="M58.9166 11.1548C61.2174 12.2024 63.3384 13.2456 65.4567 14.5634C66.4227 15.1643 65.546 15.2032 64.8133 14.717" stroke="#00ADB5" stroke-opacity="0.2" stroke-width="1.28667" stroke-linecap="round" stroke-linejoin="round"/>
<path d="M53.3389 18.5018C55.0772 16.4352 56.821 14.4769 58.4036 12.3586C58.8533 11.7568 61.592 8.40593 60.4084 10.1209" stroke="#00ADB5" stroke-opacity="0.2" stroke-width="1.28667" stroke-linecap="round" stroke-linejoin="round"/>
<path d="M55.1649 22.1299C57.4267 20.1303 60.6861 17.4644 61.4161 14.4771C61.6309 13.5979 62.0969 12.7193 62.7798 12.1145C63.4723 11.5012 64.1963 11.2242 63.1619 12.258" stroke="#00ADB5" stroke-opacity="0.2" stroke-width="1.28667" stroke-linecap="round" stroke-linejoin="round"/>
<path d="M53.3512 22.062C55.7629 19.4645 57.8241 17.7186 59.1866 14.5188C59.5404 13.6878 59.9462 12.999 60.527 12.3451C61.1426 11.6521 62.0261 11.0031 60.8376 12.2437" stroke="#00ADB5" stroke-opacity="0.2" stroke-width="1.28667" stroke-linecap="round" stroke-linejoin="round"/>
<path d="M62.3118 23.3416C63.4223 24.0456 64.5358 24.6981 65.69 25.284C66.1666 25.526 65.577 25.0577 65.3743 24.9816" stroke="#00ADB5" stroke-opacity="0.2" stroke-width="1.28667" stroke-linecap="round" stroke-linejoin="round"/>
<path d="M64.4758 19.8625C64.5509 19.9263 68.9168 23.6672 68.1425 22.8328" stroke="#00ADB5" stroke-opacity="0.2" stroke-width="1.28667" stroke-linecap="round" stroke-linejoin="round"/>
<path d="M67.0693 18.5063C68.0324 19.433 70.9819 22.143 69.9434 21.3017" stroke="#00ADB5" stroke-opacity="0.2" stroke-width="1.28667" stroke-linecap="round" stroke-linejoin="round"/>
<path d="M61.0216 24.8187C62.6176 23.3325 66.1178 20.3879 66.9754 18.1033C67.3133 17.2031 68.8614 16.0462 67.4056 17.2839" stroke="#00ADB5" stroke-opacity="0.2" stroke-width="1.28667" stroke-linecap="round" stroke-linejoin="round"/>
<path d="M61.2228 25.2623C61.3744 25.3836 64.427 28.6715 65.078 27.0772C65.4103 26.2635 65.843 25.2036 66.6581 24.755C68.0881 23.9681 68.352 21.4897 69.8158 20.8249C71.4765 20.0707 71.3214 18.806 69.7749 18.3574C69.1672 18.1811 69.6466 16.9838 69.0155 17.0779C68.4379 17.164 68.1319 16.9507 67.4862 17.0691" stroke="#00ADB5" stroke-opacity="0.2" stroke-width="1.28667" stroke-linecap="round" stroke-linejoin="round"/>
<path d="M52.0086 19.1059C53.0556 21.1066 53.2537 21.832 54.9429 22.6663C55.3989 22.8915 55.9941 22.5792 56.3401 22.7549C57.0248 23.1025 58.378 23.1097 58.8891 22.4788C59.9168 21.2102 60.295 20.3914 61.8696 19.6197C62.8629 19.1329 63.6618 17.9842 64.1215 17.032C64.6267 15.9855 65.5364 15.1969 66.0697 14.1464C66.2968 13.6991 64.4637 12.547 64.4472 11.7732C64.4425 11.5537 62.2658 11.5472 61.9037 11.3633C61.4648 11.1405 61.2637 10.8265 61.0531 10.3629C60.7456 9.68566 60.2001 10.5265 59.3737 10.5907" stroke="#00ADB5" stroke-opacity="0.2" stroke-width="1.28667" stroke-linecap="round" stroke-linejoin="round"/>
<path d="M15.7533 44.4858C18.2262 45.4257 20.3827 46.6376 22.6091 47.9789C24.542 49.1434 26.7264 49.7638 28.647 50.8925C30.0144 51.6961 31.4334 53.5305 32.4426 54.7354C32.7788 55.1368 33.0299 55.5125 33.2684 55.9649C33.8155 57.003 33.2463 54.4934 33.1884 54.2184" stroke="#00ADB5" stroke-opacity="0.2" stroke-width="1.28667" stroke-linecap="round" stroke-linejoin="round"/>
<path d="M39.6331 25.6177C40.3188 26.3377 43.0956 30.3126 42.5478 27.3249" stroke="#00ADB5" stroke-opacity="0.2" stroke-width="1.28667" stroke-linecap="round" stroke-linejoin="round"/>
</svg>
