<svg width="190" height="181" viewBox="0 0 190 181" fill="none" xmlns="http://www.w3.org/2000/svg">
<path d="M12.2508 71.843C21.4696 67.4509 28.922 60.1889 36.4156 53.3409C42.3053 47.9587 48.4817 42.6403 54.9815 37.9956C56.2641 37.0791 58.076 35.2348 59.8098 36.0208C61.5278 36.7998 62.5182 38.9206 63.8761 40.1765C67.2201 43.2693 70.2269 47.0487 72.9762 50.6833C76.0027 54.6842 71.4641 56.8986 68.6585 59.5182C65.4715 62.4937 62.4279 65.5622 58.9467 68.1878C55.6378 70.6836 52.9791 74.1235 49.95 76.9488C45.3335 81.2547 41.0155 85.8389 36.4124 90.1492C33.6721 92.715 30.5281 94.8097 27.8893 97.4668C26.9647 98.3978 26.1095 99.6283 25.0432 100.404C24.1868 101.026 23.0014 98.6318 22.6965 98.1808C20.2766 94.6016 16.5279 92.1532 14.1583 88.4094C12.6684 86.0556 11.6659 83.1506 9.8825 81.001C9.03117 79.9748 6.90279 77.6651 7.8353 76.166C8.7874 74.6355 11.4909 73.9022 12.9655 72.8061C14.115 71.9516 15.5124 70.8967 16.8206 70.3025C17.7714 69.8707 18.7048 69.1053 19.5552 68.5159C21.793 66.9646 19.4216 67.6277 17.908 68.2041" stroke="#00ADB5" stroke-opacity="0.2" stroke-width="1.28667" stroke-linecap="round" stroke-linejoin="round"/>
<path d="M13.6594 78.8699C19.2715 82.3442 24.3058 87.372 28.687 92.3305C28.7979 92.4561 29.8642 93.1992 29.7016 93.4743C29.3878 94.0053 25.7452 91.6082 25.3973 91.3681" stroke="#00ADB5" stroke-opacity="0.2" stroke-width="1.28667" stroke-linecap="round" stroke-linejoin="round"/>
<path d="M19.2229 73.8472C23.7729 75.1501 26.4845 77.6291 30.1581 80.2816C31.7945 81.4631 33.4613 82.5294 34.93 83.9187C35.6197 84.5712 36.1109 85.4303 36.7482 86.1338C37.6216 87.0981 34.0549 85.0144 33.6348 84.7744" stroke="#00ADB5" stroke-opacity="0.2" stroke-width="1.28667" stroke-linecap="round" stroke-linejoin="round"/>
<path d="M25.834 69.9534C29.018 72.827 32.2188 75.6609 35.5027 78.419C36.7503 79.4668 38.1665 80.4284 39.244 81.6625C41.1567 83.8532 38.6517 81.0105 37.8009 80.2081" stroke="#00ADB5" stroke-opacity="0.2" stroke-width="1.28667" stroke-linecap="round" stroke-linejoin="round"/>
<path d="M30.2953 67.2141C32.657 68.6499 35.124 70.0414 37.1238 71.9775C37.9441 72.7717 38.6246 73.7078 39.5017 74.4436C40.5821 75.3499 41.5285 76.4073 42.6161 77.2883C44.1647 78.5428 44.3976 78.9091 42.5579 77.3345" stroke="#00ADB5" stroke-opacity="0.2" stroke-width="1.28667" stroke-linecap="round" stroke-linejoin="round"/>
<path d="M36.047 62.9976C38.6526 65.0367 41.0641 67.1074 43.2429 69.5949C44.2078 70.6966 44.9854 71.9683 46.2101 72.8135C47.3321 73.5878 48.1184 73.8115 46.8051 72.5532" stroke="#00ADB5" stroke-opacity="0.2" stroke-width="1.28667" stroke-linecap="round" stroke-linejoin="round"/>
<path d="M41.5835 58.7002C43.8777 60.424 46.1396 61.9977 47.9721 64.218C48.811 65.2345 49.4734 66.4027 50.4102 67.3402C52.3127 69.2439 51.0044 68.2842 49.6282 66.9921" stroke="#00ADB5" stroke-opacity="0.2" stroke-width="1.28667" stroke-linecap="round" stroke-linejoin="round"/>
<path d="M46.6899 54.2415C49.9108 57.3227 52.6084 60.9316 55.835 63.975C58.0076 66.0242 54.8948 62.7405 54.3854 62.1571" stroke="#00ADB5" stroke-opacity="0.2" stroke-width="1.28667" stroke-linecap="round" stroke-linejoin="round"/>
<path d="M52.9248 50.6967C55.6359 49.5898 58.4482 48.2704 59.9051 45.5655C60.3069 44.8196 60.8245 44.1703 60.9896 43.3297C61.2164 42.1753 61.172 42.6705 60.3164 43.4175" stroke="#00ADB5" stroke-opacity="0.2" stroke-width="1.28667" stroke-linecap="round" stroke-linejoin="round"/>
<path d="M57.29 54.4198C59.4393 52.4253 61.842 50.2467 63.417 47.7149C64.2025 46.4521 65.6988 44.9107 63.6069 46.7372" stroke="#00ADB5" stroke-opacity="0.2" stroke-width="1.28667" stroke-linecap="round" stroke-linejoin="round"/>
<path d="M64.1807 58.6001C66.139 56.472 67.8816 54.4927 69.6843 52.2674C70.2667 51.5484 72.041 50.6155 69.9063 51.186" stroke="#00ADB5" stroke-opacity="0.2" stroke-width="1.28667" stroke-linecap="round" stroke-linejoin="round"/>
<path d="M62.6226 57.525C64.6725 55.7684 66.9906 53.7232 68.615 51.5052C69.0483 50.9135 69.3817 50.2544 69.7785 49.6396C70.4432 48.6098 70.4852 48.9576 69.4772 49.0633" stroke="#00ADB5" stroke-opacity="0.2" stroke-width="1.28667" stroke-linecap="round" stroke-linejoin="round"/>
<path d="M19.1931 82.4185C29.4054 78.2701 31.9252 67.0113 40.2474 60.644C41.2597 59.8695 42.0821 59.0085 43.2627 58.4723C44.0521 58.1138 45.0269 57.9422 45.7455 57.4835C46.1838 57.2036 49.8236 54.423 47.2941 55.5718" stroke="#00ADB5" stroke-opacity="0.2" stroke-width="1.28667" stroke-linecap="round" stroke-linejoin="round"/>
<path d="M14.4382 79.4076C15.5842 78.0141 16.6017 76.8214 18.0556 75.8135C18.2941 75.6482 18.662 75.6204 18.8581 75.3996C19.2466 74.9622 19.8352 74.3228 19.9849 73.7587C20.5746 71.537 23.4559 71.9478 24.9859 70.8338C26.4413 69.774 27.8426 68.7012 29.3263 67.6542C30.9611 66.5006 31.7174 65.489 33.0303 64.0108C34.2363 62.6531 35.4071 61.2797 36.6837 59.9943C37.728 58.9427 39.369 57.9863 40.0338 56.6405C40.784 55.1216 42.7014 53.3831 44.4272 53.6646C45.02 53.7613 49.3755 56.2853 46.5286 54.6714" stroke="#00ADB5" stroke-opacity="0.2" stroke-width="1.28667" stroke-linecap="round" stroke-linejoin="round"/>
<path d="M153.286 135.743C154.432 134.35 155.45 133.157 156.904 132.149C157.142 131.984 157.51 131.956 157.706 131.735C158.094 131.298 158.683 130.658 158.833 130.094C159.423 127.873 162.304 128.283 163.834 127.169C165.289 126.11 166.69 125.037 168.174 123.99C169.809 122.836 170.565 121.825 171.878 120.347C173.084 118.989 174.255 117.615 175.532 116.33C176.576 115.278 178.217 114.322 178.882 112.976C179.632 111.457 181.549 109.719 183.275 110C183.868 110.097 188.223 112.621 185.377 111.007" stroke="#00ADB5" stroke-opacity="0.2" stroke-width="1.28667" stroke-linecap="round" stroke-linejoin="round"/>
<path d="M23.6797 84.8382C31.3538 80.7901 35.6128 71.9646 40.7961 65.2978C42.7053 62.8422 45.4336 61.2104 47.432 58.7975C48.2868 57.7655 50.1745 56.6693 47.9791 56.687" stroke="#00ADB5" stroke-opacity="0.2" stroke-width="1.28667" stroke-linecap="round" stroke-linejoin="round"/>
<path d="M26.4193 87.3379C33.3728 83.0629 37.8253 75.1094 42.8845 68.8064C45.1862 65.9389 47.4076 63.0113 49.7376 60.1671C50.7999 58.8704 52.652 58.0604 50.2753 59.3881" stroke="#00ADB5" stroke-opacity="0.2" stroke-width="1.28667" stroke-linecap="round" stroke-linejoin="round"/>
<path d="M29.1586 91.7991C33.4978 87.5677 37.001 83.0015 40.5514 78.1069C42.7102 75.1308 44.5763 71.7854 47.1113 69.1056C48.5657 67.568 49.6855 65.7676 51.006 64.1375C51.5379 63.4808 51.905 62.7157 52.4517 62.0646C53.6831 60.5978 52.8245 61.9248 51.967 62.7205" stroke="#00ADB5" stroke-opacity="0.2" stroke-width="1.28667" stroke-linecap="round" stroke-linejoin="round"/>
<path d="M30.179 93.6537C32.3384 91.5385 35.5021 89.5025 36.9427 86.7587C37.4657 85.7625 38.76 83.3574 39.6676 82.7478C40.8673 81.942 41.4391 80.2278 42.3124 79.1497C43.2219 78.027 44.1121 76.9314 45.099 75.8636C46.0243 74.8622 46.3206 73.1047 47.4662 72.2429C48.7423 71.2829 49.3632 69.7969 50.3812 68.6509C51.2623 67.6589 52.9396 66.631 54.0327 65.8733C54.6383 65.4535 55.0613 64.8812 55.7483 64.5692C57.1406 63.9369 56.237 64.2606 54.9624 64.2129" stroke="#00ADB5" stroke-opacity="0.2" stroke-width="1.28667" stroke-linecap="round" stroke-linejoin="round"/>
<path d="M52.75 51.4893C54.5363 51.9602 56.7388 52.2836 58.3666 53.257C59.4172 53.8853 60.3319 54.516 58.4188 53.372" stroke="#00ADB5" stroke-opacity="0.2" stroke-width="1.28667" stroke-linecap="round" stroke-linejoin="round"/>
<path d="M54.605 48.5076C57.1531 49.1733 58.954 49.9195 61.0318 51.2743C62.3904 52.16 62.1725 51.9148 60.7572 51.0622" stroke="#00ADB5" stroke-opacity="0.2" stroke-width="1.28667" stroke-linecap="round" stroke-linejoin="round"/>
<path d="M57.696 45.4993C59.8842 46.7298 62.007 48.1283 64.2696 49.1997C65.6004 49.8299 64.902 49.7858 63.8748 49.2899" stroke="#00ADB5" stroke-opacity="0.2" stroke-width="1.28667" stroke-linecap="round" stroke-linejoin="round"/>
<path d="M59.4567 43.0947C61.7574 44.1423 63.8784 45.1856 65.9968 46.5034C66.9628 47.1043 66.0861 47.1432 65.3533 46.6569" stroke="#00ADB5" stroke-opacity="0.2" stroke-width="1.28667" stroke-linecap="round" stroke-linejoin="round"/>
<path d="M53.8789 50.4418C55.6173 48.3751 57.361 46.4169 58.9436 44.2986C59.3933 43.6967 62.132 40.3459 60.9484 42.0608" stroke="#00ADB5" stroke-opacity="0.2" stroke-width="1.28667" stroke-linecap="round" stroke-linejoin="round"/>
<path d="M55.7049 54.0698C57.9667 52.0703 61.2261 49.4043 61.9561 46.417C62.171 45.5379 62.6369 44.6592 63.3198 44.0545C64.0124 43.4411 64.7363 43.1641 63.7019 44.1979" stroke="#00ADB5" stroke-opacity="0.2" stroke-width="1.28667" stroke-linecap="round" stroke-linejoin="round"/>
<path d="M53.8911 54.0022C56.3028 51.4046 58.364 49.6588 59.7265 46.459C60.0804 45.628 60.4861 44.9392 61.067 44.2853C61.6825 43.5923 62.5661 42.9433 61.3775 44.1838" stroke="#00ADB5" stroke-opacity="0.2" stroke-width="1.28667" stroke-linecap="round" stroke-linejoin="round"/>
<path d="M62.8518 55.2815C63.9624 55.9856 65.0759 56.638 66.23 57.2239C66.7067 57.4659 66.117 56.9976 65.9144 56.9216" stroke="#00ADB5" stroke-opacity="0.2" stroke-width="1.28667" stroke-linecap="round" stroke-linejoin="round"/>
<path d="M65.0157 51.8025C65.0908 51.8663 69.4567 55.6071 68.6824 54.7728" stroke="#00ADB5" stroke-opacity="0.2" stroke-width="1.28667" stroke-linecap="round" stroke-linejoin="round"/>
<path d="M67.6093 50.4463C68.5723 51.3729 71.5218 54.0829 70.4834 53.2417" stroke="#00ADB5" stroke-opacity="0.2" stroke-width="1.28667" stroke-linecap="round" stroke-linejoin="round"/>
<path d="M61.5616 56.7587C63.1576 55.2724 66.6578 52.3278 67.5154 50.0433C67.8534 49.143 69.4015 47.9861 67.9456 49.2239" stroke="#00ADB5" stroke-opacity="0.2" stroke-width="1.28667" stroke-linecap="round" stroke-linejoin="round"/>
<path d="M61.7629 57.2022C61.9144 57.3236 64.9671 60.6114 65.6181 59.0172C65.9503 58.2034 66.383 57.1435 67.1982 56.695C68.6281 55.9081 68.892 53.4297 70.3559 52.7649C72.0165 52.0107 71.8614 50.7459 70.3149 50.2973C69.7073 50.1211 70.1866 48.9237 69.5555 49.0178C68.9779 49.1039 68.672 48.8907 68.0262 49.0091" stroke="#00ADB5" stroke-opacity="0.2" stroke-width="1.28667" stroke-linecap="round" stroke-linejoin="round"/>
<path d="M52.5487 51.0459C53.5957 53.0465 53.7937 53.7719 55.483 54.6063C55.9389 54.8315 56.5341 54.5192 56.8802 54.6948C57.5648 55.0424 58.918 55.0497 59.4291 54.4188C60.4568 53.1501 60.8351 52.3313 62.4096 51.5596C63.4029 51.0728 64.2019 49.9241 64.6615 48.972C65.1667 47.9255 66.0765 47.1369 66.6098 46.0864C66.8369 45.6391 65.0038 44.487 64.9872 43.7131C64.9825 43.4937 62.8058 43.4871 62.4437 43.3033C62.0049 43.0805 61.8037 42.7665 61.5932 42.3028C61.2856 41.6256 60.7402 42.4665 59.9137 42.5307" stroke="#00ADB5" stroke-opacity="0.2" stroke-width="1.28667" stroke-linecap="round" stroke-linejoin="round"/>
<path d="M16.2933 76.4258C18.7662 77.3657 20.9228 78.5776 23.1491 79.9189C25.0821 81.0833 27.2664 81.7038 29.1871 82.8325C30.5544 83.636 31.9735 85.4705 32.9826 86.6753C33.3189 87.0768 33.57 87.4524 33.8084 87.9049C34.3556 88.9429 33.7864 86.4334 33.7284 86.1583" stroke="#00ADB5" stroke-opacity="0.2" stroke-width="1.28667" stroke-linecap="round" stroke-linejoin="round"/>
<path d="M40.173 57.5576C40.8587 58.2776 43.6355 62.2526 43.0877 59.2648" stroke="#00ADB5" stroke-opacity="0.2" stroke-width="1.28667" stroke-linecap="round" stroke-linejoin="round"/>
</svg>
