<svg width="108" height="91" viewBox="0 0 108 91" fill="none" xmlns="http://www.w3.org/2000/svg">
<path d="M15.3126 50.4626C27.2302 44.7847 36.8642 35.3969 46.5516 26.5441C54.1654 19.5862 62.15 12.7109 70.5526 6.70656C72.2106 5.52177 74.553 3.13744 76.7943 4.15364C79.0153 5.16063 80.2957 7.90233 82.0511 9.52587C86.374 13.5241 90.261 18.4099 93.8151 23.1084C97.7276 28.2807 91.8604 31.1433 88.2334 34.5297C84.1135 38.3763 80.1789 42.3431 75.6786 45.7374C71.401 48.9637 67.964 53.4107 64.0481 57.0631C58.0801 62.6295 52.4981 68.5557 46.5474 74.1278C43.005 77.4448 38.9406 80.1528 35.5293 83.5876C34.334 84.7912 33.2284 86.382 31.8499 87.3842C30.7428 88.189 29.2105 85.0937 28.8163 84.5107C25.688 79.8837 20.8418 76.7185 17.7785 71.8788C15.8525 68.8359 14.5565 65.0805 12.251 62.3016C11.1505 60.975 8.39902 57.989 9.60451 56.0512C10.8353 54.0726 14.3303 53.1247 16.2366 51.7076C17.7226 50.603 19.529 49.2392 21.2202 48.4711C22.4494 47.9129 23.6561 46.9235 24.7553 46.1615C27.6483 44.156 24.5826 45.0132 22.626 45.7584" stroke="#00ADB5" stroke-opacity="0.5" stroke-width="1.66333" stroke-linecap="round" stroke-linejoin="round"/>
<path d="M17.1333 59.5466C24.3884 64.038 30.8963 70.5377 36.5601 76.9478C36.7036 77.1102 38.082 78.0709 37.8718 78.4264C37.4661 79.113 32.7572 76.0141 32.3073 75.7036" stroke="#00ADB5" stroke-opacity="0.5" stroke-width="1.66333" stroke-linecap="round" stroke-linejoin="round"/>
<path d="M24.3257 53.0533C30.2077 54.7377 33.7131 57.9425 38.4622 61.3714C40.5776 62.8988 42.7323 64.2772 44.631 66.0733C45.5226 66.9168 46.1576 68.0274 46.9814 68.9369C48.1105 70.1834 43.4997 67.4898 42.9566 67.1795" stroke="#00ADB5" stroke-opacity="0.5" stroke-width="1.66333" stroke-linecap="round" stroke-linejoin="round"/>
<path d="M32.8722 48.0197C36.9884 51.7345 41.1261 55.398 45.3714 58.9635C46.9842 60.3181 48.815 61.5612 50.2079 63.1565C52.6805 65.9886 49.4423 62.3137 48.3424 61.2764" stroke="#00ADB5" stroke-opacity="0.5" stroke-width="1.66333" stroke-linecap="round" stroke-linejoin="round"/>
<path d="M38.6394 44.4785C41.6926 46.3346 44.8817 48.1334 47.4669 50.6364C48.5274 51.6631 49.4072 52.8732 50.5409 53.8244C51.9376 54.9961 53.1612 56.363 54.5671 57.5019C56.5691 59.1236 56.8701 59.5971 54.4918 57.5617" stroke="#00ADB5" stroke-opacity="0.5" stroke-width="1.66333" stroke-linecap="round" stroke-linejoin="round"/>
<path d="M46.0747 39.0276C49.4431 41.6636 52.5605 44.3406 55.3771 47.5563C56.6246 48.9805 57.6299 50.6245 59.213 51.7171C60.6634 52.7181 61.68 53.0073 59.9822 51.3807" stroke="#00ADB5" stroke-opacity="0.5" stroke-width="1.66333" stroke-linecap="round" stroke-linejoin="round"/>
<path d="M53.2319 33.4723C56.1978 35.7008 59.1218 37.7351 61.4908 40.6054C62.5753 41.9194 63.4315 43.4296 64.6427 44.6416C67.1021 47.1026 65.4107 45.862 63.6316 44.1916" stroke="#00ADB5" stroke-opacity="0.5" stroke-width="1.66333" stroke-linecap="round" stroke-linejoin="round"/>
<path d="M59.8337 27.7083C63.9975 31.6915 67.4848 36.3569 71.656 40.2912C74.4647 42.9404 70.4405 38.6953 69.7821 37.9411" stroke="#00ADB5" stroke-opacity="0.5" stroke-width="1.66333" stroke-linecap="round" stroke-linejoin="round"/>
<path d="M67.8939 23.1259C71.3986 21.6949 75.0341 19.9893 76.9176 16.4925C77.437 15.5283 78.1061 14.6889 78.3196 13.6022C78.6127 12.1099 78.5553 12.75 77.4492 13.7158" stroke="#00ADB5" stroke-opacity="0.5" stroke-width="1.66333" stroke-linecap="round" stroke-linejoin="round"/>
<path d="M73.5368 27.9387C76.3154 25.3603 79.4214 22.5439 81.4575 19.271C82.473 17.6385 84.4074 15.6459 81.703 18.0071" stroke="#00ADB5" stroke-opacity="0.5" stroke-width="1.66333" stroke-linecap="round" stroke-linejoin="round"/>
<path d="M82.4446 33.343C84.9763 30.5918 87.2291 28.0332 89.5594 25.1564C90.3124 24.227 92.6061 23.0209 89.8464 23.7584" stroke="#00ADB5" stroke-opacity="0.5" stroke-width="1.66333" stroke-linecap="round" stroke-linejoin="round"/>
<path d="M80.4304 31.9529C83.0804 29.6821 86.0771 27.0383 88.1771 24.1709C88.7372 23.406 89.1682 22.554 89.6811 21.7592C90.5404 20.4279 90.5947 20.8775 89.2916 21.0142" stroke="#00ADB5" stroke-opacity="0.5" stroke-width="1.66333" stroke-linecap="round" stroke-linejoin="round"/>
<path d="M24.2871 64.134C37.4891 58.7711 40.7465 44.2164 51.5049 35.9851C52.8137 34.9838 53.8768 33.8708 55.403 33.1777C56.4235 32.7142 57.6837 32.4924 58.6126 31.8993C59.1792 31.5376 63.8846 27.9429 60.6146 29.428" stroke="#00ADB5" stroke-opacity="0.5" stroke-width="1.66333" stroke-linecap="round" stroke-linejoin="round"/>
<path d="M18.1405 60.2417C19.622 58.4402 20.9373 56.8984 22.8168 55.5955C23.1251 55.3818 23.6007 55.3457 23.8542 55.0603C24.3564 54.4949 25.1174 53.6683 25.3109 52.939C26.0732 50.0669 29.798 50.598 31.7759 49.1579C33.6574 47.7879 35.4688 46.401 37.387 45.0475C39.5003 43.5562 40.4781 42.2484 42.1753 40.3376C43.7344 38.5823 45.2479 36.8069 46.8982 35.1452C48.2483 33.7858 50.3696 32.5494 51.229 30.8096C52.1988 28.846 54.6775 26.5986 56.9085 26.9626C57.6749 27.0876 63.3055 30.3503 59.6252 28.2641" stroke="#00ADB5" stroke-opacity="0.5" stroke-width="1.66333" stroke-linecap="round" stroke-linejoin="round"/>
<path d="M30.0871 67.2621C40.0078 62.0291 45.5136 50.6199 52.2143 42.0014C54.6824 38.8269 58.2094 36.7174 60.7929 33.5982C61.8979 32.2641 64.3382 30.8469 61.5001 30.8698" stroke="#00ADB5" stroke-opacity="0.5" stroke-width="1.66333" stroke-linecap="round" stroke-linejoin="round"/>
<path d="M33.6289 70.4936C42.6181 64.9672 48.374 54.6852 54.9143 46.5371C57.8897 42.8301 60.7615 39.0455 63.7736 35.3687C65.1468 33.6924 67.5412 32.6452 64.4686 34.3616" stroke="#00ADB5" stroke-opacity="0.5" stroke-width="1.66333" stroke-linecap="round" stroke-linejoin="round"/>
<path d="M37.17 76.261C42.7794 70.7908 47.3082 64.8879 51.8979 58.5604C54.6887 54.713 57.1011 50.3883 60.3782 46.924C62.2584 44.9363 63.706 42.6088 65.4131 40.5015C66.1007 39.6526 66.5752 38.6635 67.282 37.8217C68.8739 35.9255 67.764 37.641 66.6555 38.6696" stroke="#00ADB5" stroke-opacity="0.5" stroke-width="1.66333" stroke-linecap="round" stroke-linejoin="round"/>
<path d="M38.489 78.6582C41.2805 75.9238 45.3705 73.2918 47.2328 69.7447C47.9089 68.4569 49.582 65.3477 50.7553 64.5597C52.3063 63.518 53.0454 61.3019 54.1744 59.9082C55.3501 58.4568 56.501 57.0406 57.7767 55.6601C58.973 54.3656 59.356 52.0936 60.8369 50.9796C62.4867 49.7385 63.2894 47.8175 64.6054 46.3359C65.7444 45.0536 67.9127 43.7248 69.3257 42.7452C70.1087 42.2025 70.6555 41.4627 71.5436 41.0594C73.3435 40.242 72.1753 40.6604 70.5277 40.5988" stroke="#00ADB5" stroke-opacity="0.5" stroke-width="1.66333" stroke-linecap="round" stroke-linejoin="round"/>
<path d="M67.6675 24.1504C69.9768 24.7592 72.824 25.1772 74.9284 26.4357C76.2864 27.2478 77.4689 28.0632 74.9959 26.5843" stroke="#00ADB5" stroke-opacity="0.5" stroke-width="1.66333" stroke-linecap="round" stroke-linejoin="round"/>
<path d="M70.0656 20.2957C73.3597 21.1562 75.6877 22.121 78.3739 23.8723C80.1302 25.0174 79.8484 24.7003 78.0189 23.5982" stroke="#00ADB5" stroke-opacity="0.5" stroke-width="1.66333" stroke-linecap="round" stroke-linejoin="round"/>
<path d="M74.0618 16.4067C76.8905 17.9976 79.6348 19.8055 82.5598 21.1905C84.2801 22.0051 83.3772 21.9482 82.0493 21.3071" stroke="#00ADB5" stroke-opacity="0.5" stroke-width="1.66333" stroke-linecap="round" stroke-linejoin="round"/>
<path d="M76.3375 13.2986C79.3118 14.6528 82.0537 16.0015 84.7922 17.7051C86.041 18.4819 84.9077 18.5322 83.9604 17.9036" stroke="#00ADB5" stroke-opacity="0.5" stroke-width="1.66333" stroke-linecap="round" stroke-linejoin="round"/>
<path d="M69.1271 22.7963C71.3743 20.1247 73.6285 17.5932 75.6744 14.8547C76.2557 14.0767 79.7962 9.74487 78.2661 11.9619" stroke="#00ADB5" stroke-opacity="0.5" stroke-width="1.66333" stroke-linecap="round" stroke-linejoin="round"/>
<path d="M71.4876 27.4865C74.4115 24.9016 78.6251 21.4552 79.5688 17.5934C79.8466 16.4569 80.4489 15.321 81.3317 14.5392C82.227 13.7463 83.163 13.3882 81.8257 14.7246" stroke="#00ADB5" stroke-opacity="0.5" stroke-width="1.66333" stroke-linecap="round" stroke-linejoin="round"/>
<path d="M69.143 27.3988C72.2607 24.0408 74.9253 21.7839 76.6867 17.6473C77.1441 16.573 77.6687 15.6826 78.4196 14.8372C79.2153 13.9414 80.3575 13.1024 78.821 14.7062" stroke="#00ADB5" stroke-opacity="0.5" stroke-width="1.66333" stroke-linecap="round" stroke-linejoin="round"/>
<path d="M80.7267 29.0526C82.1624 29.9628 83.6018 30.8063 85.0938 31.5637C85.71 31.8765 84.9478 31.2711 84.6858 31.1728" stroke="#00ADB5" stroke-opacity="0.5" stroke-width="1.66333" stroke-linecap="round" stroke-linejoin="round"/>
<path d="M83.5242 24.5553C83.6212 24.6378 89.2652 29.4737 88.2643 28.3951" stroke="#00ADB5" stroke-opacity="0.5" stroke-width="1.66333" stroke-linecap="round" stroke-linejoin="round"/>
<path d="M86.8768 22.8021C88.1218 24 91.9348 27.5033 90.5923 26.4158" stroke="#00ADB5" stroke-opacity="0.5" stroke-width="1.66333" stroke-linecap="round" stroke-linejoin="round"/>
<path d="M79.0588 30.9626C81.122 29.0412 85.647 25.2346 86.7556 22.2813C87.1925 21.1174 89.1938 19.6219 87.3117 21.222" stroke="#00ADB5" stroke-opacity="0.5" stroke-width="1.66333" stroke-linecap="round" stroke-linejoin="round"/>
<path d="M79.3192 31.5357C79.5151 31.6926 83.4614 35.943 84.303 33.882C84.7325 32.83 85.2919 31.4598 86.3456 30.88C88.1942 29.8627 88.5354 26.6588 90.4278 25.7993C92.5746 24.8244 92.374 23.1894 90.3748 22.6094C89.5893 22.3816 90.2089 20.8337 89.3931 20.9553C88.6464 21.0666 88.2509 20.791 87.4161 20.9441" stroke="#00ADB5" stroke-opacity="0.5" stroke-width="1.66333" stroke-linecap="round" stroke-linejoin="round"/>
<path d="M67.4074 23.5773C68.7609 26.1636 69.0169 27.1014 71.2007 28.18C71.7901 28.4711 72.5596 28.0674 73.0069 28.2945C73.892 28.7438 75.6413 28.7532 76.302 27.9376C77.6306 26.2976 78.1196 25.2391 80.155 24.2415C81.4392 23.6121 82.472 22.1272 83.0662 20.8963C83.7193 19.5434 84.8954 18.524 85.5848 17.1659C85.8784 16.5877 83.5086 15.0983 83.4872 14.0979C83.4811 13.8142 80.6673 13.8057 80.1991 13.5681C79.6318 13.2801 79.3718 12.8742 79.0996 12.2748C78.702 11.3993 77.9969 12.4863 76.9285 12.5693" stroke="#00ADB5" stroke-opacity="0.5" stroke-width="1.66333" stroke-linecap="round" stroke-linejoin="round"/>
<path d="M20.5385 56.3868C23.7353 57.6019 26.5231 59.1686 29.4012 60.9025C31.9 62.4079 34.7238 63.2099 37.2068 64.6691C38.9744 65.7078 40.8089 68.0793 42.1135 69.6369C42.5481 70.1559 42.8728 70.6415 43.181 71.2264C43.8883 72.5684 43.1525 69.3241 43.0776 68.9686" stroke="#00ADB5" stroke-opacity="0.5" stroke-width="1.66333" stroke-linecap="round" stroke-linejoin="round"/>
<path d="M51.4087 31.9954C52.2952 32.9261 55.8849 38.0647 55.1768 34.2023" stroke="#00ADB5" stroke-opacity="0.5" stroke-width="1.66333" stroke-linecap="round" stroke-linejoin="round"/>
</svg>
