<svg width="45" height="70" viewBox="0 0 45 70" fill="none" xmlns="http://www.w3.org/2000/svg">
<path d="M9.93205 51.8498C13.103 46.1024 12.9159 44.4604 12.1928 38.6752C11.7945 35.4894 11.6423 32.3767 10.8363 29.2425C9.39511 23.6377 8.92735 16.0904 13.4401 11.5777C22.3197 2.69801 38.8559 15.3264 33.849 26.592C31.9434 30.8796 28.6506 34.0541 26.2716 38.0983C25.3176 39.7203 24.7832 41.4784 23.5432 42.994C22.354 44.4474 20.8771 46.2564 20.8771 48.0611C20.8771 49.5856 21.3316 51.5623 20.2534 52.91C18.764 54.7718 19.2935 53.8143 17.0884 53.8143C15.5726 53.8143 13.3373 52.6095 12.1148 51.6315C11.242 50.9333 10.774 52.9528 10.774 51.0079C10.774 49.3384 11.3114 50.7272 10.2127 50.7272" stroke="#00ADB5" stroke-opacity="0.2" stroke-width="1.28667" stroke-linecap="round" stroke-linejoin="round"/>
<path d="M16.9479 57.1821C13.9466 56.2873 5.63921 54.289 7.56194 56.7611C9.88178 59.7437 10.8739 58.2489 13.7205 58.8815C15.1762 59.205 16.5954 63.6979 14.9834 63.7927C12.681 63.9282 11.1542 60.8304 8.80924 60.8304C6.67496 60.8304 6.82783 63.6393 8.10763 64.6347C9.79766 65.9491 11.7411 64.5362 12.8785 66.5836C14.676 69.819 9.76619 69.2926 8.37268 68.5325C6.96876 67.7667 5.63308 66.5709 4.59961 65.882" stroke="#00ADB5" stroke-opacity="0.2" stroke-width="1.28667" stroke-linecap="round" stroke-linejoin="round"/>
<path d="M9.93195 50.9377C9.97013 51.1821 10.0099 52.8321 10.6686 52.8321C11.0233 52.8321 11.1865 52.617 11.5106 52.797C11.8917 53.0087 12.2491 53.5071 12.6136 53.7987C12.9349 54.0557 13.8883 54.024 14.0714 54.3444C14.3706 54.868 14.9779 55.1546 15.5448 55.2175C16.2798 55.2992 16.5516 55.6681 17.3339 55.4943C17.573 55.4411 17.5971 55.2877 17.8211 55.2877C18.1669 55.2877 18.3162 55.4531 18.5773 55.163C18.8663 54.8419 19.3384 54.6915 19.4777 54.2041C19.667 53.5414 20.3611 53.1928 19.3335 53.6038" stroke="#00ADB5" stroke-opacity="0.2" stroke-width="1.28667" stroke-linecap="round" stroke-linejoin="round"/>
<path d="M23.473 23.1543C22.2177 23.1611 21.1802 23.242 20.7523 24.5731C20.4612 25.4788 20.4561 26.3689 20.4561 27.3094C20.4561 28.2237 21.0174 28.9589 21.0174 29.8195C21.0174 30.9573 20.1075 30.771 19.3374 31.1175C18.61 31.4449 18.083 31.7183 17.6887 32.4506C17.2982 33.1757 17.5932 34.5779 17.6458 35.3661C17.691 36.0444 18.0136 37.4861 17.5444 38.0595C17.2895 38.3711 15.8964 38.8522 16.8078 38.1686" stroke="#00ADB5" stroke-opacity="0.2" stroke-width="1.28667" stroke-linecap="round" stroke-linejoin="round"/>
<path d="M34.067 35.8533C35.0721 36.5211 36.0966 37.0806 37.2203 37.502C37.6914 37.6787 38.3118 37.994 38.2064 37.2565" stroke="#00ADB5" stroke-opacity="0.2" stroke-width="1.28667" stroke-linecap="round" stroke-linejoin="round"/>
<path d="M37.7156 26.1711C39.497 26.6 41.2663 27.0833 43.0322 27.5588C43.3259 27.6378 42.6518 26.8952 42.6268 26.8727" stroke="#00ADB5" stroke-opacity="0.2" stroke-width="1.28667" stroke-linecap="round" stroke-linejoin="round"/>
<path d="M38.2065 16.98C40.0513 16.7119 41.8906 16.3791 43.7258 16.0523C44.5708 15.9019 44.9285 16.0126 44.4508 15.2961" stroke="#00ADB5" stroke-opacity="0.2" stroke-width="1.28667" stroke-linecap="round" stroke-linejoin="round"/>
<path d="M28.2437 7.22781C29.7012 6.97168 30.9646 6.72488 32.2818 6.06626C32.8984 5.75797 33.492 5.38743 34.1372 5.13858C34.9038 4.84287 34.9196 4.9329 34.067 4.42139" stroke="#00ADB5" stroke-opacity="0.2" stroke-width="1.28667" stroke-linecap="round" stroke-linejoin="round"/>
<path d="M15.5446 0.91333C15.3319 2.40241 15.4022 3.29427 16.0045 4.64353C16.3293 5.37091 16.604 6.29026 16.7646 7.07576C16.82 7.34627 16.8508 7.50024 17.0336 7.70331C17.102 7.77932 16.8509 6.87569 16.8075 6.73665" stroke="#00ADB5" stroke-opacity="0.2" stroke-width="1.28667" stroke-linecap="round" stroke-linejoin="round"/>
<path d="M4.81006 6.87695C5.27582 8.42767 5.93969 9.91518 6.338 11.4686C6.53951 12.2545 6.41353 12.3022 6.07295 11.5075" stroke="#00ADB5" stroke-opacity="0.2" stroke-width="1.28667" stroke-linecap="round" stroke-linejoin="round"/>
<path d="M0.319946 18.0325C1.91399 19.4121 3.22127 21.1247 4.45942 22.819C4.61458 23.0313 4.79398 23.1068 4.96613 23.2789C5.35722 23.67 4.6821 22.7866 4.59974 22.6631" stroke="#00ADB5" stroke-opacity="0.2" stroke-width="1.28667" stroke-linecap="round" stroke-linejoin="round"/>
</svg>
