<svg width="45" height="69" viewBox="0 0 45 69" fill="none" xmlns="http://www.w3.org/2000/svg">
<path d="M10.2455 51.423C13.4164 45.6756 13.2293 44.0337 12.5062 38.2484C12.108 35.0626 11.9557 31.95 11.1498 28.8158C9.70852 23.211 9.24077 15.6636 13.7535 11.1509C22.6331 2.27125 39.1693 14.8996 34.1624 26.1653C32.2568 30.4529 28.964 33.6273 26.5851 37.6716C25.631 39.2935 25.0966 41.0516 23.8566 42.5672C22.6674 44.0207 21.1905 45.8296 21.1905 47.6344C21.1905 49.1589 21.645 51.1355 20.5669 52.4832C19.0774 54.345 19.6069 53.3875 17.4018 53.3875C15.886 53.3875 13.6507 52.1827 12.4282 51.2048C11.5555 50.5065 11.0874 52.526 11.0874 50.5811C11.0874 48.9116 11.6248 50.3005 10.5261 50.3005" stroke="#00ADB5" stroke-opacity="0.2" stroke-width="1.28667" stroke-linecap="round" stroke-linejoin="round"/>
<path d="M17.2613 56.7553C14.26 55.8605 5.95263 53.8623 7.87536 56.3343C10.1952 59.317 11.1873 57.8222 14.0339 58.4547C15.4896 58.7782 16.9089 63.2712 15.2968 63.366C12.9944 63.5014 11.4676 60.4036 9.12265 60.4036C6.98838 60.4036 7.14124 63.2125 8.42105 64.2079C10.1111 65.5224 12.0545 64.1094 13.192 66.1568C14.9894 69.3922 10.0796 68.8658 8.6861 68.1057C7.28218 67.3399 5.9465 66.1442 4.91302 65.4552" stroke="#00ADB5" stroke-opacity="0.2" stroke-width="1.28667" stroke-linecap="round" stroke-linejoin="round"/>
<path d="M10.2453 50.511C10.2835 50.7554 10.3232 52.4053 10.982 52.4053C11.3367 52.4053 11.4999 52.1902 11.8239 52.3702C12.205 52.582 12.5625 53.0804 12.927 53.372C13.2482 53.629 14.2017 53.5972 14.3848 53.9177C14.6839 54.4412 15.2913 54.7278 15.8581 54.7908C16.5931 54.8724 16.8649 55.2414 17.6472 55.0675C17.8864 55.0144 17.9105 54.8609 18.1345 54.8609C18.4803 54.8609 18.6295 55.0263 18.8906 54.7362C19.1796 54.4151 19.6518 54.2647 19.791 53.7773C19.9804 53.1147 20.6744 52.766 19.6468 53.1771" stroke="#00ADB5" stroke-opacity="0.2" stroke-width="1.28667" stroke-linecap="round" stroke-linejoin="round"/>
<path d="M23.7864 22.7275C22.5311 22.7343 21.4936 22.8152 21.0658 24.1463C20.7746 25.052 20.7695 25.9421 20.7695 26.8826C20.7695 27.797 21.3308 28.5321 21.3308 29.3928C21.3308 30.5305 20.4209 30.3442 19.6509 30.6908C18.9234 31.0181 18.3964 31.2916 18.0021 32.0238C17.6116 32.749 17.9067 34.1511 17.9592 34.9394C18.0044 35.6177 18.327 37.0593 17.8579 37.6327C17.6029 37.9444 16.2098 38.4254 17.1212 37.7419" stroke="#00ADB5" stroke-opacity="0.2" stroke-width="1.28667" stroke-linecap="round" stroke-linejoin="round"/>
<path d="M34.3804 35.4265C35.3856 36.0943 36.41 36.6539 37.5337 37.0753C38.0048 37.252 38.6252 37.5672 38.5198 36.8297" stroke="#00ADB5" stroke-opacity="0.2" stroke-width="1.28667" stroke-linecap="round" stroke-linejoin="round"/>
<path d="M38.029 25.7444C39.8104 26.1732 41.5797 26.6566 43.3456 27.132C43.6393 27.2111 42.9652 26.4685 42.9402 26.446" stroke="#00ADB5" stroke-opacity="0.2" stroke-width="1.28667" stroke-linecap="round" stroke-linejoin="round"/>
<path d="M38.52 16.5532C40.3647 16.2851 42.204 15.9524 44.0393 15.6256C44.8842 15.4751 45.2419 15.5859 44.7642 14.8694" stroke="#00ADB5" stroke-opacity="0.2" stroke-width="1.28667" stroke-linecap="round" stroke-linejoin="round"/>
<path d="M28.5571 6.80105C30.0146 6.54492 31.278 6.29812 32.5952 5.6395C33.2118 5.33121 33.8054 4.96067 34.4505 4.71183C35.2172 4.41612 35.2329 4.50615 34.3804 3.99463" stroke="#00ADB5" stroke-opacity="0.2" stroke-width="1.28667" stroke-linecap="round" stroke-linejoin="round"/>
<path d="M15.858 0.486572C15.6453 1.97565 15.7156 2.86751 16.318 4.21677C16.6427 4.94415 16.9174 5.86351 17.078 6.649C17.1334 6.91951 17.1642 7.07348 17.347 7.27655C17.4154 7.35256 17.1644 6.44893 17.1209 6.30989" stroke="#00ADB5" stroke-opacity="0.2" stroke-width="1.28667" stroke-linecap="round" stroke-linejoin="round"/>
<path d="M5.12347 6.4502C5.58924 8.00091 6.25311 9.48843 6.65141 11.0418C6.85293 11.8277 6.72694 11.8755 6.38636 11.0808" stroke="#00ADB5" stroke-opacity="0.2" stroke-width="1.28667" stroke-linecap="round" stroke-linejoin="round"/>
<path d="M0.633362 17.6057C2.2274 18.9854 3.53469 20.6979 4.77283 22.3922C4.928 22.6046 5.10739 22.68 5.27955 22.8522C5.67063 23.2432 4.99551 22.3598 4.91315 22.2363" stroke="#00ADB5" stroke-opacity="0.2" stroke-width="1.28667" stroke-linecap="round" stroke-linejoin="round"/>
</svg>
