<svg width="45" height="69" viewBox="0 0 45 69" fill="none" xmlns="http://www.w3.org/2000/svg">
<path d="M10.2455 51.423C13.4165 45.6756 13.2294 44.0337 12.5063 38.2484C12.108 35.0626 11.9558 31.95 11.1498 28.8158C9.70858 23.211 9.24083 15.6636 13.7535 11.1509C22.6332 2.27125 39.1694 14.8996 34.1625 26.1653C32.2569 30.4529 28.9641 33.6273 26.5851 37.6716C25.631 39.2935 25.0967 41.0516 23.8567 42.5672C22.6675 44.0207 21.1906 45.8296 21.1906 47.6344C21.1906 49.1589 21.6451 51.1355 20.5669 52.4832C19.0775 54.345 19.607 53.3875 17.4019 53.3875C15.8861 53.3875 13.6507 52.1827 12.4283 51.2048C11.5555 50.5065 11.0874 52.526 11.0874 50.5811C11.0874 48.9116 11.6248 50.3005 10.5262 50.3005" stroke="#00ADB5" stroke-opacity="0.2" stroke-width="1.28667" stroke-linecap="round" stroke-linejoin="round"/>
<path d="M17.2612 56.7553C14.26 55.8605 5.95257 53.8623 7.8753 56.3343C10.1951 59.317 11.1873 57.8222 14.0338 58.4547C15.4895 58.7782 16.9088 63.2712 15.2967 63.366C12.9943 63.5014 11.4675 60.4036 9.12259 60.4036C6.98832 60.4036 7.14118 63.2125 8.42099 64.2079C10.111 65.5224 12.0545 64.1094 13.1919 66.1568C14.9893 69.3922 10.0795 68.8658 8.68604 68.1057C7.28212 67.3399 5.94644 66.1442 4.91296 65.4552" stroke="#00ADB5" stroke-opacity="0.2" stroke-width="1.28667" stroke-linecap="round" stroke-linejoin="round"/>
<path d="M10.2454 50.511C10.2835 50.7554 10.3233 52.4053 10.982 52.4053C11.3368 52.4053 11.4999 52.1902 11.824 52.3702C12.2051 52.582 12.5625 53.0804 12.9271 53.372C13.2483 53.629 14.2017 53.5972 14.3848 53.9177C14.684 54.4412 15.2914 54.7278 15.8582 54.7908C16.5932 54.8724 16.865 55.2414 17.6473 55.0675C17.8864 55.0144 17.9105 54.8609 18.1345 54.8609C18.4803 54.8609 18.6296 55.0263 18.8907 54.7362C19.1797 54.4151 19.6518 54.2647 19.7911 53.7773C19.9804 53.1147 20.6745 52.766 19.6469 53.1771" stroke="#00ADB5" stroke-opacity="0.2" stroke-width="1.28667" stroke-linecap="round" stroke-linejoin="round"/>
<path d="M23.7865 22.7275C22.5312 22.7343 21.4937 22.8152 21.0658 24.1463C20.7747 25.052 20.7696 25.9421 20.7696 26.8826C20.7696 27.797 21.3309 28.5321 21.3309 29.3928C21.3309 30.5305 20.421 30.3442 19.6509 30.6908C18.9235 31.0181 18.3964 31.2916 18.0021 32.0238C17.6117 32.749 17.9067 34.1511 17.9593 34.9394C18.0045 35.6177 18.3271 37.0593 17.8579 37.6327C17.603 37.9444 16.2099 38.4254 17.1212 37.7419" stroke="#00ADB5" stroke-opacity="0.2" stroke-width="1.28667" stroke-linecap="round" stroke-linejoin="round"/>
<path d="M34.3804 35.4265C35.3856 36.0943 36.41 36.6539 37.5337 37.0753C38.0048 37.252 38.6252 37.5672 38.5198 36.8297" stroke="#00ADB5" stroke-opacity="0.2" stroke-width="1.28667" stroke-linecap="round" stroke-linejoin="round"/>
<path d="M38.0289 25.7444C39.8103 26.1732 41.5796 26.6566 43.3455 27.132C43.6393 27.2111 42.9652 26.4685 42.9402 26.446" stroke="#00ADB5" stroke-opacity="0.2" stroke-width="1.28667" stroke-linecap="round" stroke-linejoin="round"/>
<path d="M38.5199 16.5532C40.3647 16.2851 42.2039 15.9524 44.0392 15.6256C44.8841 15.4751 45.2418 15.5859 44.7642 14.8694" stroke="#00ADB5" stroke-opacity="0.2" stroke-width="1.28667" stroke-linecap="round" stroke-linejoin="round"/>
<path d="M28.5571 6.80105C30.0146 6.54492 31.278 6.29812 32.5953 5.6395C33.2118 5.33121 33.8055 4.96067 34.4506 4.71183C35.2173 4.41612 35.233 4.50615 34.3805 3.99463" stroke="#00ADB5" stroke-opacity="0.2" stroke-width="1.28667" stroke-linecap="round" stroke-linejoin="round"/>
<path d="M15.858 0.486572C15.6452 1.97565 15.7156 2.86751 16.3179 4.21677C16.6426 4.94415 16.9173 5.86351 17.078 6.649C17.1333 6.91951 17.1642 7.07348 17.3469 7.27655C17.4153 7.35256 17.1643 6.44893 17.1209 6.30989" stroke="#00ADB5" stroke-opacity="0.2" stroke-width="1.28667" stroke-linecap="round" stroke-linejoin="round"/>
<path d="M5.12341 6.4502C5.58918 8.00091 6.25305 9.48843 6.65135 11.0418C6.85286 11.8277 6.72688 11.8755 6.3863 11.0808" stroke="#00ADB5" stroke-opacity="0.2" stroke-width="1.28667" stroke-linecap="round" stroke-linejoin="round"/>
<path d="M0.633301 17.6057C2.22734 18.9854 3.53462 20.6979 4.77277 22.3922C4.92794 22.6046 5.10733 22.68 5.27948 22.8522C5.67057 23.2432 4.99545 22.3598 4.91309 22.2363" stroke="#00ADB5" stroke-opacity="0.2" stroke-width="1.28667" stroke-linecap="round" stroke-linejoin="round"/>
</svg>
