<svg width="45" height="70" viewBox="0 0 45 70" fill="none" xmlns="http://www.w3.org/2000/svg">
<path d="M9.89213 51.8032C13.0631 46.0557 12.876 44.4138 12.1529 38.6286C11.7546 35.4428 11.6024 32.3301 10.7964 29.1959C9.35519 23.5911 8.88743 16.0438 13.4002 11.531C22.2798 2.65138 38.816 15.2798 33.8091 26.5454C31.9035 30.833 28.6107 34.0074 26.2317 38.0517C25.2777 39.6736 24.7433 41.4318 23.5033 42.9473C22.3141 44.4008 20.8372 46.2097 20.8372 48.0145C20.8372 49.539 21.2917 51.5156 20.2135 52.8634C18.7241 54.7251 19.2536 53.7677 17.0485 53.7677C15.5327 53.7677 13.2973 52.5628 12.0749 51.5849C11.2021 50.8867 10.7341 52.9061 10.7341 50.9612C10.7341 49.2917 11.2714 50.6806 10.1728 50.6806" stroke="#00ADB5" stroke-opacity="0.2" stroke-width="1.28667" stroke-linecap="round" stroke-linejoin="round"/>
<path d="M16.9079 57.1354C13.9067 56.2407 5.5993 54.2424 7.52202 56.7145C9.84186 59.6971 10.834 58.2023 13.6806 58.8349C15.1362 59.1584 16.5555 63.6513 14.9434 63.7461C12.641 63.8815 11.1143 60.7838 8.76932 60.7838C6.63505 60.7838 6.78791 63.5926 8.06772 64.588C9.75775 65.9025 11.7012 64.4896 12.8386 66.5369C14.6361 69.7723 9.72628 69.2459 8.33277 68.4858C6.92884 67.7201 5.59317 66.5243 4.55969 65.8353" stroke="#00ADB5" stroke-opacity="0.2" stroke-width="1.28667" stroke-linecap="round" stroke-linejoin="round"/>
<path d="M9.89197 50.8911C9.93015 51.1355 9.96988 52.7854 10.6287 52.7854C10.9834 52.7854 11.1465 52.5703 11.4706 52.7504C11.8517 52.9621 12.2091 53.4605 12.5737 53.7521C12.8949 54.0091 13.8483 53.9773 14.0314 54.2978C14.3306 54.8214 14.938 55.1079 15.5048 55.1709C16.2398 55.2526 16.5116 55.6215 17.2939 55.4476C17.533 55.3945 17.5572 55.2411 17.7811 55.2411C18.127 55.2411 18.2762 55.4064 18.5373 55.1163C18.8263 54.7952 19.2984 54.6449 19.4377 54.1575C19.627 53.4948 20.3211 53.1462 19.2935 53.5572" stroke="#00ADB5" stroke-opacity="0.2" stroke-width="1.28667" stroke-linecap="round" stroke-linejoin="round"/>
<path d="M23.4331 23.1077C22.1778 23.1145 21.1403 23.1953 20.7124 24.5265C20.4213 25.4322 20.4162 26.3222 20.4162 27.2627C20.4162 28.1771 20.9775 28.9122 20.9775 29.7729C20.9775 30.9106 20.0676 30.7243 19.2975 31.0709C18.5701 31.3982 18.043 31.6717 17.6487 32.4039C17.2583 33.1291 17.5533 34.5312 17.6059 35.3195C17.6511 35.9978 17.9737 37.4394 17.5045 38.0129C17.2496 38.3245 15.8565 38.8055 16.7678 38.122" stroke="#00ADB5" stroke-opacity="0.2" stroke-width="1.28667" stroke-linecap="round" stroke-linejoin="round"/>
<path d="M34.027 35.8066C35.0322 36.4745 36.0566 37.034 37.1804 37.4554C37.6515 37.6321 38.2719 37.9474 38.1665 37.2099" stroke="#00ADB5" stroke-opacity="0.2" stroke-width="1.28667" stroke-linecap="round" stroke-linejoin="round"/>
<path d="M37.6757 26.1245C39.457 26.5534 41.2264 27.0367 42.9923 27.5121C43.286 27.5912 42.6119 26.8486 42.5869 26.8261" stroke="#00ADB5" stroke-opacity="0.2" stroke-width="1.28667" stroke-linecap="round" stroke-linejoin="round"/>
<path d="M38.1666 16.9334C40.0114 16.6652 41.8506 16.3325 43.6859 16.0057C44.5308 15.8552 44.8886 15.966 44.4109 15.2495" stroke="#00ADB5" stroke-opacity="0.2" stroke-width="1.28667" stroke-linecap="round" stroke-linejoin="round"/>
<path d="M28.2037 7.18118C29.6612 6.92505 30.9246 6.67825 32.2419 6.01963C32.8584 5.71134 33.4521 5.3408 34.0972 5.09195C34.8639 4.79624 34.8796 4.88627 34.0271 4.37476" stroke="#00ADB5" stroke-opacity="0.2" stroke-width="1.28667" stroke-linecap="round" stroke-linejoin="round"/>
<path d="M15.5047 0.866699C15.292 2.35578 15.3623 3.24764 15.9646 4.5969C16.2894 5.32428 16.564 6.24363 16.7247 7.02913C16.78 7.29964 16.8109 7.45361 16.9937 7.65668C17.0621 7.73269 16.811 6.82906 16.7676 6.69002" stroke="#00ADB5" stroke-opacity="0.2" stroke-width="1.28667" stroke-linecap="round" stroke-linejoin="round"/>
<path d="M4.77014 6.83032C5.2359 8.38104 5.89978 9.86855 6.29808 11.4219C6.49959 12.2078 6.37361 12.2556 6.03303 11.4609" stroke="#00ADB5" stroke-opacity="0.2" stroke-width="1.28667" stroke-linecap="round" stroke-linejoin="round"/>
<path d="M0.280029 17.9858C1.87407 19.3655 3.18135 21.078 4.4195 22.7723C4.57467 22.9847 4.75406 23.0601 4.92621 23.2323C5.3173 23.6234 4.64218 22.74 4.55982 22.6164" stroke="#00ADB5" stroke-opacity="0.2" stroke-width="1.28667" stroke-linecap="round" stroke-linejoin="round"/>
</svg>
