<svg width="58" height="89" viewBox="0 0 58 89" fill="none" xmlns="http://www.w3.org/2000/svg">
<path d="M12.5426 66.3113C16.6419 58.8814 16.4 56.7588 15.4651 49.2799C14.9503 45.1615 14.7535 41.1376 13.7116 37.0859C11.8485 29.8403 11.2438 20.0835 17.0776 14.2497C28.5567 2.77057 49.9338 19.0959 43.4611 33.6594C40.9977 39.2022 36.741 43.306 33.6656 48.5342C32.4322 50.6309 31.7414 52.9038 30.1383 54.863C28.601 56.7419 26.6918 59.0805 26.6918 61.4136C26.6918 63.3843 27.2793 65.9397 25.8855 67.6819C23.9601 70.0887 24.6446 68.8509 21.794 68.8509C19.8344 68.8509 16.9447 67.2934 15.3644 66.0292C14.2361 65.1265 13.631 67.7372 13.631 65.2229C13.631 63.0647 14.3257 64.8601 12.9054 64.8601" stroke="#00ADB5" stroke-opacity="0.5" stroke-width="1.66333" stroke-linecap="round" stroke-linejoin="round"/>
<path d="M21.6126 73.2045C17.7327 72.0478 6.99336 69.4646 9.47896 72.6603C12.4779 76.5162 13.7605 74.5837 17.4404 75.4015C19.3222 75.8197 21.157 81.6279 19.073 81.7505C16.0965 81.9256 14.1228 77.9209 11.0914 77.9209C8.33232 77.9209 8.52994 81.5521 10.1844 82.8389C12.3692 84.5381 14.8816 82.7116 16.352 85.3583C18.6756 89.5408 12.3285 88.8604 10.527 87.8777C8.71212 86.8878 6.98543 85.342 5.64941 84.4513" stroke="#00ADB5" stroke-opacity="0.5" stroke-width="1.66333" stroke-linecap="round" stroke-linejoin="round"/>
<path d="M12.5426 65.1323C12.592 65.4482 12.6433 67.5812 13.4949 67.5812C13.9535 67.5812 14.1644 67.3031 14.5833 67.5359C15.076 67.8096 15.5381 68.4539 16.0093 68.8309C16.4246 69.1631 17.6572 69.122 17.8939 69.5363C18.2806 70.2131 19.0658 70.5836 19.7986 70.665C20.7487 70.7706 21.1001 71.2475 22.1114 71.0228C22.4205 70.9541 22.4517 70.7557 22.7413 70.7557C23.1883 70.7557 23.3813 70.9695 23.7188 70.5945C24.0924 70.1794 24.7028 69.985 24.8828 69.3549C25.1276 68.4982 26.0248 68.0475 24.6964 68.5789" stroke="#00ADB5" stroke-opacity="0.5" stroke-width="1.66333" stroke-linecap="round" stroke-linejoin="round"/>
<path d="M30.0475 29.2152C28.4247 29.224 27.0835 29.3286 26.5304 31.0494C26.154 32.2202 26.1474 33.3708 26.1474 34.5866C26.1474 35.7687 26.873 36.719 26.873 37.8317C26.873 39.3025 25.6968 39.0616 24.7013 39.5096C23.7609 39.9328 23.0795 40.2863 22.5698 41.2329C22.065 42.1704 22.4465 43.983 22.5144 45.002C22.5728 45.8789 22.9899 47.7426 22.3834 48.4839C22.0538 48.8867 20.2529 49.5086 21.431 48.6249" stroke="#00ADB5" stroke-opacity="0.5" stroke-width="1.66333" stroke-linecap="round" stroke-linejoin="round"/>
<path d="M43.7433 45.6318C45.0427 46.4952 46.367 47.2185 47.8197 47.7633C48.4288 47.9917 49.2308 48.3992 49.0946 47.4458" stroke="#00ADB5" stroke-opacity="0.5" stroke-width="1.66333" stroke-linecap="round" stroke-linejoin="round"/>
<path d="M48.4595 33.1152C50.7623 33.6696 53.0496 34.2945 55.3325 34.9091C55.7122 35.0113 54.8408 34.0513 54.8085 34.0222" stroke="#00ADB5" stroke-opacity="0.5" stroke-width="1.66333" stroke-linecap="round" stroke-linejoin="round"/>
<path d="M49.0945 21.2337C51.4793 20.887 53.857 20.4569 56.2295 20.0344C57.3218 19.8399 57.7843 19.9831 57.1668 19.0569" stroke="#00ADB5" stroke-opacity="0.5" stroke-width="1.66333" stroke-linecap="round" stroke-linejoin="round"/>
<path d="M36.2152 8.6264C38.0994 8.29529 39.7326 7.97624 41.4355 7.12482C42.2326 6.72628 43 6.24726 43.834 5.92557C44.8251 5.54329 44.8454 5.65968 43.7433 4.99841" stroke="#00ADB5" stroke-opacity="0.5" stroke-width="1.66333" stroke-linecap="round" stroke-linejoin="round"/>
<path d="M19.7985 0.463379C19.5235 2.38838 19.6144 3.54133 20.3931 5.28558C20.8129 6.22589 21.168 7.41439 21.3757 8.42984C21.4472 8.77953 21.4871 8.97858 21.7233 9.2411C21.8118 9.33936 21.4873 8.17119 21.4311 7.99145" stroke="#00ADB5" stroke-opacity="0.5" stroke-width="1.66333" stroke-linecap="round" stroke-linejoin="round"/>
<path d="M5.92139 8.17285C6.5235 10.1775 7.38172 12.1005 7.89662 14.1086C8.15713 15.1246 7.99426 15.1864 7.55398 14.159" stroke="#00ADB5" stroke-opacity="0.5" stroke-width="1.66333" stroke-linecap="round" stroke-linejoin="round"/>
<path d="M0.116699 22.5941C2.17739 24.3776 3.86737 26.5915 5.46798 28.7819C5.66857 29.0563 5.90049 29.1539 6.12304 29.3764C6.62861 29.882 5.75585 28.74 5.64938 28.5803" stroke="#00ADB5" stroke-opacity="0.5" stroke-width="1.66333" stroke-linecap="round" stroke-linejoin="round"/>
</svg>
