<svg width="58" height="89" viewBox="0 0 58 89" fill="none" xmlns="http://www.w3.org/2000/svg">
<path d="M12.8058 66.4847C16.9051 59.0547 16.6632 56.9321 15.7283 49.4533C15.2135 45.3348 15.0167 41.3109 13.9748 37.2592C12.1117 30.0136 11.507 20.2568 17.3408 14.423C28.8199 2.94391 50.197 19.2692 43.7243 33.8328C41.2608 39.3756 37.0042 43.4793 33.9287 48.7075C32.6954 50.8043 32.0045 53.0771 30.4015 55.0364C28.8642 56.9153 26.9549 59.2538 26.9549 61.5869C26.9549 63.5577 27.5425 66.113 26.1487 67.8552C24.2233 70.262 24.9078 69.0243 22.0572 69.0243C20.0976 69.0243 17.2079 67.4667 15.6276 66.2025C14.4993 65.2999 13.8942 67.9105 13.8942 65.3963C13.8942 63.238 14.5889 65.0335 13.1686 65.0335" stroke="#00ADB5" stroke-opacity="0.5" stroke-width="1.66333" stroke-linecap="round" stroke-linejoin="round"/>
<path d="M21.8759 73.3779C17.996 72.2212 7.25666 69.6379 9.74226 72.8337C12.7412 76.6895 14.0238 74.7571 17.7037 75.5748C19.5855 75.993 21.4203 81.8012 19.3363 81.9238C16.3598 82.0989 14.3861 78.0943 11.3547 78.0943C8.59562 78.0943 8.79324 81.7254 10.4477 83.0122C12.6325 84.7115 15.1449 82.8849 16.6153 85.5316C18.9389 89.7142 12.5918 89.0337 10.7903 88.0511C8.97543 87.0611 7.24874 85.5153 5.91272 84.6246" stroke="#00ADB5" stroke-opacity="0.5" stroke-width="1.66333" stroke-linecap="round" stroke-linejoin="round"/>
<path d="M12.8058 65.3057C12.8551 65.6216 12.9065 67.7546 13.7581 67.7546C14.2167 67.7546 14.4276 67.4765 14.8465 67.7092C15.3392 67.9829 15.8013 68.6272 16.2725 69.0042C16.6878 69.3364 17.9204 69.2954 18.1571 69.7096C18.5438 70.3865 19.329 70.7569 20.0618 70.8383C21.0119 70.9439 21.3633 71.4208 22.3746 71.1961C22.6837 71.1274 22.7149 70.929 23.0045 70.929C23.4515 70.929 23.6445 71.1428 23.982 70.7678C24.3556 70.3527 24.966 70.1583 25.146 69.5282C25.3907 68.6716 26.288 68.2209 24.9595 68.7523" stroke="#00ADB5" stroke-opacity="0.5" stroke-width="1.66333" stroke-linecap="round" stroke-linejoin="round"/>
<path d="M30.3108 29.3885C28.688 29.3973 27.3468 29.5019 26.7937 31.2227C26.4173 32.3935 26.4107 33.5442 26.4107 34.76C26.4107 35.942 27.1363 36.8924 27.1363 38.005C27.1363 39.4758 25.9601 39.235 24.9646 39.683C24.0242 40.1061 23.3428 40.4596 22.8331 41.4063C22.3283 42.3437 22.7098 44.1563 22.7777 45.1753C22.8361 46.0522 23.2532 47.9159 22.6467 48.6572C22.3171 49.06 20.5162 49.6819 21.6943 48.7983" stroke="#00ADB5" stroke-opacity="0.5" stroke-width="1.66333" stroke-linecap="round" stroke-linejoin="round"/>
<path d="M44.0065 45.8052C45.3059 46.6685 46.6302 47.3919 48.0829 47.9366C48.692 48.165 49.494 48.5726 49.3578 47.6192" stroke="#00ADB5" stroke-opacity="0.5" stroke-width="1.66333" stroke-linecap="round" stroke-linejoin="round"/>
<path d="M48.7229 33.2886C51.0258 33.843 53.3131 34.4678 55.5959 35.0824C55.9756 35.1846 55.1042 34.2247 55.0719 34.1956" stroke="#00ADB5" stroke-opacity="0.5" stroke-width="1.66333" stroke-linecap="round" stroke-linejoin="round"/>
<path d="M49.3578 21.407C51.7426 21.0604 54.1203 20.6303 56.4928 20.2078C57.5851 20.0133 58.0476 20.1565 57.4301 19.2302" stroke="#00ADB5" stroke-opacity="0.5" stroke-width="1.66333" stroke-linecap="round" stroke-linejoin="round"/>
<path d="M36.4786 8.79974C38.3628 8.46863 39.9961 8.14958 41.6989 7.29816C42.496 6.89962 43.2634 6.4206 44.0974 6.09891C45.0885 5.71663 45.1088 5.83302 44.0067 5.17175" stroke="#00ADB5" stroke-opacity="0.5" stroke-width="1.66333" stroke-linecap="round" stroke-linejoin="round"/>
<path d="M20.0618 0.636719C19.7868 2.56172 19.8777 3.71467 20.6564 5.45892C21.0762 6.39923 21.4313 7.58773 21.639 8.60318C21.7105 8.95287 21.7504 9.15192 21.9866 9.41444C22.0751 9.5127 21.7506 8.34453 21.6944 8.16479" stroke="#00ADB5" stroke-opacity="0.5" stroke-width="1.66333" stroke-linecap="round" stroke-linejoin="round"/>
<path d="M6.18469 8.34619C6.7868 10.3509 7.64502 12.2739 8.15993 14.282C8.42043 15.2979 8.25757 15.3597 7.81729 14.3324" stroke="#00ADB5" stroke-opacity="0.5" stroke-width="1.66333" stroke-linecap="round" stroke-linejoin="round"/>
<path d="M0.379883 22.7675C2.44058 24.551 4.13056 26.7649 5.73117 28.9552C5.93176 29.2297 6.16367 29.3272 6.38622 29.5498C6.89179 30.0554 6.01904 28.9133 5.91257 28.7536" stroke="#00ADB5" stroke-opacity="0.5" stroke-width="1.66333" stroke-linecap="round" stroke-linejoin="round"/>
</svg>
