<svg width="45" height="70" viewBox="0 0 45 70" fill="none" xmlns="http://www.w3.org/2000/svg">
<path d="M9.93217 51.8498C13.1032 46.1024 12.9161 44.4604 12.1929 38.6752C11.7947 35.4894 11.6424 32.3767 10.8365 29.2425C9.39523 23.6377 8.92747 16.0904 13.4402 11.5777C22.3198 2.69801 38.856 15.3264 33.8491 26.592C31.9435 30.8796 28.6507 34.0541 26.2718 38.0983C25.3177 39.7203 24.7833 41.4784 23.5433 42.994C22.3541 44.4474 20.8772 46.2564 20.8772 48.0611C20.8772 49.5856 21.3317 51.5623 20.2536 52.91C18.7641 54.7718 19.2936 53.8143 17.0885 53.8143C15.5727 53.8143 13.3374 52.6095 12.1149 51.6315C11.2422 50.9333 10.7741 52.9528 10.7741 51.0079C10.7741 49.3384 11.3115 50.7272 10.2128 50.7272" stroke="#00ADB5" stroke-opacity="0.2" stroke-width="1.28667" stroke-linecap="round" stroke-linejoin="round"/>
<path d="M16.948 57.1821C13.9467 56.2873 5.63933 54.289 7.56206 56.7611C9.8819 59.7437 10.874 58.2489 13.7206 58.8815C15.1763 59.205 16.5956 63.6979 14.9835 63.7927C12.6811 63.9282 11.1543 60.8304 8.80936 60.8304C6.67508 60.8304 6.82795 63.6393 8.10776 64.6347C9.79778 65.9491 11.7412 64.5362 12.8787 66.5836C14.6761 69.819 9.76631 69.2926 8.37281 68.5325C6.96888 67.7667 5.6332 66.5709 4.59973 65.882" stroke="#00ADB5" stroke-opacity="0.2" stroke-width="1.28667" stroke-linecap="round" stroke-linejoin="round"/>
<path d="M9.93201 50.9377C9.97019 51.1821 10.0099 52.8321 10.6687 52.8321C11.0234 52.8321 11.1866 52.617 11.5106 52.797C11.8917 53.0087 12.2492 53.5071 12.6137 53.7987C12.9349 54.0557 13.8884 54.024 14.0715 54.3444C14.3707 54.868 14.978 55.1546 15.5448 55.2175C16.2798 55.2992 16.5516 55.6681 17.3339 55.4943C17.5731 55.4411 17.5972 55.2877 17.8212 55.2877C18.167 55.2877 18.3162 55.4531 18.5773 55.163C18.8663 54.8419 19.3385 54.6915 19.4777 54.2041C19.6671 53.5414 20.3612 53.1928 19.3335 53.6038" stroke="#00ADB5" stroke-opacity="0.2" stroke-width="1.28667" stroke-linecap="round" stroke-linejoin="round"/>
<path d="M23.4731 23.1543C22.2178 23.1611 21.1803 23.242 20.7525 24.5731C20.4613 25.4788 20.4562 26.3689 20.4562 27.3094C20.4562 28.2237 21.0175 28.9589 21.0175 29.8195C21.0175 30.9573 20.1076 30.771 19.3376 31.1175C18.6101 31.4449 18.0831 31.7183 17.6888 32.4506C17.2983 33.1757 17.5934 34.5779 17.6459 35.3661C17.6911 36.0444 18.0137 37.4861 17.5446 38.0595C17.2896 38.3711 15.8965 38.8522 16.8079 38.1686" stroke="#00ADB5" stroke-opacity="0.2" stroke-width="1.28667" stroke-linecap="round" stroke-linejoin="round"/>
<path d="M34.067 35.8533C35.0722 36.5211 36.0966 37.0806 37.2203 37.502C37.6915 37.6787 38.3118 37.994 38.2065 37.2565" stroke="#00ADB5" stroke-opacity="0.2" stroke-width="1.28667" stroke-linecap="round" stroke-linejoin="round"/>
<path d="M37.7156 26.1711C39.497 26.6 41.2663 27.0833 43.0322 27.5588C43.3259 27.6378 42.6518 26.8952 42.6268 26.8727" stroke="#00ADB5" stroke-opacity="0.2" stroke-width="1.28667" stroke-linecap="round" stroke-linejoin="round"/>
<path d="M38.2067 16.98C40.0514 16.7119 41.8907 16.3791 43.726 16.0523C44.5709 15.9019 44.9286 16.0126 44.4509 15.2961" stroke="#00ADB5" stroke-opacity="0.2" stroke-width="1.28667" stroke-linecap="round" stroke-linejoin="round"/>
<path d="M28.2438 7.22781C29.7013 6.97168 30.9647 6.72488 32.2819 6.06626C32.8985 5.75797 33.4921 5.38743 34.1373 5.13858C34.9039 4.84287 34.9196 4.9329 34.0671 4.42139" stroke="#00ADB5" stroke-opacity="0.2" stroke-width="1.28667" stroke-linecap="round" stroke-linejoin="round"/>
<path d="M15.5447 0.91333C15.332 2.40241 15.4023 3.29427 16.0047 4.64353C16.3294 5.37091 16.6041 6.29026 16.7647 7.07576C16.8201 7.34627 16.8509 7.50024 17.0337 7.70331C17.1021 7.77932 16.8511 6.87569 16.8076 6.73665" stroke="#00ADB5" stroke-opacity="0.2" stroke-width="1.28667" stroke-linecap="round" stroke-linejoin="round"/>
<path d="M4.81018 6.87695C5.27594 8.42767 5.93982 9.91518 6.33812 11.4686C6.53963 12.2545 6.41365 12.3022 6.07307 11.5075" stroke="#00ADB5" stroke-opacity="0.2" stroke-width="1.28667" stroke-linecap="round" stroke-linejoin="round"/>
<path d="M0.319946 18.0325C1.91399 19.4121 3.22127 21.1247 4.45942 22.819C4.61458 23.0313 4.79398 23.1068 4.96613 23.2789C5.35722 23.67 4.6821 22.7866 4.59974 22.6631" stroke="#00ADB5" stroke-opacity="0.2" stroke-width="1.28667" stroke-linecap="round" stroke-linejoin="round"/>
</svg>
