<svg width="58" height="89" viewBox="0 0 58 89" fill="none" xmlns="http://www.w3.org/2000/svg">
<path d="M12.4459 66.4813C16.5452 59.0513 16.3033 56.9287 15.3685 49.4499C14.8537 45.3314 14.6568 41.3075 13.6149 37.2558C11.7518 30.0102 11.1471 20.2534 16.9809 14.4196C28.46 2.94049 49.8371 19.2658 43.3644 33.8294C40.901 39.3721 36.6443 43.4759 33.5689 48.7041C32.3355 50.8009 31.6447 53.0737 30.0417 55.0329C28.5044 56.9119 26.5951 59.2504 26.5951 61.5835C26.5951 63.5543 27.1827 66.1096 25.7889 67.8518C23.8634 70.2586 24.5479 69.0208 21.6973 69.0208C19.7377 69.0208 16.848 67.4633 15.2677 66.1991C14.1394 65.2965 13.5343 67.9071 13.5343 65.3929C13.5343 63.2346 14.229 65.0301 12.8087 65.0301" stroke="#00ADB5" stroke-opacity="0.5" stroke-width="1.66333" stroke-linecap="round" stroke-linejoin="round"/>
<path d="M21.5159 73.3745C17.636 72.2177 6.89668 69.6345 9.38228 72.8303C12.3812 76.6861 13.6638 74.7537 17.3437 75.5714C19.2255 75.9896 21.0603 81.7978 18.9763 81.9204C15.9999 82.0955 14.0261 78.0909 10.9947 78.0909C8.23564 78.0909 8.43326 81.722 10.0877 83.0088C12.2725 84.7081 14.7849 82.8815 16.2553 85.5282C18.5789 89.7108 12.2318 89.0303 10.4304 88.0477C8.61545 87.0577 6.88875 85.5119 5.55273 84.6212" stroke="#00ADB5" stroke-opacity="0.5" stroke-width="1.66333" stroke-linecap="round" stroke-linejoin="round"/>
<path d="M12.4459 65.3022C12.4953 65.6181 12.5466 67.7511 13.3983 67.7511C13.8568 67.7511 14.0677 67.4731 14.4867 67.7058C14.9794 67.9795 15.4414 68.6238 15.9127 69.0008C16.328 69.333 17.5605 69.292 17.7972 69.7062C18.184 70.3831 18.9691 70.7535 19.7019 70.8349C20.652 70.9405 21.0034 71.4174 22.0147 71.1927C22.3239 71.124 22.3551 70.9256 22.6446 70.9256C23.0917 70.9256 23.2846 71.1394 23.6221 70.7644C23.9957 70.3493 24.6061 70.1549 24.7861 69.5248C25.0309 68.6682 25.9282 68.2174 24.5997 68.7488" stroke="#00ADB5" stroke-opacity="0.5" stroke-width="1.66333" stroke-linecap="round" stroke-linejoin="round"/>
<path d="M29.9508 29.3851C28.3281 29.3939 26.9868 29.4985 26.4337 31.2193C26.0573 32.3901 26.0507 33.5407 26.0507 34.7566C26.0507 35.9386 26.7763 36.889 26.7763 38.0016C26.7763 39.4724 25.6001 39.2316 24.6046 39.6795C23.6642 40.1027 22.9828 40.4562 22.4731 41.4028C21.9684 42.3403 22.3498 44.1529 22.4177 45.1719C22.4762 46.0488 22.8932 47.9125 22.2867 48.6538C21.9571 49.0566 20.1562 49.6785 21.3343 48.7949" stroke="#00ADB5" stroke-opacity="0.5" stroke-width="1.66333" stroke-linecap="round" stroke-linejoin="round"/>
<path d="M43.6466 45.8018C44.9461 46.6651 46.2704 47.3884 47.7231 47.9332C48.3321 48.1616 49.1341 48.5692 48.9979 47.6158" stroke="#00ADB5" stroke-opacity="0.5" stroke-width="1.66333" stroke-linecap="round" stroke-linejoin="round"/>
<path d="M48.3628 33.2852C50.6657 33.8396 52.9529 34.4644 55.2358 35.079C55.6155 35.1812 54.7441 34.2212 54.7118 34.1922" stroke="#00ADB5" stroke-opacity="0.5" stroke-width="1.66333" stroke-linecap="round" stroke-linejoin="round"/>
<path d="M48.9977 21.4036C51.3825 21.057 53.7602 20.6269 56.1327 20.2043C57.225 20.0098 57.6874 20.153 57.07 19.2268" stroke="#00ADB5" stroke-opacity="0.5" stroke-width="1.66333" stroke-linecap="round" stroke-linejoin="round"/>
<path d="M36.1185 8.79632C38.0027 8.46521 39.636 8.14617 41.3388 7.29474C42.1359 6.8962 42.9033 6.41718 43.7373 6.09549C44.7284 5.71321 44.7487 5.8296 43.6466 5.16833" stroke="#00ADB5" stroke-opacity="0.5" stroke-width="1.66333" stroke-linecap="round" stroke-linejoin="round"/>
<path d="M19.7018 0.633301C19.4268 2.5583 19.5177 3.71125 20.2964 5.4555C20.7162 6.39582 21.0713 7.58431 21.279 8.59976C21.3505 8.94945 21.3904 9.1485 21.6267 9.41102C21.7151 9.50928 21.3906 8.34111 21.3344 8.16138" stroke="#00ADB5" stroke-opacity="0.5" stroke-width="1.66333" stroke-linecap="round" stroke-linejoin="round"/>
<path d="M5.82483 8.34277C6.42694 10.3475 7.28516 12.2704 7.80007 14.2786C8.06057 15.2945 7.89771 15.3563 7.45742 14.329" stroke="#00ADB5" stroke-opacity="0.5" stroke-width="1.66333" stroke-linecap="round" stroke-linejoin="round"/>
<path d="M0.0200195 22.764C2.08071 24.5476 3.77069 26.7615 5.3713 28.9518C5.57189 29.2263 5.80381 29.3238 6.02636 29.5464C6.53193 30.0519 5.65917 28.9099 5.5527 28.7502" stroke="#00ADB5" stroke-opacity="0.5" stroke-width="1.66333" stroke-linecap="round" stroke-linejoin="round"/>
</svg>
