<svg width="53" height="44" viewBox="0 0 53 44" fill="none" xmlns="http://www.w3.org/2000/svg">
<path d="M6.2583 29.8473C9.12356 23.0911 7.95004 17.2041 7.95004 10.2024C7.95004 8.84038 7.70291 4.69141 9.13426 3.94884C11.3916 2.77776 13.501 1.99632 16.1644 1.99632C17.9351 1.99632 19.7141 2.04733 21.484 1.99632C23.2541 1.94531 24.9688 1.22524 26.719 1.01085C29.9754 0.61197 33.3624 1.16742 36.5781 1.16742C39.1313 1.16742 41.7726 1.49898 44.2285 1.49898C44.6645 1.49898 46.4421 1.70688 46.7285 1.95948C47.6051 2.73258 47.3541 3.97239 48.0443 4.6488" stroke="#00ADB5" stroke-opacity="0.2" stroke-width="1.28667" stroke-linecap="round" stroke-linejoin="round"/>
<path d="M47.876 5.24756C47.9874 7.24131 48.0292 10.0391 48.8495 11.9872C49.381 13.2497 48.9572 14.9299 49.0648 16.2744C49.2712 18.8555 48.8869 21.3712 48.8869 23.8753C48.8869 27.2344 49.0554 30.5505 49.0554 33.8912C49.0554 36.7586 46.2537 36.2785 44.0381 35.8757C42.124 35.5277 39.5554 36.2255 37.5605 36.2501C33.7119 36.2976 29.8453 36.5871 25.9907 36.5871C22.7714 36.5871 20.3809 35.6522 17.4163 34.5277C15.8333 33.9273 14.8764 34.0597 13.176 34.0597C11.5655 34.0597 10.2411 33.8079 8.62666 34.3124C7.68213 34.6076 5.99064 34.3528 5.4534 33.3857C4.80919 32.2262 6.08992 31.7233 6.08992 30.7741C6.08992 29.9771 5.98975 27.6981 6.25841 29.8474" stroke="#00ADB5" stroke-opacity="0.2" stroke-width="1.28667" stroke-linecap="round" stroke-linejoin="round"/>
<path d="M25.4665 9.62825C25.4665 9.62825 26.1405 9.96524 26.8144 10.6392C27.4884 11.1447 28.9071 10.892 30.1 10.892C30.7277 10.892 31.3906 10.4027 31.9535 10.1525C33.0936 9.64576 32.4136 10.5989 32.1407 11.1447C31.8386 11.749 32.1836 12.8723 32.7304 13.2509C33.6326 13.8755 34.5252 13.3364 35.4075 12.8952C35.7739 12.712 35.6733 12.6271 35.7866 12.8765C35.9404 13.2147 35.913 13.7055 35.913 14.0746C35.913 14.9146 35.8579 16.3101 35.4075 17.0419C34.8151 18.0046 34.2166 18.6277 33.2639 19.3353C32.3229 20.0344 31.0795 21.2543 29.8286 21.2543C27.3841 21.2543 24.7895 20.7216 23.5663 18.3431C23.0478 17.3349 22.0967 16.5094 22.0967 15.357C22.0967 14.3955 21.7785 13.2433 22.0967 12.3241C22.4823 11.21 23.4446 10.1525 23.1076 10.1525C23.2794 10.2016 24.7925 9.29127 25.4665 9.62825Z" stroke="#00ADB5" stroke-opacity="0.2" stroke-width="1.28667" stroke-linecap="round" stroke-linejoin="round"/>
<path d="M28.2465 9.03852C29.1945 8.68767 31.3595 7.9526 31.8691 6.80601C32.263 5.91987 30.9612 5.75293 30.2684 5.75293C29.4282 5.75293 28.4326 6.91412 28.2091 7.64847C28.0848 8.05684 27.9667 8.47477 27.844 8.88875C27.7849 9.08831 27.8638 9.23299 27.9049 9.41763C27.9361 9.55827 29.2216 8.88335 29.1732 8.69005" stroke="#00ADB5" stroke-opacity="0.2" stroke-width="1.28667" stroke-linecap="round" stroke-linejoin="round"/>
<path d="M44.9283 27.9975L7.96675 28.8093C4.02047 28.896 0.866577 32.1199 0.866577 36.0671C0.866577 40.0765 4.11681 43.3267 8.12617 43.3267H45.0966C49.3302 43.3267 52.7621 39.8947 52.7621 35.6612C52.7621 31.3617 49.2267 27.9031 44.9283 27.9975Z" fill="#00ADB5" fill-opacity="0.2" stroke="#00ADB5" stroke-opacity="0.2" stroke-width="1.28667"/>
<path d="M16.1382 28.6058C16.6978 29.4735 17.1809 30.5148 17.823 31.3175C18.146 31.7212 18.0942 31.6391 18.7203 31.4072C19.7654 31.0201 20.9496 31.2975 22.04 31.2975C22.9973 31.2975 24.1103 30.7978 25.0407 31.0483C26.1186 31.3385 27.3893 30.7844 28.4502 30.7592C29.7286 30.7287 30.9472 30.8489 32.2186 30.8489C32.9851 30.8489 33.7323 30.4003 34.4417 30.4003C34.8533 30.4003 36.0265 30.7265 36.0567 29.9716C36.0714 29.6039 36.2361 29.2467 36.2361 28.875C36.2361 28.3723 35.9353 28.59 35.4286 28.3367" stroke="#00ADB5" stroke-opacity="0.2" stroke-width="1.28667" stroke-linecap="round" stroke-linejoin="round"/>
</svg>
