<svg width="68" height="56" viewBox="0 0 68 56" fill="none" xmlns="http://www.w3.org/2000/svg">
<path d="M7.60339 37.5979C11.3074 28.8639 9.79039 21.2534 9.79039 12.202C9.79039 10.4412 9.47091 5.07768 11.3213 4.11773C14.2394 2.60382 16.9664 1.59362 20.4095 1.59362C22.6985 1.59362 24.9983 1.65956 27.2863 1.59362C29.5747 1.52766 31.7913 0.596799 34.0539 0.319658C38.2636 -0.195999 42.6421 0.522063 46.7992 0.522063C50.0998 0.522063 53.5144 0.950685 56.6892 0.950685C57.2529 0.950685 59.5509 1.21944 59.9211 1.54599C61.0543 2.54541 60.7298 4.14818 61.6221 5.0226" stroke="#00ADB5" stroke-opacity="0.5" stroke-width="1.66333" stroke-linecap="round" stroke-linejoin="round"/>
<path d="M61.4043 5.79651C61.5484 8.37392 61.6024 11.9907 62.6628 14.5092C63.35 16.1412 62.8021 18.3133 62.9411 20.0515C63.2081 23.3881 62.7112 26.6403 62.7112 29.8774C62.7112 34.2199 62.929 38.5068 62.929 42.8255C62.929 46.5323 59.3072 45.9117 56.4429 45.3909C53.9685 44.941 50.648 45.8431 48.069 45.8749C43.0938 45.9363 38.0952 46.3106 33.1122 46.3106C28.9506 46.3106 25.8602 45.102 22.0278 43.6483C19.9813 42.8721 18.7442 43.0433 16.546 43.0433C14.4641 43.0433 12.752 42.7178 10.6649 43.37C9.4439 43.7516 7.25724 43.4222 6.56271 42.172C5.72991 40.673 7.38558 40.0229 7.38558 38.7959C7.38558 37.7656 7.25608 34.8193 7.60339 37.5979" stroke="#00ADB5" stroke-opacity="0.5" stroke-width="1.66333" stroke-linecap="round" stroke-linejoin="round"/>
<path d="M32.4348 11.4598C32.4348 11.4598 33.306 11.8954 34.1773 12.7667C35.0486 13.4202 36.8826 13.0935 38.4248 13.0935C39.2362 13.0935 40.0932 12.4609 40.8208 12.1375C42.2947 11.4824 41.4156 12.7146 41.0628 13.4202C40.6722 14.2013 41.1182 15.6535 41.8251 16.1429C42.9914 16.9504 44.1453 16.2534 45.286 15.6831C45.7596 15.4463 45.6295 15.3365 45.7761 15.6589C45.9748 16.0961 45.9395 16.7306 45.9395 17.2078C45.9395 18.2937 45.8681 20.0978 45.286 21.0438C44.5202 22.2882 43.7464 23.0937 42.5149 24.0086C41.2983 24.9123 39.691 26.4893 38.0738 26.4893C34.9137 26.4893 31.5596 25.8006 29.9783 22.7259C29.308 21.4225 28.0784 20.3554 28.0784 18.8656C28.0784 17.6226 27.6671 16.1331 28.0784 14.9449C28.577 13.5046 29.821 12.1375 29.3853 12.1375C29.6075 12.201 31.5635 11.0242 32.4348 11.4598Z" stroke="#00ADB5" stroke-opacity="0.5" stroke-width="1.66333" stroke-linecap="round" stroke-linejoin="round"/>
<path d="M36.0287 10.6974C37.2541 10.2438 40.053 9.29357 40.7118 7.81131C41.2209 6.66577 39.5381 6.44995 38.6425 6.44995C37.5564 6.44995 36.2692 7.95107 35.9803 8.9004C35.8197 9.42832 35.667 9.96861 35.5084 10.5038C35.4319 10.7618 35.534 10.9488 35.587 11.1875C35.6274 11.3693 37.2892 10.4968 37.2267 10.2469" stroke="#00ADB5" stroke-opacity="0.5" stroke-width="1.66333" stroke-linecap="round" stroke-linejoin="round"/>
<path d="M57.5939 35.2066L9.81203 36.256C4.71048 36.3681 0.633301 40.5358 0.633301 45.6385C0.633301 50.8216 4.83502 55.0233 10.0181 55.0233H57.8115C63.2844 55.0233 67.7211 50.5867 67.7211 45.1138C67.7211 39.5557 63.1507 35.0845 57.5939 35.2066Z" fill="#00ADB5" fill-opacity="0.5" stroke="#00ADB5" stroke-opacity="0.5" stroke-width="1.66333"/>
<path d="M20.3754 35.9929C21.0988 37.1146 21.7233 38.4607 22.5534 39.4983C22.9709 40.0202 22.9039 39.9141 23.7133 39.6143C25.0644 39.1139 26.5952 39.4725 28.0049 39.4725C29.2424 39.4725 30.6812 38.8265 31.884 39.1503C33.2774 39.5255 34.9201 38.8092 36.2916 38.7766C37.9442 38.7372 39.5196 38.8926 41.1631 38.8926C42.154 38.8926 43.12 38.3126 44.0371 38.3126C44.5692 38.3126 46.0858 38.7344 46.1249 37.7585C46.1439 37.283 46.3569 36.8213 46.3569 36.3408C46.3569 35.6909 45.9679 35.9724 45.313 35.6449" stroke="#00ADB5" stroke-opacity="0.5" stroke-width="1.66333" stroke-linecap="round" stroke-linejoin="round"/>
</svg>
