<svg width="68" height="56" viewBox="0 0 68 56" fill="none" xmlns="http://www.w3.org/2000/svg">
<path d="M7.8501 37.8779C11.5541 29.1439 10.0371 21.5334 10.0371 12.4821C10.0371 10.7213 9.71761 5.35771 11.568 4.39776C14.4862 2.88384 17.2131 1.87365 20.6562 1.87365C22.9452 1.87365 25.245 1.93959 27.533 1.87365C29.8214 1.80769 32.038 0.876828 34.3006 0.599687C38.5103 0.08403 42.8888 0.802092 47.0459 0.802092C50.3465 0.802092 53.7611 1.23071 56.9359 1.23071C57.4996 1.23071 59.7976 1.49947 60.1678 1.82602C61.301 2.82544 60.9765 4.4282 61.8688 5.30263" stroke="#00ADB5" stroke-opacity="0.5" stroke-width="1.66333" stroke-linecap="round" stroke-linejoin="round"/>
<path d="M61.651 6.07654C61.7951 8.65395 61.8491 12.2708 62.9095 14.7892C63.5967 16.4212 63.0488 18.5933 63.1878 20.3315C63.4548 23.6682 62.9579 26.9204 62.9579 30.1575C62.9579 34.4999 63.1757 38.7868 63.1757 43.1055C63.1757 46.8123 59.5539 46.1917 56.6896 45.6709C54.2152 45.221 50.8947 46.1231 48.3157 46.155C43.3405 46.2164 38.3419 46.5906 33.3589 46.5906C29.1973 46.5906 26.1069 45.382 22.2745 43.9284C20.228 43.1521 18.9909 43.3233 16.7927 43.3233C14.7108 43.3233 12.9987 42.9978 10.9116 43.6501C9.69061 44.0316 7.50394 43.7022 6.80942 42.4521C5.97662 40.953 7.63228 40.303 7.63228 39.0759C7.63228 38.0456 7.50278 35.0993 7.8501 37.8779" stroke="#00ADB5" stroke-opacity="0.5" stroke-width="1.66333" stroke-linecap="round" stroke-linejoin="round"/>
<path d="M32.6812 11.7398C32.6812 11.7398 33.5525 12.1755 34.4238 13.0467C35.295 13.7002 37.1291 13.3735 38.6712 13.3735C39.4827 13.3735 40.3396 12.7409 41.0672 12.4175C42.5412 11.7624 41.6621 12.9946 41.3092 13.7002C40.9187 14.4813 41.3647 15.9336 42.0716 16.423C43.2379 17.2304 44.3918 16.5335 45.5325 15.9631C46.006 15.7263 45.876 15.6165 46.0226 15.9389C46.2213 16.3762 46.1859 17.0107 46.1859 17.4878C46.1859 18.5737 46.1146 20.3778 45.5325 21.3238C44.7666 22.5683 43.9928 23.3738 42.7613 24.2886C41.5448 25.1923 39.9374 26.7693 38.3203 26.7693C35.1602 26.7693 31.806 26.0806 30.2247 23.0059C29.5545 21.7026 28.3249 20.6354 28.3249 19.1456C28.3249 17.9026 27.9136 16.4131 28.3249 15.2249C28.8234 13.7846 30.0674 12.4175 29.6318 12.4175C29.8539 12.481 31.81 11.3042 32.6812 11.7398Z" stroke="#00ADB5" stroke-opacity="0.5" stroke-width="1.66333" stroke-linecap="round" stroke-linejoin="round"/>
<path d="M36.2753 10.9775C37.5007 10.524 40.2996 9.57372 40.9584 8.09146C41.4675 6.94592 39.7847 6.7301 38.8891 6.7301C37.8029 6.7301 36.5158 8.23122 36.2269 9.18055C36.0662 9.70847 35.9135 10.2488 35.755 10.7839C35.6785 11.0419 35.7806 11.2289 35.8336 11.4676C35.874 11.6494 37.5358 10.7769 37.4733 10.5271" stroke="#00ADB5" stroke-opacity="0.5" stroke-width="1.66333" stroke-linecap="round" stroke-linejoin="round"/>
<path d="M57.8405 35.4866L10.0586 36.536C4.95706 36.6481 0.879883 40.8158 0.879883 45.9186C0.879883 51.1016 5.0816 55.3034 10.2647 55.3034H58.0581C63.531 55.3034 67.9677 50.8667 67.9677 45.3938C67.9677 39.8357 63.3972 35.3645 57.8405 35.4866Z" fill="#00ADB5" fill-opacity="0.5" stroke="#00ADB5" stroke-opacity="0.5" stroke-width="1.66333"/>
<path d="M20.6221 36.2729C21.3455 37.3946 21.97 38.7408 22.8001 39.7783C23.2176 40.3002 23.1506 40.1941 23.96 39.8943C25.3111 39.3939 26.8419 39.7526 28.2516 39.7526C29.4891 39.7526 30.9279 39.1065 32.1307 39.4304C33.5241 39.8055 35.1668 39.0893 36.5383 39.0566C38.1909 39.0173 39.7663 39.1726 41.4098 39.1726C42.4007 39.1726 43.3667 38.5927 44.2838 38.5927C44.8159 38.5927 46.3325 39.0144 46.3716 38.0385C46.3906 37.5631 46.6036 37.1014 46.6036 36.6209C46.6036 35.971 46.2146 36.2524 45.5597 35.9249" stroke="#00ADB5" stroke-opacity="0.5" stroke-width="1.66333" stroke-linecap="round" stroke-linejoin="round"/>
</svg>
