<svg width="68" height="56" viewBox="0 0 68 56" fill="none" xmlns="http://www.w3.org/2000/svg">
<path d="M7.25671 38.4246C10.9608 29.6905 9.44371 22.0801 9.44371 13.0287C9.44371 11.2679 9.12423 5.90434 10.9746 4.94439C13.8928 3.43048 16.6197 2.42028 20.0628 2.42028C22.3518 2.42028 24.6516 2.48622 26.9397 2.42028C29.228 2.35433 31.4447 1.42346 33.7072 1.14632C37.9169 0.630661 42.2954 1.34872 46.4525 1.34872C49.7532 1.34872 53.1677 1.77735 56.3426 1.77735C56.9062 1.77735 59.2042 2.0461 59.5744 2.37265C60.7077 3.37207 60.3831 4.97484 61.2754 5.84926" stroke="#00ADB5" stroke-opacity="0.5" stroke-width="1.66333" stroke-linecap="round" stroke-linejoin="round"/>
<path d="M61.0576 6.62317C61.2017 9.20058 61.2557 12.8174 62.3161 15.3359C63.0033 16.9679 62.4554 19.1399 62.5944 20.8781C62.8614 24.2148 62.3645 27.467 62.3645 30.7041C62.3645 35.0466 62.5824 39.3334 62.5824 43.6521C62.5824 47.359 58.9605 46.7383 56.0962 46.2175C53.6218 45.7677 50.3013 46.6697 47.7224 46.7016C42.7471 46.763 37.7486 47.1372 32.7656 47.1372C28.6039 47.1372 25.5135 45.9287 21.6811 44.475C19.6346 43.6987 18.3976 43.87 16.1993 43.87C14.1174 43.87 12.4053 43.5445 10.3183 44.1967C9.09722 44.5783 6.91056 44.2488 6.21603 42.9987C5.38324 41.4997 7.0389 40.8496 7.0389 39.6225C7.0389 38.5923 6.9094 35.646 7.25672 38.4245" stroke="#00ADB5" stroke-opacity="0.5" stroke-width="1.66333" stroke-linecap="round" stroke-linejoin="round"/>
<path d="M32.0881 12.2864C32.0881 12.2864 32.9594 12.7221 33.8306 13.5934C34.7019 14.2469 36.5359 13.9201 38.0781 13.9201C38.8895 13.9201 39.7465 13.2875 40.4741 12.9642C41.948 12.3091 41.0689 13.5412 40.7161 14.2469C40.3255 15.028 40.7715 16.4802 41.4785 16.9696C42.6448 17.777 43.7986 17.0801 44.9393 16.5098C45.4129 16.273 45.2829 16.1631 45.4294 16.4856C45.6282 16.9228 45.5928 17.5573 45.5928 18.0345C45.5928 19.1203 45.5215 20.9244 44.9393 21.8704C44.1735 23.1149 43.3997 23.9204 42.1682 24.8352C40.9516 25.739 39.3443 27.3159 37.7272 27.3159C34.5671 27.3159 31.2129 26.6273 29.6316 23.5525C28.9613 22.2492 27.7317 21.1821 27.7317 19.6922C27.7317 18.4492 27.3205 16.9597 27.7317 15.7715C28.2303 14.3313 29.4743 12.9642 29.0387 12.9642C29.2608 13.0276 31.2168 11.8508 32.0881 12.2864Z" stroke="#00ADB5" stroke-opacity="0.5" stroke-width="1.66333" stroke-linecap="round" stroke-linejoin="round"/>
<path d="M35.682 11.5242C36.9075 11.0706 39.7063 10.1204 40.3651 8.63809C40.8743 7.49255 39.1914 7.27673 38.2959 7.27673C37.2097 7.27673 35.9226 8.77785 35.6336 9.72718C35.473 10.2551 35.3203 10.7954 35.1617 11.3306C35.0853 11.5885 35.1873 11.7756 35.2404 12.0143C35.2808 12.1961 36.9425 11.3236 36.88 11.0737" stroke="#00ADB5" stroke-opacity="0.5" stroke-width="1.66333" stroke-linecap="round" stroke-linejoin="round"/>
<path d="M57.2473 36.0332L9.46547 37.0827C4.36392 37.1947 0.286743 41.3624 0.286743 46.4652C0.286743 51.6483 4.48846 55.85 9.67154 55.85H57.4649C62.9378 55.85 67.3745 51.4133 67.3745 45.9404C67.3745 40.3823 62.8041 35.9112 57.2473 36.0332Z" fill="#00ADB5" fill-opacity="0.5" stroke="#00ADB5" stroke-opacity="0.5" stroke-width="1.66333"/>
<path d="M20.0288 36.8195C20.7522 37.9412 21.3768 39.2874 22.2068 40.325C22.6243 40.8469 22.5573 40.7407 23.3667 40.441C24.7178 39.9405 26.2487 40.2992 27.6583 40.2992C28.8958 40.2992 30.3347 39.6532 31.5375 39.977C32.9309 40.3521 34.5735 39.6359 35.945 39.6033C37.5976 39.5639 39.173 39.7192 40.8166 39.7192C41.8075 39.7192 42.7734 39.1393 43.6905 39.1393C44.2226 39.1393 45.7393 39.5611 45.7783 38.5851C45.7973 38.1097 46.0103 37.648 46.0103 37.1675C46.0103 36.5176 45.6213 36.799 44.9664 36.4716" stroke="#00ADB5" stroke-opacity="0.5" stroke-width="1.66333" stroke-linecap="round" stroke-linejoin="round"/>
</svg>
