<svg width="53" height="44" viewBox="0 0 53 44" fill="none" xmlns="http://www.w3.org/2000/svg">
<path d="M5.71167 29.7673C8.57693 23.0111 7.40341 17.124 7.40341 10.1223C7.40341 8.76031 7.15628 4.61133 8.58763 3.86876C10.845 2.69768 12.9544 1.91625 15.6178 1.91625C17.3884 1.91625 19.1675 1.96726 20.9373 1.91625C22.7075 1.86523 24.4222 1.14516 26.1724 0.930777C29.4288 0.531892 32.8158 1.08735 36.0314 1.08735C38.5847 1.08735 41.226 1.41891 43.6819 1.41891C44.1179 1.41891 45.8955 1.6268 46.1819 1.87941C47.0585 2.6525 46.8074 3.89232 47.4977 4.56872" stroke="#00ADB5" stroke-opacity="0.2" stroke-width="1.28667" stroke-linecap="round" stroke-linejoin="round"/>
<path d="M47.3293 5.16748C47.4408 7.16123 47.4826 9.95901 48.3028 11.9072C48.8344 13.1696 48.4106 14.8498 48.5181 16.1943C48.7246 18.7754 48.3403 21.2912 48.3403 23.7952C48.3403 27.1543 48.5088 30.4704 48.5088 33.8111C48.5088 36.6785 45.7071 36.1984 43.4914 35.7956C41.5774 35.4476 39.0088 36.1454 37.0139 36.17C33.1653 36.2175 29.2987 36.507 25.4441 36.507C22.2248 36.507 19.8342 35.5721 16.8697 34.4477C15.2866 33.8472 14.3298 33.9796 12.6293 33.9796C11.0188 33.9796 9.69447 33.7279 8.08003 34.2324C7.1355 34.5275 5.44401 34.2727 4.90677 33.3057C4.26256 32.1461 5.54329 31.6432 5.54329 30.694C5.54329 29.8971 5.44312 27.618 5.71178 29.7673" stroke="#00ADB5" stroke-opacity="0.2" stroke-width="1.28667" stroke-linecap="round" stroke-linejoin="round"/>
<path d="M24.9198 9.54817C24.9198 9.54817 25.5938 9.88516 26.2678 10.5591C26.9417 11.0647 28.3604 10.8119 29.5533 10.8119C30.181 10.8119 30.8439 10.3226 31.4068 10.0724C32.5469 9.56568 31.8669 10.5188 31.594 11.0647C31.2919 11.6689 31.6369 12.7922 32.1837 13.1708C33.0859 13.7954 33.9785 13.2563 34.8608 12.8151C35.2272 12.6319 35.1266 12.547 35.24 12.7964C35.3937 13.1346 35.3663 13.6254 35.3663 13.9945C35.3663 14.8345 35.3112 16.2301 34.8608 16.9618C34.2684 17.9245 33.6699 18.5476 32.7173 19.2552C31.7762 19.9543 30.5328 21.1742 29.2819 21.1742C26.8374 21.1742 24.2428 20.6415 23.0196 18.263C22.5011 17.2548 21.55 16.4293 21.55 15.2769C21.55 14.3154 21.2318 13.1632 21.55 12.2441C21.9356 11.1299 22.8979 10.0724 22.5609 10.0724C22.7327 10.1215 24.2458 9.21119 24.9198 9.54817Z" stroke="#00ADB5" stroke-opacity="0.2" stroke-width="1.28667" stroke-linecap="round" stroke-linejoin="round"/>
<path d="M27.6998 8.95845C28.6478 8.60759 30.8128 7.87253 31.3224 6.72593C31.7163 5.8398 30.4145 5.67285 29.7218 5.67285C28.8815 5.67285 27.8859 6.83404 27.6624 7.56839C27.5381 7.97676 27.42 8.3947 27.2973 8.80868C27.2382 9.00823 27.3172 9.15291 27.3582 9.33755C27.3894 9.47819 28.6749 8.80328 28.6265 8.60997" stroke="#00ADB5" stroke-opacity="0.2" stroke-width="1.28667" stroke-linecap="round" stroke-linejoin="round"/>
<path d="M44.3816 27.9174L7.42012 28.7292C3.47383 28.8159 0.319946 32.0398 0.319946 35.987C0.319946 39.9964 3.57018 43.2466 7.57954 43.2466H44.55C48.7835 43.2466 52.2155 39.8147 52.2155 35.5811C52.2155 31.2817 48.6801 27.823 44.3816 27.9174Z" fill="#00ADB5" fill-opacity="0.2" stroke="#00ADB5" stroke-opacity="0.2" stroke-width="1.28667"/>
<path d="M15.5916 28.5258C16.1511 29.3934 16.6343 30.4348 17.2763 31.2374C17.5993 31.6411 17.5475 31.559 18.1736 31.3271C19.2187 30.94 20.4029 31.2174 21.4933 31.2174C22.4506 31.2174 23.5636 30.7177 24.494 30.9682C25.5719 31.2584 26.8426 30.7044 27.9035 30.6791C29.1819 30.6487 30.4005 30.7688 31.6719 30.7688C32.4384 30.7688 33.1856 30.3202 33.895 30.3202C34.3066 30.3202 35.4798 30.6465 35.51 29.8915C35.5247 29.5238 35.6895 29.1666 35.6895 28.7949C35.6895 28.2922 35.3886 28.5099 34.882 28.2566" stroke="#00ADB5" stroke-opacity="0.2" stroke-width="1.28667" stroke-linecap="round" stroke-linejoin="round"/>
</svg>
