<svg width="52" height="43" viewBox="0 0 52 43" fill="none" xmlns="http://www.w3.org/2000/svg">
<path d="M5.40491 29.4206C8.27016 22.6644 7.09665 16.7773 7.09665 9.77567C7.09665 8.41363 6.84952 4.26465 8.28087 3.52208C10.5382 2.351 12.6477 1.56957 15.311 1.56957C17.0817 1.56957 18.8607 1.62058 20.6306 1.56957C22.4007 1.51855 24.1154 0.798479 25.8656 0.584097C29.122 0.185212 32.509 0.740667 35.7247 0.740667C38.2779 0.740667 40.9192 1.07223 43.3751 1.07223C43.8111 1.07223 45.5887 1.28012 45.8751 1.53273C46.7517 2.30583 46.5007 3.54564 47.1909 4.22204" stroke="#00ADB5" stroke-opacity="0.2" stroke-width="1.28667" stroke-linecap="round" stroke-linejoin="round"/>
<path d="M47.0226 4.8208C47.134 6.81455 47.1758 9.61233 47.9961 11.5605C48.5276 12.8229 48.1038 14.5031 48.2114 15.8477C48.4179 18.4288 48.0335 20.9445 48.0335 23.4485C48.0335 26.8076 48.202 30.1237 48.202 33.4645C48.202 36.3319 45.4003 35.8518 43.1847 35.4489C41.2706 35.1009 38.7021 35.7987 36.7071 35.8233C32.8585 35.8709 28.9919 36.1603 25.1373 36.1603C21.9181 36.1603 19.5275 35.2255 16.5629 34.101C14.9799 33.5005 14.023 33.6329 12.3226 33.6329C10.7121 33.6329 9.3877 33.3812 7.77327 33.8857C6.82874 34.1808 5.13725 33.926 4.6 32.959C3.9558 31.7994 5.23653 31.2965 5.23653 30.3473C5.23653 29.5504 5.13635 27.2713 5.40502 29.4206" stroke="#00ADB5" stroke-opacity="0.2" stroke-width="1.28667" stroke-linecap="round" stroke-linejoin="round"/>
<path d="M24.6131 9.20149C24.6131 9.20149 25.287 9.53848 25.961 10.2124C26.635 10.718 28.0536 10.4652 29.2466 10.4652C29.8743 10.4652 30.5372 9.97589 31.1 9.72575C32.2402 9.219 31.5601 10.1721 31.2872 10.718C30.9851 11.3222 31.3301 12.4456 31.8769 12.8241C32.7791 13.4487 33.6717 12.9096 34.5541 12.4684C34.9204 12.2853 34.8198 12.2003 34.9332 12.4497C35.0869 12.7879 35.0596 13.2787 35.0596 13.6479C35.0596 14.4878 35.0044 15.8834 34.5541 16.6151C33.9617 17.5778 33.3631 18.2009 32.4105 18.9086C31.4694 19.6077 30.226 20.8275 28.9751 20.8275C26.5306 20.8275 23.936 20.2948 22.7128 17.9163C22.1943 16.9081 21.2432 16.0827 21.2432 14.9302C21.2432 13.9687 20.9251 12.8165 21.2432 11.8974C21.6289 10.7833 22.5912 9.72575 22.2542 9.72575C22.426 9.77484 23.9391 8.86451 24.6131 9.20149Z" stroke="#00ADB5" stroke-opacity="0.2" stroke-width="1.28667" stroke-linecap="round" stroke-linejoin="round"/>
<path d="M27.3932 8.61177C28.3411 8.26091 30.5062 7.52585 31.0158 6.37925C31.4096 5.49312 30.1079 5.32617 29.4151 5.32617C28.5749 5.32617 27.5793 6.48736 27.3558 7.22171C27.2315 7.63008 27.1134 8.04802 26.9907 8.462C26.9316 8.66155 27.0105 8.80623 27.0515 8.99087C27.0828 9.13151 28.3682 8.4566 28.3199 8.26329" stroke="#00ADB5" stroke-opacity="0.2" stroke-width="1.28667" stroke-linecap="round" stroke-linejoin="round"/>
<path d="M44.0749 27.5707L7.11336 28.3825C3.16707 28.4692 0.0131836 31.6931 0.0131836 35.6404C0.0131836 39.6497 3.26342 42.9 7.27277 42.9H44.2432C48.4768 42.9 51.9087 39.468 51.9087 35.2344C51.9087 30.935 48.3733 27.4763 44.0749 27.5707Z" fill="#00ADB5" fill-opacity="0.2" stroke="#00ADB5" stroke-opacity="0.2" stroke-width="1.28667"/>
<path d="M15.2848 28.1791C15.8444 29.0468 16.3275 30.0881 16.9696 30.8907C17.2926 31.2944 17.2407 31.2123 17.8668 30.9804C18.912 30.5933 20.0961 30.8708 21.1866 30.8708C22.1438 30.8708 23.2569 30.371 24.1873 30.6215C25.2651 30.9117 26.5358 30.3577 27.5968 30.3324C28.8751 30.302 30.0937 30.4221 31.3651 30.4221C32.1316 30.4221 32.8788 29.9735 33.5882 29.9735C33.9998 29.9735 35.1731 30.2998 35.2032 29.5449C35.218 29.1771 35.3827 28.8199 35.3827 28.4482C35.3827 27.9455 35.0818 28.1632 34.5752 27.9099" stroke="#00ADB5" stroke-opacity="0.2" stroke-width="1.28667" stroke-linecap="round" stroke-linejoin="round"/>
</svg>
