<svg width="43" height="33" viewBox="0 0 43 33" fill="none" xmlns="http://www.w3.org/2000/svg">
<path d="M7.77637 3.14989C14.1041 3.41672 20.9748 3.02846 27.2768 2.2515C30.6489 1.83576 34.0502 1.74705 37.3837 1.2342C37.8534 1.16193 39.3525 0.444792 39.59 1.06245C39.965 2.03736 40.0443 3.42998 39.9996 4.45784C39.8698 7.44368 40.2377 10.7017 40.8848 13.6135C41.398 15.9233 41.7832 17.8486 41.7832 20.2193C41.7832 21.5161 42.4735 23.6482 41.6775 24.6717C39.4581 27.5251 34.5903 28.6908 31.2138 29.5468C26.2523 30.8046 21.345 32.1102 16.2186 32.3873C13.0387 32.5592 9.97907 31.9249 6.83834 31.9249C3.94534 31.9249 4.22052 31.8655 3.20514 29.124C2.20505 26.4238 2.06894 23.9923 2.06894 21.0913C2.06894 19.5811 1.40458 17.9281 0.998794 16.4672C0.691447 15.3608 1.18427 14.0062 1.3423 12.9001C1.50804 11.7399 3.24794 9.07706 2.66346 8.02499C2.09058 6.99381 1.78673 5.22889 2.72952 4.28609C3.49933 3.51628 14.8362 2.58832 4.44703 4.81456" stroke="#00ADB5" stroke-opacity="0.5" stroke-width="1.66333" stroke-linecap="round" stroke-linejoin="round"/>
<path d="M2.54456 6.00357C3.86435 7.77705 4.9106 9.87797 6.24382 11.5921C6.68693 12.1618 7.74687 12.6553 8.01418 13.2568C8.73787 14.8851 12.9045 16.3156 14.435 17.2995C16.1627 18.4102 19.7176 23.313 22.1639 20.8667C26.7623 16.2682 31.4958 11.7725 36.0757 7.19262C36.941 6.3273 37.2409 5.18187 38.031 4.39175C40.4363 1.98648 36.4327 2.19862 35.1245 2.19862" stroke="#00ADB5" stroke-opacity="0.5" stroke-width="1.66333" stroke-linecap="round" stroke-linejoin="round"/>
</svg>
