<svg width="42" height="33" viewBox="0 0 42 33" fill="none" xmlns="http://www.w3.org/2000/svg">
<path d="M7.50977 3.11644C13.8375 3.38328 20.7082 2.99501 27.0102 2.21805C30.3823 1.80231 33.7836 1.7136 37.1171 1.20076C37.5868 1.12848 39.0859 0.411345 39.3234 1.029C39.6984 2.00392 39.7777 3.39654 39.733 4.4244C39.6032 7.41023 39.9711 10.6682 40.6182 13.5801C41.1314 15.8898 41.5165 17.8151 41.5165 20.1859C41.5165 21.4826 42.2069 23.6147 41.4109 24.6382C39.1915 27.4917 34.3237 28.6573 30.9472 29.5133C25.9857 30.7712 21.0784 32.0767 15.952 32.3538C12.7721 32.5257 9.71247 31.8914 6.57174 31.8914C3.67874 31.8914 3.95391 31.8321 2.93854 29.0905C1.93845 26.3903 1.80234 23.9589 1.80234 21.0579C1.80234 19.5477 1.13798 17.8946 0.732192 16.4338C0.424846 15.3273 0.917672 13.9728 1.0757 12.8666C1.24144 11.7065 2.98134 9.04361 2.39686 7.99154C1.82398 6.96036 1.52012 5.19544 2.46292 4.25265C3.23273 3.48284 14.5696 2.55487 4.18043 4.78111" stroke="#00ADB5" stroke-opacity="0.5" stroke-width="1.66333" stroke-linecap="round" stroke-linejoin="round"/>
<path d="M2.27795 5.97012C3.59775 7.7436 4.644 9.84452 5.97722 11.5587C6.42032 12.1284 7.48027 12.6219 7.74758 13.2233C8.47127 14.8516 12.6379 16.2822 14.1684 17.2661C15.8961 18.3767 19.451 23.2795 21.8973 20.8332C26.4957 16.2347 31.2292 11.7391 35.8091 7.15917C36.6744 6.29385 36.9743 5.14842 37.7644 4.3583C40.1697 1.95303 36.1661 2.16517 34.8579 2.16517" stroke="#00ADB5" stroke-opacity="0.5" stroke-width="1.66333" stroke-linecap="round" stroke-linejoin="round"/>
</svg>
