<svg width="42" height="33" viewBox="0 0 42 33" fill="none" xmlns="http://www.w3.org/2000/svg">
<path d="M7.13977 3.27306C13.4675 3.53989 20.3382 3.15162 26.6402 2.37467C30.0123 1.95893 33.4136 1.87022 36.7471 1.35737C37.2169 1.2851 38.7159 0.567961 38.9534 1.18562C39.3284 2.16053 39.4077 3.55315 39.363 4.58101C39.2332 7.56685 39.6011 10.8248 40.2482 13.7367C40.7614 16.0464 41.1466 17.9717 41.1466 20.3425C41.1466 21.6392 41.8369 23.7714 41.0409 24.7948C38.8215 27.6483 33.9537 28.8139 30.5772 29.6699C25.6157 30.9278 20.7084 32.2333 15.582 32.5104C12.4021 32.6823 9.34247 32.048 6.20175 32.048C3.30875 32.048 3.58392 31.9887 2.56854 29.2472C1.56846 26.5469 1.43234 24.1155 1.43234 21.2145C1.43234 19.7043 0.767985 18.0512 0.362197 16.5904C0.0548508 15.484 0.547677 14.1294 0.7057 13.0233C0.87144 11.8631 2.61135 9.20023 2.02686 8.14816C1.45399 7.11698 1.15013 5.35206 2.09292 4.40926C2.86273 3.63945 14.1996 2.71148 3.81044 4.93773" stroke="#00ADB5" stroke-opacity="0.5" stroke-width="1.66333" stroke-linecap="round" stroke-linejoin="round"/>
<path d="M1.90796 6.12674C3.22775 7.90022 4.27401 10.0011 5.60722 11.7153C6.05033 12.285 7.11027 12.7785 7.37758 13.3799C8.10127 15.0082 12.2679 16.4388 13.7984 17.4227C15.5261 18.5333 19.081 23.4361 21.5273 20.9898C26.1258 16.3914 30.8592 11.8957 35.4391 7.31579C36.3044 6.45047 36.6043 5.30504 37.3944 4.51492C39.7997 2.10965 35.7961 2.32179 34.4879 2.32179" stroke="#00ADB5" stroke-opacity="0.5" stroke-width="1.66333" stroke-linecap="round" stroke-linejoin="round"/>
</svg>
