<svg width="33" height="25" viewBox="0 0 33 25" fill="none" xmlns="http://www.w3.org/2000/svg">
<path d="M5.91925 2.19405C10.814 2.40045 16.1288 2.10011 21.0037 1.4991C23.6122 1.1775 26.2433 1.10888 28.8219 0.71217C29.1853 0.656263 30.3448 0.101524 30.5286 0.579312C30.8187 1.33345 30.88 2.41071 30.8454 3.20581C30.745 5.5155 31.0296 8.03571 31.5301 10.2882C31.9272 12.0748 32.2251 13.5642 32.2251 15.3981C32.2251 16.4011 32.7591 18.0504 32.1433 18.8422C30.4266 21.0494 26.6611 21.9511 24.0492 22.6133C20.2113 23.5863 16.4152 24.5962 12.4497 24.8105C9.98993 24.9435 7.62314 24.4528 5.19364 24.4528C2.95577 24.4528 3.16863 24.4069 2.38318 22.2862C1.60957 20.1975 1.50428 18.3167 1.50428 16.0726C1.50428 14.9044 0.990369 13.6257 0.676473 12.4956C0.438726 11.6397 0.81995 10.592 0.942188 9.73628C1.0704 8.83883 2.4163 6.77899 1.96417 5.96516C1.52102 5.1675 1.28598 3.80225 2.01527 3.07295C2.61075 2.47747 11.3803 1.75964 3.34385 3.48174" stroke="#00ADB5" stroke-opacity="0.2" stroke-width="1.28667" stroke-linecap="round" stroke-linejoin="round"/>
<path d="M1.87207 4.40159C2.89299 5.77346 3.70232 7.39862 4.73362 8.72458C5.07639 9.16528 5.8963 9.54703 6.10308 10.0123C6.66289 11.2719 9.88599 12.3785 11.0699 13.1395C12.4063 13.9987 15.1562 17.7912 17.0485 15.8989C20.6057 12.3417 24.2672 8.86415 27.81 5.32138C28.4794 4.65201 28.7113 3.76597 29.3225 3.15477C31.1831 1.29418 28.0861 1.45828 27.0742 1.45828" stroke="#00ADB5" stroke-opacity="0.2" stroke-width="1.28667" stroke-linecap="round" stroke-linejoin="round"/>
</svg>
