<svg width="33" height="25" viewBox="0 0 33 25" fill="none" xmlns="http://www.w3.org/2000/svg">
<path d="M6.00592 1.92061C10.9007 2.12702 16.2155 1.82667 21.0904 1.22566C23.6989 0.904065 26.33 0.835442 28.9086 0.438733C29.272 0.382826 30.4315 -0.171913 30.6153 0.305875C30.9053 1.06001 30.9667 2.13727 30.9321 2.93237C30.8317 5.24206 31.1163 7.76227 31.6168 10.0147C32.0139 11.8014 32.3118 13.2907 32.3118 15.1246C32.3118 16.1277 32.8458 17.777 32.23 18.5687C30.5132 20.776 26.7478 21.6777 24.1359 22.3398C20.2979 23.3128 16.5019 24.3227 12.5364 24.5371C10.0766 24.6701 7.70981 24.1794 5.28031 24.1794C3.04244 24.1794 3.2553 24.1335 2.46985 22.0128C1.69624 19.924 1.59095 18.0432 1.59095 15.7991C1.59095 14.6309 1.07704 13.3522 0.763143 12.2222C0.525396 11.3663 0.90662 10.3185 1.02886 9.46284C1.15707 8.56539 2.50297 6.50555 2.05084 5.69173C1.60769 4.89406 1.37265 3.52881 2.10194 2.79951C2.69742 2.20403 11.467 1.4862 3.43052 3.20831" stroke="#00ADB5" stroke-opacity="0.2" stroke-width="1.28667" stroke-linecap="round" stroke-linejoin="round"/>
<path d="M1.95874 4.12815C2.97966 5.50002 3.78899 7.12518 4.82029 8.45114C5.16306 8.89184 5.98297 9.27359 6.18975 9.73884C6.74956 10.9984 9.97266 12.105 11.1566 12.8661C12.493 13.7252 15.2429 17.5178 17.1352 15.6255C20.6923 12.0683 24.3539 8.59071 27.8967 5.04794C28.566 4.37857 28.798 3.49253 29.4092 2.88133C31.2698 1.02074 28.1728 1.18484 27.1608 1.18484" stroke="#00ADB5" stroke-opacity="0.2" stroke-width="1.28667" stroke-linecap="round" stroke-linejoin="round"/>
</svg>
