<svg width="42" height="33" viewBox="0 0 42 33" fill="none" xmlns="http://www.w3.org/2000/svg">
<path d="M6.9198 2.77636C13.2475 3.04319 20.1182 2.65492 26.4202 1.87796C29.7923 1.46222 33.1936 1.37351 36.5271 0.860667C36.9969 0.788394 38.4959 0.0712572 38.7335 0.688916C39.1084 1.66383 39.1877 3.05645 39.143 4.08431C39.0132 7.07015 39.3811 10.3281 40.0282 13.24C40.5415 15.5497 40.9266 17.475 40.9266 19.8458C40.9266 21.1425 41.6169 23.2746 40.8209 24.2981C38.6016 27.1516 33.7337 28.3172 30.3573 29.1732C25.3958 30.4311 20.4884 31.7366 15.362 32.0137C12.1822 32.1856 9.1225 31.5513 5.98177 31.5513C3.08878 31.5513 3.36395 31.492 2.34857 28.7505C1.34849 26.0502 1.21237 23.6188 1.21237 20.7178C1.21237 19.2076 0.548014 17.5545 0.142227 16.0937C-0.16512 14.9872 0.327706 13.6327 0.485729 12.5266C0.65147 11.3664 2.39138 8.70352 1.80689 7.65145C1.23402 6.62028 0.930158 4.85535 1.87295 3.91256C2.64276 3.14275 13.9796 2.21478 3.59047 4.44102" stroke="#00ADB5" stroke-opacity="0.5" stroke-width="1.66333" stroke-linecap="round" stroke-linejoin="round"/>
<path d="M1.68799 5.63004C3.00778 7.40351 4.05403 9.50443 5.38725 11.2186C5.83036 11.7883 6.8903 12.2818 7.15761 12.8832C7.8813 14.5115 12.048 15.9421 13.5785 16.926C15.3061 18.0366 18.861 22.9394 21.3073 20.4931C25.9058 15.8946 30.6392 11.399 35.2192 6.81909C36.0845 5.95376 36.3844 4.80834 37.1745 4.01822C39.5797 1.61295 35.5761 1.82508 34.2679 1.82508" stroke="#00ADB5" stroke-opacity="0.5" stroke-width="1.66333" stroke-linecap="round" stroke-linejoin="round"/>
</svg>
