<svg width="33" height="25" viewBox="0 0 33 25" fill="none" xmlns="http://www.w3.org/2000/svg">
<path d="M5.92596 1.96724C10.8208 2.17365 16.1356 1.8733 21.0104 1.27229C23.6189 0.950696 26.25 0.882072 28.8286 0.485364C29.192 0.429457 30.3516 -0.125283 30.5353 0.352506C30.8254 1.10665 30.8867 2.1839 30.8521 2.979C30.7517 5.28869 31.0363 7.8089 31.5369 10.0613C31.9339 11.848 32.2318 13.3374 32.2318 15.1713C32.2318 16.1743 32.7658 17.8236 32.15 18.6153C30.4333 20.8226 26.6678 21.7243 24.0559 22.3865C20.218 23.3595 16.4219 24.3694 12.4564 24.5837C9.99664 24.7167 7.62985 24.226 5.20035 24.226C2.96248 24.226 3.17534 24.1801 2.3899 22.0594C1.61629 19.9707 1.51099 18.0899 1.51099 15.8458C1.51099 14.6776 0.997083 13.3989 0.683187 12.2688C0.44544 11.4129 0.826664 10.3651 0.948902 9.50948C1.07711 8.61202 2.42301 6.55218 1.97089 5.73836C1.52774 4.94069 1.29269 3.57544 2.02198 2.84614C2.61747 2.25066 11.387 1.53283 3.35056 3.25494" stroke="#00ADB5" stroke-opacity="0.2" stroke-width="1.28667" stroke-linecap="round" stroke-linejoin="round"/>
<path d="M1.87891 4.17478C2.89983 5.54665 3.70915 7.17181 4.74046 8.49777C5.08323 8.93847 5.90314 9.32022 6.10992 9.78547C6.66973 11.045 9.89283 12.1516 11.0768 12.9127C12.4132 13.7719 15.163 17.5644 17.0554 15.6721C20.6125 12.1149 24.2741 8.63734 27.8168 5.09457C28.4862 4.4252 28.7182 3.53916 29.3294 2.92796C31.19 1.06738 28.093 1.23147 27.081 1.23147" stroke="#00ADB5" stroke-opacity="0.2" stroke-width="1.28667" stroke-linecap="round" stroke-linejoin="round"/>
</svg>
