<svg width="33" height="26" viewBox="0 0 33 26" fill="none" xmlns="http://www.w3.org/2000/svg">
<path d="M6.18597 2.72725C11.0808 2.93366 16.3956 2.63331 21.2704 2.0323C23.8789 1.71071 26.51 1.64208 29.0886 1.24537C29.452 1.18947 30.6116 0.634727 30.7953 1.11252C31.0854 1.86666 31.1467 2.94391 31.1121 3.73901C31.0117 6.0487 31.2963 8.56891 31.7969 10.8214C32.1939 12.608 32.4918 14.0974 32.4918 15.9313C32.4918 16.9344 33.0258 18.5836 32.4101 19.3754C30.6933 21.5826 26.9278 22.4843 24.316 23.1465C20.478 24.1195 16.682 25.1294 12.7164 25.3437C10.2567 25.4767 7.88986 24.986 5.46036 24.986C3.22249 24.986 3.43535 24.9401 2.64991 22.8194C1.8763 20.7307 1.771 18.8499 1.771 16.6058C1.771 15.4376 1.25709 14.1589 0.943196 13.0288C0.70545 12.173 1.08667 11.1252 1.20891 10.2695C1.33712 9.37203 2.68302 7.31219 2.2309 6.49837C1.78775 5.7007 1.5527 4.33545 2.28199 3.60615C2.87748 3.01067 11.6471 2.29284 3.61057 4.01495" stroke="#00ADB5" stroke-opacity="0.2" stroke-width="1.28667" stroke-linecap="round" stroke-linejoin="round"/>
<path d="M2.13892 4.93479C3.15984 6.30666 3.96916 7.93182 5.00047 9.25778C5.34324 9.69848 6.16315 10.0802 6.36993 10.5455C6.92974 11.8051 10.1528 12.9117 11.3368 13.6728C12.6732 14.5319 15.423 18.3244 17.3154 16.4321C20.8725 12.875 24.5341 9.39735 28.0769 5.85458C28.7462 5.18521 28.9782 4.29917 29.5894 3.68797C31.45 1.82739 28.353 1.99148 27.341 1.99148" stroke="#00ADB5" stroke-opacity="0.2" stroke-width="1.28667" stroke-linecap="round" stroke-linejoin="round"/>
</svg>
