<svg width="33" height="26" viewBox="0 0 33 26" fill="none" xmlns="http://www.w3.org/2000/svg">
<path d="M6.18591 2.72725C11.0807 2.93366 16.3955 2.63331 21.2704 2.0323C23.8789 1.71071 26.5099 1.64208 29.0886 1.24537C29.4519 1.18947 30.6115 0.634727 30.7953 1.11252C31.0853 1.86666 31.1466 2.94391 31.1121 3.73901C31.0117 6.0487 31.2963 8.56891 31.7968 10.8214C32.1939 12.608 32.4918 14.0974 32.4918 15.9313C32.4918 16.9344 33.0258 18.5836 32.41 19.3754C30.6932 21.5826 26.9278 22.4843 24.3159 23.1465C20.4779 24.1195 16.6819 25.1294 12.7164 25.3437C10.2566 25.4767 7.8898 24.986 5.4603 24.986C3.22243 24.986 3.43529 24.9401 2.64985 22.8194C1.87623 20.7307 1.77094 18.8499 1.77094 16.6058C1.77094 15.4376 1.25703 14.1589 0.943135 13.0288C0.705389 12.173 1.08661 11.1252 1.20885 10.2695C1.33706 9.37203 2.68296 7.31219 2.23083 6.49837C1.78769 5.7007 1.55264 4.33545 2.28193 3.60615C2.87742 3.01067 11.647 2.29284 3.61051 4.01495" stroke="#00ADB5" stroke-opacity="0.2" stroke-width="1.28667" stroke-linecap="round" stroke-linejoin="round"/>
<path d="M2.13879 4.93479C3.15972 6.30666 3.96904 7.93182 5.00035 9.25778C5.34311 9.69848 6.16303 10.0802 6.3698 10.5455C6.92961 11.8051 10.1527 12.9117 11.3366 13.6728C12.6731 14.5319 15.4229 18.3244 17.3152 16.4321C20.8724 12.875 24.534 9.39735 28.0767 5.85458C28.7461 5.18521 28.9781 4.29917 29.5893 3.68797C31.4499 1.82739 28.3529 1.99148 27.3409 1.99148" stroke="#00ADB5" stroke-opacity="0.2" stroke-width="1.28667" stroke-linecap="round" stroke-linejoin="round"/>
</svg>
