<svg width="52" height="29" viewBox="0 0 52 29" fill="none" xmlns="http://www.w3.org/2000/svg">
<path d="M11.7813 3.81944C19.4011 3.02958 26.9854 1.71834 34.5949 1.08421C37.9506 0.804568 41.1856 0.750998 44.5439 0.708487C45.1999 0.700184 49.6783 -0.471014 50.0294 0.362826C50.4612 1.38837 50.1361 3.32117 50.2774 4.43562C50.5417 6.52085 51.0052 8.51167 51.1716 10.6124C51.3645 13.0474 52.8359 18.5533 49.9994 20.0204C48.2466 20.927 46.1529 21.6546 44.2434 22.132C41.8953 22.719 39.5355 23.7513 37.1498 24.1082C34.0456 24.5727 30.8652 25.3812 27.7493 25.5961C25.6186 25.743 23.6403 26.1149 21.6101 26.7834C18.6073 27.7721 15.0882 27.8955 11.9766 27.8955C10.6661 27.8955 9.37497 28.0124 8.06917 28.0308C7.17555 28.0433 6.02276 28.5641 5.15359 28.2261C3.28858 27.5008 3.24195 23.652 2.90679 22.0794C2.19906 18.7585 1.35789 15.47 0.960567 12.0928C0.821291 10.9089 0.341806 8.72106 1.15594 7.67431C2.71028 5.67588 5.71974 5.6775 7.98651 4.96914C8.94937 4.66824 9.80953 4.21855 10.7593 3.94718C12.9141 3.33154 10.0568 3.49737 9.07609 3.68418" stroke="#00ADB5" stroke-opacity="0.5" stroke-width="1.66333" stroke-linecap="round" stroke-linejoin="round"/>
<path d="M3.39513 10.1765C8.9449 9.35434 14.6736 8.40452 23.6839 5.57773C25.8888 4.88602 28.7376 4.64749 31.048 4.48815C33.1705 4.34177 35.2597 3.91972 37.3451 4.21763C39.8704 4.57839 42.7112 2.74522 45.13 3.95463C47.6906 5.23496 48.0305 9.49501 48.0305 11.995C48.0305 13.1732 48.5715 14.3045 48.5715 15.4817C48.5715 16.3209 48.2954 18.2801 47.4895 18.7279C46.037 19.5348 44.5594 20.7822 42.8832 21.1175C41.235 21.4471 39.1061 20.548 37.6081 21.0724C34.559 22.1396 31.2046 22.6639 28.0122 23.0186C24.8769 23.367 22.0749 23.4655 19.0551 24.544C16.3208 25.5205 13.3919 25.1995 10.5638 25.6035C9.78095 25.7154 7.96958 26.7046 7.48295 25.7313C7.03884 24.8431 7.14683 23.7915 6.74654 22.8908C6.2601 21.7964 5.72772 19.4948 4.75523 18.7655C3.91316 18.1339 3.47807 16.581 3.53039 15.5869C3.57891 14.6649 3.39513 13.9073 3.39513 13.017C3.39513 12.6606 3.20339 12.3232 3.13213 12.0025C3.03532 11.5669 3.50557 11.3408 3.38761 10.928C3.23432 10.3914 5.55847 11.2072 5.96504 11.6719C6.52952 12.317 6.76547 13.2676 7.28757 13.9638C7.87894 14.7523 8.69251 15.9462 9.076 16.8343C9.78172 18.4686 10.4286 20.2062 10.4286 22.0042C10.4286 22.9303 10.6204 24.179 11.7812 24.2434C12.459 24.2811 12.6361 25.3996 12.728 23.8377C12.7351 23.717 12.6923 22.8566 12.9985 23.0862C13.1793 23.2218 12.6799 20.8171 12.6002 20.5915C12.0674 19.0816 12.0549 17.1913 11.3003 15.7898C10.6589 14.5986 8.80856 10.7896 9.99275 9.60544C10.1217 9.47653 10.8471 9.64488 11.1725 9.50024C11.4684 9.36871 11.7333 8.82394 11.9841 8.82394C12.2105 8.82394 13.0007 8.78733 13.1338 8.62105C13.3134 8.39656 13.4202 9.29135 13.4343 9.36498C13.5586 10.0111 13.9324 10.6352 14.1482 11.2586C15.184 14.251 16.1094 16.7351 16.1094 19.9753C16.1094 21.2997 16.1234 22.501 16.7557 23.7024C16.98 24.1286 17.8551 24.0261 17.8378 24.003C17.6551 23.7595 18.4479 23.7131 18.5441 23.4244C19.0292 21.9692 18.066 20.3948 17.5823 19.051C16.8655 17.0599 16.5151 14.9028 15.9066 12.8742C15.6134 11.8971 15.4388 10.8593 15.5759 9.83087C15.6281 9.43946 15.7521 8.47125 16.1094 8.25285C17.35 7.49476 17.4839 8.39631 18.3036 9.66555C19.9732 12.2507 21.1553 14.8519 22.3464 17.7059C23.0236 19.3287 23.8116 21.142 24.225 22.8608C24.3443 23.3567 24.8382 24.6887 25.3747 24.033C26.2418 22.9733 25.4222 21.058 24.9614 19.9828C23.4451 16.4449 21.6646 13.4459 22.6695 9.53781C22.9738 8.35445 23.2666 7.22131 23.6839 6.07368C23.9094 5.45362 24.9604 7.37456 24.9764 7.41124C25.642 8.93956 26.2796 10.5316 26.7273 12.1378C27.4056 14.5718 28.6393 16.6383 30.0486 18.7053C31.1589 20.3338 32.7138 20.2328 32.5885 17.7886C32.4268 14.6357 29.8425 12.061 29.7706 8.82394C29.7572 8.21957 29.3575 6.95263 29.8457 6.46443C30.6576 5.65252 31.6795 7.14937 32.055 7.66673C33.0984 9.10461 33.8929 10.4645 34.4971 12.1528C35.0829 13.7895 35.2644 15.5656 36.0225 17.1348C36.5485 18.2235 37.6911 20.1257 38.8329 20.6967C39.3706 20.9655 39.4828 19.5921 39.5092 19.4042C39.752 17.6741 39.0598 16.3512 38.352 14.8204C37.4745 12.9227 35.959 10.059 36.4734 7.85459C36.8167 6.3832 37.4166 6.31043 38.5023 7.35864C40.3146 9.1085 41.1815 12.9648 42.0716 15.3013C42.4909 16.4019 42.8333 17.6033 43.9728 18.1568C45.2261 18.7655 45.64 16.8655 45.5658 16.0077C45.3503 13.5175 43.4758 11.2866 42.3797 9.09446C41.8378 8.01068 40.6115 6.64222 41.4629 5.41242C41.543 5.29678 47.9627 5.66596 43.4092 7.66673C39.0396 9.5867 33.8745 10.4707 29.222 11.4615C26.7276 11.9927 24.3415 12.6316 21.9406 13.4979C19.9897 14.2018 18.0734 14.1813 16.0568 14.4522C13.7113 14.7673 11.7684 15.9991 9.4968 16.4585C8.28195 16.7042 6.93387 16.8371 5.82979 17.4504C5.48945 17.6395 4.60325 18.5656 4.61246 18.9984C4.70006 23.1157 11.5991 20.6054 13.7349 19.9903C19.5813 18.3065 25.634 17.032 31.3486 14.9031C33.8188 13.9828 36.05 12.462 38.615 11.8071C39.9265 11.4723 47.3198 10.9444 44.6941 14.2944C42.4408 17.1693 38.0227 16.9743 34.7451 17.6458C30.012 18.6155 25.6337 19.0751 21.0689 20.7868C19.3728 21.4229 17.7519 21.9954 16.1019 22.7406C14.8259 23.3168 13.5343 23.0651 12.1869 23.1914C11.8772 23.2205 7.09088 23.7249 8.2945 24.8897C11.2282 27.7287 16.8309 24.5883 19.7915 23.5521C21.9589 22.7935 24.2651 22.5715 26.4643 21.929C28.6489 21.2908 30.7678 20.4478 32.9416 19.7799C36.3601 18.7295 39.7184 17.027 43.1612 16.158C43.8355 15.9878 44.7555 15.7629 45.4531 15.7898C45.6242 15.7963 45.9412 15.7222 45.5132 15.7447C44.0161 15.8235 42.4773 16.1791 40.9971 16.3984" stroke="#00ADB5" stroke-opacity="0.5" stroke-width="1.66333" stroke-linecap="round" stroke-linejoin="round"/>
</svg>
