<svg width="41" height="23" viewBox="0 0 41 23" fill="none" xmlns="http://www.w3.org/2000/svg">
<path d="M9.28368 3.79223C15.178 3.18123 21.0448 2.16692 26.9311 1.6764C29.5269 1.46008 32.0293 1.41864 34.6272 1.38576C35.1346 1.37934 38.5989 0.47336 38.8704 1.11837C39.2045 1.91168 38.953 3.4068 39.0623 4.26887C39.2667 5.8819 39.6253 7.42189 39.754 9.04693C39.9032 10.9305 41.0414 15.1895 38.8472 16.3245C37.4913 17.0258 35.8717 17.5886 34.3946 17.9578C32.5783 18.4119 30.7529 19.2105 28.9074 19.4866C26.5062 19.8458 24.046 20.4713 21.6357 20.6375C19.9875 20.7512 18.4572 21.0388 16.8867 21.5559C14.5639 22.3207 11.8417 22.4162 9.43482 22.4162C8.42108 22.4162 7.4223 22.5066 6.4122 22.5208C5.72094 22.5306 4.82921 22.9334 4.15686 22.6719C2.71419 22.1109 2.67812 19.1337 2.41886 17.9171C1.87139 15.3483 1.22071 12.8045 0.913363 10.192C0.805626 9.27628 0.434722 7.58386 1.06449 6.77415C2.26685 5.22827 4.59481 5.22953 6.34826 4.68157C7.09308 4.44882 7.75845 4.10096 8.49315 3.89104C10.1599 3.41482 7.94975 3.54309 7.1911 3.6876" stroke="#00ADB5" stroke-opacity="0.2" stroke-width="1.28667" stroke-linecap="round" stroke-linejoin="round"/>
<path d="M2.79675 8.70966C7.08976 8.07366 11.5211 7.33893 18.4911 5.15227C20.1966 4.6172 22.4003 4.43268 24.1876 4.30943C25.8294 4.1962 27.4455 3.86972 29.0586 4.10017C31.0121 4.37923 33.2095 2.96119 35.0806 3.89672C37.0614 4.88712 37.3243 8.18247 37.3243 10.1163C37.3243 11.0277 37.7428 11.9029 37.7428 12.8134C37.7428 13.4626 37.5293 14.9782 36.9058 15.3245C35.7822 15.9488 34.6392 16.9137 33.3426 17.173C32.0677 17.428 30.4209 16.7325 29.2621 17.1381C26.9035 17.9636 24.3087 18.3692 21.8392 18.6436C19.4139 18.9131 17.2465 18.9893 14.9105 19.8236C12.7954 20.579 10.5297 20.3307 8.34208 20.6432C7.73648 20.7297 6.3353 21.4949 5.95887 20.742C5.61533 20.0549 5.69886 19.2415 5.38922 18.5448C5.01293 17.6981 4.60112 15.9178 3.84885 15.3536C3.19747 14.8651 2.8609 13.6638 2.90138 12.8948C2.93891 12.1816 2.79675 11.5956 2.79675 10.9069C2.79675 10.6312 2.64843 10.3702 2.5933 10.1221C2.51841 9.78516 2.88218 9.61028 2.79093 9.29093C2.67235 8.8759 4.47019 9.50695 4.7847 9.86639C5.22135 10.3654 5.40387 11.1008 5.80774 11.6393C6.26518 12.2492 6.89452 13.1728 7.19117 13.8597C7.73708 15.1239 8.23746 16.4681 8.23746 17.8589C8.23746 18.5753 8.38586 19.5412 9.28375 19.5911C9.80808 19.6202 9.94508 20.4854 10.0161 19.2772C10.0216 19.1839 9.98853 18.5183 10.2254 18.6959C10.3652 18.8008 9.97893 16.9406 9.91733 16.7661C9.50512 15.5982 9.49549 14.1359 8.91173 13.0518C8.4156 12.1304 6.98429 9.18391 7.90032 8.26789C8.00003 8.16818 8.56117 8.2984 8.81291 8.18651C9.04183 8.08477 9.24671 7.66337 9.44069 7.66337C9.61582 7.66337 10.2271 7.63505 10.33 7.50642C10.469 7.33277 10.5516 8.02493 10.5625 8.08188C10.6587 8.58172 10.9478 9.06444 11.1148 9.54669C11.916 11.8615 12.6319 13.783 12.6319 16.2894C12.6319 17.314 12.6426 18.2432 13.1318 19.1726C13.3053 19.5022 13.9822 19.4229 13.9688 19.4051C13.8275 19.2167 14.4407 19.1808 14.5152 18.9575C14.8904 17.8318 14.1454 16.614 13.7712 15.5745C13.2167 14.0342 12.9457 12.3656 12.4749 10.7964C12.2482 10.0406 12.1131 9.23781 12.2192 8.44227C12.2595 8.1395 12.3554 7.39055 12.6319 7.2216C13.5915 6.63518 13.6951 7.33257 14.3292 8.31439C15.6207 10.3141 16.5351 12.3263 17.4564 14.534C17.9803 15.7893 18.5898 17.192 18.9096 18.5215C19.0019 18.9052 19.384 19.9355 19.799 19.4283C20.4697 18.6085 19.8357 17.127 19.4793 16.2953C18.3064 13.5585 16.929 11.2386 17.7064 8.21558C17.9418 7.3002 18.1683 6.42366 18.4911 5.53591C18.6655 5.05626 19.4785 6.54221 19.4909 6.57058C20.0057 7.7528 20.499 8.98435 20.8452 10.2268C21.37 12.1096 22.3243 13.7082 23.4145 15.3071C24.2734 16.5668 25.4761 16.4886 25.3792 14.5979C25.2541 12.159 23.255 10.1674 23.1994 7.66337C23.189 7.19586 22.8799 6.21582 23.2575 5.83817C23.8856 5.21012 24.6761 6.36801 24.9665 6.76821C25.7736 7.88048 26.3882 8.93242 26.8556 10.2384C27.3087 11.5045 27.4491 12.8784 28.0356 14.0922C28.4425 14.9344 29.3263 16.4058 30.2095 16.8475C30.6254 17.0554 30.7123 15.9931 30.7327 15.8477C30.9205 14.5094 30.3851 13.4861 29.8375 12.3019C29.1588 10.8339 27.9865 8.61877 28.3844 6.91353C28.6499 5.77534 29.114 5.71905 29.9538 6.52989C31.3557 7.88349 32.0263 10.8665 32.7148 12.6739C33.0391 13.5253 33.304 14.4546 34.1854 14.8828C35.1549 15.3537 35.4752 13.8839 35.4177 13.2203C35.2511 11.2941 33.801 9.56838 32.9532 7.87263C32.534 7.03427 31.5854 5.9757 32.244 5.02439C32.3059 4.93494 37.2718 5.22052 33.7495 6.76821C30.3694 8.2534 26.374 8.9372 22.7751 9.70363C20.8455 10.1146 18.9998 10.6087 17.1425 11.2789C15.6334 11.8234 14.1511 11.8076 12.5912 12.0171C10.7768 12.2608 9.27385 13.2137 7.51668 13.5691C6.57693 13.7592 5.53413 13.8619 4.68007 14.3364C4.4168 14.4826 3.73129 15.199 3.73841 15.5338C3.80617 18.7187 9.1429 16.7769 10.7951 16.3011C15.3175 14.9986 19.9996 14.0127 24.4201 12.3659C26.3309 11.654 28.0569 10.4776 30.041 9.97102C31.0555 9.71199 36.7746 9.30363 34.7435 11.895C33.0004 14.1189 29.5828 13.9681 27.0474 14.4875C23.3861 15.2376 19.9993 15.5931 16.4683 16.9172C15.1563 17.4092 13.9024 17.8521 12.6261 18.4285C11.639 18.8743 10.6398 18.6796 9.59763 18.7773C9.35805 18.7998 5.65559 19.1899 6.58664 20.091C8.85596 22.2871 13.19 19.8579 15.4801 19.0563C17.1567 18.4695 18.9406 18.2977 20.6418 17.8008C22.3317 17.3071 23.9708 16.655 25.6524 16.1383C28.2967 15.3258 30.8945 14.0088 33.5577 13.3366C34.0793 13.2049 34.791 13.031 35.3306 13.0518C35.4629 13.0569 35.7081 12.9995 35.3771 13.0169C34.219 13.0778 33.0287 13.353 31.8836 13.5226" stroke="#00ADB5" stroke-opacity="0.2" stroke-width="1.28667" stroke-linecap="round" stroke-linejoin="round"/>
</svg>
