<svg width="40" height="23" viewBox="0 0 40 23" fill="none" xmlns="http://www.w3.org/2000/svg">
<path d="M8.73699 3.53222C14.6313 2.92122 20.4981 1.90691 26.3844 1.41639C28.9802 1.20007 31.4826 1.15863 34.0805 1.12575C34.5879 1.11933 38.0522 0.21335 38.3238 0.858364C38.6578 1.65167 38.4063 3.14679 38.5156 4.00886C38.72 5.62189 39.0786 7.16188 39.2073 8.78692C39.3565 10.6705 40.4947 14.9295 38.3005 16.0644C36.9446 16.7658 35.325 17.3286 33.848 17.6978C32.0316 18.1519 30.2062 18.9505 28.3607 19.2266C25.9595 19.5858 23.4993 20.2113 21.089 20.3775C19.4408 20.4912 17.9105 20.7788 16.34 21.2959C14.0172 22.0607 11.2951 22.1562 8.88812 22.1562C7.87439 22.1562 6.87561 22.2466 5.86551 22.2608C5.17425 22.2705 4.28252 22.6734 3.61017 22.4119C2.1675 21.8509 2.13143 18.8737 1.87217 17.6571C1.3247 15.0883 0.674022 12.5445 0.366671 9.93202C0.258935 9.01627 -0.11197 7.32385 0.517802 6.51414C1.72016 4.96826 4.04812 4.96952 5.80157 4.42156C6.54638 4.18881 7.21176 3.84095 7.94646 3.63103C9.61325 3.15481 7.40305 3.28308 6.64441 3.42759" stroke="#00ADB5" stroke-opacity="0.2" stroke-width="1.28667" stroke-linecap="round" stroke-linejoin="round"/>
<path d="M2.24999 8.44965C6.54301 7.81365 10.9744 7.07892 17.9443 4.89226C19.6499 4.35719 21.8536 4.17267 23.6408 4.04942C25.2827 3.93619 26.8988 3.60971 28.5119 3.84016C30.4653 4.11922 32.6628 2.70118 34.5339 3.63671C36.5147 4.62711 36.7776 7.92246 36.7776 9.85633C36.7776 10.7677 37.1961 11.6429 37.1961 12.5534C37.1961 13.2026 36.9825 14.7182 36.359 15.0645C35.2355 15.6887 34.0925 16.6537 32.7959 16.913C31.5209 17.168 29.8741 16.4725 28.7153 16.8781C26.3567 17.7036 23.7619 18.1092 21.2925 18.3836C18.8672 18.6531 16.6997 18.7293 14.3637 19.5636C12.2486 20.319 9.98299 20.0706 7.79533 20.3832C7.18973 20.4697 5.78855 21.2349 5.41211 20.482C5.06858 19.7949 5.15211 18.9815 4.84247 18.2848C4.46618 17.4381 4.05437 15.6578 3.3021 15.0936C2.65072 14.6051 2.31415 13.4038 2.35462 12.6348C2.39216 11.9216 2.24999 11.3356 2.24999 10.6469C2.24999 10.3712 2.10167 10.1102 2.04655 9.86214C1.97166 9.52515 2.33542 9.35027 2.24418 9.03092C2.1256 8.61589 3.92344 9.24694 4.23795 9.60638C4.67459 10.1054 4.85711 10.8408 5.26098 11.3793C5.71843 11.9892 6.34777 12.9128 6.64441 13.5997C7.19032 14.8639 7.6907 16.2081 7.6907 17.5989C7.6907 18.3153 7.83911 19.2812 8.73699 19.3311C9.26132 19.3602 9.39833 20.2254 9.4694 19.0172C9.47489 18.9238 9.44178 18.2582 9.67865 18.4359C9.81849 18.5408 9.43217 16.6806 9.37058 16.5061C8.95837 15.3382 8.94874 13.8759 8.36498 12.7918C7.86885 11.8704 6.43754 8.92391 7.35356 8.00788C7.45328 7.90817 8.01441 8.03839 8.26616 7.9265C8.49508 7.82476 8.69996 7.40336 8.89394 7.40336C9.06906 7.40336 9.68038 7.37504 9.78328 7.24641C9.92221 7.07276 10.0048 7.76492 10.0158 7.82187C10.1119 8.32171 10.4011 8.80443 10.568 9.28668C11.3693 11.6015 12.0851 13.523 12.0851 16.0294C12.0851 17.054 12.0959 17.9832 12.585 18.9125C12.7585 19.2422 13.4354 19.1629 13.422 19.1451C13.2808 18.9567 13.894 18.9208 13.9684 18.6975C14.3437 17.5718 13.5986 16.354 13.2244 15.3145C12.6699 13.7742 12.3989 12.1056 11.9282 10.5364C11.7014 9.7806 11.5663 8.9778 11.6724 8.18226C11.7128 7.87949 11.8087 7.13054 12.0851 6.96159C13.0447 6.37517 13.1483 7.07256 13.7824 8.05438C15.0739 10.0541 15.9884 12.0663 16.9097 14.274C17.4335 15.5293 18.0431 16.9319 18.3629 18.2615C18.4551 18.6452 18.8372 19.6755 19.2522 19.1683C19.9229 18.3485 19.289 16.867 18.9325 16.0353C17.7596 13.2985 16.3823 10.9786 17.1596 7.95557C17.395 7.04019 17.6215 6.16365 17.9443 5.2759C18.1188 4.79625 18.9318 6.2822 18.9441 6.31057C19.459 7.49279 19.9522 8.72434 20.2985 9.96677C20.8232 11.8496 21.7775 13.4482 22.8677 15.0471C23.7266 16.3068 24.9294 16.2286 24.8324 14.3379C24.7073 11.899 22.7083 9.90736 22.6527 7.40336C22.6423 6.93585 22.3331 5.95581 22.7108 5.57816C23.3388 4.95011 24.1293 6.108 24.4197 6.5082C25.2269 7.62047 25.8414 8.67241 26.3089 9.97839C26.762 11.2445 26.9024 12.6184 27.4888 13.8322C27.8957 14.6744 28.7796 16.1458 29.6628 16.5875C30.0787 16.7954 30.1655 15.7331 30.1859 15.5877C30.3738 14.2494 29.8383 13.2261 29.2908 12.0419C28.612 10.5739 27.4397 8.35876 27.8376 6.65352C28.1032 5.51533 28.5672 5.45904 29.407 6.26988C30.809 7.62348 31.4795 10.6065 32.1681 12.4139C32.4924 13.2653 32.7573 14.1946 33.6387 14.6228C34.6082 15.0937 34.9284 13.6239 34.871 12.9603C34.7043 11.0341 33.2543 9.30837 32.4064 7.61262C31.9872 6.77427 31.0386 5.71569 31.6972 4.76438C31.7592 4.67493 36.7251 4.96051 33.2027 6.5082C29.8227 7.99339 25.8272 8.67719 22.2283 9.44362C20.2988 9.85454 18.453 10.3487 16.5958 11.0189C15.0867 11.5634 13.6044 11.5475 12.0444 11.7571C10.2301 12.0008 8.7271 12.9537 6.96992 13.3091C6.03018 13.4991 4.98737 13.6019 4.13332 14.0764C3.87005 14.2226 3.18453 14.939 3.19166 15.2738C3.25942 18.4587 8.59615 16.5169 10.2483 16.0411C14.7707 14.7386 19.4528 13.7527 23.8733 12.1059C25.7842 11.394 27.5101 10.2176 29.4942 9.71101C30.5088 9.45198 36.2278 9.04362 34.1967 11.635C32.4537 13.8589 29.0361 13.708 26.5007 14.2275C22.8394 14.9776 19.4526 15.3331 15.9215 16.6572C14.6095 17.1492 13.3556 17.5921 12.0793 18.1685C11.0922 18.6143 10.0931 18.4196 9.05088 18.5173C8.81129 18.5397 5.10883 18.9299 6.03989 19.831C8.30921 22.0271 12.6432 19.5978 14.9334 18.7963C16.6099 18.2095 18.3939 18.0377 20.0951 17.5407C21.785 17.0471 23.4241 16.395 25.1056 15.8783C27.75 15.0658 30.3478 13.7488 33.0109 13.0766C33.5325 12.9449 34.2442 12.771 34.7838 12.7918C34.9162 12.7968 35.1614 12.7395 34.8303 12.7569C33.6722 12.8178 32.4819 13.0929 31.3369 13.2626" stroke="#00ADB5" stroke-opacity="0.2" stroke-width="1.28667" stroke-linecap="round" stroke-linejoin="round"/>
</svg>
