<svg width="41" height="23" viewBox="0 0 41 23" fill="none" xmlns="http://www.w3.org/2000/svg">
<path d="M9.28368 3.79223C15.178 3.18123 21.0448 2.16692 26.9311 1.6764C29.5269 1.46008 32.0293 1.41864 34.6272 1.38576C35.1346 1.37934 38.5989 0.47336 38.8704 1.11837C39.2045 1.91168 38.953 3.4068 39.0623 4.26887C39.2667 5.8819 39.6253 7.42189 39.754 9.04693C39.9032 10.9305 41.0414 15.1895 38.8472 16.3245C37.4913 17.0258 35.8717 17.5886 34.3946 17.9578C32.5783 18.4119 30.7529 19.2105 28.9074 19.4866C26.5062 19.8458 24.046 20.4713 21.6357 20.6375C19.9875 20.7512 18.4572 21.0388 16.8867 21.5559C14.5639 22.3207 11.8417 22.4162 9.43482 22.4162C8.42108 22.4162 7.4223 22.5066 6.4122 22.5208C5.72094 22.5306 4.82921 22.9334 4.15686 22.6719C2.71419 22.1109 2.67812 19.1337 2.41886 17.9171C1.87139 15.3483 1.22071 12.8045 0.913363 10.192C0.805626 9.27628 0.434722 7.58386 1.06449 6.77415C2.26685 5.22827 4.59481 5.22953 6.34826 4.68157C7.09308 4.44882 7.75845 4.10096 8.49315 3.89104C10.1599 3.41482 7.94975 3.54309 7.1911 3.6876" stroke="#00ADB5" stroke-opacity="0.2" stroke-width="1.28667" stroke-linecap="round" stroke-linejoin="round"/>
<path d="M2.79681 8.70966C7.08982 8.07366 11.5212 7.33893 18.4912 5.15227C20.1967 4.6172 22.4004 4.43268 24.1876 4.30943C25.8295 4.1962 27.4456 3.86972 29.0587 4.10017C31.0121 4.37923 33.2096 2.96119 35.0807 3.89672C37.0615 4.88712 37.3244 8.18247 37.3244 10.1163C37.3244 11.0277 37.7429 11.9029 37.7429 12.8134C37.7429 13.4626 37.5293 14.9782 36.9059 15.3245C35.7823 15.9488 34.6393 16.9137 33.3427 17.173C32.0677 17.428 30.421 16.7325 29.2621 17.1381C26.9035 17.9636 24.3087 18.3692 21.8393 18.6436C19.414 18.9131 17.2465 18.9893 14.9105 19.8236C12.7954 20.579 10.5298 20.3307 8.34215 20.6432C7.73654 20.7297 6.33536 21.4949 5.95893 20.742C5.61539 20.0549 5.69892 19.2415 5.38928 18.5448C5.013 17.6981 4.60118 15.9178 3.84891 15.3536C3.19753 14.8651 2.86097 13.6638 2.90144 12.8948C2.93898 12.1816 2.79681 11.5956 2.79681 10.9069C2.79681 10.6312 2.64849 10.3702 2.59336 10.1221C2.51848 9.78516 2.88224 9.61028 2.791 9.29093C2.67241 8.8759 4.47025 9.50695 4.78476 9.86639C5.22141 10.3654 5.40393 11.1008 5.8078 11.6393C6.26524 12.2492 6.89458 13.1728 7.19123 13.8597C7.73714 15.1239 8.23752 16.4681 8.23752 17.8589C8.23752 18.5753 8.38592 19.5412 9.28381 19.5911C9.80814 19.6202 9.94514 20.4854 10.0162 19.2772C10.0217 19.1839 9.98859 18.5183 10.2255 18.6959C10.3653 18.8008 9.97899 16.9406 9.91739 16.7661C9.50519 15.5982 9.49555 14.1359 8.91179 13.0518C8.41566 12.1304 6.98435 9.18391 7.90038 8.26789C8.00009 8.16818 8.56123 8.2984 8.81298 8.18651C9.04189 8.08477 9.24677 7.66337 9.44075 7.66337C9.61588 7.66337 10.2272 7.63505 10.3301 7.50642C10.469 7.33277 10.5517 8.02493 10.5626 8.08188C10.6587 8.58172 10.9479 9.06444 11.1148 9.54669C11.9161 11.8615 12.6319 13.783 12.6319 16.2894C12.6319 17.314 12.6427 18.2432 13.1318 19.1726C13.3053 19.5022 13.9823 19.4229 13.9689 19.4051C13.8276 19.2167 14.4408 19.1808 14.5153 18.9575C14.8905 17.8318 14.1454 16.614 13.7712 15.5745C13.2167 14.0342 12.9458 12.3656 12.475 10.7964C12.2482 10.0406 12.1132 9.23781 12.2192 8.44227C12.2596 8.1395 12.3555 7.39055 12.6319 7.2216C13.5915 6.63518 13.6952 7.33257 14.3292 8.31439C15.6207 10.3141 16.5352 12.3263 17.4565 14.534C17.9804 15.7893 18.5899 17.192 18.9097 18.5215C19.0019 18.9052 19.384 19.9355 19.799 19.4283C20.4697 18.6085 19.8358 17.127 19.4793 16.2953C18.3064 13.5585 16.9291 11.2386 17.7064 8.21558C17.9418 7.3002 18.1683 6.42366 18.4912 5.53591C18.6656 5.05626 19.4786 6.54221 19.4909 6.57058C20.0058 7.7528 20.4991 8.98435 20.8453 10.2268C21.37 12.1096 22.3244 13.7082 23.4145 15.3071C24.2734 16.5668 25.4762 16.4886 25.3792 14.5979C25.2542 12.159 23.2551 10.1674 23.1995 7.66337C23.1891 7.19586 22.8799 6.21582 23.2576 5.83817C23.8856 5.21012 24.6761 6.36801 24.9665 6.76821C25.7737 7.88048 26.3883 8.93242 26.8557 10.2384C27.3088 11.5045 27.4492 12.8784 28.0356 14.0922C28.4425 14.9344 29.3264 16.4058 30.2096 16.8475C30.6255 17.0554 30.7123 15.9931 30.7328 15.8477C30.9206 14.5094 30.3851 13.4861 29.8376 12.3019C29.1588 10.8339 27.9865 8.61877 28.3844 6.91353C28.65 5.77534 29.1141 5.71905 29.9538 6.52989C31.3558 7.88349 32.0264 10.8665 32.7149 12.6739C33.0392 13.5253 33.3041 14.4546 34.1855 14.8828C35.155 15.3537 35.4752 13.8839 35.4178 13.2203C35.2511 11.2941 33.8011 9.56838 32.9532 7.87263C32.534 7.03427 31.5855 5.9757 32.2441 5.02439C32.306 4.93494 37.2719 5.22052 33.7496 6.76821C30.3695 8.2534 26.3741 8.9372 22.7751 9.70363C20.8456 10.1146 18.9998 10.6087 17.1426 11.2789C15.6335 11.8234 14.1512 11.8076 12.5912 12.0171C10.7769 12.2608 9.27391 13.2137 7.51674 13.5691C6.57699 13.7592 5.53419 13.8619 4.68013 14.3364C4.41686 14.4826 3.73135 15.199 3.73847 15.5338C3.80623 18.7187 9.14296 16.7769 10.7951 16.3011C15.3176 14.9986 19.9997 14.0127 24.4201 12.3659C26.331 11.654 28.0569 10.4776 30.041 9.97102C31.0556 9.71199 36.7746 9.30363 34.7435 11.895C33.0005 14.1189 29.5829 13.9681 27.0475 14.4875C23.3862 15.2376 19.9994 15.5931 16.4683 16.9172C15.1563 17.4092 13.9024 17.8521 12.6261 18.4285C11.639 18.8743 10.6399 18.6796 9.59769 18.7773C9.35811 18.7998 5.65565 19.1899 6.5867 20.091C8.85602 22.2871 13.19 19.8579 15.4802 19.0563C17.1568 18.4695 18.9407 18.2977 20.6419 17.8008C22.3318 17.3071 23.9709 16.655 25.6524 16.1383C28.2968 15.3258 30.8946 14.0088 33.5577 13.3366C34.0793 13.2049 34.791 13.031 35.3306 13.0518C35.463 13.0569 35.7082 12.9995 35.3771 13.0169C34.219 13.0778 33.0287 13.353 31.8837 13.5226" stroke="#00ADB5" stroke-opacity="0.2" stroke-width="1.28667" stroke-linecap="round" stroke-linejoin="round"/>
</svg>
