<svg width="40" height="23" viewBox="0 0 40 23" fill="none" xmlns="http://www.w3.org/2000/svg">
<path d="M8.73705 3.53222C14.6314 2.92122 20.4981 1.90691 26.3845 1.41639C28.9802 1.20007 31.4827 1.15863 34.0805 1.12575C34.5879 1.11933 38.0522 0.21335 38.3238 0.858364C38.6578 1.65167 38.4064 3.14679 38.5156 4.00886C38.7201 5.62189 39.0786 7.16188 39.2073 8.78692C39.3565 10.6705 40.4948 14.9295 38.3006 16.0644C36.9447 16.7658 35.3251 17.3286 33.848 17.6978C32.0317 18.1519 30.2063 18.9505 28.3608 19.2266C25.9595 19.5858 23.4994 20.2113 21.0891 20.3775C19.4409 20.4912 17.9106 20.7788 16.3401 21.2959C14.0173 22.0607 11.2951 22.1562 8.88818 22.1562C7.87445 22.1562 6.87567 22.2466 5.86557 22.2608C5.17431 22.2705 4.28258 22.6734 3.61023 22.4119C2.16756 21.8509 2.13149 18.8737 1.87223 17.6571C1.32476 15.0883 0.674083 12.5445 0.366732 9.93202C0.258996 9.01627 -0.111909 7.32385 0.517863 6.51414C1.72022 4.96826 4.04818 4.96952 5.80163 4.42156C6.54645 4.18881 7.21182 3.84095 7.94652 3.63103C9.61331 3.15481 7.40311 3.28308 6.64447 3.42759" stroke="#00ADB5" stroke-opacity="0.2" stroke-width="1.28667" stroke-linecap="round" stroke-linejoin="round"/>
<path d="M2.25006 8.44965C6.54307 7.81365 10.9744 7.07892 17.9444 4.89226C19.6499 4.35719 21.8537 4.17267 23.6409 4.04942C25.2827 3.93619 26.8988 3.60971 28.5119 3.84016C30.4654 4.11922 32.6629 2.70118 34.5339 3.63671C36.5147 4.62711 36.7776 7.92246 36.7776 9.85633C36.7776 10.7677 37.1961 11.6429 37.1961 12.5534C37.1961 13.2026 36.9826 14.7182 36.3591 15.0645C35.2355 15.6887 34.0925 16.6537 32.7959 16.913C31.521 17.168 29.8742 16.4725 28.7154 16.8781C26.3568 17.7036 23.762 18.1092 21.2925 18.3836C18.8673 18.6531 16.6998 18.7293 14.3638 19.5636C12.2487 20.319 9.98305 20.0706 7.79539 20.3832C7.18979 20.4697 5.78861 21.2349 5.41218 20.482C5.06864 19.7949 5.15217 18.9815 4.84253 18.2848C4.46624 17.4381 4.05443 15.6578 3.30216 15.0936C2.65078 14.6051 2.31421 13.4038 2.35468 12.6348C2.39222 11.9216 2.25006 11.3356 2.25006 10.6469C2.25006 10.3712 2.10174 10.1102 2.04661 9.86214C1.97172 9.52515 2.33548 9.35027 2.24424 9.03092C2.12566 8.61589 3.9235 9.24694 4.23801 9.60638C4.67465 10.1054 4.85718 10.8408 5.26105 11.3793C5.71849 11.9892 6.34783 12.9128 6.64447 13.5997C7.19039 14.8639 7.69076 16.2081 7.69076 17.5989C7.69076 18.3153 7.83917 19.2812 8.73705 19.3311C9.26138 19.3602 9.39839 20.2254 9.46946 19.0172C9.47495 18.9238 9.44184 18.2582 9.67871 18.4359C9.81855 18.5408 9.43223 16.6806 9.37064 16.5061C8.95843 15.3382 8.9488 13.8759 8.36504 12.7918C7.86891 11.8704 6.4376 8.92391 7.35363 8.00788C7.45334 7.90817 8.01447 8.03839 8.26622 7.9265C8.49514 7.82476 8.70002 7.40336 8.894 7.40336C9.06912 7.40336 9.68044 7.37504 9.78334 7.24641C9.92227 7.07276 10.0049 7.76492 10.0159 7.82187C10.112 8.32171 10.4011 8.80443 10.5681 9.28668C11.3693 11.6015 12.0852 13.523 12.0852 16.0294C12.0852 17.054 12.0959 17.9832 12.5851 18.9125C12.7586 19.2422 13.4355 19.1629 13.4221 19.1451C13.2808 18.9567 13.8941 18.9208 13.9685 18.6975C14.3437 17.5718 13.5987 16.354 13.2245 15.3145C12.67 13.7742 12.399 12.1056 11.9282 10.5364C11.7015 9.7806 11.5664 8.9778 11.6725 8.18226C11.7128 7.87949 11.8087 7.13054 12.0852 6.96159C13.0448 6.37517 13.1484 7.07256 13.7825 8.05438C15.074 10.0541 15.9884 12.0663 16.9097 14.274C17.4336 15.5293 18.0431 16.9319 18.3629 18.2615C18.4552 18.6452 18.8373 19.6755 19.2523 19.1683C19.923 18.3485 19.289 16.867 18.9326 16.0353C17.7597 13.2985 16.3823 10.9786 17.1597 7.95557C17.3951 7.04019 17.6216 6.16365 17.9444 5.2759C18.1188 4.79625 18.9318 6.2822 18.9442 6.31057C19.459 7.49279 19.9523 8.72434 20.2986 9.96677C20.8233 11.8496 21.7776 13.4482 22.8678 15.0471C23.7267 16.3068 24.9294 16.2286 24.8325 14.3379C24.7074 11.899 22.7084 9.90736 22.6527 7.40336C22.6423 6.93585 22.3332 5.95581 22.7108 5.57816C23.3389 4.95011 24.1294 6.108 24.4198 6.5082C25.2269 7.62047 25.8415 8.67241 26.3089 9.97839C26.762 11.2445 26.9024 12.6184 27.4889 13.8322C27.8958 14.6744 28.7796 16.1458 29.6629 16.5875C30.0788 16.7954 30.1656 15.7331 30.186 15.5877C30.3738 14.2494 29.8384 13.2261 29.2908 12.0419C28.6121 10.5739 27.4398 8.35876 27.8377 6.65352C28.1032 5.51533 28.5673 5.45904 29.4071 6.26988C30.809 7.62348 31.4796 10.6065 32.1681 12.4139C32.4925 13.2653 32.7573 14.1946 33.6388 14.6228C34.6083 15.0937 34.9285 13.6239 34.8711 12.9603C34.7044 11.0341 33.2543 9.30837 32.4065 7.61262C31.9873 6.77427 31.0387 5.71569 31.6973 4.76438C31.7592 4.67493 36.7251 4.96051 33.2028 6.5082C29.8227 7.99339 25.8273 8.67719 22.2284 9.44362C20.2989 9.85454 18.4531 10.3487 16.5959 11.0189C15.0867 11.5634 13.6044 11.5475 12.0445 11.7571C10.2301 12.0008 8.72716 12.9537 6.96999 13.3091C6.03024 13.4991 4.98744 13.6019 4.13338 14.0764C3.87011 14.2226 3.18459 14.939 3.19172 15.2738C3.25948 18.4587 8.59621 16.5169 10.2484 16.0411C14.7708 14.7386 19.4529 13.7527 23.8734 12.1059C25.7842 11.394 27.5102 10.2176 29.4943 9.71101C30.5088 9.45198 36.2279 9.04362 34.1968 11.635C32.4537 13.8589 29.0361 13.708 26.5007 14.2275C22.8394 14.9776 19.4526 15.3331 15.9216 16.6572C14.6096 17.1492 13.3557 17.5921 12.0794 18.1685C11.0923 18.6143 10.0932 18.4196 9.05094 18.5173C8.81136 18.5397 5.10889 18.9299 6.03995 19.831C8.30927 22.0271 12.6433 19.5978 14.9334 18.7963C16.61 18.2095 18.394 18.0377 20.0951 17.5407C21.785 17.0471 23.4241 16.395 25.1057 15.8783C27.75 15.0658 30.3478 13.7488 33.011 13.0766C33.5326 12.9449 34.2443 12.771 34.7839 12.7918C34.9162 12.7968 35.1614 12.7395 34.8304 12.7569C33.6723 12.8178 32.482 13.0929 31.3369 13.2626" stroke="#00ADB5" stroke-opacity="0.2" stroke-width="1.28667" stroke-linecap="round" stroke-linejoin="round"/>
</svg>
