<svg width="54" height="105" viewBox="0 0 54 105" fill="none" xmlns="http://www.w3.org/2000/svg">
<path fill-rule="evenodd" clip-rule="evenodd" d="M19.9353 0.664752C19.6055 0.579342 19.2735 0.821855 19.2741 1.16252L19.4329 92.3391H1.18793C0.910577 92.3391 0.685737 92.564 0.685737 92.8413L0.685736 103.941C0.685736 104.218 0.910576 104.443 1.18793 104.443H53.0941C53.3714 104.443 53.5963 104.218 53.5963 103.941V92.8413C53.5963 92.564 53.3714 92.3391 53.0941 92.3391H33.2786V0.687709C33.2786 0.388614 33.0186 0.155788 32.7214 0.189763C31.727 0.303455 30.7934 0.421043 29.9103 0.532268C25.8481 1.04388 22.8548 1.42087 19.9353 0.664752Z" fill="#00ADB5"/>
<path d="M19.2741 1.16252L18.5747 1.16374V1.16374L19.2741 1.16252ZM19.9353 0.664752L20.1106 -0.012343V-0.012343L19.9353 0.664752ZM19.4329 92.3391V93.0386H20.1336L20.1324 92.3379L19.4329 92.3391ZM0.685737 92.8413H1.38517H0.685737ZM0.685736 103.941H-0.013698H0.685736ZM33.2786 92.3391H32.5792V93.0386H33.2786V92.3391ZM32.7214 0.189763L32.642 -0.505144V-0.505144L32.7214 0.189763ZM29.9103 0.532268L29.8229 -0.161684L29.9103 0.532268ZM19.9735 1.1613C19.9736 1.22974 19.9376 1.28572 19.8988 1.31465C19.8619 1.34213 19.8108 1.35501 19.7599 1.34185L20.1106 -0.012343C19.3658 -0.205242 18.5732 0.336279 18.5747 1.16374L19.9735 1.1613ZM20.1324 92.3379L19.9735 1.1613L18.5747 1.16374L18.7335 92.3403L20.1324 92.3379ZM1.18793 93.0386H19.4329V91.6397H1.18793V93.0386ZM1.38517 92.8413C1.38517 92.9502 1.29686 93.0386 1.18793 93.0386V91.6397C0.524295 91.6397 -0.0136975 92.1777 -0.0136975 92.8413H1.38517ZM1.38517 103.941L1.38517 92.8413H-0.0136975L-0.013698 103.941H1.38517ZM1.18793 103.743C1.29686 103.743 1.38517 103.832 1.38517 103.941H-0.013698C-0.013698 104.604 0.524295 105.142 1.18793 105.142V103.743ZM53.0941 103.743H1.18793V105.142H53.0941V103.743ZM52.8968 103.941C52.8968 103.832 52.9851 103.743 53.0941 103.743V105.142C53.7577 105.142 54.2957 104.604 54.2957 103.941H52.8968ZM52.8968 92.8413V103.941H54.2957V92.8413H52.8968ZM53.0941 93.0386C52.9851 93.0386 52.8968 92.9502 52.8968 92.8413H54.2957C54.2957 92.1777 53.7577 91.6397 53.0941 91.6397V93.0386ZM33.2786 93.0386H53.0941V91.6397H33.2786V93.0386ZM32.5792 0.687709V92.3391H33.9781V0.687709H32.5792ZM32.8009 0.884671C32.6814 0.898326 32.5792 0.804821 32.5792 0.687709H33.9781C33.9781 -0.0275935 33.3557 -0.58675 32.642 -0.505144L32.8009 0.884671ZM29.9977 1.22622C30.8812 1.11494 31.811 0.997841 32.8009 0.88467L32.642 -0.505144C31.643 -0.390931 30.7056 -0.272856 29.8229 -0.161684L29.9977 1.22622ZM19.7599 1.34185C22.8344 2.1381 25.971 1.73336 29.9977 1.22622L29.8229 -0.161684C25.7251 0.354407 22.8752 0.703645 20.1106 -0.012343L19.7599 1.34185Z" fill="black"/>
</svg>
