<svg width="49" height="37" viewBox="0 0 49 37" fill="none" xmlns="http://www.w3.org/2000/svg">
<path d="M4.46154 33.3333C5.15352 32.4537 6.47871 30.8261 4.62131 30.5383C4.20116 30.4732 3.80871 30.2263 3.39643 30.4131C2.12654 30.9886 0.946655 32.2558 0.946655 33.7624C0.946655 36.1687 3.58582 36.6898 5.50299 36.6587C8.73758 36.6061 9.72167 33.4546 10.8641 30.9018C12.0181 28.3231 13.2999 25.7862 14.4973 23.226C15.8522 20.329 18.0742 18.0213 19.4797 15.1508C20.0824 13.92 20.8694 12.8361 21.6454 11.7122C22.8492 9.96889 23.7076 8.21014 24.5686 6.27715C25.275 4.69125 26.0583 3.24303 26.9237 1.74198C27.2737 1.13496 27.1422 0.205058 27.8113 0.85401C28.3193 1.34673 29.1276 1.6704 29.8113 1.79561C32.8007 2.343 35.5497 2.92239 38.6282 2.67762C41.7417 2.43006 44.8535 1.98396 47.9183 1.39036C48.9603 1.18857 48.5162 1.43151 48.0249 2.06379C47.1915 3.13623 46.48 4.27276 45.6816 5.35939C44.6404 6.77646 44.2739 8.48308 43.6579 10.1032C42.9807 11.884 42.1747 13.5851 41.5276 15.3952C40.2772 18.8934 38.4531 22.0837 36.1961 25.0198C34.8881 26.7213 33.2724 29.6932 30.8232 29.5728C27.033 29.3866 29.5924 21.9256 31.4031 20.4667C32.3779 19.6814 33.444 20.5269 33.5629 21.5811C33.7264 23.0297 33.2295 25.0149 31.8232 25.723C30.3396 26.4701 29.2022 26.3805 30.3439 24.4536C31.0347 23.2878 31.4455 24.5709 31.7286 24.0007" stroke="#00ADB5" stroke-opacity="0.2" stroke-width="1.28667" stroke-linecap="round" stroke-linejoin="round"/>
</svg>
