<svg width="18" height="20" viewBox="0 0 18 20" fill="none" xmlns="http://www.w3.org/2000/svg">
<path d="M4.13065 17.3124C4.22555 15.8544 4.14491 15.1993 2.73783 14.7028C2.21159 14.5171 1.42477 14.6154 1.02951 15.0127C0.223305 15.8229 0.480757 16.7502 0.806349 17.7156C1.73377 20.4652 6.28366 20.5362 7.64733 17.9844C8.3101 16.7441 8.64957 15.2083 9.1171 13.8852C9.69722 12.2434 10.6412 10.7243 11.1948 9.06925C11.7659 7.36185 12.1663 5.61627 12.7877 3.92477C13.0718 3.15135 13.3103 1.48331 13.9727 0.911999C15.4249 -0.340457 16.7059 1.87367 16.8007 3.06984C16.8923 4.22515 17.2201 5.48366 17.2201 6.59781C17.2201 7.01853 17.0456 7.42869 16.8738 7.80366C16.7333 8.11042 16.1021 7.9618 16.0466 7.66553C15.8843 6.79944 17.0378 5.49747 15.2809 5.68688" stroke="#00ADB5" stroke-opacity="0.2" stroke-width="1.28667" stroke-linecap="round" stroke-linejoin="round"/>
</svg>
