<svg width="63" height="48" viewBox="0 0 63 48" fill="none" xmlns="http://www.w3.org/2000/svg">
<path d="M5.39713 42.8895C6.29168 41.7524 8.00482 39.6483 5.60367 39.2762C5.06052 39.1921 4.55318 38.8729 4.0202 39.1144C2.37856 39.8585 0.853271 41.4966 0.853271 43.4442C0.853271 46.555 4.26504 47.2286 6.74346 47.1884C10.925 47.1204 12.1971 43.0463 13.674 39.7462C15.1658 36.4126 16.8229 33.133 18.3708 29.8233C20.1223 26.0783 22.9948 23.0949 24.8118 19.3842C25.5909 17.793 26.6084 16.3918 27.6116 14.9389C29.1677 12.6852 30.2774 10.4116 31.3905 7.91277C32.3036 5.8626 33.3162 3.99042 34.435 2.04993C34.8874 1.26522 34.7174 0.0630897 35.5824 0.90202C36.2392 1.53899 37.2841 1.95741 38.168 2.11927C42.0324 2.82691 45.5862 3.57591 49.5659 3.25948C53.5909 2.93945 57.6137 2.36276 61.5758 1.59539C62.9227 1.33452 62.3486 1.64858 61.7134 2.46596C60.6361 3.85235 59.7164 5.32159 58.6842 6.72633C57.3382 8.55824 56.8645 10.7645 56.068 12.8588C55.1926 15.161 54.1506 17.3601 53.3142 19.7001C51.6977 24.2224 49.3396 28.3466 46.4219 32.1422C44.731 34.3419 42.6423 38.1837 39.4761 38.0282C34.5763 37.7875 37.8849 28.1423 40.2257 26.2563C41.4859 25.241 42.8641 26.334 43.0178 27.6969C43.2291 29.5696 42.5867 32.1359 40.7689 33.0513C38.8509 34.0171 37.3805 33.9012 38.8565 31.4103C39.7495 29.9032 40.2805 31.5619 40.6465 30.8248" stroke="#00ADB5" stroke-opacity="0.5" stroke-width="1.66333" stroke-linecap="round" stroke-linejoin="round"/>
</svg>
