<svg width="29" height="34" viewBox="0 0 29 34" fill="none" xmlns="http://www.w3.org/2000/svg">
<path d="M6.64202 29.4653C6.80262 26.9382 6.66616 25.8026 4.28494 24.9421C3.39439 24.6202 2.06284 24.7907 1.39394 25.4792C0.0295961 26.8835 0.465284 28.491 1.01629 30.1642C2.58577 34.9302 10.2856 35.0533 12.5933 30.6301C13.7149 28.4804 14.2894 25.8184 15.0806 23.5249C16.0624 20.6792 17.6599 18.046 18.5967 15.1773C19.5632 12.2178 20.2408 9.19212 21.2924 6.26017C21.7732 4.91959 22.1769 2.02831 23.2978 1.03804C25.7553 -1.13288 27.9232 2.70493 28.0836 4.77831C28.2386 6.78083 28.7934 8.96225 28.7934 10.8934C28.7934 11.6227 28.498 12.3336 28.2073 12.9836C27.9696 13.5153 26.9014 13.2577 26.8074 12.7442C26.5328 11.2429 28.4848 8.9862 25.5117 9.31451" stroke="#00ADB5" stroke-opacity="0.2" stroke-width="1.28667" stroke-linecap="round" stroke-linejoin="round"/>
</svg>
