<svg width="38" height="44" viewBox="0 0 38 44" fill="none" xmlns="http://www.w3.org/2000/svg">
<path d="M8.42053 38.0395C8.62815 34.7726 8.45173 33.3046 5.37343 32.1921C4.22217 31.7761 2.50082 31.9964 1.6361 32.8864C-0.127655 34.7019 0.435579 36.78 1.14788 38.943C3.17682 45.1042 13.1307 45.2633 16.1141 39.5453C17.564 36.7662 18.3067 33.3249 19.3295 30.3601C20.5987 26.6812 22.6638 23.2772 23.8749 19.5687C25.1244 15.7428 26.0003 11.8314 27.3597 8.04115C27.9813 6.30812 28.5031 2.57043 29.9523 1.29026C33.1292 -1.51619 35.9316 3.44512 36.1391 6.12547C36.3395 8.71423 37.0566 11.5342 37.0566 14.0308C37.0566 14.9735 36.6748 15.8926 36.299 16.7328C35.9916 17.4202 34.6107 17.0872 34.4893 16.4233C34.1342 14.4826 36.6577 11.5652 32.8142 11.9896" stroke="#00ADB5" stroke-opacity="0.5" stroke-width="1.66333" stroke-linecap="round" stroke-linejoin="round"/>
</svg>
