<svg width="48" height="37" viewBox="0 0 48 37" fill="none" xmlns="http://www.w3.org/2000/svg">
<path d="M3.86157 32.8201C4.55355 31.9405 5.87873 30.3129 4.02134 30.0251C3.60118 29.96 3.20873 29.7131 2.79645 29.8999C1.52657 30.4755 0.34668 31.7426 0.34668 33.2492C0.34668 35.6556 2.98584 36.1766 4.90302 36.1455C8.13761 36.093 9.12169 32.9414 10.2641 30.3886C11.4181 27.8099 12.7 25.273 13.8973 22.7128C15.2522 19.8158 17.4742 17.5081 18.8797 14.6377C19.4824 13.4068 20.2694 12.3229 21.0455 11.199C22.2493 9.4557 23.1076 7.69696 23.9686 5.76397C24.675 4.17807 25.4583 2.72985 26.3237 1.22879C26.6737 0.621779 26.5422 -0.308126 27.2113 0.340826C27.7194 0.833551 28.5276 1.15722 29.2114 1.28243C32.2007 1.82982 34.9497 2.4092 38.0282 2.16443C41.1417 1.91688 44.2535 1.47077 47.3184 0.877181C48.3603 0.675382 47.9162 0.918324 47.4249 1.5506C46.5915 2.62304 45.88 3.75957 45.0816 4.84621C44.0404 6.26328 43.674 7.96989 43.0579 9.58997C42.3807 11.3708 41.5747 13.0719 40.9277 14.882C39.6772 18.3802 37.8532 21.5705 35.5962 24.5066C34.2881 26.2082 32.6725 29.18 30.2232 29.0597C26.433 28.8734 28.9924 21.4125 30.8031 19.9535C31.7779 19.1682 32.844 20.0137 32.963 21.068C33.1264 22.5166 32.6295 24.5017 31.2233 25.2098C29.7396 25.9569 28.6022 25.8673 29.7439 23.9404C30.4347 22.7746 30.8455 24.0577 31.1286 23.4875" stroke="#00ADB5" stroke-opacity="0.2" stroke-width="1.28667" stroke-linecap="round" stroke-linejoin="round"/>
</svg>
