<svg width="8" height="11" viewBox="0 0 8 11" fill="none" xmlns="http://www.w3.org/2000/svg">
<path d="M5.05813 0.694824C5.02999 0.857821 3.00193 9.45833 4.63677 9.35615C5.87567 9.27872 6.92422 6.59392 7.21176 5.70435C8.3215 2.27108 4.23835 3.48108 2.95132 5.09572C2.63517 5.49234 -0.467337 10.1574 0.189057 10.5266C1.08937 11.033 4.03987 6.66936 4.35586 6.00867C5.89846 2.78323 -0.83453 12.2268 2.34268 10.7139C4.41394 9.72756 6.54563 6.6025 7.23517 4.5339C7.81673 2.7892 5.09895 7.64802 4.7304 9.44979C4.02222 12.912 9.54687 2.58991 6.88403 5.18935C5.38992 6.64788 4.99001 8.35173 4.2154 10.1989C3.3687 12.2179 7.53948 6.7233 7.53948 4.5339C7.53948 2.4092 2.35077 11.2125 3.81745 7.17912C4.42638 5.50456 7.03856 0.842696 6.43926 2.52073C5.80656 4.29228 5.04913 6.19053 4.2154 7.85798" stroke="#00ADB5" stroke-opacity="0.5" stroke-width="1.66333" stroke-linecap="round" stroke-linejoin="round"/>
</svg>
