<svg width="7" height="13" viewBox="0 0 7 13" fill="none" xmlns="http://www.w3.org/2000/svg">
<path d="M6.28384 0.829712C4.73786 2.53029 -3.70164 9.96231 2.07022 12.3235C3.45451 12.8898 5.27472 11.0261 5.86248 9.9124C7.09802 7.57138 7.27583 2.81822 3.33431 3.38129C0.625384 3.76828 0.418787 10.844 2.81931 10.7551C6.8846 10.6046 5.55479 1.99019 3.5684 6.14355C-0.038016 13.6842 6.38752 9.80391 4.0834 7.24378C2.94021 5.97357 0.938747 15.7914 4.80908 11.1063C8.68766 6.41114 1.39157 6.191 3.00658 11.036C4.28098 14.8592 5.99032 3.35578 3.14704 10.0763C0.678343 15.9114 5.34748 8.83985 3.94294 9.35059C1.27272 10.3216 0.576968 15.391 3.14704 10.0997C4.79506 6.70669 -0.967967 11.7383 0.618864 11.7383C2.12126 11.7383 4.89348 6.61875 1.97659 8.83559C-0.989684 11.09 3.80198 7.67914 4.15362 6.09674C4.34443 5.23812 1.48198 9.33958 3.33431 6.21378C4.30017 4.58389 3.11427 6.08789 2.70227 6.72878C1.7204 8.25612 2.8527 5.69993 3.10022 5.53492C3.57895 5.21577 2.5235 6.57566 2.49158 7.15014C2.40337 8.73805 2.8438 6.30093 2.91295 5.88606" stroke="#00ADB5" stroke-opacity="0.5" stroke-width="1.66333" stroke-linecap="round" stroke-linejoin="round"/>
</svg>
