<svg width="29" height="35" viewBox="0 0 29 35" fill="none" xmlns="http://www.w3.org/2000/svg">
<path d="M6.59533 30.0586C6.75593 27.5315 6.61946 26.3959 4.23825 25.5353C3.3477 25.2135 2.01615 25.3839 1.34725 26.0724C-0.0170958 27.4768 0.418592 29.0843 0.969595 30.7575C2.53907 35.5235 10.2389 35.6465 12.5466 31.2234C13.6682 29.0736 14.2427 26.4116 15.0339 24.1182C16.0157 21.2724 17.6132 18.6392 18.55 15.7705C19.5165 12.811 20.1941 9.78538 21.2457 6.85344C21.7265 5.51285 22.1302 2.62158 23.2512 1.6313C25.7086 -0.539622 27.8765 3.29819 28.0369 5.37157C28.1919 7.37409 28.7467 9.55551 28.7467 11.4867C28.7467 12.216 28.4513 12.9269 28.1607 13.5769C27.9229 14.1086 26.8547 13.851 26.7607 13.3374C26.4861 11.8362 28.4381 9.57946 25.465 9.90777" stroke="#00ADB5" stroke-opacity="0.2" stroke-width="1.28667" stroke-linecap="round" stroke-linejoin="round"/>
</svg>
