<svg width="7" height="9" viewBox="0 0 7 9" fill="none" xmlns="http://www.w3.org/2000/svg">
<path d="M4.79857 0.918213C4.77681 1.0443 3.20801 7.6972 4.47263 7.61816C5.43098 7.55826 6.24208 5.48144 6.46451 4.79332C7.32294 2.13752 4.16444 3.07351 3.16886 4.32251C2.9243 4.62932 0.524365 8.23795 1.03212 8.52356C1.72855 8.9153 4.0109 5.5398 4.25533 5.02872C5.44861 2.53369 0.240324 9.83877 2.69805 8.66842C4.30026 7.90546 5.94923 5.48807 6.48261 3.88792C6.93248 2.53831 4.83015 6.29684 4.54506 7.69059C3.99725 10.3688 8.27083 2.38415 6.21099 4.39494C5.05523 5.52319 4.74588 6.84119 4.14669 8.27005C3.49172 9.83188 6.71802 5.58153 6.71802 3.88792C6.71802 2.24437 2.7043 9.05413 3.83885 5.93412C4.30989 4.63877 6.33053 1.0326 5.86694 2.33063C5.37752 3.70102 4.79161 5.1694 4.14669 6.45925" stroke="#00ADB5" stroke-opacity="0.2" stroke-width="1.28667" stroke-linecap="round" stroke-linejoin="round"/>
</svg>
