<svg width="26" height="24" viewBox="0 0 26 24" fill="none" xmlns="http://www.w3.org/2000/svg">
<path d="M9.24507 10.831C10.2315 8.01025 10.9723 4.90763 12.1786 2.19348C12.285 1.95406 12.9331 0.545654 13.1564 0.545654C14.1232 0.545654 13.9692 6.68416 14.2067 7.75262C15.1087 11.8119 14.4122 10.8273 17.3937 8.29586C18.8683 7.04377 28.6596 2.70015 24.8903 6.73858C22.5739 9.22049 19.4177 11.7221 16.2891 13.1126C15.7931 13.333 17.3815 13.9032 17.6472 14.2353C18.5654 15.3831 19.3293 16.6329 20.1642 17.8388C22.3432 20.9862 18.2309 18.843 16.7237 18.1647C15.2572 17.5048 13.3916 17.1435 12.1786 16.0461C11.97 15.8574 11.2007 14.7184 11.2007 15.0682C11.2007 19.5587 10.5372 20.4562 7.28941 23.2168C5.01779 25.1477 5.78261 18.2708 5.91321 17.6034C6.17972 16.2412 6.66282 15.0626 7.12644 13.7645C7.31256 13.2433 8.41796 12.211 7.86887 12.2796C4.93523 12.6463 8.04686 15.983 3.68593 13.2574C-1.57086 9.97195 0.254139 3.89343 5.94942 8.36829C7.58858 9.6562 7.35806 11.5723 9.38993 12.1529C11.8434 12.8538 9.75512 10.8732 8.91913 9.20126" stroke="#00ADB5" stroke-opacity="0.2" stroke-width="1.28667" stroke-linecap="round" stroke-linejoin="round"/>
</svg>
