<svg width="9" height="9" viewBox="0 0 9 9" fill="none" xmlns="http://www.w3.org/2000/svg">
<path d="M4.70179 2.5259C1.67324 16.4572 12.3171 3.39878 7.09204 0.841859C3.38594 -0.971766 -2.67269 5.23809 2.43829 7.34262C6.42979 8.98617 6.04451 1.00312 2.42019 3.26833C-0.686351 5.20991 1.50454 11.2443 3.95936 5.96641C5.76052 2.09393 1.13007 4.4787 2.31154 7.01667C4.4828 11.6809 8.16359 -0.46509 4.0499 3.64859C-0.295934 7.99443 10.3853 6.84322 8.46825 2.67076C6.94124 -0.652719 2.1113 10.0522 6.15043 7.12532C10.4005 4.04557 7.63062 -0.345272 4.62936 4.3367C0.748426 10.3909 13.1765 4.80838 7.25501 2.92427C1.69329 1.15464 2.89923 11.0284 6.00556 7.92207C10.6369 3.29075 3.99618 0.320644 3.47045 4.78939C3.028 8.55024 7.92609 4.72152 4.84665 3.06914C3.57837 2.3886 1.50074 5.75611 2.05803 5.62236C2.80359 5.44342 5.20221 2.38474 4.88287 2.34482C4.34541 2.27764 3.41765 3.36808 2.94532 3.63048C2.83568 3.6914 3.48578 3.13098 4.23098 3.25022C6.39574 3.59658 4.63118 4.87134 3.07207 4.48156" stroke="#00ADB5" stroke-opacity="0.2" stroke-width="1.28667" stroke-linecap="round" stroke-linejoin="round"/>
</svg>
