<svg width="6" height="10" viewBox="0 0 6 10" fill="none" xmlns="http://www.w3.org/2000/svg">
<path d="M2.05486 0.783987C-0.610585 20.4114 8.45662 1.52725 2.1485 1.81398C0.393664 1.89375 -0.372731 6.16806 1.28236 6.16806C3.3755 6.16806 4.50055 3.12267 4.06804 1.39262C3.48091 -0.955889 1.16687 3.81184 1.07168 4.34215C0.228397 9.04047 4.02399 4.40272 4.86394 2.8908C6.43419 0.0643562 3.14877 2.67718 2.52304 3.54625C2.05809 4.19201 1.42784 8.05917 2.92099 6.56601C3.45346 6.03355 5.08411 1.39884 3.9744 2.00125C2.38151 2.86597 0.361602 6.62782 1.891 8.27487C4.63841 11.2336 8.14237 -2.91505 2.12509 5.20829C1.43093 6.14541 0.40538 9.71723 2.80395 9.11759C3.76564 8.87717 6.68327 4.78541 5.16826 4.43579C1.62409 3.6179 1.19118 11.9489 2.05486 3.31216" stroke="#00ADB5" stroke-opacity="0.5" stroke-width="1.66333" stroke-linecap="round" stroke-linejoin="round"/>
</svg>
