<svg width="29" height="35" viewBox="0 0 29 35" fill="none" xmlns="http://www.w3.org/2000/svg">
<path d="M6.6087 30.0054C6.7693 27.4783 6.63283 26.3427 4.25162 25.4821C3.36106 25.1603 2.02952 25.3307 1.36061 26.0192C-0.00372908 27.4236 0.431959 29.031 0.982961 30.7043C2.55244 35.4703 10.2523 35.5933 12.56 31.1702C13.6816 29.0204 14.2561 26.3584 15.0473 24.065C16.0291 21.2192 17.6265 18.586 18.5634 15.7173C19.5299 12.7578 20.2075 9.73216 21.2591 6.80021C21.7399 5.45963 22.1435 2.56835 23.2645 1.57808C25.722 -0.592844 27.8898 3.24497 28.0503 5.31834C28.2053 7.32087 28.76 9.50228 28.76 11.4335C28.76 12.1627 28.4647 12.8737 28.174 13.5236C27.9362 14.0554 26.868 13.7977 26.7741 13.2842C26.4995 11.783 28.4515 9.52624 25.4784 9.85455" stroke="#00ADB5" stroke-opacity="0.2" stroke-width="1.28667" stroke-linecap="round" stroke-linejoin="round"/>
</svg>
