<svg width="15" height="20" viewBox="0 0 15 20" fill="none" xmlns="http://www.w3.org/2000/svg">
<path d="M0.282959 3.00644C1.46659 2.41871 7.603 -2.01441 5.96886 1.72078C5.44014 2.92928 4.52705 4.2683 3.61482 5.21561C2.12508 6.76265 0.817159 13.3337 3.7959 10.5756C4.95089 9.50614 7.78818 3.11745 9.73532 4.9621C12.5023 7.58349 9.38255 8.70724 7.61668 9.68828C5.05897 11.1092 5.54874 15.6624 8.75749 13.5996C9.95004 12.833 12.529 9.33889 13.8096 11.6439C15.1584 14.0718 10.4262 15.5773 10.7313 18.0179C10.9636 19.877 12.6919 18.9598 13.6466 18.3982C14.2503 18.0431 13.4493 16.5903 13.9726 15.7182" stroke="#00ADB5" stroke-opacity="0.2" stroke-width="1.28667" stroke-linecap="round" stroke-linejoin="round"/>
</svg>
