<svg width="29" height="35" viewBox="0 0 29 35" fill="none" xmlns="http://www.w3.org/2000/svg">
<path d="M6.59527 30.0586C6.75587 27.5315 6.6194 26.3959 4.23819 25.5353C3.34763 25.2135 2.01609 25.3839 1.34719 26.0724C-0.0171568 27.4768 0.418531 29.0843 0.969533 30.7575C2.53901 35.5235 10.2388 35.6465 12.5466 31.2234C13.6682 29.0736 14.2427 26.4116 15.0339 24.1182C16.0156 21.2724 17.6131 18.6392 18.55 15.7705C19.5165 12.811 20.1941 9.78538 21.2456 6.85344C21.7264 5.51285 22.1301 2.62158 23.2511 1.6313C25.7086 -0.539622 27.8764 3.29819 28.0369 5.37157C28.1919 7.37409 28.7466 9.55551 28.7466 11.4867C28.7466 12.216 28.4513 12.9269 28.1606 13.5769C27.9228 14.1086 26.8546 13.851 26.7607 13.3374C26.486 11.8362 28.4381 9.57946 25.4649 9.90777" stroke="#00ADB5" stroke-opacity="0.2" stroke-width="1.28667" stroke-linecap="round" stroke-linejoin="round"/>
</svg>
