<svg width="20" height="28" viewBox="0 0 20 28" fill="none" xmlns="http://www.w3.org/2000/svg">
<path d="M14.7042 11.0501C14.3788 11.532 6.21224 24.7674 9.83512 20.1094C10.8987 18.7419 13.4947 14.4939 10.4672 18.026C4.96285 24.4477 17.4961 11.4996 8.24331 19.4305C6.5113 20.9151 9.59941 17.47 9.97557 16.9492C10.876 15.7024 5.83419 21.1488 4.96605 22.0523C2.80983 24.2966 9.46035 17.7453 11.661 15.5446C13.4571 13.7485 8.42019 18.2523 7.72831 19.2901C5.87803 22.0655 19.783 12.4633 11.9185 18.026C11.1944 18.5382 5.75172 23.0336 7.82195 20.2733C9.2391 18.3837 14.408 13.5 12.7378 15.1701C11.0133 16.8946 6.10225 22.0745 10.9119 18.9624C12.0017 18.2572 1.68687 9.03227 0.892882 7.77285C0.372802 6.94789 -0.381668 5.41221 0.846064 7.1174C3.10332 10.2525 5.68454 13.1103 8.17308 16.0596C10.3366 18.6238 12.4593 21.6615 13.8615 17.9558C14.9249 15.1452 16.1921 12.5107 17.6537 9.87966C17.8076 9.60277 19.5898 5.26182 19.2455 5.33831C18.4631 5.5122 16.382 12.019 15.8746 12.8292C14.2979 15.3468 12.6974 18.5346 10.5842 20.6478C10.2379 20.9942 10.4906 17.1035 10.4906 16.2703C10.4906 13.1613 10.2585 10.1548 10.0458 7.07058C9.98333 6.16476 9.22649 -1.81471 9.22649 1.61628C9.22649 8.42096 8.27992 14.7478 9.13285 21.6778C9.18385 22.0922 8.89729 27.296 9.22649 27.296C9.76502 27.296 10.9119 23.1414 10.9119 22.4269" stroke="#00ADB5" stroke-opacity="0.5" stroke-width="1.66333" stroke-linecap="round" stroke-linejoin="round"/>
</svg>
