<svg width="22" height="26" viewBox="0 0 22 26" fill="none" xmlns="http://www.w3.org/2000/svg">
<path d="M4.80896 21.7922C4.93164 19.9075 4.8274 19.0605 3.0084 18.4187C2.32811 18.1787 1.31095 18.3058 0.799974 18.8193C-0.242242 19.8667 0.0905785 21.0655 0.511487 22.3135C1.7104 25.868 7.59226 25.9598 9.35513 22.6609C10.2119 21.0576 10.6508 19.0722 11.2552 17.3618C12.0051 15.2394 13.2254 13.2755 13.9411 11.136C14.6794 8.92874 15.197 6.67215 16.0003 4.48546C16.3676 3.48563 16.676 1.32927 17.5323 0.590713C19.4095 -1.0284 21.0655 1.8339 21.1881 3.38026C21.3065 4.87377 21.7303 6.5007 21.7303 7.94102C21.7303 8.48491 21.5047 9.01514 21.2826 9.49988C21.101 9.89645 20.285 9.70431 20.2132 9.32131C20.0034 8.20168 21.4946 6.51857 19.2234 6.76343" stroke="#00ADB5" stroke-opacity="0.5" stroke-width="1.66333" stroke-linecap="round" stroke-linejoin="round"/>
</svg>
