<svg width="9" height="9" viewBox="0 0 9 9" fill="none" xmlns="http://www.w3.org/2000/svg">
<path d="M4.70173 2.5259C1.67318 16.4572 12.317 3.39878 7.09198 0.841859C3.38588 -0.971766 -2.67275 5.23809 2.43823 7.34262C6.42973 8.98617 6.04445 1.00312 2.42013 3.26833C-0.686412 5.20991 1.50448 11.2443 3.9593 5.96641C5.76046 2.09393 1.13001 4.4787 2.31148 7.01667C4.48274 11.6809 8.16353 -0.46509 4.04984 3.64859C-0.295995 7.99443 10.3853 6.84322 8.46819 2.67076C6.94118 -0.652719 2.11124 10.0522 6.15037 7.12532C10.4004 4.04557 7.63056 -0.345272 4.6293 4.3367C0.748365 10.3909 13.1764 4.80838 7.25495 2.92427C1.69323 1.15464 2.89917 11.0284 6.0055 7.92207C10.6368 3.29075 3.99612 0.320644 3.47039 4.78939C3.02794 8.55024 7.92603 4.72152 4.84659 3.06914C3.57831 2.3886 1.50068 5.75611 2.05797 5.62236C2.80353 5.44342 5.20215 2.38474 4.88281 2.34482C4.34534 2.27764 3.41759 3.36808 2.94526 3.63048C2.83562 3.6914 3.48572 3.13098 4.23092 3.25022C6.39568 3.59658 4.63112 4.87134 3.07201 4.48156" stroke="#00ADB5" stroke-opacity="0.2" stroke-width="1.28667" stroke-linecap="round" stroke-linejoin="round"/>
</svg>
