<svg width="5" height="8" viewBox="0 0 5 8" fill="none" xmlns="http://www.w3.org/2000/svg">
<path d="M1.6234 0.969065C-0.438447 16.1518 6.57546 1.54401 1.69583 1.76582C0.338387 1.82752 -0.254456 5.1339 1.02584 5.1339C2.64497 5.1339 3.51525 2.77815 3.18069 1.43987C2.72651 -0.376811 0.936497 3.31125 0.862867 3.72148C0.210545 7.35584 3.14661 3.76832 3.79636 2.59878C5.01101 0.412396 2.46959 2.43354 1.98556 3.1058C1.6259 3.60533 1.13837 6.59676 2.2934 5.44173C2.70528 5.02985 3.96667 1.44468 3.10825 1.91068C1.87608 2.57957 0.313585 5.48955 1.49665 6.76361C3.6219 9.05235 6.33238 -1.89231 1.67772 4.39147C1.14076 5.11638 0.34745 7.87935 2.20286 7.4155C2.94677 7.22952 5.20369 4.06435 4.03176 3.79391C1.29018 3.16123 0.955305 9.60568 1.6234 2.92472" stroke="#00ADB5" stroke-opacity="0.2" stroke-width="1.28667" stroke-linecap="round" stroke-linejoin="round"/>
</svg>
