<svg width="7" height="9" viewBox="0 0 7 9" fill="none" xmlns="http://www.w3.org/2000/svg">
<path d="M4.79851 0.918213C4.77675 1.0443 3.20795 7.6972 4.47257 7.61816C5.43092 7.55826 6.24202 5.48144 6.46444 4.79332C7.32288 2.13752 4.16437 3.07351 3.1688 4.32251C2.92424 4.62932 0.524304 8.23795 1.03206 8.52356C1.72849 8.9153 4.01084 5.5398 4.25527 5.02872C5.44855 2.53369 0.240263 9.83877 2.69799 8.66842C4.3002 7.90546 5.94917 5.48807 6.48255 3.88792C6.93242 2.53831 4.83009 6.29684 4.545 7.69059C3.99719 10.3688 8.27077 2.38415 6.21093 4.39494C5.05517 5.52319 4.74582 6.84119 4.14663 8.27005C3.49166 9.83188 6.71796 5.58153 6.71796 3.88792C6.71796 2.24437 2.70424 9.05413 3.83879 5.93412C4.30983 4.63877 6.33047 1.0326 5.86688 2.33063C5.37746 3.70102 4.79155 5.1694 4.14663 6.45925" stroke="#00ADB5" stroke-opacity="0.2" stroke-width="1.28667" stroke-linecap="round" stroke-linejoin="round"/>
</svg>
