<svg width="15" height="21" viewBox="0 0 15 21" fill="none" xmlns="http://www.w3.org/2000/svg">
<path d="M11.3162 8.26126C11.0645 8.63404 4.74727 18.8722 7.54974 15.269C8.37247 14.2112 10.3806 10.9252 8.03866 13.6574C3.78081 18.6249 13.4759 8.60892 6.3184 14.7439C4.97861 15.8923 7.36741 13.2274 7.65839 12.8245C8.35491 11.8601 4.45483 16.073 3.78328 16.772C2.11534 18.508 7.25984 13.4403 8.96216 11.738C10.3515 10.3486 6.45522 13.8325 5.92002 14.6353C4.48874 16.7822 15.2449 9.35442 9.16135 13.6574C8.60119 14.0536 4.39104 17.531 5.99246 15.3958C7.08869 13.9341 11.0871 10.1563 9.79513 11.4483C8.46115 12.7822 4.66219 16.7891 8.38271 14.3818C9.22571 13.8363 1.24668 6.70037 0.632498 5.72614C0.230191 5.088 -0.353426 3.90008 0.596282 5.21912C2.34238 7.64425 4.33907 9.85488 6.26408 12.1364C7.93768 14.1199 9.57966 16.4697 10.6643 13.6031C11.487 11.429 12.4671 9.39106 13.5978 7.35586C13.7168 7.14167 15.0954 3.78374 14.8291 3.84292C14.2239 3.97742 12.6141 9.01075 12.2216 9.63746C11.0019 11.585 9.76387 14.0508 8.12919 15.6855C7.86127 15.9534 8.05676 12.9438 8.05676 12.2993C8.05676 9.89434 7.87725 7.5687 7.71271 5.18291C7.66439 4.48221 7.07893 -1.69029 7.07893 0.96375C7.07893 6.22749 6.34672 11.1216 7.0065 16.4823C7.04595 16.8028 6.82428 20.8282 7.07893 20.8282C7.49551 20.8282 8.38271 17.6145 8.38271 17.0617" stroke="#00ADB5" stroke-opacity="0.2" stroke-width="1.28667" stroke-linecap="round" stroke-linejoin="round"/>
</svg>
