<svg width="34" height="31" viewBox="0 0 34 31" fill="none" xmlns="http://www.w3.org/2000/svg">
<path d="M11.729 13.5666C13.0041 9.9201 13.9618 5.9092 15.5212 2.40048C15.6588 2.09097 16.4967 0.270264 16.7853 0.270264C18.0351 0.270264 17.8361 8.2058 18.143 9.58704C19.3092 14.8346 18.4088 13.5618 22.263 10.2893C24.1694 8.67068 36.827 3.05548 31.9544 8.27614C28.9598 11.4846 24.8796 14.7186 20.8351 16.5161C20.194 16.801 22.2473 17.5382 22.5908 17.9675C23.7778 19.4513 24.7654 21.067 25.8446 22.6259C28.6615 26.6947 23.3454 23.924 21.3969 23.0472C19.5012 22.1941 17.0893 21.7271 15.5212 20.3084C15.2516 20.0644 14.2572 18.592 14.2572 19.0443C14.2572 24.8493 13.3994 26.0095 9.20081 29.5783C6.26417 32.0745 7.2529 23.1844 7.42172 22.3215C7.76626 20.5606 8.39078 19.037 8.99013 17.3588C9.23073 16.6851 10.6597 15.3506 9.9499 15.4393C6.15745 15.9134 10.18 20.2269 4.54242 16.7034C-2.25328 12.4561 0.105988 4.59809 7.46854 10.383C9.58755 12.0479 9.28956 14.5249 11.9163 15.2754C15.0879 16.1816 12.3883 13.6212 11.3076 11.4598" stroke="#00ADB5" stroke-opacity="0.5" stroke-width="1.66333" stroke-linecap="round" stroke-linejoin="round"/>
</svg>
