<svg width="183" height="204" viewBox="0 0 183 204" fill="none" xmlns="http://www.w3.org/2000/svg">
<path d="M5.72367 66.274C12.4911 54.0548 18.8881 37.6725 35.6123 42.1538C43.5593 44.2832 49.7344 56.1295 49.2487 63.6615C48.8457 69.9093 50.5811 77.8003 44.1332 81.6902C39.0686 84.7456 32.6683 84.3116 28.6745 79.5815C17.3328 66.1489 38.2904 56.7371 48.6826 58.7922C62.8673 61.5972 79.3042 96.9365 66.9494 108.098C56.3564 117.668 49.3867 102.982 56.7858 94.2718C67.1942 82.0187 76.7683 81.63 88.8718 94.7353C98.3223 104.968 95.4801 123.028 87.8549 132.529C86.2712 134.503 80.3438 148.315 78.9126 146.93C64.7901 133.266 89.81 113.134 103.713 115.996C119.687 119.285 135.813 122.795 146.371 135.439C152.049 142.238 162.529 166.563 160.515 157.936C157.995 147.141 155.576 132.327 160.05 121.575C161.382 118.376 165.386 108.057 162.005 118.073C158.523 128.389 155.216 137.394 153.799 147.637C153.484 149.916 156.446 153.15 157.457 155.083C158.313 156.721 151.649 154.617 150.853 154.534C143.977 153.82 137.693 156.468 131.802 159.759C126.544 162.697 120.526 168.21 116.561 166.25" stroke="#00ADB5" stroke-opacity="0.2" stroke-width="4" stroke-linecap="round" stroke-linejoin="round"/>
</svg>
