<svg width="15" height="20" viewBox="0 0 15 20" fill="none" xmlns="http://www.w3.org/2000/svg">
<path d="M0.282898 3.00644C1.46653 2.41871 7.60294 -2.01441 5.9688 1.72078C5.44008 2.92928 4.52699 4.2683 3.61476 5.21561C2.12502 6.76265 0.817098 13.3337 3.79584 10.5756C4.95083 9.50614 7.78812 3.11745 9.73525 4.9621C12.5023 7.58349 9.38249 8.70724 7.61662 9.68828C5.05891 11.1092 5.54867 15.6624 8.75743 13.5996C9.94998 12.833 12.529 9.33889 13.8095 11.6439C15.1583 14.0718 10.4261 15.5773 10.7312 18.0179C10.9636 19.877 12.6918 18.9598 13.6466 18.3982C14.2502 18.0431 13.4493 16.5903 13.9725 15.7182" stroke="#00ADB5" stroke-opacity="0.2" stroke-width="1.28667" stroke-linecap="round" stroke-linejoin="round"/>
</svg>
