<svg width="62" height="48" viewBox="0 0 62 48" fill="none" xmlns="http://www.w3.org/2000/svg">
<path d="M4.99723 42.8527C5.89178 41.7156 7.60491 39.6115 5.20377 39.2395C4.66062 39.1553 4.15327 38.8362 3.6203 39.0777C1.97866 39.8217 0.453369 41.4598 0.453369 43.4074C0.453369 46.5182 3.86513 47.1919 6.34356 47.1516C10.5251 47.0837 11.7972 43.0096 13.2741 39.7094C14.7659 36.3758 16.423 33.0963 17.9709 29.7865C19.7224 26.0415 22.5949 23.0582 24.4119 19.3475C25.191 17.7563 26.2085 16.355 27.2117 14.9022C28.7678 12.6485 29.8775 10.3749 30.9906 7.87603C31.9037 5.82585 32.9163 3.95368 34.0351 2.01319C34.4875 1.22848 34.3175 0.0263465 35.1825 0.865277C35.8393 1.50224 36.8842 1.92067 37.7681 2.08253C41.6325 2.79016 45.1863 3.53916 49.166 3.22274C53.191 2.90271 57.2138 2.32601 61.1759 1.55865C62.5228 1.29777 61.9487 1.61183 61.3135 2.42921C60.2362 3.8156 59.3165 5.28485 58.2843 6.68959C56.9383 8.5215 56.4646 10.7277 55.6681 12.8221C54.7927 15.1243 53.7507 17.3233 52.9143 19.6633C51.2978 24.1857 48.9397 28.3099 46.022 32.1055C44.3311 34.3052 42.2424 38.147 39.0762 37.9914C34.1764 37.7507 37.485 28.1056 39.8258 26.2195C41.086 25.2042 42.4642 26.2973 42.6179 27.6602C42.8292 29.5329 42.1868 32.0991 40.369 33.0146C38.451 33.9804 36.9806 33.8645 38.4566 31.3736C39.3496 29.8665 39.8806 31.5251 40.2466 30.7881" stroke="#00ADB5" stroke-opacity="0.5" stroke-width="1.66333" stroke-linecap="round" stroke-linejoin="round"/>
</svg>
