<svg width="123" height="236" viewBox="0 0 123 236" fill="none" xmlns="http://www.w3.org/2000/svg">
<path d="M88.7998 2.19806C63.1843 2.91647 67.9044 1.94458 47.1801 21.898C42.4468 26.4551 35.2901 31.9978 33.6682 40.0942C31.2748 52.042 45.9256 88.1888 55.5174 74.8854C61.7163 66.2878 60.5223 51.5204 51.0924 47.6148C35.6279 41.2098 23.1944 60.1468 18.3869 76.5103C13.094 94.5256 17.5391 114.234 30.0132 126.263C35.7118 131.758 44.9039 129.27 39.8618 117.599C29.4911 93.596 17.4966 122.714 19.1206 138.661C22.0456 167.385 46.7168 205.119 69.799 199.135C77.0159 197.264 74.657 193.09 71.6284 190.002C68.5553 186.869 60.8279 175.427 62.9025 179.772C66.5294 187.367 71.1307 190.423 76.2708 194.883C82.9006 200.635 68.68 213.205 64.5604 217.692C62.3978 220.047 59.2555 225.322 58.6706 229.164C57.5155 236.748 65.8538 216.931 67.346 209.482" stroke="#00ADB5" stroke-opacity="0.2" stroke-width="5" stroke-linecap="round" stroke-linejoin="round"/>
</svg>
