<svg width="38" height="44" viewBox="0 0 38 44" fill="none" xmlns="http://www.w3.org/2000/svg">
<path d="M8.70386 37.6494C8.91147 34.3825 8.73506 32.9144 5.65675 31.802C4.50549 31.3859 2.78414 31.6062 1.91942 32.4963C0.15567 34.3118 0.718904 36.3898 1.43121 38.5529C3.46015 44.7141 13.4141 44.8732 16.3974 39.1552C17.8473 36.3761 18.59 32.9348 19.6128 29.9699C20.882 26.2911 22.9471 22.887 24.1582 19.1786C25.4077 15.3527 26.2837 11.4413 27.643 7.65102C28.2646 5.91798 28.7865 2.18029 30.2356 0.900123C33.4125 -1.90633 36.215 3.05499 36.4224 5.73533C36.6228 8.32409 37.3399 11.1441 37.3399 13.6407C37.3399 14.5834 36.9581 15.5025 36.5823 16.3427C36.2749 17.0301 34.8941 16.697 34.7726 16.0332C34.4176 14.0925 36.9411 11.1751 33.0975 11.5995" stroke="#00ADB5" stroke-opacity="0.5" stroke-width="1.66333" stroke-linecap="round" stroke-linejoin="round"/>
</svg>
