<svg width="19" height="25" viewBox="0 0 19 25" fill="none" xmlns="http://www.w3.org/2000/svg">
<path d="M0.583374 3.60419C2.11351 2.8444 10.0463 -2.8865 7.9338 1.94215C7.2503 3.50445 6.06991 5.23546 4.89063 6.46009C2.96477 8.46002 1.27396 16.9547 5.12472 13.3892C6.61783 12.0066 10.2857 3.7477 12.8029 6.13236C16.3799 9.52115 12.3468 10.9739 10.064 12.2421C6.75754 14.079 7.39069 19.9651 11.5388 17.2985C13.0805 16.3074 16.4144 11.7904 18.0699 14.7703C19.8136 17.9089 13.696 19.8551 14.0904 23.0103C14.3908 25.4135 16.625 24.2279 17.8592 23.5018C18.6396 23.0428 17.6042 21.1647 18.2806 20.0373" stroke="#00ADB5" stroke-opacity="0.5" stroke-width="1.66333" stroke-linecap="round" stroke-linejoin="round"/>
</svg>
