<svg width="62" height="47" viewBox="0 0 62 47" fill="none" xmlns="http://www.w3.org/2000/svg">
<path d="M4.54386 42.2728C5.43841 41.1357 7.15154 39.0316 4.7504 38.6595C4.20725 38.5754 3.6999 38.2562 3.16693 38.4977C1.52529 39.2418 0 40.8799 0 42.8275C0 45.9383 3.41177 46.6119 5.89019 46.5717C10.0717 46.5037 11.3439 42.4296 12.8207 39.1295C14.3126 35.7959 15.9697 32.5163 17.5176 29.2066C19.269 25.4616 22.1415 22.4782 23.9585 18.7675C24.7377 17.1763 25.7551 15.7751 26.7583 14.3222C28.3145 12.0685 29.4241 9.79493 30.5372 7.29607C31.4504 5.2459 32.463 3.37372 33.5817 1.43323C34.0341 0.648521 33.8641 -0.55361 34.7292 0.285321C35.3859 0.922289 36.4308 1.34071 37.3147 1.50257C41.1792 2.21021 44.7329 2.95921 48.7126 2.64278C52.7376 2.32275 56.7604 1.74606 60.7225 0.978692C62.0694 0.717816 61.4953 1.03188 60.8602 1.84926C59.7829 3.23565 58.8631 4.70489 57.8309 6.10963C56.4849 7.94154 56.0112 10.1478 55.2148 12.2421C54.3393 14.5443 53.2974 16.7434 52.4609 19.0834C50.8444 23.6057 48.4864 27.7299 45.5686 31.5255C43.8777 33.7252 41.789 37.567 38.6228 37.4115C33.723 37.1708 37.0316 27.5256 39.3725 25.6396C40.6326 24.6243 42.0108 25.7173 42.1646 27.0802C42.3759 28.9529 41.7335 31.5192 39.9156 32.4346C37.9976 33.4004 36.5272 33.2845 38.0032 30.7936C38.8962 29.2865 39.4273 30.9452 39.7932 30.2081" stroke="#00ADB5" stroke-opacity="0.5" stroke-width="1.66333" stroke-linecap="round" stroke-linejoin="round"/>
</svg>
