<svg width="12" height="12" viewBox="0 0 12 12" fill="none" xmlns="http://www.w3.org/2000/svg">
<path d="M5.68171 3.06576C1.76657 21.0754 15.5263 4.19417 8.7717 0.888719C3.98065 -1.45584 -3.85162 6.57193 2.75559 9.29255C7.91558 11.4173 7.41751 1.09719 2.73218 4.02552C-1.28379 6.5355 1.54848 14.3364 4.72194 7.51347C7.05038 2.50732 1.06438 5.59023 2.59172 8.87119C5.39861 14.9008 10.1569 -0.800834 4.83899 4.51711C-0.779075 10.1352 13.0291 8.64695 10.5508 3.25303C8.57675 -1.04339 2.33287 12.7954 7.55443 9.01164C13.0487 5.03031 9.46794 -0.645939 5.58808 5.40666C0.571016 13.2333 16.6373 6.01642 8.98238 3.58075C1.79248 1.29306 3.35146 14.0573 7.36716 10.0416C13.3543 4.05451 4.76954 0.21492 4.0899 5.99188C3.51792 10.8537 9.84992 5.90414 5.86898 3.76803C4.22942 2.88826 1.54357 7.2416 2.264 7.06869C3.22783 6.83738 6.32863 2.88327 5.9158 2.83167C5.221 2.74482 4.02165 4.15448 3.41104 4.4937C3.2693 4.57245 4.10972 3.84798 5.07308 4.00212C7.87156 4.44987 5.59043 6.09781 3.5749 5.59393" stroke="#00ADB5" stroke-opacity="0.5" stroke-width="1.66333" stroke-linecap="round" stroke-linejoin="round"/>
</svg>
