<svg width="38" height="44" viewBox="0 0 38 44" fill="none" xmlns="http://www.w3.org/2000/svg">
<path d="M8.91724 37.7961C9.12485 34.5292 8.94843 33.0612 5.87013 31.9487C4.71887 31.5326 2.99752 31.753 2.1328 32.643C0.369049 34.4585 0.932283 36.5366 1.64459 38.6996C3.67353 44.8608 13.6274 45.0199 16.6108 39.3019C18.0607 36.5228 18.8034 33.0815 19.8262 30.1167C21.0954 26.4378 23.1605 23.0338 24.3716 19.3253C25.6211 15.4994 26.497 11.588 27.8564 7.79774C28.478 6.06471 28.9998 2.32702 30.449 1.04685C33.6259 -1.7596 36.4283 3.20172 36.6358 5.88206C36.8362 8.47082 37.5533 11.2908 37.5533 13.7874C37.5533 14.7301 37.1715 15.6492 36.7957 16.4894C36.4883 17.1768 35.1074 16.8438 34.986 16.1799C34.6309 14.2392 37.1544 11.3218 33.3109 11.7462" stroke="#00ADB5" stroke-opacity="0.5" stroke-width="1.66333" stroke-linecap="round" stroke-linejoin="round"/>
</svg>
