<svg width="6" height="10" viewBox="0 0 6 10" fill="none" xmlns="http://www.w3.org/2000/svg">
<path d="M5.14763 0.651855C3.95174 1.96734 -2.57662 7.71635 1.8882 9.54286C2.959 9.98092 4.36703 8.5392 4.82169 7.67774C5.77743 5.86686 5.91497 2.19006 2.86603 2.62562C0.770545 2.92498 0.610732 8.39841 2.46765 8.32963C5.61234 8.21316 4.58367 1.54954 3.0471 4.76236C0.257373 10.5954 5.22783 7.59382 3.44548 5.61344C2.56117 4.63088 1.01295 12.2254 4.00683 8.60125C7.00709 4.96935 1.36323 4.79906 2.61251 8.54693C3.59832 11.5043 4.92057 2.60589 2.72116 7.8045C0.811511 12.3182 4.42331 6.84807 3.33683 7.24315C1.27129 7.99426 0.733092 11.9157 2.72116 7.82261C3.99598 5.19798 -0.461987 9.09017 0.765501 9.09017C1.92768 9.09017 4.07212 5.12995 1.81576 6.84478C-0.478786 8.58864 3.22779 5.95021 3.4998 4.72615C3.6474 4.06197 1.43317 7.23464 2.86603 4.81669C3.61317 3.55589 2.69581 4.7193 2.37711 5.21506C1.61759 6.39653 2.49348 4.4192 2.68495 4.29156C3.05527 4.04468 2.23883 5.09662 2.21414 5.54101C2.1459 6.76932 2.48659 4.8841 2.54008 4.56318" stroke="#00ADB5" stroke-opacity="0.2" stroke-width="1.28667" stroke-linecap="round" stroke-linejoin="round"/>
</svg>
